<svg xmlns="http://www.w3.org/2000/svg" width="23.5" height="18.108" viewBox="0 0 23.5 18.108">
  <g id="Layer_1" transform="translate(-1 -4.441)">
    <g id="Group_1163" data-name="Group 1163" transform="translate(1 4.441)">
      <g id="Group_1162" data-name="Group 1162">
        <path id="Path_988" data-name="Path 988" d="M2.439,17.394,1.01,8.1a.775.775,0,0,1,1.231-.738L6.695,10.7a1.064,1.064,0,0,0,1.524-.261l3.708-5.562a.99.99,0,0,1,1.647,0l3.708,5.562a1.064,1.064,0,0,0,1.524.261l4.454-3.34A.775.775,0,0,1,24.49,8.1l-1.429,9.292Z" transform="translate(-1 -4.441)" fill="#c4c4c4"/>
        <path id="Path_989" data-name="Path 989" d="M22.384,26.608H3.912a1.075,1.075,0,0,1-1.075-1.075V23.171H23.459v2.362A1.075,1.075,0,0,1,22.384,26.608Z" transform="translate(-1.398 -8.5)" fill="#c4c4c4"/>
      </g>
    </g>
  </g>
</svg>
