<svg xmlns="http://www.w3.org/2000/svg" width="24.76" height="30" viewBox="0 0 24.76 30">
  <g id="copy" transform="translate(-18.347)" opacity="0.5">
    <path id="Path_902" data-name="Path 902" d="M39.787,0h-12.6a3.324,3.324,0,0,0-3.32,3.32v.408h-2.2a3.324,3.324,0,0,0-3.32,3.32V26.68A3.324,3.324,0,0,0,21.667,30h12.6a3.324,3.324,0,0,0,3.32-3.32v-.408h2.2a3.324,3.324,0,0,0,3.32-3.32V3.32A3.324,3.324,0,0,0,39.787,0ZM35.449,26.68a1.18,1.18,0,0,1-1.178,1.179h-12.6a1.18,1.18,0,0,1-1.179-1.179V7.048a1.18,1.18,0,0,1,1.179-1.179h12.6a1.18,1.18,0,0,1,1.178,1.179V26.68Zm5.516-3.728a1.18,1.18,0,0,1-1.179,1.179h-2.2V7.048a3.324,3.324,0,0,0-3.32-3.32H26.005V3.32a1.18,1.18,0,0,1,1.179-1.179h12.6A1.18,1.18,0,0,1,40.966,3.32V22.952Z" fill="#0c3249"/>
  </g>
</svg>
