<svg xmlns="http://www.w3.org/2000/svg" width="30" height="30" viewBox="0 0 30 30">
  <g id="image" opacity="0.5">
    <g id="Group_948" data-name="Group 948">
      <g id="Group_947" data-name="Group 947">
        <path id="Path_896" data-name="Path 896" d="M27.188,0H2.813A2.812,2.812,0,0,0,0,2.813V27.188A2.812,2.812,0,0,0,2.813,30H27.188A2.812,2.812,0,0,0,30,27.188V2.813A2.812,2.812,0,0,0,27.188,0Zm.938,27.188a.937.937,0,0,1-.937.938H2.813a.937.937,0,0,1-.937-.937V2.813a.937.937,0,0,1,.938-.937H27.188a.937.937,0,0,1,.938.938Z" fill="#0c3249"/>
        <path id="Path_897" data-name="Path 897" d="M95.877,242.285a.937.937,0,0,0-1.322,0L92.4,244.442l-4.022-4.022a.937.937,0,0,0-1.322,0l-6.562,6.563a.938.938,0,0,0,.656,1.594H99.9a.938.938,0,0,0,.666-1.6Z" transform="translate(-75.524 -226.076)" fill="#0c3249"/>
        <circle id="Ellipse_50" data-name="Ellipse 50" cx="2.813" cy="2.813" r="2.813" transform="translate(15 7.5)" fill="#0c3249"/>
      </g>
    </g>
  </g>
</svg>
