<svg xmlns="http://www.w3.org/2000/svg" width="204.956" height="184.531" viewBox="0 0 204.956 184.531">
  <g id="Group_565" data-name="Group 565" transform="matrix(0.755, 0.656, -0.656, 0.755, 224.668, 765.777)">
    <g id="banana-leaf" transform="matrix(-0.208, -0.978, 0.978, -0.208, -613.727, -363.561)">
      <g id="Group_557" data-name="Group 557" transform="translate(1.487 1.486)">
        <path id="Path_656" data-name="Path 656" d="M50.584,16.543C34.02-.02,11.811-.015,1.024,0A.988.988,0,0,0,.036.982c-.063,7.895-.671,22.44,6.991,36.746H19.376l-7.491,7.491a56,56,0,0,0,4.7,5.326l30.08,30.08L56.831,70.456V87.908A30.541,30.541,0,0,0,73.074,90.29a64.771,64.771,0,0,1,17.444.189,64.756,64.756,0,0,1-.189-17.444,30.527,30.527,0,0,0-8.7-25.443L62.884,28.844l-8.428,8.428V20.416Z" transform="translate(0 0)" fill="#378381"/>
      </g>
      <g id="Group_563" data-name="Group 563" transform="translate(1.487 1.486)">
        <g id="Group_560" data-name="Group 560" transform="translate(0 0)">
          <g id="Group_558" data-name="Group 558">
            <path id="Path_657" data-name="Path 657" d="M11.514,31.607C5.56,19.847,5.035,8.046,5.055.02,3.584,0,2.231,0,1.023,0a.987.987,0,0,0-.987.98c-.063,7.895-.671,22.44,6.991,36.747H19.4l1.649-1.649a1.982,1.982,0,0,0-1.4-3.383h-6.36a1.986,1.986,0,0,1-1.771-1.088Z" fill="#378381"/>
          </g>
          <g id="Group_559" data-name="Group 559" transform="translate(11.885 40.327)">
            <path id="Path_658" data-name="Path 658" d="M9.751,5.186C8.506,3.941,6.331,1.653,4.892,0L0,4.892a56,56,0,0,0,4.7,5.326L34.776,40.3l5.043-5.043Z" fill="#378381"/>
          </g>
        </g>
        <g id="Group_561" data-name="Group 561" transform="translate(59.51 28.844)">
          <path id="Path_659" data-name="Path 659" d="M0,3.4,3.385.011,3.374,0,0,3.374Z" fill="#02905d"/>
        </g>
        <g id="Group_562" data-name="Group 562" transform="translate(56.831 68.222)">
          <path id="Path_660" data-name="Path 660" d="M21.3,17.036A30.543,30.543,0,0,1,5.054,14.653V1.986A1.982,1.982,0,0,0,1.671.585L0,2.255V19.686a30.54,30.54,0,0,0,16.243,2.383,64.773,64.773,0,0,1,17.444.189q-.4-2.792-.571-5.605A63.59,63.59,0,0,0,21.3,17.036Z" transform="translate(0 0)" fill="#378381"/>
        </g>
      </g>
      <g id="Group_564" data-name="Group 564" transform="translate(0 0)">
        <path id="Path_661" data-name="Path 661" d="M.761,2.784a50.3,50.3,0,0,1,11,8.318L15.2,14.539V30.78a1.486,1.486,0,0,0,2.537,1.051l7.377-7.377L35.54,34.881a1.486,1.486,0,1,0,2.1-2.1L26.163,21.3a1.486,1.486,0,0,0-2.1,0L18.17,27.191V13.923a1.486,1.486,0,0,0-.435-1.051L13.862,9A53.271,53.271,0,0,0,2.213.19,1.486,1.486,0,0,0,.761,2.784Z" transform="translate(39.259 7.979)" fill="#400"/>
        <path id="Path_662" data-name="Path 662" d="M101.041,98.939l-7.624-7.624a63.194,63.194,0,0,1-.126-16.6,32.012,32.012,0,0,0-9.119-26.681l-2.365-2.365a1.486,1.486,0,0,0-2.1,2.1l2.365,2.365a29.039,29.039,0,0,1,8.273,24.2,65.412,65.412,0,0,0-.284,13.621L81.8,79.7a1.486,1.486,0,0,0-2.1,2.1l8.211,8.211a65.389,65.389,0,0,0-13.536.291A29.03,29.03,0,0,1,59.8,88.41V71.942a1.486,1.486,0,0,0-2.537-1.051l-9.118,9.118L19.12,50.98a55.2,55.2,0,0,1-3.759-4.161l6.553-6.554a1.486,1.486,0,0,0-1.051-2.537H9.413C3.1,25.432,2.91,13.014,2.983,5.046l18.8,18.8A14.559,14.559,0,0,0,9.5,27.973a1.486,1.486,0,1,0,2.1,2.1,11.616,11.616,0,0,1,16.409,0h0L48.331,50.394a17.3,17.3,0,0,0-3.2-.3A17.043,17.043,0,0,0,33,55.122a1.486,1.486,0,1,0,2.1,2.1,14.171,14.171,0,0,1,20.054,0h0L74.793,76.857a1.486,1.486,0,0,0,2.1-2.1L74.99,72.849h0a16.425,16.425,0,0,1,0-23.243,1.486,1.486,0,1,0-2.1-2.1A19.284,19.284,0,0,0,67.2,61.227a19.548,19.548,0,0,0,.478,4.309L40.449,38.308h0a14.171,14.171,0,0,1,0-20.054,1.486,1.486,0,0,0-2.1-2.1A17.043,17.043,0,0,0,33.319,28.28a17.3,17.3,0,0,0,.3,3.2l-28.5-28.5c7.316.046,18.034.517,28.795,4.863a1.487,1.487,0,0,0,1.113-2.757C22.368-.028,9.936-.009,2.509,0A2.483,2.483,0,0,0,.037,2.456Q.031,3.092.023,3.784C-.07,12.109-.226,26.043,7.2,39.916a1.486,1.486,0,0,0,1.31.785h8.76l-4.953,4.953a1.486,1.486,0,0,0-.124,1.961,57.818,57.818,0,0,0,4.821,5.467L47.1,83.163a1.486,1.486,0,0,0,2.1,0l7.632-7.632V89.395a1.487,1.487,0,0,0,.884,1.359,32,32,0,0,0,17.034,2.5,63.175,63.175,0,0,1,16.514.113l7.676,7.676a1.487,1.487,0,0,0,2.1-2.1Z" fill="#400"/>
      </g>
    </g>
    <g id="banana-leaf-2" data-name="banana-leaf" transform="translate(-523.929 -345.062) rotate(-141)">
      <g id="Group_557-2" data-name="Group 557" transform="translate(1.487 1.486)">
        <path id="Path_656-2" data-name="Path 656" d="M50.584,16.543C34.02-.02,11.811-.015,1.024,0A.988.988,0,0,0,.036.982c-.063,7.895-.671,22.44,6.991,36.746H19.376l-7.491,7.491a56,56,0,0,0,4.7,5.326l30.08,30.08L56.831,70.456V87.908A30.541,30.541,0,0,0,73.074,90.29a64.771,64.771,0,0,1,17.444.189,64.756,64.756,0,0,1-.189-17.444,30.527,30.527,0,0,0-8.7-25.443L62.884,28.844l-8.428,8.428V20.416Z" transform="translate(0 0)" fill="#378381"/>
      </g>
      <g id="Group_563-2" data-name="Group 563" transform="translate(1.487 1.486)">
        <g id="Group_560-2" data-name="Group 560" transform="translate(0 0)">
          <g id="Group_558-2" data-name="Group 558">
            <path id="Path_657-2" data-name="Path 657" d="M11.514,31.607C5.56,19.847,5.035,8.046,5.055.02,3.584,0,2.231,0,1.023,0a.987.987,0,0,0-.987.98c-.063,7.895-.671,22.44,6.991,36.747H19.4l1.649-1.649a1.982,1.982,0,0,0-1.4-3.383h-6.36a1.986,1.986,0,0,1-1.771-1.088Z" fill="#378381"/>
          </g>
          <g id="Group_559-2" data-name="Group 559" transform="translate(11.885 40.327)">
            <path id="Path_658-2" data-name="Path 658" d="M9.751,5.186C8.506,3.941,6.331,1.653,4.892,0L0,4.892a56,56,0,0,0,4.7,5.326L34.776,40.3l5.043-5.043Z" transform="translate(0 0)" fill="#378381"/>
          </g>
        </g>
        <g id="Group_561-2" data-name="Group 561" transform="translate(59.51 28.844)">
          <path id="Path_659-2" data-name="Path 659" d="M0,3.4,3.385.011,3.374,0,0,3.374Z" transform="translate(0 0)" fill="#02905d"/>
        </g>
        <g id="Group_562-2" data-name="Group 562" transform="translate(56.831 68.222)">
          <path id="Path_660-2" data-name="Path 660" d="M21.3,17.036A30.543,30.543,0,0,1,5.054,14.653V1.986A1.982,1.982,0,0,0,1.671.585L0,2.255V19.686a30.54,30.54,0,0,0,16.243,2.383,64.773,64.773,0,0,1,17.444.189q-.4-2.792-.571-5.605A63.59,63.59,0,0,0,21.3,17.036Z" transform="translate(0 0)" fill="#378381"/>
        </g>
      </g>
      <g id="Group_564-2" data-name="Group 564" transform="translate(0 0)">
        <path id="Path_661-2" data-name="Path 661" d="M.761,2.784a50.3,50.3,0,0,1,11,8.318L15.2,14.539V30.78a1.486,1.486,0,0,0,2.537,1.051l7.377-7.377L35.54,34.881a1.486,1.486,0,1,0,2.1-2.1L26.163,21.3a1.486,1.486,0,0,0-2.1,0L18.17,27.191V13.923a1.486,1.486,0,0,0-.435-1.051L13.862,9A53.271,53.271,0,0,0,2.213.19,1.486,1.486,0,0,0,.761,2.784Z" transform="translate(39.259 7.979)" fill="#400"/>
        <path id="Path_662-2" data-name="Path 662" d="M101.041,98.939l-7.624-7.624a63.194,63.194,0,0,1-.126-16.6,32.012,32.012,0,0,0-9.119-26.681l-2.365-2.365a1.486,1.486,0,0,0-2.1,2.1l2.365,2.365a29.039,29.039,0,0,1,8.273,24.2,65.412,65.412,0,0,0-.284,13.621L81.8,79.7a1.486,1.486,0,0,0-2.1,2.1l8.211,8.211a65.389,65.389,0,0,0-13.536.291A29.03,29.03,0,0,1,59.8,88.41V71.942a1.486,1.486,0,0,0-2.537-1.051l-9.118,9.118L19.12,50.98a55.2,55.2,0,0,1-3.759-4.161l6.553-6.554a1.486,1.486,0,0,0-1.051-2.537H9.413C3.1,25.432,2.91,13.014,2.983,5.046l18.8,18.8A14.559,14.559,0,0,0,9.5,27.973a1.486,1.486,0,1,0,2.1,2.1,11.616,11.616,0,0,1,16.409,0h0L48.331,50.394a17.3,17.3,0,0,0-3.2-.3A17.043,17.043,0,0,0,33,55.122a1.486,1.486,0,1,0,2.1,2.1,14.171,14.171,0,0,1,20.054,0h0L74.793,76.857a1.486,1.486,0,0,0,2.1-2.1L74.99,72.849h0a16.425,16.425,0,0,1,0-23.243,1.486,1.486,0,1,0-2.1-2.1A19.284,19.284,0,0,0,67.2,61.227a19.548,19.548,0,0,0,.478,4.309L40.449,38.308h0a14.171,14.171,0,0,1,0-20.054,1.486,1.486,0,0,0-2.1-2.1A17.043,17.043,0,0,0,33.319,28.28a17.3,17.3,0,0,0,.3,3.2l-28.5-28.5c7.316.046,18.034.517,28.795,4.863a1.487,1.487,0,0,0,1.113-2.757C22.368-.028,9.936-.009,2.509,0A2.483,2.483,0,0,0,.037,2.456Q.031,3.092.023,3.784C-.07,12.109-.226,26.043,7.2,39.916a1.486,1.486,0,0,0,1.31.785h8.76l-4.953,4.953a1.486,1.486,0,0,0-.124,1.961,57.818,57.818,0,0,0,4.821,5.467L47.1,83.163a1.486,1.486,0,0,0,2.1,0l7.632-7.632V89.395a1.487,1.487,0,0,0,.884,1.359,32,32,0,0,0,17.034,2.5,63.175,63.175,0,0,1,16.514.113l7.676,7.676a1.487,1.487,0,0,0,2.1-2.1Z" fill="#400"/>
      </g>
    </g>
    <g id="banana-leaf-3" data-name="banana-leaf" transform="matrix(-0.996, -0.087, 0.087, -0.996, -451.299, -377.85)">
      <g id="Group_557-3" data-name="Group 557" transform="translate(1.487 1.486)">
        <path id="Path_656-3" data-name="Path 656" d="M50.584,16.543C34.02-.02,11.811-.015,1.024,0A.988.988,0,0,0,.036.982c-.063,7.895-.671,22.44,6.991,36.746H19.376l-7.491,7.491a56,56,0,0,0,4.7,5.326l30.08,30.08L56.831,70.456V87.908A30.541,30.541,0,0,0,73.074,90.29a64.771,64.771,0,0,1,17.444.189,64.756,64.756,0,0,1-.189-17.444,30.527,30.527,0,0,0-8.7-25.443L62.884,28.844l-8.428,8.428V20.416Z" transform="translate(0 0)" fill="#378381"/>
      </g>
      <g id="Group_563-3" data-name="Group 563" transform="translate(1.487 1.486)">
        <g id="Group_560-3" data-name="Group 560" transform="translate(0 0)">
          <g id="Group_558-3" data-name="Group 558">
            <path id="Path_657-3" data-name="Path 657" d="M11.514,31.607C5.56,19.847,5.035,8.046,5.055.02,3.584,0,2.231,0,1.023,0a.987.987,0,0,0-.987.98c-.063,7.895-.671,22.44,6.991,36.747H19.4l1.649-1.649a1.982,1.982,0,0,0-1.4-3.383h-6.36a1.986,1.986,0,0,1-1.771-1.088Z" fill="#378381"/>
          </g>
          <g id="Group_559-3" data-name="Group 559" transform="translate(11.885 40.327)">
            <path id="Path_658-3" data-name="Path 658" d="M9.751,5.186C8.506,3.941,6.331,1.653,4.892,0L0,4.892a56,56,0,0,0,4.7,5.326L34.776,40.3l5.043-5.043Z" fill="#378381"/>
          </g>
        </g>
        <g id="Group_561-3" data-name="Group 561" transform="translate(59.51 28.844)">
          <path id="Path_659-3" data-name="Path 659" d="M0,3.4,3.385.011,3.374,0,0,3.374Z" fill="#02905d"/>
        </g>
        <g id="Group_562-3" data-name="Group 562" transform="translate(56.831 68.222)">
          <path id="Path_660-3" data-name="Path 660" d="M21.3,17.036A30.543,30.543,0,0,1,5.054,14.653V1.986A1.982,1.982,0,0,0,1.671.585L0,2.255V19.686a30.54,30.54,0,0,0,16.243,2.383,64.773,64.773,0,0,1,17.444.189q-.4-2.792-.571-5.605A63.59,63.59,0,0,0,21.3,17.036Z" transform="translate(0 0)" fill="#378381"/>
        </g>
      </g>
      <g id="Group_564-3" data-name="Group 564" transform="translate(0 0)">
        <path id="Path_661-3" data-name="Path 661" d="M.761,2.784a50.3,50.3,0,0,1,11,8.318L15.2,14.539V30.78a1.486,1.486,0,0,0,2.537,1.051l7.377-7.377L35.54,34.881a1.486,1.486,0,1,0,2.1-2.1L26.163,21.3a1.486,1.486,0,0,0-2.1,0L18.17,27.191V13.923a1.486,1.486,0,0,0-.435-1.051L13.862,9A53.271,53.271,0,0,0,2.213.19,1.486,1.486,0,0,0,.761,2.784Z" transform="translate(39.259 7.979)" fill="#400"/>
        <path id="Path_662-3" data-name="Path 662" d="M101.041,98.939l-7.624-7.624a63.194,63.194,0,0,1-.126-16.6,32.012,32.012,0,0,0-9.119-26.681l-2.365-2.365a1.486,1.486,0,0,0-2.1,2.1l2.365,2.365a29.039,29.039,0,0,1,8.273,24.2,65.412,65.412,0,0,0-.284,13.621L81.8,79.7a1.486,1.486,0,0,0-2.1,2.1l8.211,8.211a65.389,65.389,0,0,0-13.536.291A29.03,29.03,0,0,1,59.8,88.41V71.942a1.486,1.486,0,0,0-2.537-1.051l-9.118,9.118L19.12,50.98a55.2,55.2,0,0,1-3.759-4.161l6.553-6.554a1.486,1.486,0,0,0-1.051-2.537H9.413C3.1,25.432,2.91,13.014,2.983,5.046l18.8,18.8A14.559,14.559,0,0,0,9.5,27.973a1.486,1.486,0,1,0,2.1,2.1,11.616,11.616,0,0,1,16.409,0h0L48.331,50.394a17.3,17.3,0,0,0-3.2-.3A17.043,17.043,0,0,0,33,55.122a1.486,1.486,0,1,0,2.1,2.1,14.171,14.171,0,0,1,20.054,0h0L74.793,76.857a1.486,1.486,0,0,0,2.1-2.1L74.99,72.849h0a16.425,16.425,0,0,1,0-23.243,1.486,1.486,0,1,0-2.1-2.1A19.284,19.284,0,0,0,67.2,61.227a19.548,19.548,0,0,0,.478,4.309L40.449,38.308h0a14.171,14.171,0,0,1,0-20.054,1.486,1.486,0,0,0-2.1-2.1A17.043,17.043,0,0,0,33.319,28.28a17.3,17.3,0,0,0,.3,3.2l-28.5-28.5c7.316.046,18.034.517,28.795,4.863a1.487,1.487,0,0,0,1.113-2.757C22.368-.028,9.936-.009,2.509,0A2.483,2.483,0,0,0,.037,2.456Q.031,3.092.023,3.784C-.07,12.109-.226,26.043,7.2,39.916a1.486,1.486,0,0,0,1.31.785h8.76l-4.953,4.953a1.486,1.486,0,0,0-.124,1.961,57.818,57.818,0,0,0,4.821,5.467L47.1,83.163a1.486,1.486,0,0,0,2.1,0l7.632-7.632V89.395a1.487,1.487,0,0,0,.884,1.359,32,32,0,0,0,17.034,2.5,63.175,63.175,0,0,1,16.514.113l7.676,7.676a1.487,1.487,0,0,0,2.1-2.1Z" fill="#400"/>
      </g>
    </g>
  </g>
</svg>
