<svg xmlns="http://www.w3.org/2000/svg" width="307.854" height="277.175" viewBox="0 0 307.854 277.175">
  <g id="Group_924" data-name="Group 924" transform="translate(350.001 133.492) rotate(139)">
    <g id="banana-leaf" transform="matrix(-0.208, 0.978, -0.978, -0.208, 180.782, 59.477)">
      <g id="Group_900" data-name="Group 900" transform="translate(2.233 14.202)">
        <path id="Path_874" data-name="Path 874" d="M75.979,111.139C51.1,136.018,17.741,136.01,1.538,135.986a1.485,1.485,0,0,1-1.484-1.473c-.095-11.859-1.008-33.705,10.5-55.195H29.1L17.852,68.067a84.114,84.114,0,0,1,7.055-8L70.088,14.886,85.363,30.16V3.946a45.874,45.874,0,0,1,24.4-3.579,97.289,97.289,0,0,0,26.2-.284,97.266,97.266,0,0,0-.284,26.2A45.852,45.852,0,0,1,122.617,64.5L94.455,92.663,81.8,80v25.319Z" transform="translate(0)" fill="#378381"/>
      </g>
      <g id="Group_906" data-name="Group 906" transform="translate(2.233 14.202)">
        <g id="Group_903" data-name="Group 903" transform="translate(0 14.885)">
          <g id="Group_901" data-name="Group 901" transform="translate(0 64.433)">
            <path id="Path_875" data-name="Path 875" d="M17.3,9.194c-8.944,17.663-9.732,35.39-9.7,47.446-2.209.033-4.241.031-6.056.028A1.483,1.483,0,0,1,.054,55.2C-.04,43.338-.954,21.491,10.555,0H29.136l2.477,2.477a2.977,2.977,0,0,1-2.105,5.082H19.955A2.984,2.984,0,0,0,17.3,9.194Z" transform="translate(0 0)" fill="#378381"/>
          </g>
          <g id="Group_902" data-name="Group 902" transform="translate(17.853 0)">
            <path id="Path_876" data-name="Path 876" d="M14.646,52.741c-1.87,1.87-5.136,5.307-7.3,7.789L0,53.182a84.117,84.117,0,0,1,7.055-8L52.236,0l7.576,7.576Z" transform="translate(0)" fill="#378381"/>
          </g>
        </g>
        <g id="Group_904" data-name="Group 904" transform="translate(89.387 87.563)">
          <path id="Path_877" data-name="Path 877" d="M0,0,5.084,5.084,5.068,5.1,0,.032Z" transform="translate(0 0)" fill="#02905d"/>
        </g>
        <g id="Group_905" data-name="Group 905" transform="translate(85.363 0)">
          <path id="Path_878" data-name="Path 878" d="M31.989,7.927a45.877,45.877,0,0,0-24.4,3.579V30.533a2.977,2.977,0,0,1-5.082,2.105L0,30.128V3.946A45.873,45.873,0,0,1,24.4.367,97.292,97.292,0,0,0,50.6.084q-.606,4.193-.858,8.42A95.515,95.515,0,0,1,31.989,7.927Z" transform="translate(0)" fill="#378381"/>
        </g>
      </g>
      <g id="Group_907" data-name="Group 907" transform="translate(0)">
        <path id="Path_879" data-name="Path 879" d="M1.142,48.866A75.558,75.558,0,0,0,17.664,36.372l5.162-5.163V6.815a2.233,2.233,0,0,1,3.811-1.579L37.719,16.317,53.382.654A2.233,2.233,0,0,1,56.54,3.811L39.3,21.053a2.232,2.232,0,0,1-3.157,0l-8.848-8.848V32.134a2.232,2.232,0,0,1-.654,1.579l-5.816,5.817a80.016,80.016,0,0,1-17.5,13.233,2.233,2.233,0,0,1-2.181-3.9Z" transform="translate(58.97 87.39)" fill="#400"/>
        <path id="Path_880" data-name="Path 880" d="M151.768,3.812,140.316,15.264a94.92,94.92,0,0,0-.189,24.94,48.083,48.083,0,0,1-13.7,40.077l-3.552,3.552a2.233,2.233,0,1,1-3.157-3.157l3.552-3.552A43.618,43.618,0,0,0,135.7,40.769a98.252,98.252,0,0,1-.427-20.459l-12.4,12.4a2.233,2.233,0,0,1-3.157-3.157l12.333-12.333a98.219,98.219,0,0,1-20.332-.437A43.6,43.6,0,0,0,89.83,19.626V44.362a2.233,2.233,0,0,1-3.811,1.579l-13.7-13.7-43.6,43.6a82.91,82.91,0,0,0-5.647,6.25l9.843,9.844a2.233,2.233,0,0,1-1.579,3.811h-17.2c-9.489,18.469-9.767,37.121-9.658,49.089L32.72,116.6a21.869,21.869,0,0,1-18.45-6.2,2.233,2.233,0,1,1,3.157-3.157,17.448,17.448,0,0,0,24.648,0h0L72.595,76.728a25.99,25.99,0,0,1-4.8.45,25.6,25.6,0,0,1-18.219-7.552,2.233,2.233,0,1,1,3.157-3.157,21.286,21.286,0,0,0,30.122,0h0L112.343,36.98a2.233,2.233,0,1,1,3.157,3.157L112.638,43h0a24.671,24.671,0,0,0,0,34.912,2.233,2.233,0,1,1-3.157,3.157,28.965,28.965,0,0,1-8.545-20.614,29.362,29.362,0,0,1,.718-6.472l-40.9,40.9h0a21.286,21.286,0,0,0,0,30.122,2.233,2.233,0,1,1-3.157,3.157,25.6,25.6,0,0,1-7.552-18.219,25.989,25.989,0,0,1,.45-4.8L7.689,147.95c10.989-.069,27.088-.777,43.251-7.3a2.233,2.233,0,0,1,1.672,4.141c-19.015,7.678-37.688,7.65-48.844,7.635a3.73,3.73,0,0,1-3.714-3.688q-.008-.955-.02-1.994C-.105,134.234-.34,113.3,10.82,92.466a2.232,2.232,0,0,1,1.968-1.179H25.947l-7.44-7.44A2.233,2.233,0,0,1,18.32,80.9a86.846,86.846,0,0,1,7.241-8.212L70.743,27.508a2.232,2.232,0,0,1,3.157,0L85.363,38.971V18.147a2.233,2.233,0,0,1,1.327-2.041,48.061,48.061,0,0,1,25.586-3.753,94.893,94.893,0,0,0,24.8-.17L148.61.654a2.233,2.233,0,0,1,3.158,3.158Z" fill="#400"/>
      </g>
    </g>
    <g id="banana-leaf-2" data-name="banana-leaf" transform="translate(262.494 118.454) rotate(141)">
      <g id="Group_908" data-name="Group 908" transform="translate(2.233 14.202)">
        <path id="Path_881" data-name="Path 881" d="M75.979,111.139C51.1,136.018,17.741,136.01,1.538,135.986a1.485,1.485,0,0,1-1.484-1.473c-.095-11.859-1.008-33.705,10.5-55.195H29.1L17.852,68.067a84.114,84.114,0,0,1,7.055-8L70.088,14.886,85.363,30.16V3.946a45.874,45.874,0,0,1,24.4-3.579,97.289,97.289,0,0,0,26.2-.284,97.266,97.266,0,0,0-.284,26.2A45.852,45.852,0,0,1,122.617,64.5L94.455,92.663,81.8,80v25.319Z" transform="translate(0)" fill="#378381"/>
      </g>
      <g id="Group_914" data-name="Group 914" transform="translate(2.233 14.202)">
        <g id="Group_911" data-name="Group 911" transform="translate(0 14.885)">
          <g id="Group_909" data-name="Group 909" transform="translate(0 64.433)">
            <path id="Path_882" data-name="Path 882" d="M17.3,9.194c-8.944,17.663-9.732,35.39-9.7,47.446-2.209.033-4.241.031-6.056.028A1.483,1.483,0,0,1,.054,55.2C-.04,43.338-.954,21.491,10.555,0H29.136l2.477,2.477a2.977,2.977,0,0,1-2.105,5.082H19.955A2.984,2.984,0,0,0,17.3,9.194Z" fill="#378381"/>
          </g>
          <g id="Group_910" data-name="Group 910" transform="translate(17.853 0)">
            <path id="Path_883" data-name="Path 883" d="M14.646,52.741c-1.87,1.87-5.136,5.307-7.3,7.789L0,53.182a84.117,84.117,0,0,1,7.055-8L52.236,0l7.576,7.576Z" transform="translate(0)" fill="#378381"/>
          </g>
        </g>
        <g id="Group_912" data-name="Group 912" transform="translate(89.387 87.562)">
          <path id="Path_884" data-name="Path 884" d="M0,0,5.084,5.084,5.068,5.1,0,.032Z" transform="translate(0 0)" fill="#02905d"/>
        </g>
        <g id="Group_913" data-name="Group 913" transform="translate(85.363 0)">
          <path id="Path_885" data-name="Path 885" d="M31.989,7.927a45.877,45.877,0,0,0-24.4,3.579V30.533a2.977,2.977,0,0,1-5.082,2.105L0,30.128V3.946A45.873,45.873,0,0,1,24.4.367,97.292,97.292,0,0,0,50.6.084q-.606,4.193-.858,8.42A95.515,95.515,0,0,1,31.989,7.927Z" transform="translate(0)" fill="#378381"/>
        </g>
      </g>
      <g id="Group_915" data-name="Group 915" transform="translate(0 0)">
        <path id="Path_886" data-name="Path 886" d="M1.142,48.866A75.558,75.558,0,0,0,17.664,36.372l5.162-5.163V6.815a2.233,2.233,0,0,1,3.811-1.579L37.719,16.317,53.382.654A2.233,2.233,0,1,1,56.54,3.811L39.3,21.053a2.232,2.232,0,0,1-3.157,0l-8.848-8.848V32.134a2.232,2.232,0,0,1-.654,1.579l-5.816,5.817a80.016,80.016,0,0,1-17.5,13.233,2.233,2.233,0,0,1-2.181-3.9Z" transform="translate(58.97 87.39)" fill="#400"/>
        <path id="Path_887" data-name="Path 887" d="M151.768,3.812,140.316,15.264a94.92,94.92,0,0,0-.189,24.94,48.083,48.083,0,0,1-13.7,40.077l-3.552,3.552a2.233,2.233,0,0,1-3.157-3.157l3.552-3.552A43.618,43.618,0,0,0,135.7,40.769a98.251,98.251,0,0,1-.427-20.459l-12.4,12.4a2.233,2.233,0,0,1-3.157-3.157l12.333-12.333a98.219,98.219,0,0,1-20.332-.437A43.6,43.6,0,0,0,89.83,19.626V44.362a2.233,2.233,0,0,1-3.811,1.579l-13.7-13.7-43.6,43.6A82.909,82.909,0,0,0,23.073,82.1l9.843,9.844a2.233,2.233,0,0,1-1.579,3.811h-17.2c-9.489,18.469-9.767,37.121-9.658,49.089L32.72,116.6a21.869,21.869,0,0,1-18.45-6.2,2.233,2.233,0,0,1,3.157-3.157,17.448,17.448,0,0,0,24.648,0h0L72.595,76.728a25.99,25.99,0,0,1-4.8.45,25.6,25.6,0,0,1-18.219-7.552,2.233,2.233,0,1,1,3.157-3.157,21.286,21.286,0,0,0,30.122,0h0L112.343,36.98a2.233,2.233,0,0,1,3.157,3.157L112.639,43h0a24.671,24.671,0,0,0,0,34.912,2.233,2.233,0,1,1-3.157,3.157,28.965,28.965,0,0,1-8.545-20.614,29.362,29.362,0,0,1,.718-6.472l-40.9,40.9h0a21.286,21.286,0,0,0,0,30.122,2.233,2.233,0,1,1-3.157,3.157,25.6,25.6,0,0,1-7.552-18.219,25.99,25.99,0,0,1,.45-4.8L7.689,147.95c10.989-.069,27.088-.777,43.251-7.3a2.233,2.233,0,1,1,1.672,4.141c-19.015,7.678-37.688,7.65-48.844,7.635a3.73,3.73,0,0,1-3.714-3.688q-.008-.955-.02-1.994C-.105,134.234-.34,113.3,10.82,92.466a2.232,2.232,0,0,1,1.968-1.179H25.947l-7.44-7.44A2.233,2.233,0,0,1,18.32,80.9a86.846,86.846,0,0,1,7.241-8.212L70.743,27.508a2.232,2.232,0,0,1,3.157,0L85.363,38.971V18.147a2.233,2.233,0,0,1,1.327-2.041,48.061,48.061,0,0,1,25.586-3.753,94.893,94.893,0,0,0,24.8-.17L148.61.654a2.233,2.233,0,0,1,3.158,3.158Z" fill="#400"/>
      </g>
    </g>
    <g id="banana-leaf-3" data-name="banana-leaf" transform="matrix(-0.996, 0.087, -0.087, -0.996, 288.949, 201.092)">
      <g id="Group_916" data-name="Group 916" transform="translate(2.233 14.202)">
        <path id="Path_888" data-name="Path 888" d="M75.979,111.139C51.1,136.018,17.741,136.01,1.538,135.986a1.485,1.485,0,0,1-1.484-1.473c-.095-11.859-1.008-33.705,10.5-55.195H29.1L17.852,68.067a84.114,84.114,0,0,1,7.055-8L70.088,14.886,85.363,30.16V3.946a45.874,45.874,0,0,1,24.4-3.579,97.289,97.289,0,0,0,26.2-.284,97.266,97.266,0,0,0-.284,26.2A45.852,45.852,0,0,1,122.617,64.5L94.455,92.663,81.8,80v25.319Z" transform="translate(0)" fill="#378381"/>
      </g>
      <g id="Group_922" data-name="Group 922" transform="translate(2.233 14.202)">
        <g id="Group_919" data-name="Group 919" transform="translate(0 14.885)">
          <g id="Group_917" data-name="Group 917" transform="translate(0 64.433)">
            <path id="Path_889" data-name="Path 889" d="M17.3,9.194c-8.944,17.663-9.732,35.39-9.7,47.446-2.209.033-4.241.031-6.056.028A1.483,1.483,0,0,1,.054,55.2C-.04,43.338-.954,21.491,10.555,0H29.136l2.477,2.477a2.977,2.977,0,0,1-2.105,5.082H19.955A2.984,2.984,0,0,0,17.3,9.194Z" transform="translate(0 0)" fill="#378381"/>
          </g>
          <g id="Group_918" data-name="Group 918" transform="translate(17.853 0)">
            <path id="Path_890" data-name="Path 890" d="M14.646,52.741c-1.87,1.87-5.136,5.307-7.3,7.789L0,53.182a84.117,84.117,0,0,1,7.055-8L52.236,0l7.576,7.576Z" transform="translate(0)" fill="#378381"/>
          </g>
        </g>
        <g id="Group_920" data-name="Group 920" transform="translate(89.387 87.563)">
          <path id="Path_891" data-name="Path 891" d="M0,0,5.084,5.084,5.068,5.1,0,.032Z" transform="translate(0 0)" fill="#02905d"/>
        </g>
        <g id="Group_921" data-name="Group 921" transform="translate(85.363 0)">
          <path id="Path_892" data-name="Path 892" d="M31.989,7.927a45.877,45.877,0,0,0-24.4,3.579V30.533a2.977,2.977,0,0,1-5.082,2.105L0,30.128V3.946A45.873,45.873,0,0,1,24.4.367,97.292,97.292,0,0,0,50.6.084q-.606,4.193-.858,8.42A95.515,95.515,0,0,1,31.989,7.927Z" transform="translate(0)" fill="#378381"/>
        </g>
      </g>
      <g id="Group_923" data-name="Group 923" transform="translate(0 0)">
        <path id="Path_893" data-name="Path 893" d="M1.142,48.866A75.558,75.558,0,0,0,17.664,36.372l5.162-5.163V6.815a2.233,2.233,0,0,1,3.811-1.579L37.719,16.317,53.382.654A2.233,2.233,0,0,1,56.54,3.811L39.3,21.053a2.232,2.232,0,0,1-3.157,0l-8.848-8.848V32.134a2.232,2.232,0,0,1-.654,1.579l-5.816,5.817a80.016,80.016,0,0,1-17.5,13.233,2.233,2.233,0,0,1-2.181-3.9Z" transform="translate(58.97 87.39)" fill="#400"/>
        <path id="Path_894" data-name="Path 894" d="M151.768,3.812,140.316,15.264a94.92,94.92,0,0,0-.189,24.94,48.083,48.083,0,0,1-13.7,40.077l-3.552,3.552a2.233,2.233,0,1,1-3.157-3.157l3.552-3.552A43.618,43.618,0,0,0,135.7,40.769a98.252,98.252,0,0,1-.427-20.459l-12.4,12.4a2.233,2.233,0,0,1-3.157-3.157l12.333-12.333a98.219,98.219,0,0,1-20.332-.437A43.6,43.6,0,0,0,89.83,19.626V44.362a2.233,2.233,0,0,1-3.811,1.579l-13.7-13.7-43.6,43.6A82.908,82.908,0,0,0,23.073,82.1l9.843,9.844a2.233,2.233,0,0,1-1.579,3.811h-17.2c-9.489,18.469-9.767,37.121-9.658,49.089L32.72,116.6a21.869,21.869,0,0,1-18.45-6.2,2.233,2.233,0,0,1,3.157-3.157,17.448,17.448,0,0,0,24.648,0h0L72.595,76.728a25.989,25.989,0,0,1-4.8.45,25.6,25.6,0,0,1-18.219-7.552,2.233,2.233,0,1,1,3.157-3.157,21.286,21.286,0,0,0,30.122,0h0L112.343,36.98a2.233,2.233,0,1,1,3.157,3.157L112.639,43h0a24.671,24.671,0,0,0,0,34.912,2.233,2.233,0,1,1-3.157,3.157,28.965,28.965,0,0,1-8.545-20.614,29.362,29.362,0,0,1,.718-6.472l-40.9,40.9h0a21.286,21.286,0,0,0,0,30.122,2.233,2.233,0,1,1-3.157,3.157,25.6,25.6,0,0,1-7.552-18.219,25.989,25.989,0,0,1,.45-4.8L7.689,147.95c10.989-.069,27.088-.777,43.251-7.3a2.233,2.233,0,0,1,1.672,4.141c-19.015,7.678-37.688,7.65-48.844,7.635a3.73,3.73,0,0,1-3.714-3.688q-.008-.955-.02-1.994C-.105,134.234-.34,113.3,10.82,92.466a2.232,2.232,0,0,1,1.968-1.179H25.947l-7.44-7.44A2.233,2.233,0,0,1,18.32,80.9a86.846,86.846,0,0,1,7.241-8.212L70.743,27.508a2.232,2.232,0,0,1,3.157,0L85.363,38.971V18.147a2.233,2.233,0,0,1,1.327-2.041,48.061,48.061,0,0,1,25.586-3.753,94.893,94.893,0,0,0,24.8-.17L148.61.654a2.233,2.233,0,0,1,3.158,3.158Z" fill="#400"/>
      </g>
    </g>
  </g>
</svg>
