<svg id="Group_959" data-name="Group 959" xmlns="http://www.w3.org/2000/svg" width="25.531" height="25.519" viewBox="0 0 25.531 25.519">
  <g id="Icon_ionic-ios-link" data-name="Icon ionic-ios-link">
    <path id="Path_904" data-name="Path 904" d="M17.607,22.584l-.074.006a1.015,1.015,0,0,0-.589.276l-3.963,3.963a4.468,4.468,0,0,1-6.318-6.318L10.871,16.3a4.441,4.441,0,0,1,.7-.57,4.509,4.509,0,0,1,.908-.46,4.3,4.3,0,0,1,.92-.227A4.35,4.35,0,0,1,14.024,15c.086,0,.172.006.282.012A4.455,4.455,0,0,1,17.177,16.3a4.4,4.4,0,0,1,1.049,1.675.966.966,0,0,0,1.184.62c.006,0,.012-.006.018-.006s.012,0,.012-.006a.958.958,0,0,0,.644-1.172A5.559,5.559,0,0,0,18.576,14.9a6.458,6.458,0,0,0-3.533-1.8c-.117-.018-.233-.037-.35-.049a6.331,6.331,0,0,0-.681-.037c-.159,0-.319.006-.472.018a6.187,6.187,0,0,0-.994.153c-.067.012-.129.031-.2.049a6.381,6.381,0,0,0-1.2.448,6.3,6.3,0,0,0-1.7,1.221L5.246,19.112a6.471,6.471,0,0,0-1.871,4.57A6.45,6.45,0,0,0,14.38,28.24l4.006-4.006A.971.971,0,0,0,17.607,22.584Z" transform="translate(-3.375 -4.605)" fill="#0c3249"/>
    <path id="Path_905" data-name="Path 905" d="M28.3,5.258a6.464,6.464,0,0,0-9.122,0L15.269,9.166a.986.986,0,0,0,.62,1.681,1,1,0,0,0,.779-.282l3.914-3.9A4.468,4.468,0,0,1,26.9,12.981L22.691,17.19a4.441,4.441,0,0,1-.7.57,4.509,4.509,0,0,1-.908.46,4.3,4.3,0,0,1-.92.227,4.35,4.35,0,0,1-.626.043c-.086,0-.178-.006-.282-.012a4.408,4.408,0,0,1-3.877-2.852.98.98,0,0,0-1.172-.6.991.991,0,0,0-.693,1.258,5.6,5.6,0,0,0,1.454,2.3h0l.012.012a6.459,6.459,0,0,0,3.883,1.846,6.33,6.33,0,0,0,.681.037q.239,0,.478-.018a7.013,7.013,0,0,0,1.184-.2,6.381,6.381,0,0,0,1.2-.448,6.3,6.3,0,0,0,1.7-1.221l4.208-4.208A6.457,6.457,0,0,0,28.3,5.258Z" transform="translate(-4.662 -3.375)" fill="#0c3249"/>
  </g>
</svg>
