<svg xmlns="http://www.w3.org/2000/svg" width="15.5" height="15.493" viewBox="0 0 15.5 15.493">
  <g id="Group_959" data-name="Group 959" transform="translate(0.25 0.25)">
    <g id="Icon_ionic-ios-link" data-name="Icon ionic-ios-link">
      <path id="Path_904" data-name="Path 904" d="M11.736,18.637l-.043,0a.6.6,0,0,0-.346.162L9.019,21.131a2.625,2.625,0,0,1-3.712-3.712l2.472-2.472a2.609,2.609,0,0,1,.411-.335,2.649,2.649,0,0,1,.533-.27,2.523,2.523,0,0,1,.541-.133,2.556,2.556,0,0,1,.368-.025c.05,0,.1,0,.166.007a2.617,2.617,0,0,1,1.687.757,2.584,2.584,0,0,1,.616.984.567.567,0,0,0,.7.364s.007,0,.011,0,.007,0,.007,0a.563.563,0,0,0,.378-.688,3.266,3.266,0,0,0-.887-1.478,3.794,3.794,0,0,0-2.076-1.056c-.068-.011-.137-.022-.205-.029a3.719,3.719,0,0,0-.4-.022c-.094,0-.187,0-.278.011a3.635,3.635,0,0,0-.584.09c-.04.007-.076.018-.115.029a3.749,3.749,0,0,0-.7.263,3.7,3.7,0,0,0-1,.717L4.474,16.6a3.8,3.8,0,0,0-1.1,2.685A3.79,3.79,0,0,0,9.841,21.96l2.353-2.353A.57.57,0,0,0,11.736,18.637Z" transform="translate(-3.375 -8.074)" fill="#fff" stroke="#fff" stroke-width="0.5"/>
      <path id="Path_905" data-name="Path 905" d="M22.181,4.481a3.8,3.8,0,0,0-5.359,0l-2.3,2.3a.579.579,0,0,0,.364.988.585.585,0,0,0,.458-.166l2.3-2.292a2.625,2.625,0,0,1,3.712,3.712l-2.472,2.472a2.609,2.609,0,0,1-.411.335,2.649,2.649,0,0,1-.533.27,2.523,2.523,0,0,1-.541.133,2.556,2.556,0,0,1-.368.025c-.05,0-.1,0-.166-.007a2.59,2.59,0,0,1-2.278-1.676.576.576,0,0,0-.688-.353.582.582,0,0,0-.407.739,3.292,3.292,0,0,0,.854,1.352h0l.007.007A3.8,3.8,0,0,0,16.638,13.4a3.719,3.719,0,0,0,.4.022q.141,0,.281-.011a4.12,4.12,0,0,0,.7-.115,3.749,3.749,0,0,0,.7-.263,3.7,3.7,0,0,0,1-.717l2.472-2.472a3.794,3.794,0,0,0-.007-5.363Z" transform="translate(-8.294 -3.375)" fill="#fff" stroke="#fff" stroke-width="0.5"/>
    </g>
  </g>
</svg>
