<svg xmlns="http://www.w3.org/2000/svg" width="262.501" height="291.842" viewBox="0 0 262.501 291.842">
  <g id="Group_892" data-name="Group 892" transform="translate(-681.213 -543.76)">
    <g id="Group_768" data-name="Group 768" transform="translate(681.213 543.76)">
      <g id="Group_599" data-name="Group 599" transform="translate(1.663 200.047)">
        <g id="Group_598" data-name="Group 598">
          <path id="Path_718" data-name="Path 718" d="M870.391,2566.534q-5.121,1.79-10.549,3.409-11.763,3.511-23.076,6.262-4.16,1.023-8.249,1.946c-11.688,2.636-22.914,4.694-33.538,6.237-55.749,8.112-94.9,2.1-97.353-8.287-3.821-16.2,57.475-45.3,100.813-58.747a210.9,210.9,0,0,1,22.719-5.875c3.272-.615,6.64-1.227,10.079-1.825q4.447-.773,9.043-1.526c10.636-1.738,21.729-3.364,32.619-4.778,39.754-5.164,76.867-7.542,79.728-2.678C958.027,2509.862,929.462,2545.94,870.391,2566.534Z" transform="translate(-697.455 -2498.021)" fill="#fce15e"/>
        </g>
      </g>
      <g id="Group_601" data-name="Group 601" transform="translate(1.663 199.535)" opacity="0.4">
        <g id="Group_600" data-name="Group 600">
          <path id="Path_719" data-name="Path 719" d="M800.485,2516.449a211.019,211.019,0,0,1,22.719-5.875c3.272-.615,6.64-1.227,10.079-1.825q4.447-.773,9.043-1.526c10.636-1.738,21.729-3.364,32.619-4.778,36.443-4.734,70.663-7.126,78.314-3.744a5.47,5.47,0,0,0-.633-3.028c-2.861-4.865-39.974-2.487-79.728,2.678-10.89,1.414-21.983,3.039-32.619,4.777q-4.59.748-9.043,1.526c-3.439.6-6.807,1.21-10.079,1.825a211.032,211.032,0,0,0-22.719,5.875C755.1,2525.806,693.8,2554.907,697.626,2571.1a6.318,6.318,0,0,0,1.9,3.051C698.44,2557.779,758.062,2529.616,800.485,2516.449Z" transform="translate(-697.455 -2493.021)" fill="#fff"/>
        </g>
      </g>
      <g id="Group_603" data-name="Group 603" transform="translate(140.973 205.378)">
        <g id="Group_602" data-name="Group 602">
          <path id="Path_720" data-name="Path 720" d="M2094.511,2550.093,2092,2613.277q-5.12,1.79-10.549,3.409-11.763,3.511-23.076,6.262l3.513-68.077C2072.528,2553.132,2083.622,2551.507,2094.511,2550.093Z" transform="translate(-2058.379 -2550.093)" fill="#378381"/>
        </g>
      </g>
      <g id="Group_605" data-name="Group 605" transform="translate(95.092 212.193)">
        <g id="Group_604" data-name="Group 604">
          <path id="Path_721" data-name="Path 721" d="M1646.42,2616.671l-2.719,68.5c-11.688,2.636-22.914,4.694-33.538,6.237l3.459-67.034a210.969,210.969,0,0,1,22.719-5.875C1639.613,2617.881,1642.981,2617.27,1646.42,2616.671Z" transform="translate(-1610.163 -2616.671)" fill="#378381"/>
        </g>
      </g>
      <g id="Group_607" data-name="Group 607" transform="translate(1.663 201.608)" opacity="0.3">
        <g id="Group_606" data-name="Group 606">
          <path id="Path_722" data-name="Path 722" d="M953.273,2513.266c.349,12.748-31.891,48.431-93.424,66.78-88.127,26.282-158.9,20.232-162.217,6.158-.624-2.653.495-5.651,3-8.873,3.472,14.037,74.181,20.045,162.2-6.208C913.24,2556.093,943.992,2529.424,953.273,2513.266Z" transform="translate(-697.462 -2513.266)" fill="#650000"/>
        </g>
      </g>
      <g id="Group_609" data-name="Group 609" transform="translate(75.117 203.77)" opacity="0.2">
        <g id="Group_608" data-name="Group 608" transform="translate(0 0)">
          <ellipse id="Ellipse_26" data-name="Ellipse 26" cx="62.396" cy="20.246" rx="62.396" ry="20.246" transform="matrix(0.967, -0.254, 0.254, 0.967, 0, 31.752)" fill="#650000"/>
        </g>
      </g>
      <g id="Group_611" data-name="Group 611" transform="translate(0 198.365)">
        <g id="Group_610" data-name="Group 610">
          <path id="Path_723" data-name="Path 723" d="M732.36,2575.065c-20.91,0-37.493-2.586-45.547-7.248-3.036-1.758-4.849-3.8-5.386-6.085-.615-2.608.1-5.505,2.115-8.609,13.341-20.516,86.294-51.166,122.727-58.028h0c25.892-4.876,57.988-9.367,83.763-11.718,45.981-4.2,48.5.088,49.446,1.7,1.274,2.167,1.167,5.18-.318,8.954-3.535,8.986-14.183,20.677-28.482,31.271-12.486,9.252-33.889,22.224-64.941,31.485-44.159,13.169-79.536,17.064-101.438,18.013C740.192,2574.978,736.2,2575.065,732.36,2575.065Zm74.218-78.335.308,1.634c-35.059,6.6-107.859,37.049-120.555,56.572-1.5,2.313-2.065,4.343-1.666,6.033.315,1.334,1.634,2.706,3.815,3.969,9.007,5.214,29.821,7.657,55.677,6.538,21.714-.94,56.8-4.805,100.631-17.877,52.641-15.7,85.066-45,91.278-60.786,1.061-2.7,1.254-4.844.546-6.05-.129-.169-1.684-1.761-14.115-1.829-8.08-.049-19.393.58-32.7,1.806-25.564,2.354-57.332,6.809-82.906,11.625Z" transform="translate(-681.213 -2481.588)" fill="#650000"/>
        </g>
      </g>
      <g id="Group_613" data-name="Group 613" transform="translate(156.372 135.966)">
        <g id="Group_612" data-name="Group 612">
          <path id="Path_724" data-name="Path 724" d="M2216.525,1925.12s14.948,1.554,22.782,3.264c32.391,7.072,42.08,3.336,51.281-.571,17.3-7.35,30.589-25.779,17.263-45.372-13.519-19.876-39.3-7.552-42.2,5.678-1.709,7.794,1.916,12.658,9.654,12s9-11.257,15.693-10.092,10.753,13.139.074,19.806-26.3,10.585-45.583,4.223c-20.855-6.881-36.675-7.648-36.675-7.648Z" transform="translate(-2208.812 -1872.014)" fill="#804959"/>
        </g>
      </g>
      <g id="Group_619" data-name="Group 619" transform="translate(212.801 148.358)" opacity="0.3">
        <g id="Group_618" data-name="Group 618">
          <path id="Path_727" data-name="Path 727" d="M2760.066,2000.761c1.692,1.879,4.428,2.8,8.083,2.495,7.738-.657,9.006-11.26,15.692-10.1,3.547.62,6.353,4.27,6.619,8.561a7.487,7.487,0,0,0-4.636-3.027c-6.69-1.164-7.958,9.434-15.7,10.091C2763.808,2009.322,2760.232,2006.175,2760.066,2000.761Z" transform="translate(-2760.066 -1993.071)" fill="#650000"/>
        </g>
      </g>
      <g id="Group_621" data-name="Group 621" transform="translate(156.374 151.133)" opacity="0.3">
        <g id="Group_620" data-name="Group 620">
          <path id="Path_728" data-name="Path 728" d="M2290.6,2060.814c-9.2,3.908-18.889,7.646-51.279.574-7.833-1.713-22.781-3.264-22.781-3.264l-7.713-18.71s.1,0,.308.017l5.426,13.16s14.948,1.555,22.781,3.264c32.39,7.073,42.078,3.339,51.28-.57,14.232-6.045,25.746-19.583,21.97-35.1C2319.011,2037.954,2306.5,2054.062,2290.6,2060.814Z" transform="translate(-2208.831 -2020.183)" fill="#650000"/>
        </g>
      </g>
      <g id="Group_623" data-name="Group 623" transform="translate(153.836 134.301)">
        <g id="Group_622" data-name="Group 622">
          <path id="Path_729" data-name="Path 729" d="M2247.052,1919.413c-7.3,0-16.938-1.077-30.339-4-7.653-1.671-22.451-3.219-22.6-3.234l-.987-.1-9.09-22.05,2.617.126c.655.032,16.285.857,37.116,7.73,20.38,6.725,35.275,1.507,44.182-4.054,6.231-3.891,6-8.924,5.615-10.908-.591-3.024-2.685-5.43-5.094-5.849-2.323-.4-3.715,1.136-5.975,3.895-2.129,2.6-4.779,5.834-9.292,6.217-5.231.442-8.071-1.451-9.532-3.118-2.238-2.553-2.891-6.322-1.887-10.9,1.7-7.76,10.374-15.038,20.173-16.93,9.98-1.928,19.1,1.963,25.028,10.673,5.424,7.976,7.027,16.492,4.635,24.627-2.861,9.732-11.319,18.409-22.624,23.211A48.961,48.961,0,0,1,2247.052,1919.413Zm-51.606-10.439c3.491.379,15.219,1.712,21.976,3.187,32.465,7.089,41.519,3.242,50.275-.477,10.4-4.417,18.15-12.3,20.733-21.088,2.132-7.251.721-14.592-4.195-21.819-7.039-10.35-16.583-10.254-21.647-9.278-8.433,1.628-16.143,7.943-17.555,14.376-.768,3.5-.374,6.266,1.14,7.993,1.371,1.564,3.7,2.255,6.75,2,3.111-.263,5-2.569,7-5.01,2.235-2.729,4.767-5.824,9.119-5.063,3.8.661,6.925,4.072,7.787,8.489,1.082,5.538-1.579,10.909-7.118,14.366-7.785,4.862-24.242,11.9-46.986,4.391a162.089,162.089,0,0,0-33.58-7.347Z" transform="translate(-2184.036 -1855.751)" fill="#650000"/>
        </g>
      </g>
      <g id="Group_625" data-name="Group 625" transform="translate(195.393 117.921)">
        <g id="Group_624" data-name="Group 624">
          <path id="Path_730" data-name="Path 730" d="M2597.031,1718.466s-8.176-8.264-6.89-12.218c1.416-4.356,8.474,1.644,8.575,1.633s.619-11.558,5.308-12.132c4.058-.5,3.36,9.1,3.549,9.206.114.064,5.849-6.234,7.72-3.113s-1.6,10.657-1.484,10.769c.173.173,6.481-4.279,9.085-.541s-5.75,13.451-11.684,14.2C2605.515,1726.99,2597.031,1718.466,2597.031,1718.466Z" transform="translate(-2590.003 -1695.731)" fill="#ffca9f"/>
        </g>
      </g>
      <g id="Group_627" data-name="Group 627" transform="translate(193.741 116.258)">
        <g id="Group_626" data-name="Group 626">
          <path id="Path_731" data-name="Path 731" d="M2596.043,1713.39c-6.186,0-13.787-7.449-14.672-8.337l0,0c-1.484-1.5-8.811-9.221-7.289-13.9a3.7,3.7,0,0,1,2.431-2.551c1.972-.622,4.353.436,6.407,1.742.563-3.98,2.022-10.288,6.424-10.827a3.678,3.678,0,0,1,2.937.884c1.523,1.324,2.093,3.817,2.309,6.466,1.73-1.354,3.55-2.339,5.232-2.1a3.288,3.288,0,0,1,2.42,1.643c1.3,2.171.809,5.433-.122,8.552,2.473-.866,5.684-1.258,7.661,1.581.74,1.063,1.337,2.975-.029,6.047-2.036,4.578-7.8,10.121-12.812,10.754A7.165,7.165,0,0,1,2596.043,1713.39Zm-12.312-10.682c2.205,2.211,8.8,7.833,12.791,7.327,3.354-.423,8.4-4.784,10.188-8.8.558-1.254.684-2.3.339-2.794-1.151-1.653-4.138-.355-6.285.766-.683.357-1.715.9-2.611,0-.774-.774-.465-1.61-.138-2.494,2.056-5.564,1.881-7.746,1.371-8.6a.361.361,0,0,0-.056-.077c-.07-.008-1.13-.153-4.664,3.164a1.928,1.928,0,0,1-2.389.619c-.863-.484-.877-1.228-.9-2.257-.085-4.651-.746-6.186-1.285-6.654a.369.369,0,0,0-.351-.093c-.463.056-2.821.811-3.788,10.127-.062.6-.193,1.857-1.538,2.007a1.9,1.9,0,0,1-1.464-.525c-3.978-3-5.306-2.7-5.445-2.654-.041.013-.152.048-.268.407C2576.662,1693.96,2580.129,1699.061,2583.73,1702.707Z" transform="translate(-2573.872 -1679.48)" fill="#650000"/>
        </g>
      </g>
      <g id="Group_629" data-name="Group 629" transform="translate(146.137 120.605)">
        <g id="Group_628" data-name="Group 628">
          <path id="Path_732" data-name="Path 732" d="M2108.822,1721.953c17.554,7.078,64.617,5.8,69.615,11.735,2.393,2.842,5.925,13.018-5.724,19.557-9.673,5.43-40.614,6.164-51.814,1.772" transform="translate(-2108.822 -1721.953)" fill="#804959"/>
        </g>
      </g>
      <g id="Group_633" data-name="Group 633" transform="translate(146.137 120.606)" opacity="0.3">
        <g id="Group_632" data-name="Group 632">
          <path id="Path_734" data-name="Path 734" d="M2180.153,1745.3c-1.023,2.781-3.247,5.6-7.435,7.95-9.675,5.43-40.614,6.162-51.816,1.771l-12.074-33.064a65.3,65.3,0,0,0,12.977,3.281l2.558,6.311a30.632,30.632,0,0,0,30.944,19.042C2164.941,1749.779,2174.651,1747.778,2180.153,1745.3Z" transform="translate(-2108.828 -1721.961)" fill="#650000"/>
        </g>
      </g>
      <g id="Group_635" data-name="Group 635" transform="translate(144.473 118.942)">
        <g id="Group_634" data-name="Group 634">
          <path id="Path_735" data-name="Path 735" d="M2129.135,1744.945c-9.418,0-18.452-1.015-23.433-2.968a1.663,1.663,0,1,1,1.215-3.1c11.216,4.4,41.358,3.4,50.392-1.674,4.105-2.3,6.51-5.25,7.146-8.754a11,11,0,0,0-1.88-8.282c-2.056-2.441-16.338-3.721-28.939-4.85-14.537-1.3-31.013-2.779-40.026-6.413a1.663,1.663,0,1,1,1.244-3.085c8.556,3.45,24.771,4.9,39.078,6.185,18.041,1.617,28.385,2.693,31.186,6.021a14.219,14.219,0,0,1,2.609,11.019c-.565,3.112-2.549,7.556-8.791,11.06C2153.106,1743.381,2140.825,1744.945,2129.135,1744.945Z" transform="translate(-2092.569 -1705.702)" fill="#650000"/>
        </g>
      </g>
      <g id="Group_637" data-name="Group 637" transform="translate(79.182 123.521)">
        <g id="Group_636" data-name="Group 636">
          <path id="Path_736" data-name="Path 736" d="M1556.864,1837.705c-4.445,13.975-17.733,22.873-23.343,13.655-3.538-5.809-4.532-14.54-3.908-19.151a51.186,51.186,0,0,0-11-.836c-1.958.033-9.958.374-9.035,2.333a15.4,15.4,0,0,1,1.239,5.126c0,5.871-3.222,20.112-9.414,26.661-7.63,8.071-20.723,9.409-23.584-8.811-.911-5.817.474-13.684.474-13.684s-15.359-1.085-20.682-14.665c-3.517-8.973-4.49-18.96,1.073-33.554,2.673-7.014,6.856-15.093,12.993-24.631q3.424-5.32,7.676-11.264,2.906-4.066,6.237-8.449l64.281,3.106a120.94,120.94,0,0,0-5.256,19.222c-3.962,21.359-.511,35.908-.511,35.908s11.247-.345,14.1,8.99C1560.157,1824.034,1558.755,1831.764,1556.864,1837.705Z" transform="translate(-1454.745 -1750.435)" fill="#804959"/>
        </g>
      </g>
      <g id="Group_639" data-name="Group 639" transform="translate(79.184 165.017)" opacity="0.3">
        <g id="Group_638" data-name="Group 638">
          <path id="Path_737" data-name="Path 737" d="M1503.56,2220.772a37.385,37.385,0,0,0,5.73-7.958c-1.526,5.979-4.166,12.644-7.867,16.557-7.63,8.071-20.723,9.409-23.583-8.811-.911-5.817.474-13.684.474-13.684s-15.359-1.085-20.681-14.665c-3.231-8.25-4.316-17.359-.146-30.116,1.046-4.292,12.54-6.287,12.54-6.287a37.156,37.156,0,0,0-8.182,29.439c1.88,12.126,11.281,11.477,17.969,13.514a5.949,5.949,0,0,1,3.961,7.428,22.422,22.422,0,0,0-1.11,7.41C1483.416,2232.032,1495.93,2228.838,1503.56,2220.772Z" transform="translate(-1454.764 -2155.809)" fill="#650000"/>
        </g>
      </g>
      <g id="Group_641" data-name="Group 641" transform="translate(125.204 197.7)" opacity="0.3">
        <g id="Group_640" data-name="Group 640">
          <path id="Path_738" data-name="Path 738" d="M1962.255,2480.509a51.3,51.3,0,0,1-1.829,7.671c-4.445,13.975-17.734,22.873-23.343,13.655-3.538-5.809-4.532-14.54-3.908-19.151a51.187,51.187,0,0,0-11-.836c-1.576.029-7.089.254-8.678,1.368-2.3-2.245-5.609-4.84-8.89-5.122-2.158-.183,8.476-3.073,19.319-3,3.076.02,6.082.262,8.44.519a4.763,4.763,0,0,1,4.229,5.04,21.238,21.238,0,0,0,2.622,12.587C1944.709,2502.242,1957.528,2493.943,1962.255,2480.509Z" transform="translate(-1904.329 -2475.089)" fill="#650000"/>
        </g>
      </g>
      <g id="Group_643" data-name="Group 643" transform="translate(77.533 121.858)">
        <g id="Group_642" data-name="Group 642">
          <path id="Path_739" data-name="Path 739" d="M1475.447,1858.236a11.848,11.848,0,0,1-3.517-.522c-3.743-1.161-8.553-4.769-10.214-15.356a47.829,47.829,0,0,1,.219-12.512c-4.415-.745-15.741-3.769-20.331-15.484-6.574-16.778-4.294-36.72,28.2-79.512a1.663,1.663,0,1,1,2.649,2.012c-31.557,41.557-33.918,60.552-27.753,76.286,4.861,12.406,18.667,13.567,19.252,13.61l1.833.136-.315,1.811c-.013.076-1.326,7.671-.468,13.137,1.1,7.041,3.841,11.431,7.914,12.7,3.9,1.21,8.934-.66,12.816-4.766,5.782-6.115,8.943-20,8.96-25.473a13.76,13.76,0,0,0-1.081-4.463,2.289,2.289,0,0,1,.118-2.22c.358-.575,1.448-2.326,10.391-2.486a53.012,53.012,0,0,1,11.391.876l1.489.333-.2,1.512c-.535,3.969.265,12.455,3.681,18.066a5.446,5.446,0,0,0,5.6,2.921c4.894-.587,11.744-6.813,14.736-16.217,1.667-5.24,3.253-12.8,1.341-19.051-2.442-7.985-12.056-7.822-12.466-7.815l-1.35.035-.315-1.314c-.235-.99-5.616-24.606,5.826-56.082a1.663,1.663,0,1,1,3.126,1.137c-9.629,26.487-6.881,47.673-5.959,52.927,4.615.3,12.023,2.63,14.32,10.139,2.163,7.073.459,15.342-1.352,21.033-3.1,9.727-10.623,17.685-17.51,18.511a8.741,8.741,0,0,1-8.839-4.495c-3.468-5.695-4.534-13.738-4.28-18.643a55.931,55.931,0,0,0-9.177-.547,30.4,30.4,0,0,0-7.2.822,17.642,17.642,0,0,1,1.033,4.9l0,.075c0,6.232-3.3,20.853-9.87,27.8C1484.381,1856.041,1479.761,1858.236,1475.447,1858.236Z" transform="translate(-1438.633 -1734.192)" fill="#650000"/>
        </g>
      </g>
      <g id="Group_645" data-name="Group 645" transform="translate(151.954 219.208)">
        <g id="Group_644" data-name="Group 644">
          <path id="Path_740" data-name="Path 740" d="M2175.887,2685.6s-11.437,2.22-10.133,6.933c.89,3.218,8.821.685,8.821.685s7.8,5.721,17.1,4.85c6.049-.567,3.14-3.8,3.356-4.072s4.846,1.967,6.543,1.055a1.918,1.918,0,0,0,.642-3.092c.025-.109,1.639.123,2.158-.5,1.526-1.817-4.559-4.278-8.2-5.113C2187.31,2684.322,2175.887,2685.6,2175.887,2685.6Z" transform="translate(-2165.65 -2685.205)" fill="#f9d6b6"/>
        </g>
      </g>
      <g id="Group_647" data-name="Group 647" transform="translate(150.291 217.54)">
        <g id="Group_646" data-name="Group 646">
          <path id="Path_741" data-name="Path 741" d="M2175.135,2685.195a29.839,29.839,0,0,1-15.421-4.785c-1.864.515-5.983,1.417-8.364.129a3.523,3.523,0,0,1-1.777-2.189,4.375,4.375,0,0,1,.534-3.548c2.291-3.7,10.012-5.292,10.884-5.461l.132-.021c.478-.053,11.808-1.29,20.847.784.345.079,8.483,1.979,9.593,5.289a2.569,2.569,0,0,1-.491,2.514,2.687,2.687,0,0,1-1.219.806,3.292,3.292,0,0,1-.058.666,3.612,3.612,0,0,1-2.01,2.51c-1.349.726-3.193.4-5.19-.193a3.149,3.149,0,0,1-.4,1.122c-.754,1.292-2.371,2.038-4.942,2.279C2176.538,2685.164,2175.831,2685.195,2175.135,2685.195Zm-14.837-8.444.683.5c.072.051,7.433,5.337,15.964,4.534a4.428,4.428,0,0,0,2.36-.628,2.859,2.859,0,0,0-.237-.676,1.976,1.976,0,0,1,.081-2.14c.793-1.007,1.854-.656,3.2-.212.8.263,3.221,1.064,3.888.82a1.123,1.123,0,0,0,.289-.21,1.054,1.054,0,0,0-.174-.357l-.533-.634.2-.785a1.6,1.6,0,0,1,1.4-1.277,23.919,23.919,0,0,0-6.19-2.34c-8.142-1.866-18.741-.824-19.668-.727-2.758.549-7.479,2.085-8.624,3.935a1.048,1.048,0,0,0-.156.908c.011.039.022.079.153.15,1.174.636,4.609.015,6.56-.606Z" transform="translate(-2149.41 -2668.906)" fill="#650000"/>
        </g>
      </g>
      <g id="Group_649" data-name="Group 649" transform="translate(174.258 223.82)">
        <g id="Group_648" data-name="Group 648">
          <path id="Path_742" data-name="Path 742" d="M2384.47,2730.271c.643.143,1.239.306,1.853.493s1.216.4,1.82.642a12.268,12.268,0,0,1,3.578,2.1l.051.044a1.683,1.683,0,0,1-2.219,2.531,1.745,1.745,0,0,1-.3-.342,9.385,9.385,0,0,0-2.273-2.208c-.463-.339-.953-.659-1.456-.966s-1.03-.6-1.537-.855l-.028-.014a.763.763,0,0,1,.51-1.427Z" transform="translate(-2383.541 -2730.253)" fill="#650000"/>
        </g>
      </g>
      <g id="Group_651" data-name="Group 651" transform="translate(181.762 222.046)">
        <g id="Group_650" data-name="Group 650">
          <path id="Path_743" data-name="Path 743" d="M2457.892,2712.962c1.166.373,2.3.77,3.449,1.207a32.438,32.438,0,0,1,3.44,1.52l.017.009a1.677,1.677,0,1,1-1.558,2.97,1.75,1.75,0,0,1-.337-.233,29.584,29.584,0,0,0-2.707-2.091c-.959-.667-1.957-1.318-2.954-1.932l-.012-.007a.8.8,0,0,1,.662-1.442Z" transform="translate(-2456.849 -2712.925)" fill="#650000"/>
        </g>
      </g>
      <g id="Group_653" data-name="Group 653" transform="translate(98.891 233.939)">
        <g id="Group_652" data-name="Group 652">
          <path id="Path_744" data-name="Path 744" d="M1657.515,2829.5s-11.437,2.22-10.133,6.933c.89,3.218,8.821.686,8.821.686s7.8,5.721,17.1,4.849c6.049-.567,3.14-3.8,3.356-4.072s4.846,1.967,6.543,1.055a1.919,1.919,0,0,0,.641-3.092c.025-.109,1.639.124,2.158-.5,1.526-1.817-4.559-4.278-8.2-5.113C1668.938,2828.223,1657.515,2829.5,1657.515,2829.5Z" transform="translate(-1647.278 -2829.106)" fill="#f9d6b6"/>
        </g>
      </g>
      <g id="Group_655" data-name="Group 655" transform="translate(97.228 232.27)">
        <g id="Group_654" data-name="Group 654">
          <path id="Path_745" data-name="Path 745" d="M1656.762,2829.1a29.838,29.838,0,0,1-15.421-4.786c-1.864.516-5.983,1.417-8.364.129a3.523,3.523,0,0,1-1.777-2.189,4.374,4.374,0,0,1,.534-3.548c2.291-3.7,10.012-5.292,10.885-5.461l.132-.021c.477-.053,11.809-1.289,20.847.783.346.08,8.484,1.981,9.593,5.29a2.569,2.569,0,0,1-.492,2.514,2.687,2.687,0,0,1-1.218.806,3.271,3.271,0,0,1-.058.666,3.61,3.61,0,0,1-2.01,2.511c-1.349.725-3.193.4-5.19-.193a3.15,3.15,0,0,1-.4,1.122c-.755,1.292-2.371,2.038-4.942,2.279C1658.165,2829.066,1657.457,2829.1,1656.762,2829.1Zm-14.837-8.444.683.5c.071.052,7.427,5.337,15.963,4.534a4.426,4.426,0,0,0,2.36-.628,2.864,2.864,0,0,0-.237-.676,1.976,1.976,0,0,1,.082-2.142c.792-1.006,1.853-.655,3.2-.211.8.263,3.22,1.064,3.889.82a1.118,1.118,0,0,0,.288-.209,1.054,1.054,0,0,0-.174-.357l-.533-.634.2-.785a1.6,1.6,0,0,1,1.4-1.277,23.923,23.923,0,0,0-6.19-2.34c-8.142-1.867-18.741-.823-19.668-.726-2.759.549-7.479,2.085-8.624,3.935a1.047,1.047,0,0,0-.156.908c.011.039.022.078.153.15,1.173.637,4.608.014,6.56-.606Z" transform="translate(-1631.036 -2812.808)" fill="#650000"/>
        </g>
      </g>
      <g id="Group_657" data-name="Group 657" transform="translate(121.195 238.55)">
        <g id="Group_656" data-name="Group 656">
          <path id="Path_746" data-name="Path 746" d="M1866.1,2874.172c.643.143,1.239.306,1.853.493s1.216.4,1.819.642a12.272,12.272,0,0,1,3.577,2.1l.051.044a1.683,1.683,0,0,1-2.219,2.531,1.743,1.743,0,0,1-.3-.342,9.382,9.382,0,0,0-2.273-2.208c-.463-.34-.953-.66-1.456-.966s-1.031-.6-1.537-.855l-.028-.014a.763.763,0,0,1,.51-1.427Z" transform="translate(-1865.168 -2874.154)" fill="#650000"/>
        </g>
      </g>
      <g id="Group_659" data-name="Group 659" transform="translate(128.699 236.776)">
        <g id="Group_658" data-name="Group 658">
          <path id="Path_747" data-name="Path 747" d="M1939.519,2856.863c1.166.373,2.3.77,3.449,1.207a32.438,32.438,0,0,1,3.44,1.52l.017.009a1.677,1.677,0,0,1-1.558,2.97,1.761,1.761,0,0,1-.337-.234,29.584,29.584,0,0,0-2.707-2.091c-.959-.667-1.957-1.318-2.954-1.932l-.012-.008a.8.8,0,0,1,.663-1.442Z" transform="translate(-1938.476 -2856.825)" fill="#650000"/>
        </g>
      </g>
      <g id="Group_661" data-name="Group 661" transform="translate(135.255 211.918)">
        <g id="Group_660" data-name="Group 660">
          <path id="Path_748" data-name="Path 748" d="M2002.522,2613.992" transform="translate(-2002.522 -2613.992)" fill="none" stroke="#650000" stroke-linecap="round" stroke-width="32.495"/>
        </g>
      </g>
      <g id="Group_663" data-name="Group 663" transform="translate(33.897 131.442)">
        <g id="Group_662" data-name="Group 662">
          <path id="Path_749" data-name="Path 749" d="M1083.476,1827.814l-4.2,13.347-6.374,20.229a45.656,45.656,0,0,1-11.322,2.848c-13.8,2.017-33.084,1.451-40.519-2.291-11.933-6.008-8.861-16.333-6.6-19.28,3.409-4.437,28.818-6.108,49.188-9.642,7.243-1.256,13.846-2.744,18.6-4.682C1082.669,1828.171,1083.081,1827.993,1083.476,1827.814Z" transform="translate(-1012.348 -1827.814)" fill="#804959"/>
        </g>
      </g>
      <g id="Group_665" data-name="Group 665" transform="translate(33.897 143.782)" opacity="0.3">
        <g id="Group_664" data-name="Group 664">
          <path id="Path_750" data-name="Path 750" d="M1073.049,1969.124l-.151.48a45.661,45.661,0,0,1-11.322,2.848c-13.8,2.017-33.084,1.451-40.519-2.291-11.933-6.008-8.861-16.332-6.6-19.28.728-.948,2.466-1.771,4.94-2.511-.358,4.254,1.285,9.621,8.665,13.339,7.434,3.742,26.715,4.308,40.519,2.291l.07-.01A3.987,3.987,0,0,1,1073.049,1969.124Z" transform="translate(-1012.348 -1948.369)" fill="#650000"/>
        </g>
      </g>
      <g id="Group_667" data-name="Group 667" transform="translate(32.25 130.932)">
        <g id="Group_666" data-name="Group 666">
          <path id="Path_751" data-name="Path 751" d="M1069.266,1823.853a17.674,17.674,0,0,1-4.081,2.488,32.051,32.051,0,0,1-4.429,1.583,74.014,74.014,0,0,1-9.1,1.943c-1.524.253-3.045.507-4.568.738l-4.562.712c-3.041.456-6.082.88-9.12,1.294-6.074.833-12.148,1.6-18.146,2.588-2.992.5-5.981,1.044-8.837,1.8a21.055,21.055,0,0,0-3.976,1.422,4.516,4.516,0,0,0-.4.226,3.1,3.1,0,0,0-.344.231,3.022,3.022,0,0,0-.262.219,1.722,1.722,0,0,0-.188.244l-.244.36-.223.419a9.091,9.091,0,0,0-.405.887,11.176,11.176,0,0,0-.171,7.8,12.871,12.871,0,0,0,5.192,6.06l1.846,1.057c.309.167.619.288.927.436.32.131.654.25.98.376a32.831,32.831,0,0,0,4.212,1.117,70.949,70.949,0,0,0,8.9,1.13,123.325,123.325,0,0,0,18.11-.137c1.506-.117,3.006-.274,4.5-.457s2.972-.473,4.434-.777,2.927-.549,4.388-.791a33.863,33.863,0,0,1,4.537-.41h.017a.595.595,0,0,1,.433,1.013,11.345,11.345,0,0,1-4.161,2.522,24.241,24.241,0,0,1-4.588,1.161c-1.551.248-3.107.39-4.652.587s-3.093.349-4.641.468a126.574,126.574,0,0,1-18.611.14,74.144,74.144,0,0,1-9.322-1.188,36.038,36.038,0,0,1-4.661-1.241c-.388-.149-.776-.287-1.164-.448-.383-.18-.786-.344-1.151-.54-.714-.407-1.433-.8-2.14-1.227-.671-.5-1.367-.954-2.011-1.492l-.933-.862-.464-.433-.416-.491-.824-.99c-.25-.351-.472-.727-.706-1.091l-.345-.552-.279-.592c-.176-.4-.381-.787-.526-1.2a14.489,14.489,0,0,1,.2-10.175,12.361,12.361,0,0,1,.549-1.2l.32-.592.4-.593a4.754,4.754,0,0,1,.531-.649,6.817,6.817,0,0,1,1.22-.934c.2-.13.4-.236.6-.339a23.974,23.974,0,0,1,4.652-1.687c3.066-.816,6.113-1.365,9.161-1.875,6.094-1,12.176-1.77,18.24-2.6,3.032-.413,6.058-.835,9.075-1.287s6.025-.942,9-1.541c2.975-.615,5.925-1.285,8.867-1.91,2.944-.665,5.824-1.287,8.9-1.731h0a.577.577,0,0,1,.457,1.009Z" transform="translate(-996.261 -1822.838)" fill="#650000"/>
        </g>
      </g>
      <g id="Group_669" data-name="Group 669" transform="translate(143.128 146.882)">
        <g id="Group_668" data-name="Group 668">
          <path id="Path_752" data-name="Path 752" d="M2079.427,1978.652" transform="translate(-2079.427 -1978.652)" fill="none" stroke="#650000" stroke-linecap="round" stroke-width="32.495"/>
        </g>
      </g>
      <g id="Group_671" data-name="Group 671" transform="translate(110.54 145.065)">
        <g id="Group_670" data-name="Group 670" transform="translate(0)">
          <ellipse id="Ellipse_27" data-name="Ellipse 27" cx="24.6" cy="23.827" rx="24.6" ry="23.827" transform="matrix(0.111, -0.994, 0.994, 0.111, 0, 48.897)" fill="#ffca9f"/>
        </g>
      </g>
      <g id="Group_673" data-name="Group 673" transform="translate(125.285 200.44)">
        <g id="Group_672" data-name="Group 672">
          <path id="Path_753" data-name="Path 753" d="M1905.339,2501.885a10.277,10.277,0,0,1,4.274.611,10.553,10.553,0,0,1,3.831,2.4,7.221,7.221,0,0,1,.791.857,6.388,6.388,0,0,1,.709.935c.209.33.41.668.609,1.007.165.351.3.714.455,1.073.072.181.151.36.216.543s.1.371.143.557c.095.371.177.746.252,1.121a14.245,14.245,0,0,1,.13,2.25,1.654,1.654,0,0,1-3.242.462l-.079-.272c-.173-.593-.248-1.193-.369-1.771-.182-.555-.233-1.158-.452-1.684l-.264-.821c-.116-.258-.231-.518-.338-.785a5.541,5.541,0,0,0-.383-.769,4.7,4.7,0,0,0-.447-.743,10.356,10.356,0,0,0-2.485-2.606,14.434,14.434,0,0,0-3.4-1.89l-.025-.01a.241.241,0,0,1,.07-.463Z" transform="translate(-1905.118 -2501.856)" fill="#650000"/>
        </g>
      </g>
      <g id="Group_675" data-name="Group 675" transform="translate(24.558 131.442)">
        <g id="Group_674" data-name="Group 674">
          <path id="Path_754" data-name="Path 754" d="M950.682,1850.02s-.711,1.247-1.883,2.952c-2.4,3.48-6.744,8.877-10.956,9.472-6.536.923-18.249-7-16.561-11.738a3.664,3.664,0,0,1,1.684-2.021c2.923-1.667,8.041.15,8.149-.037.087-.15-5.788-7.172-4.7-11.039s9.023,1.177,9.127,1.077c.171-.17-3.355-10.187,1.11-10.835,5.16-.744,9.06,11.4,9.172,11.384s5.888-8.453,8.657-4.224C956.994,1838.848,950.682,1850.02,950.682,1850.02Z" transform="translate(-921.117 -1827.817)" fill="#ffca9f"/>
        </g>
      </g>
      <g id="Group_677" data-name="Group 677" transform="translate(37.4 145.85)">
        <g id="Group_676" data-name="Group 676" transform="translate(0 0)">
          <ellipse id="Ellipse_28" data-name="Ellipse 28" cx="5.404" cy="4.839" rx="5.404" ry="4.839" transform="translate(0 10.279) rotate(-72.015)" fill="#f28475"/>
        </g>
      </g>
      <g id="Group_679" data-name="Group 679" transform="translate(24.558 152.31)" opacity="0.3">
        <g id="Group_678" data-name="Group 678">
          <path id="Path_755" data-name="Path 755" d="M948.8,2035.965c-2.4,3.48-6.744,8.877-10.956,9.472-6.536.923-18.249-7-16.561-11.738a3.664,3.664,0,0,1,1.684-2.021c-.586.99.57,3.615,3.026,5.358C932.4,2041.58,941.427,2039.52,948.8,2035.965Z" transform="translate(-921.117 -2031.678)" fill="#650000"/>
        </g>
      </g>
      <g id="Group_681" data-name="Group 681" transform="translate(22.894 129.778)">
        <g id="Group_680" data-name="Group 680">
          <path id="Path_756" data-name="Path 756" d="M922.183,1849.585c-5.217,0-12.116-3.859-15.3-7.767-2.294-2.813-2.221-4.96-1.755-6.265,1.3-3.63,4.983-4.024,7.869-3.761-1.962-3.1-3.535-6.512-2.771-9.228a3.462,3.462,0,0,1,2-2.339c1.749-.749,4.046-.152,6.345.852-.582-2.957-.754-5.874.5-7.746a3.894,3.894,0,0,1,2.753-1.718c4.823-.7,8.2,5.791,9.9,9.815,1.814-2.034,4.067-3.941,6.366-3.856a3.912,3.912,0,0,1,3.191,1.935c2.922,4.46-2.6,14.727-3.741,16.739l0,0c-.714,1.254-7.17,12.276-14.054,13.247A9.35,9.35,0,0,1,922.183,1849.585Zm-10.612-14.537c-1.548,0-2.871.388-3.312,1.624-.248.7.189,1.806,1.2,3.045,3.1,3.8,9.822,7.019,13.561,6.487,4.472-.631,9.908-8.583,11.627-11.6,2.343-4.153,5.187-11.241,3.853-13.277-.277-.423-.462-.431-.541-.434-.285-.026-1.824.154-5.174,4.471a1.94,1.94,0,0,1-1.294.919c-1.342.21-1.792-.956-2.035-1.583-3.682-9.52-6.407-9.9-7.155-9.8a.58.58,0,0,0-.465.276c-.667,1-.487,3.552.535,7.6.274,1.085.455,1.8-.256,2.5-.885.87-1.869.347-2.52,0-4.32-2.295-5.677-2.162-6.059-2-.036.015-.067.028-.11.181-.306,1.09.135,3.52,3.977,8.906.621.87,1.112,1.558.566,2.511-.63,1.1-1.766.854-2.595.673A18.625,18.625,0,0,0,911.571,1835.048Zm24.522.381h0Z" transform="translate(-904.864 -1811.561)" fill="#650000"/>
        </g>
      </g>
      <g id="Group_683" data-name="Group 683" transform="translate(201.389 72.509)">
        <g id="Group_682" data-name="Group 682">
          <path id="Path_757" data-name="Path 757" d="M2648.583,1263.131s1.881-11.022,13.73-11.034c11.382-.011,16.508,11.034,15.213,19.347-1.361,8.734-5.934,13.386-12.765,15.529a31.534,31.534,0,0,1-14.572.548" transform="translate(-2648.583 -1252.097)" fill="#ffca9f"/>
        </g>
      </g>
      <g id="Group_687" data-name="Group 687" transform="translate(201.389 82.429)">
        <g id="Group_686" data-name="Group 686">
          <path id="Path_759" data-name="Path 759" d="M2648.583,1355a7.674,7.674,0,0,1,7.916-5.989c6.562-.006,9.517,5.989,8.77,10.5-.784,4.741-3.421,7.266-7.359,8.429a19.278,19.278,0,0,1-8.4.3" transform="translate(-2648.583 -1349.011)" fill="#f28475"/>
        </g>
      </g>
      <g id="Group_707" data-name="Group 707" transform="translate(201.174 89.452)">
        <g id="Group_706" data-name="Group 706">
          <path id="Path_769" data-name="Path 769" d="M2657.279,1425.5a7.215,7.215,0,0,1-2.816,4.423,26.458,26.458,0,0,1-7.052-.021l-.927-9.943a5.335,5.335,0,0,1,1.486-2.334c.177-.008.354-.01.538-.01C2655.071,1417.609,2658.026,1422.112,2657.279,1425.5Z" transform="translate(-2646.484 -1417.614)" fill="#f29f8f"/>
        </g>
      </g>
      <g id="Group_689" data-name="Group 689" transform="translate(199.853 80.894)">
        <g id="Group_688" data-name="Group 688">
          <path id="Path_760" data-name="Path 760" d="M2639.721,1356.642a20.793,20.793,0,0,1-4-.367,1.536,1.536,0,0,1,.643-3,17.862,17.862,0,0,0,7.645-.268,8.22,8.22,0,0,0,6.279-7.207,8.09,8.09,0,0,0-1.765-6.3,6.912,6.912,0,0,0-5.48-2.417h-.009c-5.328,0-6.314,4.254-6.409,4.738a1.535,1.535,0,0,1-3.02-.558,9.181,9.181,0,0,1,9.425-7.251h.012a9.9,9.9,0,0,1,7.821,3.5,11.13,11.13,0,0,1,2.454,8.787,11.277,11.277,0,0,1-8.44,9.651A18.389,18.389,0,0,1,2639.721,1356.642Z" transform="translate(-2633.581 -1334.011)" fill="#650000"/>
        </g>
      </g>
      <g id="Group_691" data-name="Group 691" transform="translate(199.726 70.845)">
        <g id="Group_690" data-name="Group 690">
          <path id="Path_761" data-name="Path 761" d="M2641.982,1275.215a33.113,33.113,0,0,1-6.748-.657,1.663,1.663,0,0,1,.737-3.243,30.1,30.1,0,0,0,13.705-.513c6.748-2.117,10.441-6.628,11.62-14.2a16.752,16.752,0,0,0-3.619-12.971,12.679,12.679,0,0,0-9.933-4.457h-.015c-10.259.01-12.024,9.263-12.094,9.657a1.663,1.663,0,0,1-3.278-.566c.021-.124,2.269-12.4,15.368-12.417h.019a15.913,15.913,0,0,1,12.458,5.619,19.935,19.935,0,0,1,4.381,15.647c-1.377,8.841-5.928,14.356-13.911,16.86A29.3,29.3,0,0,1,2641.982,1275.215Z" transform="translate(-2632.333 -1235.849)" fill="#650000"/>
        </g>
      </g>
      <g id="Group_693" data-name="Group 693" transform="translate(55.727 72.509)">
        <g id="Group_692" data-name="Group 692">
          <path id="Path_762" data-name="Path 762" d="M1254.746,1263.131s-1.881-11.022-13.731-11.034c-11.382-.011-16.508,11.034-15.213,19.347,1.361,8.734,5.934,13.386,12.765,15.529a31.534,31.534,0,0,0,14.572.548" transform="translate(-1225.606 -1252.097)" fill="#ffca9f"/>
        </g>
      </g>
      <g id="Group_697" data-name="Group 697" transform="translate(55.727 86.799)" opacity="0.3">
        <g id="Group_696" data-name="Group 696">
          <path id="Path_764" data-name="Path 764" d="M1225.8,1396.755c1.361,8.736,5.934,13.389,12.764,15.531a31.551,31.551,0,0,0,14.573.545l.344-5.222a33.618,33.618,0,0,1-14.122-.91c-6.937-2.177-11.747-6.715-13.587-15A17.6,17.6,0,0,0,1225.8,1396.755Z" transform="translate(-1225.608 -1391.699)" fill="#650000"/>
        </g>
      </g>
      <g id="Group_699" data-name="Group 699" transform="translate(202.652 86.799)" opacity="0.3">
        <g id="Group_698" data-name="Group 698">
          <path id="Path_765" data-name="Path 765" d="M2688.6,1396.755c-1.361,8.736-5.934,13.389-12.764,15.531a31.551,31.551,0,0,1-14.573.545l-.344-5.222a33.618,33.618,0,0,0,14.122-.91c6.938-2.177,11.747-6.715,13.587-15A17.6,17.6,0,0,1,2688.6,1396.755Z" transform="translate(-2660.916 -1391.699)" fill="#650000"/>
        </g>
      </g>
      <g id="Group_701" data-name="Group 701" transform="translate(68.067 82.429)">
        <g id="Group_700" data-name="Group 700">
          <path id="Path_766" data-name="Path 766" d="M1362.957,1355a7.674,7.674,0,0,0-7.916-5.989c-6.562-.006-9.517,5.989-8.771,10.5.785,4.741,3.421,7.266,7.359,8.429a19.278,19.278,0,0,0,8.4.3" transform="translate(-1346.157 -1349.011)" fill="#f28475"/>
        </g>
      </g>
      <g id="Group_703" data-name="Group 703" transform="translate(68.067 82.427)">
        <g id="Group_702" data-name="Group 702">
          <path id="Path_767" data-name="Path 767" d="M1346.274,1359.5c.785,4.74,3.42,7.264,7.358,8.427.451.132.9.24,1.351.326a19.944,19.944,0,0,0,7.052-.028l.927-13.24a7.88,7.88,0,0,0-1.486-3.108,7.713,7.713,0,0,0-6.431-2.882C1348.482,1348.99,1345.527,1354.984,1346.274,1359.5Z" transform="translate(-1346.161 -1348.994)" fill="#f28475"/>
        </g>
      </g>
      <g id="Group_705" data-name="Group 705" transform="translate(75.87 89.452)">
        <g id="Group_704" data-name="Group 704">
          <path id="Path_768" data-name="Path 768" d="M1422.5,1425.5a7.214,7.214,0,0,0,2.816,4.423,26.456,26.456,0,0,0,7.052-.021l.927-9.943a5.335,5.335,0,0,0-1.486-2.334c-.177-.008-.354-.01-.538-.01C1424.712,1417.609,1421.757,1422.112,1422.5,1425.5Z" transform="translate(-1422.391 -1417.614)" fill="#f29f8f"/>
        </g>
      </g>
      <g id="Group_709" data-name="Group 709" transform="translate(66.531 80.894)">
        <g id="Group_708" data-name="Group 708">
          <path id="Path_770" data-name="Path 770" d="M1344.885,1356.642a18.384,18.384,0,0,1-5.157-.693,11.276,11.276,0,0,1-8.439-9.651,11.128,11.128,0,0,1,2.453-8.787,9.9,9.9,0,0,1,7.822-3.5h.012a9.181,9.181,0,0,1,9.425,7.251,1.535,1.535,0,0,1-3.02.557c-.1-.491-1.085-4.732-6.408-4.737h-.009a6.912,6.912,0,0,0-5.481,2.417,8.09,8.09,0,0,0-1.764,6.3A8.219,8.219,0,0,0,1340.6,1353a17.857,17.857,0,0,0,7.647.268,1.536,1.536,0,0,1,.64,3A20.81,20.81,0,0,1,1344.885,1356.642Z" transform="translate(-1331.155 -1334.011)" fill="#650000"/>
        </g>
      </g>
      <g id="Group_711" data-name="Group 711" transform="translate(54.059 70.845)">
        <g id="Group_710" data-name="Group 710">
          <path id="Path_771" data-name="Path 771" d="M1232.136,1275.215a29.289,29.289,0,0,1-8.69-1.24c-7.983-2.5-12.533-8.019-13.911-16.86a19.934,19.934,0,0,1,4.38-15.647,15.914,15.914,0,0,1,12.458-5.619h.019c13.1.013,15.347,12.293,15.369,12.417a1.663,1.663,0,0,1-3.278.565c-.073-.407-1.842-9.646-12.094-9.656h-.015a12.678,12.678,0,0,0-9.933,4.457,16.752,16.752,0,0,0-3.619,12.97c1.179,7.57,4.872,12.082,11.62,14.2a30.082,30.082,0,0,0,13.707.512,1.663,1.663,0,0,1,.736,3.244A33.121,33.121,0,0,1,1232.136,1275.215Z" transform="translate(-1209.315 -1235.849)" fill="#650000"/>
        </g>
      </g>
      <g id="Group_713" data-name="Group 713" transform="translate(77.596 1.664)">
        <g id="Group_712" data-name="Group 712">
          <path id="Path_772" data-name="Path 772" d="M1439.325,635.334c.514,9.594,3.129,19.785,7.979,26.642-4.444.816-6.622,5.108-7.253,9.566a19.326,19.326,0,0,0,.333,7.382c1.938,7.33,7.958,11.733,16.49,14.8.549.195,1.1.385,1.674.573a19.669,19.669,0,0,1-4.191-2.6c-4.549-3.649-7.663-9.108-7.945-13.382-.007-.16-.014-.319-.017-.476,0-.181,0-.361.007-.535,0-.146.007-.292.017-.431a10.989,10.989,0,0,1,3.757-7.684,15.9,15.9,0,0,1,5.84-3.274s-12.719-23.931.073-44.6c.1-.167.2-.337.313-.5,7.177-11.2,16.632-15.528,25.288-15.66a.148.148,0,0,1,.055,0c11.2-.149,21.045,6.719,22.861,14.778a12,12,0,0,1,.3,2.656h.288c0-8.951,10.309-17.247,22.389-17.434,8.875-.139,18.712,4.1,26.118,15.66.108.163.212.333.312.5,12.792,20.667.076,44.6.076,44.6a.427.427,0,0,1,.049.014,16.015,16.015,0,0,1,5.246,2.8,11.112,11.112,0,0,1,4.278,7.882,10.992,10.992,0,0,1,.045,1.233,13.8,13.8,0,0,1-1.254,5.174v0a23.39,23.39,0,0,1-5.469,7.608,20.447,20.447,0,0,1-5.431,3.677c9.417-3.087,16.1-7.569,18.167-15.371a19.484,19.484,0,0,0,.274-7.754c-.7-4.323-2.879-8.4-7.195-9.194,4.851-6.858,7.462-17.049,7.979-26.642,1.615-30.156-22.375-55.288-52.625-60.455,0,0-.007,0-.007,0-2.708-.858-7.083-2.288-12.924-4.323A31.838,31.838,0,0,1,1491.52,560.5a1.285,1.285,0,0,0-2.087.111,51.047,51.047,0,0,0-4.069,9.781,1.289,1.289,0,0,1-1.865.739c-1.309-.743-3.319-3.247-5.219-4.712a1.285,1.285,0,0,0-1.955.486,31.186,31.186,0,0,0-2.448,13.743C1452.742,590.837,1438.047,611.521,1439.325,635.334Z" transform="translate(-1439.248 -560.014)" fill="#804959"/>
        </g>
      </g>
      <g id="Group_717" data-name="Group 717" transform="translate(75.934 20.632)">
        <g id="Group_716" data-name="Group 716">
          <path id="Path_774" data-name="Path 774" d="M1443.97,862.287a1.66,1.66,0,0,1-.518-.083c-11.118-3.645-17.236-8.9-19.253-16.527-1.043-3.94-.9-10.18,1.885-14.569a9.848,9.848,0,0,1,4.065-3.706c-3.984-6.562-6.533-15.759-7.062-25.651a55.4,55.4,0,0,1,9.139-33.451,65.059,65.059,0,0,1,26.351-22.824,1.663,1.663,0,0,1,1.444,3c-21.592,10.411-34.786,31.255-33.614,53.1.541,10.107,3.411,19.741,7.676,25.771l1.5,2.126-2.562.47a6.131,6.131,0,0,0-4.134,2.95c-2.126,3.352-2.349,8.651-1.479,11.936,1.726,6.527,6.991,10.912,17.074,14.217a1.664,1.664,0,0,1-.518,3.244Z" transform="translate(-1423.008 -745.31)" fill="#650000"/>
        </g>
      </g>
      <g id="Group_719" data-name="Group 719" transform="translate(155.201 14.923)">
        <g id="Group_718" data-name="Group 718">
          <path id="Path_775" data-name="Path 775" d="M2232.076,812.233a1.663,1.663,0,0,1-.518-3.244c10.085-3.306,15.352-7.69,17.077-14.216.868-3.287.644-8.589-1.483-11.94a6.126,6.126,0,0,0-4.129-2.947l-2.562-.47,1.5-2.126c4.261-6.024,7.131-15.659,7.676-25.771,1.456-27.154-18.7-51.552-47.952-58.078h0l-.194-.041c-.852-.193-1.74-.37-2.714-.544l-.153-.032a1.663,1.663,0,0,1,.738-3.242l.023,0c.959.171,1.84.347,2.688.536l.156.032a67.85,67.85,0,0,1,36.981,21.929,56.416,56.416,0,0,1,13.752,39.615c-.534,9.9-3.082,19.094-7.062,25.652a9.847,9.847,0,0,1,4.061,3.7c2.785,4.388,2.932,10.63,1.891,14.573-2.017,7.63-8.136,12.882-19.257,16.527A1.665,1.665,0,0,1,2232.076,812.233Z" transform="translate(-2197.371 -689.548)" fill="#650000"/>
        </g>
      </g>
      <g id="Group_721" data-name="Group 721" transform="translate(85.195 123.521)" opacity="0.3">
        <g id="Group_720" data-name="Group 720">
          <path id="Path_776" data-name="Path 776" d="M1602.6,1753.541a120.925,120.925,0,0,0-5.256,19.222c-8.84,5.345-24.731,4.387-32.178,4.387-34.8,0-51.03-12.715-51.683-13.584,7.243-1.256,13.846-2.744,18.6-4.682q2.906-4.066,6.237-8.449Z" transform="translate(-1513.481 -1750.435)" fill="#650000"/>
        </g>
      </g>
      <g id="Group_723" data-name="Group 723" transform="translate(84.607 46.797)">
        <g id="Group_722" data-name="Group 722">
          <path id="Path_777" data-name="Path 777" d="M1507.742,1073.623a4.426,4.426,0,0,0,.153.458c.688,1.882,3.653,9.09,7.944,13.382a13.892,13.892,0,0,0,2.517,2.031,9.073,9.073,0,0,0,1.069.573c.8.264,1.625.514,2.462.754.267.08.535.153.8.226,4.417,1.212,6.833,2.25,9.785,3.156a54.779,54.779,0,0,0,9.4,1.941c9.844,1.3,18.479,2.476,23.559,2.476a147.286,147.286,0,0,0,34.309-4.93,108.459,108.459,0,0,0,16.174-5.576s0,0,.007-.007a26.736,26.736,0,0,0,2.545-1.715c2.688-2.048,4.767-4.562,5.469-7.608v0a10.633,10.633,0,0,0-.028-4.8c-.024-.122,1.038-1.028,1.007-1.142-.021-.087-.042-.174-.066-.257a18.11,18.11,0,0,0-3.983-8.087,8.262,8.262,0,0,0-5.247-2.8,3.756,3.756,0,0,0-.653-.014s12.427-23.931-.365-44.6c-.1-.17-.208-.337-.316-.5-7.16-11.177-16.583-15.507-25.222-15.66-11.247-.2-21.156,6.691-22.979,14.778a12.012,12.012,0,0,0-.3,2.656c0-8.993-10.406-17.323-22.559-17.434a.151.151,0,0,0-.055,0c-8.816-.066-18.549,4.194-25.893,15.66-.108.163-.208.33-.312.5-12.792,20.667-.073,44.6-.073,44.6s-2.608.045-5.236,3.274a20.792,20.792,0,0,0-3.677,7.743c-.031.121-.066.246-.1.372C1507.835,1073.251,1507.787,1073.435,1507.742,1073.623Z" transform="translate(-1507.742 -1000.92)" fill="#ffca9f"/>
        </g>
      </g>
      <g id="Group_725" data-name="Group 725" transform="translate(110.543)">
        <g id="Group_724" data-name="Group 724">
          <path id="Path_778" data-name="Path 778" d="M1762.79,567.718a1.663,1.663,0,0,1-1.661-1.609,32.918,32.918,0,0,1,2.592-14.478,2.949,2.949,0,0,1,4.488-1.122,30.992,30.992,0,0,1,2.808,2.585c.624.624,1.313,1.312,1.824,1.721a51.451,51.451,0,0,1,4.1-9.7,2.95,2.95,0,0,1,4.787-.251,33.609,33.609,0,0,0,13.021,9.55c10.465,4.16,15.663,4.838,15.714,4.844a1.663,1.663,0,0,1-.4,3.3c-.224-.027-5.6-.706-16.544-5.056a37.315,37.315,0,0,1-14.048-10.148,54.925,54.925,0,0,0-3.613,8.929,2.95,2.95,0,0,1-4.271,1.7,15.886,15.886,0,0,1-2.928-2.539c-.7-.7-1.419-1.418-2.108-2a29.965,29.965,0,0,0-2.1,12.551,1.663,1.663,0,0,1-1.608,1.717Z" transform="translate(-1761.107 -543.76)" fill="#650000"/>
        </g>
      </g>
      <g id="Group_727" data-name="Group 727" transform="translate(83.079 45.305)">
        <g id="Group_726" data-name="Group 726">
          <path id="Path_779" data-name="Path 779" d="M1552.938,1087.187a137.856,137.856,0,0,1-33.242-4.046,81.06,81.06,0,0,1-13.762-4.508c-7.735-3.505-13.033-12.111-13.124-17.948-.112-7.151,5.084-11.219,8.981-12.9-2.713-6-10.328-26.285.962-44.526l.1-.162c.078-.127.157-.255.239-.379,10.159-15.856,24.821-18.28,35.154-15.254,6.938,2.032,12.374,6.413,14.885,11.587,2.511-5.175,7.947-9.555,14.887-11.587,10.332-3.026,25-.6,35.165,15.273.108.163.224.352.335.537,11.282,18.227,3.668,38.512.956,44.51,3.9,1.677,9.09,5.745,8.978,12.9-.088,5.835-5.384,14.441-13.129,17.951a87.6,87.6,0,0,1-14.292,4.576A139.607,139.607,0,0,1,1552.938,1087.187Zm-22.781-97.519c-6.77,0-16.418,2.6-24.277,14.867-.074.113-.133.209-.192.306l-.111.179c-12.12,19.581-.136,42.705-.014,42.936l.977,1.845-2.016.541c-.343.094-8.512,2.422-8.389,10.291.074,4.72,4.682,12.03,11.176,14.973a77.839,77.839,0,0,0,13.187,4.307,135.808,135.808,0,0,0,64.743.068,84.4,84.4,0,0,0,13.721-4.381c6.485-2.939,11.093-10.248,11.164-14.966.124-7.87-8.042-10.2-8.39-10.293l-2-.549.97-1.836c.122-.23,12.1-23.354-.022-42.942-.1-.164-.191-.315-.287-.461-11.562-18.049-26.988-15.2-31.44-13.892-8.121,2.378-14.015,8.582-14.015,14.752a1.663,1.663,0,0,1-1.663,1.663c-.048,0-.1,0-.144-.006s-.1.006-.144.006a1.663,1.663,0,0,1-1.663-1.663c0-6.17-5.893-12.374-14.013-14.752A25.867,25.867,0,0,0,1530.156,989.668Z" transform="translate(-1492.807 -986.341)" fill="#650000"/>
        </g>
      </g>
      <g id="Group_729" data-name="Group 729" transform="translate(78.195 114.167)" opacity="0.3">
        <g id="Group_728" data-name="Group 728">
          <path id="Path_780" data-name="Path 780" d="M1445.637,1666.809c1.938,7.33,7.958,11.733,16.49,14.8a9.113,9.113,0,0,0,1.07.573c.8.264,1.625.514,2.462.753.267.08.535.153.8.226,7.944,2.177,9.413,3.8,19.188,5.1,9.844,1.3,18.479,2.476,23.559,2.476,11.229,0,33.6-2.979,50.483-10.507,0,0,0,0,.007-.007a26.676,26.676,0,0,0,2.545-1.715,20.451,20.451,0,0,1-5.431,3.677c9.417-3.087,16.1-7.57,18.167-15.372a19.484,19.484,0,0,0,.274-7.754,39.509,39.509,0,0,1-6.333,5.431c-.1.07-.194.139-.3.2-8.436,5.848-24.211,13.067-51.99,15.1a89.246,89.246,0,0,1-13.043,0c-27.605-2.022-43.356-9.157-51.839-14.984-.028-.021-.056-.038-.08-.059a40.917,40.917,0,0,1-6.368-5.326A19.319,19.319,0,0,0,1445.637,1666.809Z" transform="translate(-1445.099 -1659.055)" fill="#650000"/>
        </g>
      </g>
      <g id="Group_734" data-name="Group 734" transform="translate(136.106 110.945)">
        <g id="Group_731" data-name="Group 731" transform="translate(7.855)">
          <g id="Group_730" data-name="Group 730">
            <path id="Path_781" data-name="Path 781" d="M2088.138,1630.947a.445.445,0,0,1-.563-.492c.136-.963.573-2.618,1.973-2.838a1.484,1.484,0,0,1,1.888,1.8c-.194.559-.664.91-1.588,1.1C2089.281,1630.636,2088.619,1630.809,2088.138,1630.947Z" transform="translate(-2087.571 -1627.581)" fill="#650000"/>
          </g>
        </g>
        <g id="Group_733" data-name="Group 733">
          <g id="Group_732" data-name="Group 732">
            <path id="Path_782" data-name="Path 782" d="M2014.177,1630.947a.445.445,0,0,0,.563-.492c-.136-.963-.573-2.618-1.973-2.838a1.485,1.485,0,0,0-1.888,1.8c.194.559.664.91,1.588,1.1C2013.035,1630.636,2013.7,1630.809,2014.177,1630.947Z" transform="translate(-2010.833 -1627.581)" fill="#650000"/>
          </g>
        </g>
      </g>
      <g id="Group_740" data-name="Group 740" transform="translate(136.283 118.344)">
        <g id="Group_739" data-name="Group 739">
          <path id="Path_783" data-name="Path 783" d="M2014.133,1703.038a8.546,8.546,0,0,0,2.753,1.542,5.115,5.115,0,0,0,2.778.086c.221-.057.432-.147.653-.209l.609-.32c.183-.14.4-.243.57-.4l.26-.238a1.337,1.337,0,0,0,.258-.247,7.71,7.71,0,0,0,1.539-2.667l.021-.058a1.014,1.014,0,0,1,1.966.323,6.92,6.92,0,0,1-1.295,4.188,6.683,6.683,0,0,1-3.828,2.607,7.31,7.31,0,0,1-2.354.152,6.344,6.344,0,0,1-1.146-.228,5.126,5.126,0,0,1-1.077-.409,7.2,7.2,0,0,1-3.157-2.955.941.941,0,0,1,1.4-1.2Z" transform="translate(-2012.562 -1699.859)" fill="#650000"/>
        </g>
      </g>
      <g id="Group_767" data-name="Group 767" transform="translate(104.531 75.528)">
        <g id="Group_753" data-name="Group 753" transform="translate(0 0.681)">
          <g id="Group_743" data-name="Group 743" transform="translate(2.455 2.455)">
            <g id="Group_741" data-name="Group 741" transform="translate(0.453 0.453)">
              <path id="Path_784" data-name="Path 784" d="M1741.136,1316.676a8.246,8.246,0,0,0-6.784,2.864,15.592,15.592,0,0,0-3.558,11.046c.191,5.9,2.9,11.177,6.661,13.8a9.271,9.271,0,0,0,4.635,1.735c5.976.448,10.607-5.78,10.342-13.91S1747.113,1317.125,1741.136,1316.676Z" transform="translate(-1730.783 -1316.654)" fill="#fff"/>
            </g>
            <g id="Group_742" data-name="Group 742">
              <path id="Path_785" data-name="Path 785" d="M1738.734,1342.626q-.321,0-.646-.025a9.66,9.66,0,0,1-4.861-1.816c-3.974-2.771-6.665-8.327-6.854-14.153-.147-4.52,1.194-8.663,3.677-11.367a8.729,8.729,0,0,1,7.151-3.009h0c6.191.464,11.446,7.628,11.715,15.969.158,4.856-1.359,9.183-4.163,11.87A8.585,8.585,0,0,1,1738.734,1342.626Zm-2.173-29.488a7.8,7.8,0,0,0-5.843,2.739c-2.325,2.531-3.578,6.44-3.44,10.726.18,5.551,2.719,10.826,6.468,13.44a8.77,8.77,0,0,0,4.409,1.655,7.662,7.662,0,0,0,5.972-2.256c2.58-2.473,4.031-6.655,3.884-11.187-.255-7.892-5.134-14.664-10.877-15.1h0C1736.942,1313.145,1736.75,1313.138,1736.56,1313.138Z" transform="translate(-1726.362 -1312.233)" fill="#11116d"/>
            </g>
          </g>
          <g id="Group_745" data-name="Group 745" transform="translate(5.286 2.908)">
            <g id="Group_744" data-name="Group 744">
              <path id="Path_786" data-name="Path 786" d="M1761.994,1316.676a8.246,8.246,0,0,0-6.784,2.864,12.747,12.747,0,0,0-.635,1.587c-.408,1.241-.544,3.012.378,3.86.792.729,1.8.249,2.728.317,1.527.11,2.972,2.052,3,4.035s-1.378,3.615-2.906,3.393c-1.064-.156-2.257-1.042-3.1-.327a3.317,3.317,0,0,0-.618,2.7,15.788,15.788,0,0,0,4.057,9.062c.068.074.138.148.208.218a9.27,9.27,0,0,0,4.635,1.735c5.976.448,10.607-5.78,10.342-13.91S1767.97,1317.125,1761.994,1316.676Z" transform="translate(-1754.02 -1316.654)" fill="#9acbd6"/>
            </g>
          </g>
          <g id="Group_747" data-name="Group 747" transform="translate(6.093 4.939)">
            <g id="Group_746" data-name="Group 746" transform="translate(0 0)">
              <ellipse id="Ellipse_31" data-name="Ellipse 31" cx="8.772" cy="12.906" rx="8.772" ry="12.906" transform="matrix(0.992, -0.126, 0.126, 0.992, 0, 2.207)" fill="#640005"/>
            </g>
          </g>
          <g id="Group_750" data-name="Group 750" transform="translate(3 5.363)">
            <g id="Group_749" data-name="Group 749">
              <g id="Group_748" data-name="Group 748">
                <path id="Path_787" data-name="Path 787" d="M1737.724,1346.4c-.928-.068-1.935.412-2.728-.317-.922-.848-.787-2.619-.378-3.86a12.7,12.7,0,0,1,.635-1.587,15.591,15.591,0,0,0-3.558,11.046c.191,5.9,2.9,11.177,6.661,13.8-.07-.07-.14-.144-.208-.218a15.79,15.79,0,0,1-4.057-9.062,3.317,3.317,0,0,1,.618-2.7c.848-.715,2.041.171,3.1.327,1.528.223,2.93-1.414,2.906-3.393S1739.251,1346.512,1737.724,1346.4Z" transform="translate(-1731.685 -1340.638)" fill="#fff"/>
              </g>
            </g>
          </g>
          <g id="Group_752" data-name="Group 752">
            <g id="Group_751" data-name="Group 751">
              <path id="Path_788" data-name="Path 788" d="M1715.044,1291.155q.3,0,.6.022c5.976.448,11.034,7.4,11.3,15.532.256,7.854-4.056,13.932-9.738,13.932-.2,0-.4-.008-.6-.023a9.267,9.267,0,0,1-4.635-1.735c-3.758-2.62-6.47-7.9-6.661-13.8a15.593,15.593,0,0,1,3.558-11.046,8.316,8.316,0,0,1,6.188-2.886m0-2.908a11.257,11.257,0,0,0-8.334,3.832c-2.909,3.168-4.485,7.945-4.318,13.1.216,6.675,3.245,12.839,7.9,16.088a12.066,12.066,0,0,0,6.081,2.25c.273.021.55.031.822.031a11.225,11.225,0,0,0,8.075-3.559c3.077-3.179,4.742-8.054,4.569-13.376-.313-9.717-6.456-17.773-13.985-18.338-.273-.02-.546-.03-.814-.03Z" transform="translate(-1702.38 -1288.247)" fill="#640005"/>
            </g>
          </g>
        </g>
        <g id="Group_766" data-name="Group 766" transform="translate(47.729)">
          <g id="Group_756" data-name="Group 756" transform="translate(2.455 2.455)">
            <g id="Group_754" data-name="Group 754" transform="translate(0.453 0.452)">
              <path id="Path_789" data-name="Path 789" d="M2207.921,1310.042a8.246,8.246,0,0,1,6.859,2.679,15.592,15.592,0,0,1,3.857,10.946c-.031,5.9-2.6,11.251-6.285,13.973a9.272,9.272,0,0,1-4.586,1.86c-5.962.61-10.76-5.49-10.716-13.625S2201.959,1310.652,2207.921,1310.042Z" transform="translate(-2197.049 -1310)" fill="#fff"/>
            </g>
            <g id="Group_755" data-name="Group 755">
              <path id="Path_790" data-name="Path 790" d="M2202.965,1336.026a8.608,8.608,0,0,1-5.857-2.369c-2.875-2.61-4.51-6.894-4.483-11.754.043-8.345,5.1-15.649,11.278-16.281h0a8.721,8.721,0,0,1,7.231,2.815c2.555,2.635,4.007,6.74,3.983,11.262-.031,5.829-2.57,11.456-6.469,14.335a9.659,9.659,0,0,1-4.809,1.946A8.582,8.582,0,0,1,2202.965,1336.026Zm1.031-29.5c-5.73.587-10.424,7.488-10.465,15.385-.024,4.535,1.54,8.677,4.186,11.078a7.652,7.652,0,0,0,6.03,2.093,8.767,8.767,0,0,0,4.362-1.773c3.678-2.716,6.073-8.058,6.1-13.612.022-4.287-1.336-8.161-3.729-10.628a7.841,7.841,0,0,0-6.488-2.544Z" transform="translate(-2192.625 -1305.58)" fill="#11116d"/>
            </g>
          </g>
          <g id="Group_758" data-name="Group 758" transform="translate(2.908 2.908)">
            <g id="Group_757" data-name="Group 757">
              <path id="Path_791" data-name="Path 791" d="M2207.921,1310.042a8.246,8.246,0,0,1,6.859,2.679,12.752,12.752,0,0,1,.678,1.569c.442,1.229.625,3-.273,3.869-.772.75-1.792.3-2.718.39-1.523.151-2.916,2.132-2.887,4.115s1.476,3.577,3,3.313c1.059-.185,2.228-1.1,3.095-.411a3.317,3.317,0,0,1,.691,2.68,15.791,15.791,0,0,1-3.81,9.169c-.066.076-.134.152-.2.224a9.272,9.272,0,0,1-4.586,1.86c-5.962.61-10.76-5.49-10.716-13.625S2201.959,1310.652,2207.921,1310.042Z" transform="translate(-2197.049 -1310)" fill="#9acbd6"/>
            </g>
          </g>
          <g id="Group_760" data-name="Group 760" transform="translate(1.049 5.235)">
            <g id="Group_759" data-name="Group 759" transform="translate(0 0)">
              <ellipse id="Ellipse_32" data-name="Ellipse 32" cx="12.906" cy="8.772" rx="12.906" ry="8.772" transform="translate(0 25.686) rotate(-84.326)" fill="#640005"/>
            </g>
          </g>
          <g id="Group_763" data-name="Group 763" transform="translate(15.334 5.2)">
            <g id="Group_762" data-name="Group 762">
              <g id="Group_761" data-name="Group 761">
                <path id="Path_792" data-name="Path 792" d="M2321.328,1338.218c.926-.093,1.946.36,2.718-.391.9-.873.715-2.64.273-3.869a12.783,12.783,0,0,0-.678-1.569,15.592,15.592,0,0,1,3.856,10.945c-.031,5.9-2.6,11.251-6.285,13.973.068-.072.136-.148.2-.224a15.79,15.79,0,0,0,3.81-9.169,3.319,3.319,0,0,0-.691-2.68c-.867-.692-2.036.226-3.095.411-1.521.264-2.968-1.334-3-3.313S2319.8,1338.369,2321.328,1338.218Z" transform="translate(-2318.441 -1332.389)" fill="#fff"/>
              </g>
            </g>
          </g>
          <g id="Group_765" data-name="Group 765">
            <g id="Group_764" data-name="Group 764">
              <path id="Path_793" data-name="Path 793" d="M2183.233,1284.5a8.347,8.347,0,0,1,6.048,2.72,15.591,15.591,0,0,1,3.856,10.945c-.031,5.9-2.6,11.251-6.285,13.973a9.27,9.27,0,0,1-4.586,1.86,8,8,0,0,1-.819.042c-5.576,0-9.939-5.908-9.9-13.666.042-8.135,4.909-15.222,10.871-15.833a8.105,8.105,0,0,1,.812-.041m0-2.908h0a10.989,10.989,0,0,0-1.1.056c-7.514.769-13.437,8.988-13.487,18.711-.029,5.24,1.722,10.023,4.8,13.12a11.145,11.145,0,0,0,8,3.469,11,11,0,0,0,1.115-.057,12.085,12.085,0,0,0,6.026-2.419c4.561-3.368,7.422-9.612,7.457-16.291.028-5.16-1.677-9.893-4.677-12.986a11.3,11.3,0,0,0-8.134-3.6Z" transform="translate(-2168.643 -1281.594)" fill="#640005"/>
            </g>
          </g>
        </g>
      </g>
    </g>
  </g>
</svg>
