<svg id="logout" xmlns="http://www.w3.org/2000/svg" width="22.914" height="22.914" viewBox="0 0 22.914 22.914">
  <path id="Path_61403" data-name="Path 61403" d="M14.321,12.416a.954.954,0,0,0-.955.955v3.819a.956.956,0,0,1-.955.955H9.547V3.823a1.924,1.924,0,0,0-1.3-1.815l-.283-.095h4.447a.956.956,0,0,1,.955.955V5.732a.955.955,0,0,0,1.909,0V2.868A2.868,2.868,0,0,0,12.412,0H2.148a.75.75,0,0,0-.1.021C2,.021,1.956,0,1.91,0A1.911,1.911,0,0,0,0,1.913V19.1a1.924,1.924,0,0,0,1.3,1.815l5.746,1.915a1.977,1.977,0,0,0,.592.089,1.911,1.911,0,0,0,1.909-1.91v-.955h2.864a2.868,2.868,0,0,0,2.864-2.864V13.37a.954.954,0,0,0-.955-.955Zm0,0" transform="translate(0 -0.004)" fill="#216361"/>
  <path id="Path_61404" data-name="Path 61404" d="M287.555,110.764l-3.819-3.819a.954.954,0,0,0-1.63.675v2.864h-3.819a.955.955,0,1,0,0,1.909h3.819v2.864a.954.954,0,0,0,1.63.675l3.819-3.819A.954.954,0,0,0,287.555,110.764Zm0,0" transform="translate(-264.92 -101.892)" fill="#216361"/>
</svg>
