<svg id="magic-wand" xmlns="http://www.w3.org/2000/svg" width="24.649" height="24.649" viewBox="0 0 24.649 24.649">
  <path id="Path_1" data-name="Path 1" d="M369.434,6.162a3.081,3.081,0,0,1,3.081-3.081A3.081,3.081,0,0,1,369.434,0a3.081,3.081,0,0,1-3.081,3.081A3.081,3.081,0,0,1,369.434,6.162Z" transform="translate(-347.866)" fill="#fff"/>
  <path id="Path_2" data-name="Path 2" d="M399.194,183.176a2.311,2.311,0,0,1-2.311,2.311,2.311,2.311,0,0,1,2.311,2.311,2.311,2.311,0,0,1,2.311-2.311A2.311,2.311,0,0,1,399.194,183.176Z" transform="translate(-376.856 -173.933)" fill="#fff"/>
  <path id="Path_3" data-name="Path 3" d="M126.74,9.243a4.622,4.622,0,0,1,4.622-4.622A4.622,4.622,0,0,1,126.74,0a4.622,4.622,0,0,1-4.622,4.622A4.622,4.622,0,0,1,126.74,9.243Z" transform="translate(-115.956)" fill="#fff"/>
  <path id="Path_4" data-name="Path 4" d="M16.946,91.588,0,108.534l3.081,3.081L20.027,94.669Zm-2.63,4.941,2.178-2.178.77.77L15.087,97.3l-.77-.77Z" transform="translate(0 -86.966)" fill="#fff"/>
</svg>
