<svg xmlns="http://www.w3.org/2000/svg" width="365.414" height="326.713" viewBox="0 0 365.414 326.713">
  <g id="Group_81" data-name="Group 81" transform="translate(-512.625 -512.534) rotate(-9)">
    <g id="Group_8" data-name="Group 8" transform="translate(504.408 747.593)">
      <g id="Group_7" data-name="Group 7" transform="translate(0 0)">
        <path id="Path_5" data-name="Path 5" d="M1333.1,1828.08l-17.512,20.454c-27.192-7.984-69.8-37.408-50.718-76.842,19.052-39.362,60.7-18.986,82.741-44.155l84.173,4.535s-36.928,87.758-86.406,101.783Z" transform="translate(-1260.103 -1727.537)" fill="#804959"/>
      </g>
    </g>
    <g id="Group_9" data-name="Group 9" transform="translate(509.875 748.581)" opacity="0.3">
      <path id="Path_6" data-name="Path 6" d="M1475.157,1739.908s-36.93,87.76-86.405,101.782l-12.277-5.773-17.511,20.453c-16.883-4.955-39.7-18.171-50.019-36.915a85.78,85.78,0,0,0,8,3.8l19.526-18.542,10.759,3.084c37.195-5.057,72.654-44.377,72.654-44.377s-20.52-14.96-17.857-18.962a39.97,39.97,0,0,1,7.315-8.092Z" transform="translate(-1308.945 -1736.363)" fill="#650000"/>
    </g>
    <g id="Group_10" data-name="Group 10" transform="translate(502.364 745.513)">
      <path id="Path_7" data-name="Path 7" d="M1300.052,1834.353l-1.26-.37c-19.177-5.63-43.986-21.1-53.143-41.752-5.45-12.3-5.057-25.056,1.17-37.922,11.221-23.186,29.83-26.455,47.825-29.616,13.426-2.359,26.107-4.587,35.216-14.99l.649-.744,88.038,4.743-1.119,2.658a330.534,330.534,0,0,1-24.817,45.952c-20.736,31.865-41.9,51.042-62.906,57l-.731.208-11.563-5.44Zm32.2-121.235c-10,10.846-23.669,13.247-36.9,15.573-17.77,3.122-34.556,6.072-44.873,27.387-5.684,11.741-6.057,23.352-1.112,34.508,8.435,19.033,31.2,33.462,49.324,39.124l17.657-20.623,12.981,6.108c24.637-7.378,46.118-33.945,59.853-55.043a333.114,333.114,0,0,0,23.344-42.71Z" transform="translate(-1241.836 -1708.959)" fill="#650000"/>
    </g>
    <g id="Group_12" data-name="Group 12" transform="translate(411.192 695.625)">
      <g id="Group_11" data-name="Group 11" transform="translate(0)">
        <path id="Path_8" data-name="Path 8" d="M539.522,1365.862s-20.4,10.279-36.407-6.872c-15.648-16.768-2.069-45.807-6.68-63.717-6.243-24.245-28.591-41.251-54.263-26.547-26.044,14.918-13.182,48.2,3.01,53.081,9.538,2.877,15.941-1.168,15.869-10.864S447.9,1298.651,450,1290.437s17.39-12.122,24.663,1.813,1.547,42.9,5.171,59.562c3.388,15.579,16.714,28.231,32.146,31.872,18.4,4.342,31.165-1.177,31.165-1.177Z" transform="translate(-427.305 -1263.257)" fill="#804959"/>
      </g>
    </g>
    <g id="Group_13" data-name="Group 13" transform="translate(463.827 784.663)" opacity="0.3">
      <path id="Path_9" data-name="Path 9" d="M897.545,2058.728c3.553,15.357,16.767,27.785,32.039,31.39,18.4,4.341,31.164-1.177,31.164-1.177l-1.839-8.448a66.733,66.733,0,0,1-30.4.653C915.207,2078.45,903.463,2069.971,897.545,2058.728Z" transform="translate(-897.545 -2058.728)" fill="#650000"/>
    </g>
    <g id="Group_14" data-name="Group 14" transform="translate(429.019 706.943)" opacity="0.3">
      <path id="Path_10" data-name="Path 10" d="M616.1,1382.043c.157.305.311.615.457.932a29.507,29.507,0,0,0-3-9.586c-7.633-13.858-24.289-9.655-26.709-1.369-1.145,3.912,1.405,6.5,4.4,9.175a7.228,7.228,0,0,1,.18-.963C593.529,1372.018,608.827,1368.109,616.1,1382.043Z" transform="translate(-586.572 -1364.368)" fill="#650000"/>
    </g>
    <g id="Group_15" data-name="Group 15" transform="translate(415.473 734.775)" opacity="0.3">
      <path id="Path_11" data-name="Path 11" d="M465.548,1620.115c3.335,6.061,8.286,10.714,13.6,12.317,9.538,2.876,15.939-1.167,15.869-10.867-.024-3.611-1.856-6.234-4.035-8.533a1.656,1.656,0,0,1,0,.2c-.1,9.734-7.114,13.911-17.4,11.2A20.967,20.967,0,0,1,465.548,1620.115Z" transform="translate(-465.548 -1613.032)" fill="#650000"/>
    </g>
    <g id="Group_16" data-name="Group 16" transform="translate(409.162 693.584)">
      <path id="Path_12" data-name="Path 12" d="M509.987,1371.194a63.5,63.5,0,0,1-14.59-1.729c-16.643-3.927-30.171-17.355-33.663-33.416-1.564-7.188-1.446-16.227-1.322-25.8.163-12.586.333-25.6-3.665-33.26-2.954-5.659-7.847-8.672-13.086-8.064-3.841.446-7.053,2.838-7.812,5.814-.734,2.88,1.058,4.768,4.286,7.859,3.025,2.894,6.789,6.5,6.831,12.131.049,6.535-2.572,9.875-4.779,11.528-3.381,2.531-8.12,2.978-13.705,1.294-9.48-2.86-17.692-14.339-19.1-26.7-1.436-12.592,4.275-23.556,15.67-30.083,11.16-6.393,22.5-7.479,32.778-3.138,11.586,4.888,20.729,16.454,24.458,30.94,1.838,7.134.965,15.607.042,24.578-1.443,14.02-2.935,28.516,6.157,38.26,14.742,15.8,33.234,6.832,34.015,6.442l2.334-1.165,4.533,20.824-1.533.662C527.443,1368.344,520.679,1371.194,509.987,1371.194Zm-64.953-106.4c6.253,0,11.882,3.756,15.311,10.325,4.471,8.566,4.3,22.1,4.125,35.191-.121,9.33-.236,18.143,1.23,24.88,3.167,14.564,15.476,26.753,30.629,30.327,13.866,3.271,24.494.705,28.337-.515l-2.724-12.525a37.9,37.9,0,0,1-10.614,2.214,31.755,31.755,0,0,1-25.81-10.509c-10.351-11.091-8.692-27.217-7.227-41.444.885-8.6,1.721-16.721.066-23.151-3.416-13.266-11.68-23.813-22.106-28.213-9.071-3.828-19.163-2.819-29.184,2.921-13.584,7.781-14.386,19.693-13.655,26.1,1.218,10.672,8.351,20.9,16.242,23.276,4.3,1.3,7.793,1.07,10.1-.657,2.091-1.566,3.181-4.418,3.153-8.249-.029-3.918-2.725-6.5-5.578-9.229-3.172-3.036-6.768-6.477-5.413-11.792,1.183-4.643,5.715-8.2,11.276-8.844A16,16,0,0,1,445.034,1264.792Z" transform="translate(-409.162 -1245.022)" fill="#650000"/>
    </g>
    <g id="Group_17" data-name="Group 17" transform="translate(457.453 667.738)">
      <path id="Path_13" data-name="Path 13" d="M1064.8,1232.73c-16.083,14.246-61.412,33.148-110.638,33.664-43.38.451-80.665-20.248-99.812-41.505-17.59-19.515-19.888-39.505,2.409-44.038,1.354-.11,4.8-.023,9.85-.023a318.468,318.468,0,0,0,40.455-2.34,234.355,234.355,0,0,0,43.182-9.417,167.013,167.013,0,0,0,35.736-16.259,131.624,131.624,0,0,0,22.257-17.079q3.422-3.274,6.542-6.5c5.068-5.225,9.569-10.328,13.624-15.267,24.542-29.877,32.723-53.65,50.774-61.38a.051.051,0,0,1,.023-.009c.558-.239,1.124-.461,1.7-.668q1-.366,2.045-.663c0-.023-12.969-13.826-15.53-19.737-2.2-5.063,4.013-13.826,13.356-16.217,21.588-5.529,40.574,9.752,36.2,17.672a166.185,166.185,0,0,0-8.988,19.475s.446.617,1.2,1.791C1117.832,1067.627,1154.251,1153.525,1064.8,1232.73Z" transform="translate(-840.601 -1014.112)" fill="#fce15e"/>
    </g>
    <g id="Group_19" data-name="Group 19" transform="translate(457.457 730.085)">
      <g id="Group_18" data-name="Group 18" transform="translate(0 0)" opacity="0.3">
        <path id="Path_14" data-name="Path 14" d="M842.21,1700.375a68.3,68.3,0,0,0,9.549,13.269c19.147,21.257,56.432,41.956,99.812,41.505,49.226-.516,94.555-19.419,110.639-33.665,63.417-56.158,63.564-115.676,55.2-150.336,0-.009,0-.017,0-.025,2.04,34.717-8.387,81.482-58.8,126.126-16.088,14.245-65.214,54.249-139.615,35.174-5.468-1.4-11.485-9.587-.4-13.582,12.364-4.456,29.844-8.766,29.844-8.766s-58.506,9.475-100.281-20.672c-2.228-1.607-3.511-4.087-5-6.119-3.263,4.772-3.259,11.145-.537,18.2C842.474,1701.112,842.338,1700.742,842.21,1700.375Z" transform="translate(-840.637 -1571.124)" fill="#650000"/>
      </g>
    </g>
    <g id="Group_20" data-name="Group 20" transform="translate(683.833 667.736)">
      <path id="Path_15" data-name="Path 15" d="M2913.1,1032.949a164.931,164.931,0,0,0-8.987,19.471s.446.618,1.2,1.792c-13.4-6.61-29.281-1.868-29.987-1.652a30.817,30.817,0,0,1,3.753-1.331c-.007-.023-12.968-13.828-15.534-19.739-2.2-5.064,4.016-13.823,13.356-16.218C2898.488,1009.745,2917.475,1025.029,2913.1,1032.949Z" transform="translate(-2863.101 -1014.095)" fill="#378381"/>
    </g>
    <g id="Group_21" data-name="Group 21" transform="translate(683.835 667.738)" opacity="0.4">
      <path id="Path_16" data-name="Path 16" d="M2912.54,1026.433c-6.648-5.464-18.512-9.477-31.283-6.206-9.342,2.4-15.552,11.154-13.355,16.217,1.323,3.05,5.411,8.2,9.058,12.471-3.79-4.2-11.489-13-13.4-17.4-2.2-5.064,4.012-13.826,13.356-16.217C2893.356,1011.082,2908.291,1018.946,2912.54,1026.433Z" transform="translate(-2863.114 -1014.115)" fill="#fff"/>
    </g>
    <g id="Group_22" data-name="Group 22" transform="translate(697.74 702.608)" opacity="0.35">
      <path id="Path_17" data-name="Path 17" d="M2989.412,1327.9c-.028.009-.056.014-.083.024-.632-.714-1.3-1.485-1.986-2.285C2988.6,1327.028,2989.407,1327.9,2989.412,1327.9Z" transform="translate(-2987.344 -1325.643)" fill="#fff"/>
    </g>
    <g id="Group_23" data-name="Group 23" transform="translate(455.604 665.899)">
      <path id="Path_18" data-name="Path 18" d="M938.111,1253.655c-60.95,0-111.018-41.367-113.9-68.573-1.141-10.774,5.077-18.1,17.508-20.626l.214-.03c1-.083,2.836-.071,5.619-.05,64.688.474,113.382-14.529,144.742-44.564,20.25-19.4,32.279-37.413,41.945-51.891,10.483-15.7,18.057-27.046,30.291-31.933a.365.365,0,0,0,.233-.261.286.286,0,0,0-.073-.272c-5.189-5.747-11.766-13.5-13.629-17.8-.976-2.252-.739-5.072.667-7.941,2.459-5.019,7.924-9.255,13.921-10.793,15.5-3.971,30.336,2.256,36.429,10.133,2.776,3.59,3.447,7.314,1.841,10.22a162.844,162.844,0,0,0-8.467,18.171h0a.324.324,0,0,0,.031.3c4.17,6.246,16.054,31.549,15.964,64.74a135.882,135.882,0,0,1-12.4,56.38c-10,21.92-26.056,42.339-47.726,60.688-16.349,13.845-61.846,33.575-111.81,34.1C939.048,1253.652,938.576,1253.655,938.111,1253.655Zm-95.768-85.564c-10.388,2.144-15.39,7.884-14.467,16.6,1.34,12.652,14.639,29.139,33.881,42a138.752,138.752,0,0,0,76.357,23.272c.455,0,.908,0,1.362-.008,49.047-.51,93.539-19.735,109.467-33.221,38.914-32.953,58.7-71.4,58.82-114.266.089-32.827-12.08-57.795-15.343-62.684a4.017,4.017,0,0,1-.4-3.693h0a166.576,166.576,0,0,1,8.673-18.609c.862-1.558.3-3.811-1.531-6.182-4.6-5.951-17.76-12.621-32.6-8.818a18.034,18.034,0,0,0-11.526,8.844c-.923,1.885-1.135,3.609-.6,4.854,1.281,2.955,6.012,9.078,12.984,16.8a3.994,3.994,0,0,1,.927,3.576,4.063,4.063,0,0,1-2.456,2.849c-11.171,4.462-18.479,15.408-28.593,30.557-9.766,14.627-21.92,32.832-42.461,52.506-20.58,19.71-48.713,33.249-83.62,40.241-27.974,5.6-53.006,5.424-63.7,5.346C845.041,1168.043,843.22,1168.028,842.344,1168.091Z" transform="translate(-824.079 -997.685)" fill="#650000"/>
    </g>
    <g id="Group_24" data-name="Group 24" transform="translate(457.453 834.42)">
      <path id="Path_19" data-name="Path 19" d="M866.615,2503.3c4.258,22.691-6.248,37.627-12.257,44.056-17.592-19.511-19.889-39.5,2.409-44.037C858.121,2503.207,861.565,2503.292,866.615,2503.3Z" transform="translate(-840.604 -2503.261)" fill="#650000"/>
    </g>
    <g id="Group_25" data-name="Group 25" transform="translate(474.691 845.063)">
      <path id="Path_20" data-name="Path 20" d="M1146.579,2600.4a150.967,150.967,0,0,1-16.639,9.9c-2.848,1.542-5.828,2.806-8.777,4.143-.732.348-1.488.635-2.242.927l-2.263.886c-1.51.583-3.008,1.211-4.554,1.7l-4.611,1.55c-1.546.483-3.114.9-4.672,1.35l-2.343.665-2.367.562c-1.582.362-3.154.776-4.746,1.093a166.961,166.961,0,0,1-19.28,2.783,180.216,180.216,0,0,1-38.941-1.14,190.848,190.848,0,0,1-19.2-3.65q-4.76-1.146-9.461-2.583-2.354-.706-4.692-1.509c-.78-.263-1.56-.54-2.341-.824s-1.536-.569-2.4-.921a3.917,3.917,0,0,1,2.958-7.254c.039.016.077.032.116.049l.065.028c.607.274,1.353.588,2.051.872.713.291,1.43.576,2.158.85,1.449.555,2.915,1.089,4.394,1.592,2.955,1.018,5.946,1.958,8.968,2.8a183.269,183.269,0,0,0,18.376,4.192,174.461,174.461,0,0,0,37.626,2.473,162.236,162.236,0,0,0,18.8-2.019c1.557-.251,3.1-.6,4.646-.893l2.323-.461,2.3-.564c1.53-.385,3.072-.735,4.6-1.149l4.543-1.345c1.526-.416,3.005-.976,4.5-1.491l2.239-.782c.748-.259,1.5-.514,2.222-.828,2.926-1.2,5.889-2.329,8.729-3.736a148.751,148.751,0,0,0,16.685-9.125l.038-.023a1.119,1.119,0,0,1,1.2,1.886Z" transform="translate(-994.607 -2598.345)" fill="#650000"/>
    </g>
    <g id="Group_26" data-name="Group 26" transform="translate(664.021 713.896)">
      <path id="Path_21" data-name="Path 21" d="M2732.6,1427.516c-.738,4.375-1.747,8.635-2.83,12.9-.576,2.119-1.131,4.249-1.748,6.359l-.951,3.158c-.321,1.052-.634,2.106-.994,3.145-.7,2.082-1.365,4.182-2.109,6.251l-2.264,6.2-2.449,6.133-.615,1.533-.671,1.51-1.344,3.018-1.344,3.019c-.465,1-.961,1.982-1.442,2.975-.974,1.975-1.918,3.969-2.92,5.932-2.107,3.873-4.09,7.819-6.41,11.58a132.793,132.793,0,0,1-15.333,21.563,1.755,1.755,0,0,1-2.8-2.1l.037-.057c4.716-7.306,9.781-14.292,14.256-21.717,2.361-3.633,4.392-7.463,6.553-11.22,1.028-1.907,2-3.845,3-5.767.494-.965,1.005-1.921,1.484-2.894l1.391-2.941,1.392-2.941.7-1.471.663-1.488,2.628-5.958,2.45-6.038c.808-2.016,1.534-4.065,2.305-6.1s1.422-4.106,2.161-6.152c.711-2.055,1.357-4.13,2.026-6.2,1.264-4.153,2.469-8.358,3.452-12.557l.006-.028a.876.876,0,0,1,1.717.346Z" transform="translate(-2686.095 -1426.494)" fill="#650000"/>
    </g>
    <g id="Group_29" data-name="Group 29" transform="translate(501.153 785.734)" opacity="0.3">
      <g id="Group_27" data-name="Group 27" transform="translate(0 38.465)">
        <path id="Path_22" data-name="Path 22" d="M1315.077,2450.38c.072,4.57-10.527,2.664-10.665,2.857-.083.121,6.245,7.25,2.547,8.961s-11.665-3.037-11.8-2.926c-.216.176,3.99,7.719-.475,10.172-3.519,1.941-10.371-4.145-13.174-10.089-17.064-5.448-38.9-18.23-50.489-36.118a280.919,280.919,0,0,0,51.794-11.294,43.84,43.84,0,0,0,15.556,23c2.485-1.217,5.022-1.985,6.669-1.25,4.674,2.088-2.835,9.233-2.835,9.344S1314.989,2445.093,1315.077,2450.38Z" transform="translate(-1231.018 -2411.943)" fill="#650000"/>
      </g>
      <g id="Group_28" data-name="Group 28" transform="translate(92.476)">
        <path id="Path_23" data-name="Path 23" d="M2129,2084.873c-.02.133,8.071,3.472,5.707,6.368s-10.852,2.185-10.921,2.334c-.108.226,6.4,4.763,3.7,8.587-1.888,2.674-8.466,1.187-13.214-1.812-8.468,2.172-36.691,7.884-57.069-6.092a145.049,145.049,0,0,0,24.506-18.8q3.768-3.609,7.205-7.159c7.273,3.388,16.232,6.595,25.333,7.467,1.886-3.141,4.8-7.187,7.406-7.275,4.7-.156,1.379,8.763,1.425,8.853s11.379-3.445,13.57.883C2138.55,2081.972,2129.038,2084.654,2129,2084.873Z" transform="translate(-2057.203 -2068.296)" fill="#650000"/>
      </g>
    </g>
    <g id="Group_31" data-name="Group 31" transform="translate(504.408 747.593)">
      <g id="Group_30" data-name="Group 30" transform="translate(0 0)">
        <path id="Path_24" data-name="Path 24" d="M1347.609,1727.537c-22.037,25.169-63.689,4.793-82.741,44.155-19.086,39.433,23.526,68.858,50.718,76.842l17.512-20.454a39.977,39.977,0,0,1-19.451-31.171" transform="translate(-1260.103 -1727.537)" fill="#804959"/>
      </g>
    </g>
    <g id="Group_32" data-name="Group 32" transform="translate(504.427 812.493)" opacity="0.3">
      <path id="Path_25" data-name="Path 25" d="M1333.249,2343.009l-17.512,20.453c-22.173-6.508-54.6-27.271-55.467-56.094,4.662,15.633,18.346,28.259,32.712,36.635a26.79,26.79,0,0,0,33.865-5.686h0A32.517,32.517,0,0,0,1333.249,2343.009Z" transform="translate(-1260.27 -2307.367)" fill="#650000"/>
    </g>
    <g id="Group_33" data-name="Group 33" transform="translate(502.364 745.563)">
      <path id="Path_26" data-name="Path 26" d="M1300.052,1834.75l-1.26-.369c-19.177-5.63-43.986-21.1-53.143-41.752-5.45-12.3-5.057-25.057,1.17-37.922,11.221-23.184,29.83-26.454,47.825-29.615,13.426-2.36,26.107-4.588,35.216-14.991a2.029,2.029,0,1,1,3.053,2.673c-10.051,11.48-24.039,13.938-37.568,16.315-17.77,3.122-34.556,6.072-44.873,27.387-5.684,11.741-6.057,23.352-1.112,34.508,8.435,19.033,31.2,33.463,49.324,39.124l15.092-17.628a42.171,42.171,0,0,1-18.371-31.474,2.029,2.029,0,0,1,4.039-.391,38.117,38.117,0,0,0,18.352,29.556l2.3,1.169Z" transform="translate(-1241.836 -1709.408)" fill="#650000"/>
    </g>
    <g id="Group_34" data-name="Group 34" transform="translate(640.339 700.591)" opacity="0.3">
      <path id="Path_27" data-name="Path 27" d="M2535.25,1318.421c-.456,8.939-4.575,14.1-11.231,16.974a29.617,29.617,0,0,1-10.511,2.186,16.2,16.2,0,0,1,1.8,4.251,19.732,19.732,0,0,1,.536,7.837c-1.264,8.071-7.528,13.286-16.685,17.38-3.127,1.533-7.539,2.958-13.012,5.037-3.885,1.472-7.812,2.76-11.622,3.866,27.024-32.9,36.034-59.074,55.911-67.586,0,0,0,0,.024-.011q.92-.395,1.877-.735A18.767,18.767,0,0,1,2535.25,1318.421Z" transform="translate(-2474.521 -1307.621)" fill="#650000"/>
    </g>
    <g id="Group_35" data-name="Group 35" transform="translate(665.978 688.335)">
      <path id="Path_28" data-name="Path 28" d="M2703.578,1210.769s.741-11.3,12.671-12.549c11.459-1.2,17.779,9.384,17.343,17.891-.457,8.937-4.573,14.1-11.228,16.972a31.921,31.921,0,0,1-14.616,2.076" transform="translate(-2703.578 -1198.125)" fill="#ffca9f"/>
    </g>
    <g id="Group_36" data-name="Group 36" transform="translate(666.488 698.97)">
      <path id="Path_29" data-name="Path 29" d="M2708.137,1300.053a7.77,7.77,0,0,1,7.344-6.86c6.606-.692,10.21,5.035,9.931,9.657-.294,4.855-2.686,7.674-6.529,9.258a19.518,19.518,0,0,1-8.427,1.178" transform="translate(-2708.137 -1293.136)" fill="#f28475"/>
    </g>
    <g id="Group_38" data-name="Group 38" transform="translate(666.625 706.662)" opacity="0.3">
      <g id="Group_37" data-name="Group 37" transform="translate(0)">
        <path id="Path_30" data-name="Path 30" d="M2720.812,1368.961a7.291,7.291,0,0,1-2.372,4.748,26.769,26.769,0,0,1-7.1.717l-1.973-9.914a5.431,5.431,0,0,1,1.251-2.506c.179-.026.358-.047.542-.067C2717.764,1361.245,2721.21,1365.47,2720.812,1368.961Z" transform="translate(-2709.362 -1361.862)" fill="#f3dfcc"/>
      </g>
    </g>
    <g id="Group_39" data-name="Group 39" transform="translate(664.809 697.289)">
      <path id="Path_31" data-name="Path 31" d="M2698.661,1301.693c-1,0-1.637-.066-1.708-.072a1.679,1.679,0,0,1,.359-3.34,17.966,17.966,0,0,0,7.61-1.061c3.558-1.466,5.254-3.874,5.491-7.807a8.064,8.064,0,0,0-2.4-6.06,6.875,6.875,0,0,0-5.681-1.825c-5.423.57-5.83,5.123-5.845,5.316a1.679,1.679,0,0,1-3.348-.254,9.422,9.422,0,0,1,8.845-8.4,10.143,10.143,0,0,1,8.353,2.738,11.4,11.4,0,0,1,3.427,8.689,11.532,11.532,0,0,1-7.565,10.708A20.385,20.385,0,0,1,2698.661,1301.693Z" transform="translate(-2693.135 -1278.121)" fill="#650000"/>
    </g>
    <g id="Group_40" data-name="Group 40" transform="translate(663.949 686.305)">
      <path id="Path_32" data-name="Path 32" d="M2694.535,1221.221a28.207,28.207,0,0,1-3.13-.152,2.029,2.029,0,1,1,.485-4.029,30.116,30.116,0,0,0,13.569-1.925c6.439-2.78,9.62-7.614,10.005-15.213a16.587,16.587,0,0,0-4.893-12.414,12.5,12.5,0,0,0-10.211-3.354,11.739,11.739,0,0,0-10.858,10.671,2.029,2.029,0,0,1-4.05-.274,15.7,15.7,0,0,1,14.485-14.433,16.445,16.445,0,0,1,13.426,4.445,20.531,20.531,0,0,1,6.157,15.566c-.469,9.19-4.542,15.318-12.452,18.732A32.423,32.423,0,0,1,2694.535,1221.221Z" transform="translate(-2685.448 -1179.993)" fill="#650000"/>
    </g>
    <g id="Group_41" data-name="Group 41" transform="translate(519.804 703.401)">
      <path id="Path_33" data-name="Path 33" d="M1426.491,1342.5s-3.047-10.9-14.98-9.674c-11.463,1.179-15.468,12.838-13.294,21.073,2.284,8.652,7.376,12.857,14.479,14.3a31.922,31.922,0,0,0,14.73-.972" transform="translate(-1397.65 -1332.731)" fill="#ffca9f"/>
    </g>
    <g id="Group_42" data-name="Group 42" transform="translate(519.805 719.482)" opacity="0.3">
      <path id="Path_34" data-name="Path 34" d="M1398.225,1481.488c2.285,8.655,7.376,12.86,14.478,14.3a31.936,31.936,0,0,0,14.731-.977l-.2-5.293a34.039,34.039,0,0,1-14.315.562c-7.214-1.466-12.531-5.533-15.251-13.682A17.817,17.817,0,0,0,1398.225,1481.488Z" transform="translate(-1397.658 -1476.401)" fill="#650000"/>
    </g>
    <g id="Group_43" data-name="Group 43" transform="translate(669.255 701.224)" opacity="0.3">
      <path id="Path_35" data-name="Path 35" d="M2759.593,1318.367c-.456,8.94-4.573,14.1-11.227,16.975a31.935,31.935,0,0,1-14.615,2.074l-.894-5.222a34.032,34.032,0,0,0,14.124-2.394c6.758-2.919,11.125-7.992,12.111-16.527A17.845,17.845,0,0,1,2759.593,1318.367Z" transform="translate(-2732.857 -1313.274)" fill="#650000"/>
    </g>
    <g id="Group_44" data-name="Group 44" transform="translate(532.514 712.82)">
      <path id="Path_36" data-name="Path 36" d="M1527.848,1422.137a7.77,7.77,0,0,0-8.6-5.2c-6.608.681-8.958,7.027-7.732,11.493,1.285,4.691,4.2,6.958,8.292,7.717a19.524,19.524,0,0,0,8.49-.581" transform="translate(-1511.206 -1416.876)" fill="#f28475"/>
    </g>
    <g id="Group_45" data-name="Group 45" transform="translate(532.515 712.818)">
      <path id="Path_37" data-name="Path 37" d="M1511.521,1428.413c1.286,4.691,4.2,6.956,8.29,7.716q.7.128,1.395.186a20.18,20.18,0,0,0,7.1-.765l-.452-13.429a7.971,7.971,0,0,0-1.821-2.974,7.812,7.812,0,0,0-6.777-2.23C1512.645,1417.6,1510.3,1423.945,1511.521,1428.413Z" transform="translate(-1511.21 -1416.859)" fill="#f28475"/>
    </g>
    <g id="Group_47" data-name="Group 47" transform="translate(540.892 719.087)" opacity="0.3">
      <g id="Group_46" data-name="Group 46" transform="translate(0 0)">
        <path id="Path_38" data-name="Path 38" d="M1586.306,1481.776a7.3,7.3,0,0,0,3.3,4.158,26.758,26.758,0,0,0,7.1-.759l-.107-10.109a5.4,5.4,0,0,0-1.741-2.194c-.179.01-.358.026-.542.046C1587.7,1473.6,1585.2,1478.442,1586.306,1481.776Z" transform="translate(-1586.054 -1472.871)" fill="#f3dfcc"/>
      </g>
    </g>
    <g id="Group_48" data-name="Group 48" transform="translate(530.836 711.142)">
      <path id="Path_39" data-name="Path 39" d="M1509.309,1424.755a17.139,17.139,0,0,1-3.123-.274,11.532,11.532,0,0,1-9.606-8.924,11.393,11.393,0,0,1,1.568-9.208,10.149,10.149,0,0,1,7.611-4.4,9.422,9.422,0,0,1,10.383,6.4,1.679,1.679,0,0,1-3.222.947c-.147-.477-1.574-4.55-6.815-4.011a6.881,6.881,0,0,0-5.186,2.956,8.058,8.058,0,0,0-1.1,6.423c1.041,3.8,3.194,5.807,6.98,6.51a17.788,17.788,0,0,0,7.665-.526,1.679,1.679,0,0,1,1.038,3.193A21.975,21.975,0,0,1,1509.309,1424.755Z" transform="translate(-1496.209 -1401.884)" fill="#650000"/>
    </g>
    <g id="Group_49" data-name="Group 49" transform="translate(517.768 701.374)">
      <path id="Path_40" data-name="Path 40" d="M1401.629,1354.633a27.642,27.642,0,0,1-5.495-.528c-8.442-1.714-13.687-6.874-16.036-15.771a20.532,20.532,0,0,1,2.823-16.5,16.446,16.446,0,0,1,12.224-7.11,15.688,15.688,0,0,1,17.143,11.145,2.029,2.029,0,0,1-3.907,1.1,11.733,11.733,0,0,0-12.821-8.208,12.5,12.5,0,0,0-9.3,5.382,16.6,16.6,0,0,0-2.237,13.156c1.942,7.357,6.048,11.434,12.921,12.829a29.863,29.863,0,0,0,13.675-.906,2.029,2.029,0,1,1,1.3,3.843A35.131,35.131,0,0,1,1401.629,1354.633Z" transform="translate(-1379.457 -1314.62)" fill="#650000"/>
    </g>
    <g id="Group_50" data-name="Group 50" transform="translate(540.049 626.112)">
      <path id="Path_41" data-name="Path 41" d="M1579.19,723.428c1.521,9.606,5.22,19.595,10.823,25.992-4.39,1.286-6.134,5.836-6.3,10.392a19.559,19.559,0,0,0,1.108,7.4c2.717,7.178,9.242,10.982,18.153,13.176.573.138,1.151.272,1.745.4a19.92,19.92,0,0,1-4.492-2.184c-4.963-3.2-8.67-8.369-9.4-12.643-.025-.16-.048-.321-.067-.478-.023-.181-.041-.363-.049-.539-.015-.147-.023-.294-.028-.435a11.125,11.125,0,0,1,2.979-8.131,16.1,16.1,0,0,1,5.539-3.908s-15.312-22.766-4.6-44.915c.088-.179.172-.361.263-.537,6.055-12.034,15.123-17.376,23.825-18.414a.143.143,0,0,1,.055-.006c11.261-1.322,21.895,4.562,24.567,12.488a12.091,12.091,0,0,1,.582,2.643l.29-.031c-.937-9.013,8.576-18.445,20.72-19.9,8.922-1.069,19.271,2.168,27.94,13.035.125.153.248.314.366.471,15.043,19.471,4.744,44.9,4.744,44.9a.422.422,0,0,1,.051.009,16.207,16.207,0,0,1,5.576,2.266,11.25,11.25,0,0,1,5.132,7.489,11.132,11.132,0,0,1,.174,1.236,13.957,13.957,0,0,1-.721,5.341v0a23.694,23.694,0,0,1-4.71,8.233,20.7,20.7,0,0,1-5.084,4.271c9.16-4.093,15.424-9.307,16.685-17.379a19.743,19.743,0,0,0-.536-7.837c-1.159-4.279-3.778-8.159-8.208-8.5,4.168-7.413,5.73-17.948,5.246-27.662-1.53-30.535-28.316-53.331-59.318-55.368,0,0-.007,0-.007,0-2.817-.58-7.372-1.563-13.467-3a32.233,32.233,0,0,1-14.856-8.691,1.3,1.3,0,0,0-2.09.33,51.784,51.784,0,0,0-3.074,10.275,1.3,1.3,0,0,1-1.8.94c-1.4-.611-3.683-2.922-5.749-4.2a1.3,1.3,0,0,0-1.918.694,31.572,31.572,0,0,0-1.026,14.1C1588.043,677.218,1575.411,699.584,1579.19,723.428Z" transform="translate(-1578.523 -642.22)" fill="#804959"/>
    </g>
    <g id="Group_51" data-name="Group 51" transform="translate(538.023 646.606)">
      <path id="Path_42" data-name="Path 42" d="M1588.645,945.416a2.044,2.044,0,0,1-.432-.046c-11.7-2.533-18.49-7.249-21.366-14.842-1.489-3.926-2-10.34.388-15.144a10.4,10.4,0,0,1,3.515-4.095c-4.62-6.225-8.085-15.145-9.638-24.945a56.438,56.438,0,0,1,5.736-34.852,66.213,66.213,0,0,1,24.271-25.876,2.029,2.029,0,0,1,2.132,3.454c-20.533,12.67-31.575,34.9-28.131,56.639,1.593,10.059,5.461,19.394,10.346,24.973l2.093,2.391-3.049.893a5.871,5.871,0,0,0-3.642,3.225c-1.746,3.509-1.42,8.749-.227,11.9,2.375,6.271,8.06,10.068,18.431,12.314a2.029,2.029,0,0,1-.427,4.012Z" transform="translate(-1560.424 -825.313)" fill="#650000"/>
    </g>
    <g id="Group_52" data-name="Group 52" transform="translate(612.107 636.187)">
      <path id="Path_43" data-name="Path 43" d="M2270.087,853.018a2.03,2.03,0,0,1-.83-3.882c9.692-4.332,14.473-9.217,15.509-15.84.518-3.329-.242-8.527-2.673-11.6a5.873,5.873,0,0,0-4.223-2.4l-3.167-.247,1.557-2.77c3.628-6.457,5.495-16.389,4.987-26.567-1.366-27.315-24.072-49.63-54.023-53.133l-.066.007-.172-.032c-.872-.1-1.779-.189-2.775-.262l-.2-.022a2.029,2.029,0,0,1,.492-4.026l.031,0c.975.071,1.871.155,2.734.255h.013l.186.021a69.041,69.041,0,0,1,39.732,18.3,57.462,57.462,0,0,1,18.1,38.683c.493,9.916-1.064,19.357-4.3,26.394a10.39,10.39,0,0,1,4.275,3.28c3.328,4.209,4.148,10.592,3.5,14.744-1.252,8.021-6.927,14.033-17.862,18.92A2.016,2.016,0,0,1,2270.087,853.018Z" transform="translate(-2222.293 -732.23)" fill="#650000"/>
    </g>
    <g id="Group_53" data-name="Group 53" transform="translate(551.713 667.59)">
      <path id="Path_44" data-name="Path 44" d="M1683.16,1094.607a4.664,4.664,0,0,0,.2.445c.889,1.823,4.63,8.772,9.4,12.644a14.053,14.053,0,0,0,2.747,1.781,9.058,9.058,0,0,0,1.136.465c.835.182,1.69.347,2.558.5.278.052.555.1.832.143,4.574.758,7.116,1.551,10.182,2.154a55.472,55.472,0,0,0,9.672.97c10.048.281,18.866.559,23.982.027a149.117,149.117,0,0,0,34.031-8.555,109.772,109.772,0,0,0,15.7-7.308s0,0,.007-.008a26.981,26.981,0,0,0,2.382-1.993c2.492-2.344,4.323-5.093,4.712-8.233v0a10.754,10.754,0,0,0-.531-4.833c-.037-.12.938-1.144.895-1.256-.03-.084-.061-.17-.094-.251a18.34,18.34,0,0,0-4.856-7.727,8.372,8.372,0,0,0-5.576-2.265,3.857,3.857,0,0,0-.66.054s10.01-25.4-5.033-44.869c-.124-.16-.246-.317-.371-.47-8.38-10.506-18.323-13.879-27.036-13.129-11.346.978-20.6,8.951-21.593,17.286a12.245,12.245,0,0,0-.026,2.706c-.941-9.056-12.291-16.354-24.54-15.194a.149.149,0,0,0-.056.005c-8.885.856-18.239,6.165-24.433,18.479-.092.175-.175.354-.263.536-10.717,22.149,4.594,44.914,4.594,44.914s-2.62.318-4.929,3.846a21.048,21.048,0,0,0-2.892,8.181c-.019.126-.04.255-.059.384C1683.216,1094.223,1683.186,1094.414,1683.16,1094.607Z" transform="translate(-1682.726 -1012.792)" fill="#ffca9f"/>
    </g>
    <g id="Group_54" data-name="Group 54" transform="translate(567.415 624.082)">
      <path id="Path_45" data-name="Path 45" d="M1825.38,650.664a2.029,2.029,0,0,1-2.008-1.753,33.671,33.671,0,0,1,1.109-15.006,3.33,3.33,0,0,1,4.911-1.784,31.6,31.6,0,0,1,3.134,2.334c.527.427,1.093.887,1.57,1.234a51.1,51.1,0,0,1,3.039-9.774,3.333,3.333,0,0,1,5.349-.841,33.631,33.631,0,0,0,13.959,8.164c10.913,3.077,16.191,3.219,16.243,3.22a2.029,2.029,0,0,1-.069,4.058c-.23,0-5.761-.126-17.275-3.372a38.166,38.166,0,0,1-14.987-8.487,58.24,58.24,0,0,0-2.492,8.841,3.332,3.332,0,0,1-4.6,2.4,16.28,16.28,0,0,1-3.293-2.3c-.637-.517-1.291-1.047-1.917-1.5a30.356,30.356,0,0,0-.659,12.252,2.029,2.029,0,0,1-1.734,2.286A2.086,2.086,0,0,1,1825.38,650.664Z" transform="translate(-1823.012 -624.082)" fill="#650000"/>
    </g>
    <g id="Group_55" data-name="Group 55" transform="translate(611.983 734.851)">
      <path id="Path_46" data-name="Path 46" d="M2221.8,1617.3a.451.451,0,0,1-.619-.436c.037-.984.305-2.7,1.69-3.065a1.5,1.5,0,0,1,2.089,1.612c-.135.584-.573.986-1.484,1.278C2222.917,1616.865,2222.27,1617.108,2221.8,1617.3Z" transform="translate(-2221.181 -1613.705)" fill="#650000"/>
    </g>
    <g id="Group_56" data-name="Group 56" transform="translate(603.916 735.765)">
      <path id="Path_47" data-name="Path 47" d="M2152.681,1625.079a.451.451,0,0,0,.516-.555c-.239-.955-.852-2.577-2.284-2.652a1.5,1.5,0,0,0-1.713,2.007c.253.543.763.846,1.715.944C2151.5,1624.885,2152.183,1624.991,2152.681,1625.079Z" transform="translate(-2149.109 -1621.868)" fill="#650000"/>
    </g>
    <g id="Group_57" data-name="Group 57" transform="translate(604.326 741.844)">
      <path id="Path_48" data-name="Path 48" d="M2154.464,1681.884a9.794,9.794,0,0,0,3.39,1.145,5.853,5.853,0,0,0,3.1-.47,5.486,5.486,0,0,0,2.326-2.039,8.844,8.844,0,0,0,1.193-3.278l.013-.076a1.194,1.194,0,0,1,2.344-.036,7.882,7.882,0,0,1-.591,4.988,7.624,7.624,0,0,1-3.787,3.73,7.845,7.845,0,0,1-5.267.386,8.2,8.2,0,0,1-4.154-2.7,1.109,1.109,0,0,1,1.369-1.688Z" transform="translate(-2152.778 -1676.183)" fill="#650000"/>
    </g>
    <g id="Group_58" data-name="Group 58" transform="translate(550.179 665.65)">
      <path id="Path_49" data-name="Path 49" d="M1718.226,1101.011a138.851,138.851,0,0,1-19.382-1.355,82.463,82.463,0,0,1-14.392-3.113c-7.631-2.545-14.509-10.166-15.327-16.985-.859-7.176,3.78-11.871,7.566-14.1-3.535-6.162-12.9-25.594-3.531-44.959l.084-.173c.067-.139.134-.278.2-.415,8.656-17.2,23.33-21.208,34.171-19.221,7.017,1.287,12.848,4.945,16.062,9.7,2.167-5.312,7.122-10.092,13.725-12.794,10.2-4.176,25.387-3.267,37.408,11.8.125.151.264.333.4.511,13.142,17.011,7.973,37.951,5.781,44.708,4.161,1.4,9.665,5.038,10.3,12.237.607,6.839-4.557,15.712-11.512,19.777a88.921,88.921,0,0,1-13.97,6.132A141.738,141.738,0,0,1,1718.226,1101.011Zm-15.794-96.712c-6.714,0-17.859,2.543-25.369,17.465-.062.122-.111.222-.159.322l-.094.194c-10.089,20.85,4.309,42.672,4.456,42.89l1.424,2.117-2.383.911c-.323.126-8.065,3.238-7.15,10.877.557,4.642,5.862,11.377,12.587,13.62a78.38,78.38,0,0,0,13.667,2.943,137.144,137.144,0,0,0,65.036-6.69,85.24,85.24,0,0,0,13.3-5.822c6.109-3.572,9.915-11.253,9.5-15.909-.676-7.664-8.889-9.119-9.238-9.177l-2.5-.416.944-2.349c.1-.242,9.663-24.6-4.469-42.9-.116-.152-.221-.291-.329-.423-13.386-16.783-28.425-12.356-32.717-10.6-7.789,3.187-12.985,9.9-12.355,15.966a2.03,2.03,0,0,1-1.807,2.229c-.05,0-.1.008-.146.01s-.1.015-.146.02a2.028,2.028,0,0,1-2.227-1.808c-.631-6.064-7.1-11.567-15.374-13.084A24.954,24.954,0,0,0,1702.432,1004.3Z" transform="translate(-1669.022 -995.451)" fill="#650000"/>
    </g>
    <g id="Group_59" data-name="Group 59" transform="translate(545.362 731.085)" opacity="0.3">
      <path id="Path_50" data-name="Path 50" d="M1627.114,1601.433c2.718,7.179,9.241,10.982,18.154,13.176a9.35,9.35,0,0,0,1.136.465q1.253.273,2.557.5c.278.052.555.1.832.143,8.228,1.361,9.876,2.843,19.854,3.125,10.049.281,18.867.559,23.983.027,11.307-1.175,33.519-6.516,49.733-15.864,0,0,0,0,.007-.008a26.992,26.992,0,0,0,2.383-1.993,20.713,20.713,0,0,1-5.083,4.271c9.159-4.094,15.423-9.307,16.684-17.379a19.722,19.722,0,0,0-.535-7.836,40.03,40.03,0,0,1-5.809,6.131c-.09.081-.181.16-.275.237-7.884,6.773-23.011,15.692-50.771,20.651a90.43,90.43,0,0,1-13.134,1.366c-28.008.853-44.616-4.683-53.767-9.663-.031-.018-.06-.033-.087-.051a41.491,41.491,0,0,1-6.97-4.7A19.57,19.57,0,0,0,1627.114,1601.433Z" transform="translate(-1625.991 -1580.061)" fill="#650000"/>
    </g>
    <g id="Group_60" data-name="Group 60" transform="translate(575.057 707.192)">
      <path id="Path_51" data-name="Path 51" d="M1903.3,1370.355a7.643,7.643,0,0,0-5.949,3.337,14.443,14.443,0,0,0-2.133,10.535c.785,5.408,3.827,9.988,7.557,12.011a8.584,8.584,0,0,0,4.445,1.119c5.547-.2,9.166-6.415,8.083-13.871S1908.844,1370.151,1903.3,1370.355Z" transform="translate(-1894.604 -1369.93)" fill="#fff"/>
      <path id="Path_52" data-name="Path 52" d="M1903.607,1394.452a9.029,9.029,0,0,1-4.361-1.175c-3.943-2.14-6.995-6.977-7.771-12.318a14.891,14.891,0,0,1,2.21-10.844,8.085,8.085,0,0,1,6.272-3.508h0c5.732-.219,11.323,5.839,12.433,13.488.647,4.454-.3,8.593-2.606,11.358a7.9,7.9,0,0,1-5.877,2.993C1903.808,1394.45,1903.707,1394.452,1903.607,1394.452Zm-3.618-27.007a7.259,7.259,0,0,0-5.624,3.164,14.046,14.046,0,0,0-2.058,10.228c.738,5.089,3.62,9.684,7.341,11.7a8.109,8.109,0,0,0,4.229,1.068,7.084,7.084,0,0,0,5.264-2.693c2.119-2.543,3.023-6.542,2.42-10.7-1.05-7.24-6.244-12.971-11.572-12.772Z" transform="translate(-1891.281 -1366.601)" fill="#11116d"/>
    </g>
    <g id="Group_62" data-name="Group 62" transform="translate(577.255 707.612)">
      <g id="Group_61" data-name="Group 61" transform="translate(0 0)">
        <path id="Path_53" data-name="Path 53" d="M1917.414,1370.355a7.641,7.641,0,0,0-5.949,3.337,11.683,11.683,0,0,0-.42,1.527c-.248,1.184-.191,2.828.746,3.514.8.589,1.683.042,2.543.01,1.417-.057,2.948,1.582,3.176,3.4s-.895,3.47-2.324,3.423c-.995-.035-2.185-.726-2.892.019a3.074,3.074,0,0,0-.29,2.548,14.619,14.619,0,0,0,4.67,7.922c.07.062.141.122.214.178a8.587,8.587,0,0,0,4.445,1.119c5.547-.2,9.165-6.415,8.082-13.871S1922.962,1370.151,1917.414,1370.355Z" transform="translate(-1910.92 -1370.35)" fill="#9acbd6"/>
      </g>
    </g>
    <g id="Group_63" data-name="Group 63" transform="translate(577.587 708.41)">
      <ellipse id="Ellipse_1" data-name="Ellipse 1" cx="8.125" cy="11.954" rx="8.125" ry="11.954" transform="translate(0 3.829) rotate(-13.631)" fill="#640005"/>
    </g>
    <g id="Group_65" data-name="Group 65" transform="translate(575.516 710.548)">
      <g id="Group_64" data-name="Group 64" transform="translate(0 0)">
        <path id="Path_54" data-name="Path 54" d="M1900.579,1401.63c-.862.033-1.739.58-2.545-.01-.935-.685-.994-2.33-.747-3.514a12.246,12.246,0,0,1,.421-1.527,14.445,14.445,0,0,0-2.133,10.536c.785,5.408,3.827,9.987,7.557,12.011-.071-.058-.144-.119-.214-.179a14.628,14.628,0,0,1-4.671-7.922,3.078,3.078,0,0,1,.291-2.548c.707-.746,1.9-.054,2.891-.02,1.429.048,2.552-1.6,2.324-3.422S1901.995,1401.573,1900.579,1401.63Z" transform="translate(-1895.384 -1396.579)" fill="#fff"/>
      </g>
    </g>
    <g id="Group_66" data-name="Group 66" transform="translate(572.784 704.919)">
      <path id="Path_55" data-name="Path 55" d="M1882.225,1348.982c5.446,0,10.658,5.8,11.721,13.135,1.083,7.456-2.536,13.667-8.083,13.871-.095,0-.188.005-.281.005a8.668,8.668,0,0,1-4.165-1.124c-3.73-2.024-6.771-6.6-7.556-12.011a14.443,14.443,0,0,1,2.134-10.535,7.637,7.637,0,0,1,5.948-3.337c.094,0,.187,0,.282,0m0-2.693c-.128,0-.254,0-.381.007a10.311,10.311,0,0,0-8.028,4.444,17.157,17.157,0,0,0-2.62,12.506c.888,6.12,4.313,11.482,8.938,13.992a11.279,11.279,0,0,0,5.448,1.449c.127,0,.253,0,.379-.007a10.252,10.252,0,0,0,7.541-3.811c2.716-3.259,3.849-8.048,3.109-13.14-1.256-8.658-7.575-15.441-14.386-15.441Z" transform="translate(-1870.979 -1346.288)" fill="#640005"/>
    </g>
    <g id="Group_67" data-name="Group 67" transform="translate(619.73 701.38)">
      <path id="Path_56" data-name="Path 56" d="M2302.615,1318.563a7.638,7.638,0,0,1,6.59,1.757,14.444,14.444,0,0,1,4.68,9.677c.581,5.433-1.231,10.624-4.342,13.51a8.594,8.594,0,0,1-4.029,2.185c-5.424,1.177-10.471-3.942-11.27-11.433S2297.191,1319.741,2302.615,1318.563Z" transform="translate(-2293.719 -1317.979)" fill="#fff"/>
      <path id="Path_57" data-name="Path 57" d="M2300.63,1342.972a8.1,8.1,0,0,1-4.781-1.624c-2.918-2.106-4.863-5.88-5.341-10.356-.823-7.685,3.08-14.93,8.7-16.15h0a8.084,8.084,0,0,1,6.947,1.845,14.882,14.882,0,0,1,4.83,9.954c.576,5.369-1.181,10.811-4.473,13.863a8.952,8.952,0,0,1-4.226,2.288A7.841,7.841,0,0,1,2300.63,1342.972Zm-1.247-27.309c-5.211,1.132-8.821,7.969-8.039,15.241.444,4.176,2.312,7.826,5,9.764a7.081,7.081,0,0,0,5.767,1.3,8.112,8.112,0,0,0,3.833-2.083c3.1-2.88,4.757-8.044,4.212-13.158a14.053,14.053,0,0,0-4.531-9.4,7.163,7.163,0,0,0-6.236-1.67Z" transform="translate(-2290.399 -1314.667)" fill="#11116d"/>
    </g>
    <g id="Group_68" data-name="Group 68" transform="translate(620.149 701.797)">
      <path id="Path_58" data-name="Path 58" d="M2302.615,1318.563a7.638,7.638,0,0,1,6.59,1.757,11.46,11.46,0,0,1,.785,1.375c.534,1.086.886,2.693.149,3.589-.633.77-1.619.458-2.461.64-1.387.3-2.463,2.264-2.232,4.086s1.726,3.14,3.1,2.74c.956-.28,1.936-1.245,2.806-.7a3.076,3.076,0,0,1,.912,2.4,14.62,14.62,0,0,1-2.56,8.833c-.051.077-.107.153-.162.227a8.594,8.594,0,0,1-4.029,2.185c-5.424,1.177-10.471-3.942-11.27-11.433S2297.191,1319.741,2302.615,1318.563Z" transform="translate(-2294.137 -1318.396)" fill="#9acbd6"/>
    </g>
    <g id="Group_69" data-name="Group 69" transform="translate(619.495 704.913)">
      <ellipse id="Ellipse_2" data-name="Ellipse 2" cx="8.125" cy="11.954" rx="8.125" ry="11.954" transform="matrix(1, -0.013, 0.013, 1, 0, 0.207)" fill="#640005"/>
    </g>
    <g id="Group_71" data-name="Group 71" transform="translate(631.287 703.338)">
      <g id="Group_70" data-name="Group 70" transform="translate(0 0)">
        <path id="Path_59" data-name="Path 59" d="M2395.912,1337.768c.844-.182,1.828.13,2.462-.64.737-.9.386-2.5-.149-3.59a11.6,11.6,0,0,0-.786-1.374,14.446,14.446,0,0,1,4.68,9.676c.581,5.433-1.23,10.625-4.342,13.51.055-.073.111-.15.164-.227a14.643,14.643,0,0,0,2.56-8.833,3.078,3.078,0,0,0-.914-2.4c-.869-.547-1.85.417-2.807.7-1.372.4-2.869-.92-3.1-2.739S2394.527,1338.063,2395.912,1337.768Z" transform="translate(-2393.65 -1332.163)" fill="#fff"/>
      </g>
    </g>
    <g id="Group_72" data-name="Group 72" transform="translate(617.452 699.104)">
      <path id="Path_60" data-name="Path 60" d="M2282.775,1297.028a7.881,7.881,0,0,1,5.04,1.924,14.444,14.444,0,0,1,4.679,9.676c.581,5.433-1.23,10.625-4.342,13.511a8.584,8.584,0,0,1-4.03,2.185,7.292,7.292,0,0,1-1.555.168c-4.8,0-8.992-4.832-9.714-11.6-.8-7.492,2.947-14.52,8.37-15.7a7.316,7.316,0,0,1,1.552-.168m0-2.694h0a10.075,10.075,0,0,0-2.119.228c-6.838,1.484-11.439,9.66-10.481,18.615.866,8.117,6.079,14.008,12.393,14.008a10.053,10.053,0,0,0,2.127-.229,11.182,11.182,0,0,0,5.3-2.849c3.851-3.572,5.84-9.615,5.181-15.766a17.159,17.159,0,0,0-5.645-11.469,10.541,10.541,0,0,0-6.752-2.539Z" transform="translate(-2270.049 -1294.335)" fill="#640005"/>
    </g>
    <g id="Group_73" data-name="Group 73" transform="translate(557.01 844.227)">
      <path id="Path_61" data-name="Path 61" d="M1739.564,2596.856s9.329-7.454,13.227-5.712c4.295,1.919-2.6,8.479-2.6,8.583s11.74,1.888,11.816,6.739c.066,4.2-9.66,2.443-9.789,2.625-.078.11,5.733,6.652,2.341,8.224s-10.714-2.785-10.84-2.683c-.2.157,3.667,7.084-.434,9.338s-13.116-7.334-13.237-13.478C1729.935,2604.6,1739.564,2596.856,1739.564,2596.856Z" transform="translate(-1730.051 -2590.881)" fill="#ffca9f"/>
    </g>
    <g id="Group_74" data-name="Group 74" transform="translate(554.981 842.212)">
      <path id="Path_62" data-name="Path 62" d="M1725.795,2610.349a8.263,8.263,0,0,1-4.117-1.278c-4.531-2.621-9.65-9.229-9.755-14.526-.132-6.7,9.205-14.4,10.271-15.258l0,0c2.415-1.929,10.657-8.062,15.323-5.978a4.179,4.179,0,0,1,2.525,2.99c.417,2.06-.769,4.3-2.238,6.23,4.089,1.077,10.058,3.325,10.131,7.922a4.09,4.09,0,0,1-1.323,3.142c-1.467,1.365-3.862,1.751-6.418,1.751h-.084c1.064,1.821,1.73,3.675,1.32,5.322a3.738,3.738,0,0,1-2.117,2.507c-2.315,1.072-5.431.364-8.416-.819.5,2.61.331,5.725-2.734,7.409A4.831,4.831,0,0,1,1725.795,2610.349Zm-1.061-27.9c-3.423,2.757-8.824,8.457-8.753,12.014.065,3.318,3.966,8.916,7.728,11.092,1.324.766,2.176.826,2.5.646,1.194-.656,1.115-2.654-.244-6.1-.3-.774-.816-2.071.38-3.036,1.036-.834,2.029-.342,2.906.091,5.36,2.657,7.451,2.664,8.246,2.378-.025-.424-.351-1.678-2.653-4.719a2.3,2.3,0,0,1-.38-2.885c.694-.981,1.668-.893,2.693-.805,5.828.514,6.641-.419,6.718-.534a.646.646,0,0,0,0-.08c0-.266-.313-2.671-9.681-4.659-.583-.124-2.136-.454-2.136-2.109a2.275,2.275,0,0,1,.782-1.65c3.261-3.493,3.242-4.811,3.225-4.975-.015,0-.078-.048-.207-.107C1734.239,2576.285,1728.693,2579.293,1724.734,2582.452Z" transform="translate(-1711.921 -2572.878)" fill="#650000"/>
    </g>
    <g id="Group_76" data-name="Group 76" transform="translate(592.505 771.239)">
      <g id="Group_75" data-name="Group 75">
        <path id="Path_63" data-name="Path 63" d="M2068.566,1938.8s22.186,16.049,44.386,17.077l-.017,23.705s-41.934,13.317-65.769-10.543" transform="translate(-2047.166 -1938.795)" fill="#804959"/>
      </g>
    </g>
    <g id="Group_77" data-name="Group 77" transform="translate(592.507 787.991)" opacity="0.3">
      <path id="Path_64" data-name="Path 64" d="M2112.971,2088.789l-.021,23.706s-41.932,13.316-65.764-10.542l1.208-1.709c23.32,13.644,45.83,7.783,51.965,4.3s8.757-16.075,8.757-16.075C2110.4,2088.615,2111.684,2088.728,2112.971,2088.789Z" transform="translate(-2047.186 -2088.464)" fill="#650000"/>
    </g>
    <g id="Group_78" data-name="Group 78" transform="translate(590.475 769.21)">
      <path id="Path_65" data-name="Path 65" d="M2070.664,1969.209c-17.162,0-31.313-5.11-41.037-14.843a2.029,2.029,0,1,1,2.871-2.868c20.294,20.315,54.906,12.435,62.3,10.445l.016-20.272c-21.852-1.809-42.645-16.684-43.545-17.333a2.029,2.029,0,0,1,2.378-3.289c.217.156,21.973,15.707,43.292,16.693l1.935.089-.019,27.129-1.414.449a97.073,97.073,0,0,1-24.509,3.77C2072.176,1969.2,2071.415,1969.209,2070.664,1969.209Z" transform="translate(-2029.033 -1920.665)" fill="#650000"/>
    </g>
    <g id="Group_79" data-name="Group 79" transform="translate(650.42 780.852)">
      <path id="Path_66" data-name="Path 66" d="M2567.926,2035.614s5.123-10.786,9.391-10.927c4.7-.156,1.376,8.76,1.423,8.853s11.378-3.445,13.573.884c1.9,3.745-7.614,6.427-7.651,6.647-.021.133,8.067,3.47,5.706,6.368s-10.851,2.188-10.919,2.334c-.107.227,6.4,4.764,3.7,8.586s-15-.85-17.8-6.319C2562.661,2046.791,2567.926,2035.614,2567.926,2035.614Z" transform="translate(-2564.584 -2024.685)" fill="#ffca9f"/>
    </g>
    <g id="Group_80" data-name="Group 80" transform="translate(648.4 778.823)">
      <path id="Path_67" data-name="Path 67" d="M2563.518,2045.682c-.278,0-.571-.01-.876-.033-5.22-.37-12.716-4.071-15.13-8.786-3.052-5.963,1.966-16.977,2.55-18.214l0-.005c1.325-2.793,6.049-11.917,11.156-12.086a4.172,4.172,0,0,1,3.579,1.581c1.279,1.669,1.193,4.2.719,6.581,4.149-.821,10.5-1.415,12.576,2.685a4.093,4.093,0,0,1,.187,3.4c-.73,1.89-2.75,3.3-5.079,4.422,1.752,1.17,3.165,2.545,3.517,4.206a3.739,3.739,0,0,1-.806,3.182c-1.61,1.978-4.721,2.706-7.925,2.95,1.6,2.125,2.806,5,.791,7.858C2568.032,2044.484,2566.522,2045.682,2563.518,2045.682Zm-9.786-25.3c-1.869,3.978-4.228,11.467-2.607,14.635,1.513,2.955,7.469,6.278,11.8,6.587,1.529.107,2.318-.21,2.535-.515.786-1.114-.16-2.874-2.894-5.381-.613-.561-1.638-1.5-.988-2.894.568-1.2,1.683-1.2,2.653-1.192,5.985.057,7.865-.869,8.455-1.475-.209-.369-1.051-1.354-4.452-3.078a2.3,2.3,0,0,1-1.6-2.427c.194-1.186,1.107-1.535,2.069-1.9,5.465-2.094,5.787-3.286,5.805-3.424,0,0-.008-.024-.032-.072-.122-.238-1.45-2.265-10.745.05a2.245,2.245,0,0,1-2.841-.955,2.274,2.274,0,0,1-.022-1.833c1.4-4.567.808-5.744.719-5.883-.013,0-.07-.006-.175-.006-.016,0-.036,0-.055,0C2559.574,2010.673,2555.91,2015.806,2553.732,2020.38Z" transform="translate(-2546.535 -2006.555)" fill="#650000"/>
    </g>
  </g>
</svg>
