<svg xmlns="http://www.w3.org/2000/svg" width="155.133" height="199.816" viewBox="0 0 155.133 199.816">
  <g id="Group_890" data-name="Group 890" transform="translate(-743.941 -441.494)">
    <g id="Group_488" data-name="Group 488" transform="translate(743.941 508.569)">
      <g id="Group_482" data-name="Group 482" transform="translate(1.027 1.031)">
        <path id="Path_596" data-name="Path 596" d="M820.258,1579.017s-14.633,3.259-22.058-10.226c-7.259-13.185,6.049-29.476,6-41.612-.073-16.429-11.557-30.842-30.254-25.615-18.968,5.3-16.136,28.544-6.621,34.255,5.605,3.364,10.33,1.82,11.843-4.36s-6.388-9.934-3.736-14.823,13.013-4.916,15.4,5.119-5.914,27.542-6.288,38.726c-.349,10.456,6.094,20.649,15.327,25.446,11.009,5.721,20.017,4.262,20.017,4.262Z" transform="translate(-759.902 -1500.475)" fill="#804959"/>
      </g>
      <g id="Group_484" data-name="Group 484" transform="translate(25.652 61.361)" opacity="0.3">
        <path id="Path_598" data-name="Path 598" d="M1142.817,2438.552c-.209,10.341,6.2,20.373,15.336,25.123,11.008,5.72,20.016,4.262,20.016,4.262l.189-5.67a43.8,43.8,0,0,1-19.447-4.474C1150.882,2453.94,1144.774,2446.656,1142.817,2438.552Z" transform="translate(-1142.812 -2438.552)" fill="#650000"/>
      </g>
      <g id="Group_485" data-name="Group 485" transform="translate(15.292 8.828)" opacity="0.3">
        <path id="Path_599" data-name="Path 599" d="M998.386,1635.2c.051.219.1.442.141.667a20.432,20.432,0,0,0-.365-6.581c-2.214-9.2-13.131-9.041-15.561-4.665a5.376,5.376,0,0,0,.114,6.045,4.687,4.687,0,0,1,.269-.583C985.637,1625.188,996,1625.161,998.386,1635.2Z" transform="translate(-981.724 -1621.714)" fill="#650000"/>
      </g>
      <g id="Group_486" data-name="Group 486" transform="translate(1.777 25.936)" opacity="0.3">
        <path id="Path_600" data-name="Path 600" d="M771.565,1888.139c1.147,4.392,3.549,8.149,6.669,10.023,5.606,3.363,10.329,1.82,11.843-4.362a8.075,8.075,0,0,0-1.195-6.078,1.07,1.07,0,0,1-.03.13c-1.626,6.177-6.763,7.706-12.872,4.326A13.754,13.754,0,0,1,771.565,1888.139Z" transform="translate(-771.565 -1887.722)" fill="#650000"/>
      </g>
      <g id="Group_487" data-name="Group 487" transform="translate(0 0)">
        <path id="Path_601" data-name="Path 601" d="M802.091,1576.393a38.6,38.6,0,0,1-17.632-4.552c-9.855-5.121-16.237-15.727-15.88-26.392.16-4.79,1.684-10.5,3.3-16.554,2.138-8.018,4.348-16.309,3.018-21.9-1-4.2-3.723-6.994-7.285-7.466-2.638-.35-5.192.719-6.212,2.6-1.009,1.859-.1,3.49,1.473,6,1.5,2.4,3.206,5.116,2.357,8.583-.783,3.2-2.414,5.4-4.716,6.358-2.466,1.028-5.458.557-8.654-1.361-5.474-3.285-8.79-11.78-7.715-19.759,1.094-8.116,6.411-14.081,14.587-16.367,8.034-2.246,15.328-1.131,21.094,3.224,6.51,4.917,10.422,13.656,10.465,23.376.021,4.78-1.887,10.006-3.907,15.538-3.2,8.751-6.5,17.8-2.216,25.583,6.972,12.663,20.8,9.749,20.934,9.719a1.028,1.028,0,0,1,1.25,1.037l-.373,11.172a1.028,1.028,0,0,1-.863.98A20.425,20.425,0,0,1,802.091,1576.393Zm-35.5-78.987a9.837,9.837,0,0,1,1.291.086c4.44.589,7.81,3.964,9.014,9.028,1.449,6.094-.829,14.64-3.032,22.9-1.582,5.934-3.076,11.538-3.228,16.094-.331,9.891,5.606,19.736,14.774,24.5a35.735,35.735,0,0,0,18.546,4.244l.3-9.032a24.489,24.489,0,0,1-7.368-.256,20.543,20.543,0,0,1-14.522-10.684c-4.736-8.6-1.112-18.524,2.085-27.279,1.955-5.355,3.8-10.412,3.783-14.824-.04-9.084-3.647-17.213-9.648-21.745-5.234-3.953-11.909-4.951-19.3-2.884-10.061,2.813-12.528,10.394-13.1,14.662-.957,7.1,2,14.88,6.735,17.721,2.614,1.569,4.967,1.993,6.806,1.226,1.675-.7,2.889-2.41,3.51-4.949.642-2.622-.691-4.75-2.1-7-1.558-2.487-3.17-5.059-1.538-8.067A7.815,7.815,0,0,1,766.588,1497.406Z" transform="translate(-743.941 -1484.447)" fill="#650000"/>
      </g>
    </g>
    <g id="Group_489" data-name="Group 489" transform="translate(856.856 583.537)">
      <path id="Path_602" data-name="Path 602" d="M2521.6,2665.087c-.948,1.588-2.814,3.14-5.953,4.106-6.526,2.006-14.216-.756-15.742-8.335-.7-3.461.234-6.606,2.523-8.576a7.618,7.618,0,0,1,.7-.537c2.78-1.912,7.148-2.323,12.746-.126a9.306,9.306,0,0,1,1.819,4.905,8.615,8.615,0,0,1,.021,1,9.767,9.767,0,0,1-.391,2.4s2.528-1.156,4.016-.066a2.195,2.195,0,0,1,.6.66A4.546,4.546,0,0,1,2521.6,2665.087Z" transform="translate(-2499.677 -2650.135)" fill="#ffca9f"/>
    </g>
    <g id="Group_490" data-name="Group 490" transform="translate(856.856 583.537)" opacity="0.3">
      <path id="Path_603" data-name="Path 603" d="M2521.6,2665.087c-.948,1.588-2.814,3.14-5.953,4.106-6.526,2.006-14.216-.756-15.742-8.335-.7-3.461.234-6.606,2.523-8.576a7.618,7.618,0,0,1,.7-.537c2.78-1.912,7.148-2.323,12.746-.126a9.306,9.306,0,0,1,1.819,4.905c-1.94,2.253-5.609,5.059-9.119,5.149,0,0-1.8,2.962,1.544,5.288C2511.975,2668.253,2517.881,2667.523,2521.6,2665.087Z" transform="translate(-2499.677 -2650.135)" fill="#650000"/>
    </g>
    <g id="Group_491" data-name="Group 491" transform="translate(855.825 582.523)">
      <path id="Path_604" data-name="Path 604" d="M2496.466,2656.1a13.8,13.8,0,0,1-7.039-1.853,11.634,11.634,0,0,1-5.527-7.935c-.785-3.9.292-7.411,2.955-9.645,3.3-2.771,8.552-3.046,14.4-.753a1.028,1.028,0,0,1,.414.3,10.387,10.387,0,0,1,2.01,7.484,3.758,3.758,0,0,1,4.143,1.551,5.287,5.287,0,0,1,.191,4.548c-.567,1.466-2.239,4.147-7.058,5.63A15.3,15.3,0,0,1,2496.466,2656.1Zm-2.612-19.678a8.65,8.65,0,0,0-5.678,1.82c-2.069,1.735-2.893,4.528-2.261,7.664a9.629,9.629,0,0,0,4.563,6.575,12.434,12.434,0,0,0,9.869.981c3.99-1.228,5.313-3.288,5.746-4.407a3.247,3.247,0,0,0-.043-2.76c-.759-1.282-3.274-.193-3.3-.181a1.029,1.029,0,0,1-1.412-1.224,8.461,8.461,0,0,0-1.107-7.165A18.231,18.231,0,0,0,2493.854,2636.419Z" transform="translate(-2483.649 -2634.369)" fill="#650000"/>
    </g>
    <g id="Group_492" data-name="Group 492" transform="translate(871.256 592.095)">
      <path id="Path_605" data-name="Path 605" d="M2727.656,2784.9a5.815,5.815,0,0,1-.456.492c-.151.149-.307.29-.463.428a10.309,10.309,0,0,1-.986.754,8.256,8.256,0,0,1-1.057.609,6.984,6.984,0,0,1-1.111.425,6.756,6.756,0,0,0,.825-.8,7.573,7.573,0,0,0,.67-.9,9.053,9.053,0,0,0,.537-.964c.078-.165.152-.33.218-.5a3.783,3.783,0,0,0,.165-.474.988.988,0,1,1,1.734.84Z" transform="translate(-2723.582 -2783.198)" fill="#650000"/>
    </g>
    <g id="Group_493" data-name="Group 493" transform="translate(846.119 544.281)">
      <path id="Path_606" data-name="Path 606" d="M2359.376,2085.894c-1.994.483-5.825-.01-9.054-1.608-2.708-1.339-4.992-3.453-5.411-6.418-.714-5.054,2.146-10.706,3.823-13.5.66-1.1,1.138-1.76,1.138-1.76a6.237,6.237,0,0,0-1.868-2.387,17.184,17.184,0,0,0-4.281-2.667l-3.81-6.177-1.313-2.125-5.876-9.522,10.437,1.128,1.883.2s2.1,1.4,5.008,3.708c6,4.774,15.478,13.443,17.225,21.824.051.249.1.5.144.742C2369.055,2076.387,2365.792,2084.336,2359.376,2085.894Z" transform="translate(-2332.724 -2039.73)" fill="#804959"/>
    </g>
    <g id="Group_495" data-name="Group 495" transform="translate(853.308 555.54)" opacity="0.3">
      <path id="Path_608" data-name="Path 608" d="M2463.97,2249.7c-1.994.483-5.825-.01-9.054-1.608-2.708-1.339-4.992-3.453-5.411-6.418-.714-5.054,2.146-10.706,3.823-13.5.66-1.1,1.138-1.76,1.138-1.76a6.238,6.238,0,0,0-1.868-2.387,17.194,17.194,0,0,0-4.281-2.667l-3.81-6.177c2.451-.964,6.918-.4,10.367,4.753,1.517,2.265,3.673,1.306,3.987,2.035.157.367-2.328,1.224-2.5,1.546-.717,1.35,7.762,3.006,6.8,3.857-.684.6-5.93-2.228-7.962.581a16.693,16.693,0,0,0-3.446,10.108c-.123,4.16,9.3,5.737,15.095,2.9,3.982-1.953,5.008-6.405,5.164-9.817C2473.648,2240.195,2470.385,2248.144,2463.97,2249.7Z" transform="translate(-2444.507 -2214.797)" fill="#650000"/>
    </g>
    <g id="Group_496" data-name="Group 496" transform="translate(856.167 544.661)">
      <path id="Path_609" data-name="Path 609" d="M2503.792,2092.567a18.044,18.044,0,0,1-9.469-2.908,8.972,8.972,0,0,1-4.168-6.117c-.909-6.433,3.519-13.568,4.8-15.474-.452-.734-1.824-2.452-5.442-4.106a.951.951,0,1,1,.791-1.731c5.54,2.533,6.562,5.32,6.66,5.63a.953.953,0,0,1-.137.846c-.057.079-5.719,7.991-4.79,14.569a7.042,7.042,0,0,0,3.352,4.808c3.384,2.3,8.031,2.892,9.947,2.427,5.962-1.447,9.055-9.263,7.194-18.182-2.486-11.919-21.636-24.8-21.829-24.934a.952.952,0,0,1,1.055-1.584c.815.543,19.992,13.447,22.637,26.129,2.075,9.947-1.626,18.725-8.609,20.42A8.614,8.614,0,0,1,2503.792,2092.567Z" transform="translate(-2488.958 -2045.652)" fill="#650000"/>
    </g>
    <g id="Group_497" data-name="Group 497" transform="translate(833.986 622.935)">
      <path id="Path_610" data-name="Path 610" d="M2172.161,3273.438c.195,2.89-6.111-.291-6.052.1.025.173,3.2,3.348,1.717,5.1-1.346,1.584-6.207-3.066-6.541-2.831s2.4,3.865-.993,4.276-10.251-8.258-10.251-8.258-3.865,2.4-5.74,0c-.969-1.241,1.173-3.62,3.469-5.631a53.351,53.351,0,0,1,4.437-3.447l10.913,3.339s2.03,1.3,4.165,2.844C2169.63,3270.612,2172.1,3272.586,2172.161,3273.438Z" transform="translate(-2144.062 -3262.741)" fill="#ffca9f"/>
    </g>
    <g id="Group_498" data-name="Group 498" transform="translate(832.958 621.907)">
      <path id="Path_611" data-name="Path 611" d="M2145.134,3266.162c-3.382,0-8.411-5.694-10.3-7.986-1.842.884-4.626,1.45-6.288-.68a2.231,2.231,0,0,1-.424-1.762c.49-3.146,7.218-7.88,8.561-8.8a1.029,1.029,0,0,1,.88-.134l10.91,3.338a1.021,1.021,0,0,1,.254.118c.023.015,2.284,1.468,4.529,3.1,4.5,3.281,4.934,4.328,4.982,5.052a2.038,2.038,0,0,1-.753,1.845c-.9.688-2.268.547-3.818.121.654,1.248,1.022,2.751,0,3.961-1.311,1.542-3.669.221-5.584-1.111a2.656,2.656,0,0,1-.316,1.62,2.873,2.873,0,0,1-2.3,1.292A2.823,2.823,0,0,1,2145.134,3266.162Zm-10.037-10.326a1.027,1.027,0,0,1,.807.39c2.7,3.411,7.365,8.107,9.32,7.875.475-.057.708-.187.768-.29.206-.352-.221-1.388-.4-1.831-.251-.608-.594-1.441.161-1.975.7-.5,1.269-.082,2.51.823,2.084,1.519,3.383,2.246,3.863,2.153.239-.325.317-1.193-1.517-3.436a1.585,1.585,0,0,1-.458-.812,1.075,1.075,0,0,1,.366-.965c.506-.421.988-.256,2.045.105,1.991.682,3.212.942,3.633.775,0-.009,0-.02,0-.032-.456-.961-4.679-4.12-8.455-6.552l-10.3-3.151c-3.007,2.11-7.036,5.539-7.285,7.136-.021.137,0,.17.013.181,1.271,1.628,4.356-.222,4.387-.241A1.025,1.025,0,0,1,2135.1,3255.836Z" transform="translate(-2128.092 -3246.758)" fill="#650000"/>
    </g>
    <g id="Group_499" data-name="Group 499" transform="translate(798.065 622.935)">
      <path id="Path_612" data-name="Path 612" d="M1613.391,3271.819c-1.875,2.4-5.74,0-5.74,0s-6.854,8.667-10.251,8.258-.662-4.041-1-4.276-5.192,4.416-6.538,2.831c-1.485-1.748,1.692-4.923,1.717-5.1.059-.39-6.247,2.791-6.052-.1.059-.879,2.683-2.949,5.087-4.669,2.058-1.473,3.954-2.689,3.954-2.689l10.91-3.339a52.945,52.945,0,0,1,4.706,3.682C1612.379,3268.385,1614.319,3270.628,1613.391,3271.819Z" transform="translate(-1585.527 -3262.741)" fill="#ffca9f"/>
    </g>
    <g id="Group_500" data-name="Group 500" transform="translate(797.037 621.907)">
      <path id="Path_613" data-name="Path 613" d="M1582.664,3266.162a2.822,2.822,0,0,1-.336-.02,2.873,2.873,0,0,1-2.3-1.292,2.653,2.653,0,0,1-.317-1.62c-1.915,1.333-4.274,2.654-5.584,1.111-1.028-1.21-.659-2.713-.005-3.961-1.55.425-2.921.566-3.818-.121a2.038,2.038,0,0,1-.753-1.845c.049-.724.479-1.771,4.982-5.052,2.245-1.635,4.507-3.089,4.529-3.1a1.021,1.021,0,0,1,.254-.118l10.911-3.338a1.028,1.028,0,0,1,.88.134c1.344.917,8.071,5.652,8.561,8.8a2.23,2.23,0,0,1-.424,1.762c-1.662,2.129-4.446,1.564-6.288.68C1591.074,3260.467,1586.046,3266.161,1582.664,3266.162Zm-1.217-6.367a1.021,1.021,0,0,1,.6.212c.755.533.412,1.366.161,1.975-.182.442-.609,1.478-.4,1.83.06.1.293.232.768.29,1.942.23,6.623-4.464,9.32-7.875a1.028,1.028,0,0,1,1.349-.236c.029.018,3.105,1.883,4.387.241.009-.011.034-.044.013-.181-.249-1.6-4.278-5.027-7.285-7.136l-10.3,3.151c-3.776,2.433-8,5.592-8.455,6.552,0,.012,0,.023,0,.032.421.167,1.642-.094,3.633-.775,1.057-.362,1.539-.527,2.045-.105a1.075,1.075,0,0,1,.366.965,1.582,1.582,0,0,1-.458.812c-1.833,2.242-1.755,3.11-1.516,3.436.478.092,1.779-.633,3.863-2.153C1580.416,3260.188,1580.956,3259.794,1581.446,3259.794Z" transform="translate(-1569.549 -3246.758)" fill="#650000"/>
    </g>
    <g id="Group_501" data-name="Group 501" transform="translate(803.156 622.935)" opacity="0.3">
      <path id="Path_614" data-name="Path 614" d="M1679.555,3262.741a52.945,52.945,0,0,1,4.706,3.682c-3.008,5.384-10.217,6.473-13.323,5.656a14.683,14.683,0,0,1-6.247-3.311c2.058-1.473,3.954-2.689,3.954-2.689Z" transform="translate(-1664.691 -3262.741)" fill="#650000"/>
    </g>
    <g id="Group_502" data-name="Group 502" transform="translate(837.693 622.935)" opacity="0.3">
      <path id="Path_615" data-name="Path 615" d="M2221.224,3268.923a14.689,14.689,0,0,1-6.068,3.156c-3.15.829-10.523-.3-13.447-5.891a53.351,53.351,0,0,1,4.437-3.447l10.913,3.339S2219.089,3267.382,2221.224,3268.923Z" transform="translate(-2201.709 -3262.741)" fill="#650000"/>
    </g>
    <g id="Group_503" data-name="Group 503" transform="translate(796.252 532.787)">
      <path id="Path_616" data-name="Path 616" d="M1624.8,1917.058a59.443,59.443,0,0,1-2.071,15.763c-.157,10.47-1.978,22.112-12.143,24.972-3.672,1.033-10.375-.981-10.616-10.874-.141-5.827-1.205-6.688-1.621-7.266H1583.8c-.416.578-1.48,1.439-1.621,7.266-.239,9.892-6.945,11.906-10.616,10.874-10.162-2.86-11.983-14.5-12.143-24.972-1.629-5.493-2.572-13.653-1.814-24.347a150.186,150.186,0,0,1,5.023-28.324q.84-3.1,1.832-6.357,1.873-6.128,4.34-12.785h44.555q2.443,6.567,4.288,12.623.983,3.191,1.8,6.238.416,1.526.794,3.014,1.341,5.284,2.246,10.11.4,2.12.73,4.147A115.351,115.351,0,0,1,1624.8,1917.058Z" transform="translate(-1557.335 -1861.008)" fill="#804959"/>
    </g>
    <g id="Group_504" data-name="Group 504" transform="translate(807.646 564.281)">
      <path id="Path_617" data-name="Path 617" d="M1779.2,2376.194c0,10.4-10,18.84-22.343,18.84s-22.343-8.435-22.343-18.84,10-25.469,22.343-25.469S1779.2,2365.789,1779.2,2376.194Z" transform="translate(-1734.51 -2350.725)" fill="#ffca9f"/>
    </g>
    <g id="Group_505" data-name="Group 505" transform="translate(795.238 532.486)">
      <path id="Path_618" data-name="Path 618" d="M1606.114,1879.627c.347.974.659,1.958.97,2.944.151.494.306.987.445,1.484s.264,1,.4,1.5c.259,1,.524,2,.739,3.01s.419,2.024.629,3.036a109.067,109.067,0,0,1,1.573,12.316,96.95,96.95,0,0,1,.07,12.449l-.1,1.558-.153,1.556c-.082,1.038-.254,2.071-.385,3.107a50.953,50.953,0,0,1-1.337,6.152l.042-.277a51.728,51.728,0,0,1-1.782,13.915,21.466,21.466,0,0,1-3.124,6.493,14.539,14.539,0,0,1-5.649,4.668l-.42.195-.43.168c-.286.114-.573.225-.868.31a8.419,8.419,0,0,1-.907.26l-.49.105c-.163.03-.327.038-.491.058a8.843,8.843,0,0,1-3.838-.477,9.341,9.341,0,0,1-3.282-2.023,11.371,11.371,0,0,1-2.182-3.118,14.771,14.771,0,0,1-1.059-3.548l-.145-.9c-.047-.3-.049-.6-.075-.9l-.06-.9c-.022-.307-.024-.568-.036-.854a26.318,26.318,0,0,0-.309-3.292,9.491,9.491,0,0,0-.377-1.494,3.753,3.753,0,0,0-.28-.621,2.82,2.82,0,0,0-.174-.269l-.263-.346.833.425h-14.552l.833-.425-.263.346a2.9,2.9,0,0,0-.175.269,3.793,3.793,0,0,0-.28.621,9.491,9.491,0,0,0-.377,1.494,26.341,26.341,0,0,0-.309,3.292c-.013.286-.014.547-.036.854l-.06.9c-.026.3-.028.6-.075.9l-.145.9a14.787,14.787,0,0,1-1.059,3.548,11.374,11.374,0,0,1-2.182,3.118,9.34,9.34,0,0,1-3.282,2.023,8.842,8.842,0,0,1-3.838.477c-.164-.019-.327-.027-.491-.058l-.49-.105a8.413,8.413,0,0,1-.907-.26c-.294-.086-.582-.2-.868-.31l-.43-.168-.42-.195a14.539,14.539,0,0,1-5.648-4.668,21.466,21.466,0,0,1-3.124-6.493,51.728,51.728,0,0,1-1.782-13.915l.042.277a52.265,52.265,0,0,1-1.71-9.2l-.215-2.32-.111-2.323-.055-1.161-.007-1.161-.011-2.322c0-.774.047-1.545.067-2.318l.088-2.317c.121-1.539.22-3.081.359-4.618.177-1.532.339-3.067.528-4.6l.685-4.574.837-4.545c.13-.76.3-1.51.469-2.262l.5-2.255c.172-.75.318-1.507.511-2.252l.567-2.238c.377-1.492.723-2.993,1.15-4.471.409-1.483.816-2.968,1.245-4.445.22-.737.471-1.464.716-2.194s.5-1.455.751-2.182.522-1.447.785-2.169q.438-1.068.9-2.128c.616-1.411,1.265-2.81,2-4.171a.346.346,0,0,1,.644.229l0,.01c-.291,1.522-.668,3.008-1.078,4.48q-.308,1.1-.641,2.2c-.212.733-.4,1.471-.627,2.2-.427,1.463-.88,2.916-1.336,4.369-.42,1.463-.863,2.919-1.3,4.377-.466,1.451-.807,2.935-1.2,4.4l-.567,2.211c-.191.737-.335,1.484-.5,2.225l-.491,2.228c-.164.743-.335,1.484-.463,2.233l-.826,4.485-.675,4.508c-.186,1.507-.345,3.016-.52,4.525-.136,1.511-.234,3.025-.353,4.537l-.086,2.271c-.02.757-.071,1.514-.066,2.271l.011,2.27.006,1.135.054,1.132.108,2.263.209,2.252a50.246,50.246,0,0,0,1.636,8.829,1.09,1.09,0,0,1,.042.277,49.794,49.794,0,0,0,1.694,13.349,19.437,19.437,0,0,0,2.814,5.874,12.47,12.47,0,0,0,4.858,4.02l.361.169.373.145a7.879,7.879,0,0,0,.754.27,6.532,6.532,0,0,0,.748.215l.352.077c.118.023.243.026.365.041a6.8,6.8,0,0,0,2.94-.369,7.287,7.287,0,0,0,2.54-1.564,9.354,9.354,0,0,0,1.745-2.5,12.765,12.765,0,0,0,.9-3.038l.129-.8c.042-.266.042-.542.066-.813l.055-.815c.021-.266.024-.58.037-.868a28.208,28.208,0,0,1,.339-3.565,11.465,11.465,0,0,1,.469-1.842,5.808,5.808,0,0,1,.431-.946,4.927,4.927,0,0,1,.294-.453l.259-.34.016-.021a1.036,1.036,0,0,1,.817-.4h14.552a1.026,1.026,0,0,1,.814.4l.019.025.259.34a4.927,4.927,0,0,1,.294.453,5.808,5.808,0,0,1,.431.946,11.5,11.5,0,0,1,.469,1.842,28.253,28.253,0,0,1,.339,3.565c.013.288.016.6.036.868l.055.815c.024.271.024.547.066.813l.129.8a12.76,12.76,0,0,0,.9,3.038,9.351,9.351,0,0,0,1.745,2.5,7.289,7.289,0,0,0,2.54,1.564,6.8,6.8,0,0,0,2.94.369c.121-.015.246-.018.365-.041l.352-.077a6.525,6.525,0,0,0,.748-.215,7.865,7.865,0,0,0,.754-.27l.373-.145.361-.169a12.469,12.469,0,0,0,4.857-4.02,19.435,19.435,0,0,0,2.814-5.874,49.794,49.794,0,0,0,1.694-13.349,1.051,1.051,0,0,1,.04-.269l0-.008a48.941,48.941,0,0,0,1.276-5.878c.125-1,.293-2,.372-3.006l.143-1.51.089-1.516a91.7,91.7,0,0,0-.194-12.17c-.31-4.055-.806-8.1-1.39-12.135s-1.3-8.058-1.836-12.146v0a.344.344,0,0,1,.666-.161Z" transform="translate(-1541.565 -1856.33)" fill="#650000"/>
    </g>
    <g id="Group_506" data-name="Group 506" transform="translate(798.378 585.211)" opacity="0.3">
      <path id="Path_619" data-name="Path 619" d="M1653.64,2695.557c-.157,10.47-1.979,22.114-12.143,24.969-3.669,1.033-10.375-.982-10.617-10.874-.141-5.824-.964-6.469-1.621-7.263h-14.53c-.419.578-1.482,1.439-1.621,7.263-.242,9.892-6.948,11.906-10.619,10.874-9.563-2.685-11.739-13.155-12.1-23.106,1.339,7.5,4.692,14.147,12.1,16.228,3.672,1.033,7.9-1.061,8.142-10.953.062-2.536-5.344-8.33-4.414-8.353,3.135-.085,3.112,2.174,8.512,3.155a39.7,39.7,0,0,0,14.53,0c4.236-.8,7.1-3.141,7.829-2.223.487.611-4.044,4.757-3.987,7.084.242,9.892,4.728,12.323,8.4,11.29,10.164-2.854,11.986-14.5,12.143-24.969a79.1,79.1,0,0,0,1.48-12.51q.035.848.046,1.716A80.536,80.536,0,0,1,1653.64,2695.557Z" transform="translate(-1590.393 -2676.169)" fill="#650000"/>
    </g>
    <g id="Group_507" data-name="Group 507" transform="translate(788.969 545.435)">
      <path id="Path_620" data-name="Path 620" d="M1451.643,2092.493a16.6,16.6,0,0,1-6.3-7.379c-4.465-10.164,4.286-20.336,7.2-23.327.555-.57.9-.879.9-.879a12.78,12.78,0,0,1,5.064-3.1,3.706,3.706,0,0,1,4.273,1.7c1.518,2.312.128,4.668-1.734,6.5a22.531,22.531,0,0,1-4.625,3.358c5.457,4.258,8.5,1.4,10.958-1.565a23.556,23.556,0,0,1,2.927-3.273c2.125-1.675,17.415-1.064,18.692,4.2.036.149.072.3.1.447C1493.929,2090.829,1465.939,2101.692,1451.643,2092.493Z" transform="translate(-1444.094 -2057.676)" fill="#804959"/>
    </g>
    <g id="Group_508" data-name="Group 508" transform="translate(875.676 496.565)">
      <path id="Path_621" data-name="Path 621" d="M2792.311,1306.3s1.406-8.46,10.493-8.509c8.729-.047,12.7,8.407,11.732,14.786-1.014,6.7-4.506,10.286-9.738,11.952a24.186,24.186,0,0,1-11.174.469" transform="translate(-2792.311 -1297.792)" fill="#ffca9f"/>
    </g>
    <g id="Group_510" data-name="Group 510" transform="translate(875.692 504.193)">
      <path id="Path_623" data-name="Path 623" d="M2792.566,1421.018a5.886,5.886,0,0,1,6.051-4.62,6.834,6.834,0,0,1,6.761,8.024,7.439,7.439,0,0,1-5.616,6.489,14.789,14.789,0,0,1-6.442.256" transform="translate(-2792.566 -1416.398)" fill="#f28475"/>
    </g>
    <g id="Group_520" data-name="Group 520" transform="translate(875.539 509.599)">
      <path id="Path_633" data-name="Path 633" d="M2798.478,1506.479a5.531,5.531,0,0,1-2.145,3.4,20.285,20.285,0,0,1-5.408.008l-.745-7.622a4.092,4.092,0,0,1,1.132-1.795c.136-.007.271-.009.413-.01C2796.758,1500.435,2799.04,1503.879,2798.478,1506.479Z" transform="translate(-2790.181 -1500.461)" fill="#f29f8f"/>
    </g>
    <g id="Group_511" data-name="Group 511" transform="translate(874.664 503.165)">
      <path id="Path_624" data-name="Path 624" d="M2781.119,1417.485a15.714,15.714,0,0,1-2.963-.265,1.028,1.028,0,0,1,.421-2.012,13.856,13.856,0,0,0,5.936-.235,6.441,6.441,0,0,0,4.9-5.668,6.272,6.272,0,0,0-1.409-4.946,5.442,5.442,0,0,0-4.294-1.887h-.039a4.864,4.864,0,0,0-5.045,3.777,1.028,1.028,0,0,1-2.023-.364,6.892,6.892,0,0,1,7.057-5.469,7.437,7.437,0,0,1,5.9,2.606,8.381,8.381,0,0,1,1.877,6.609,8.508,8.508,0,0,1-6.335,7.31A14.005,14.005,0,0,1,2781.119,1417.485Z" transform="translate(-2776.584 -1400.417)" fill="#650000"/>
    </g>
    <g id="Group_512" data-name="Group 512" transform="translate(874.648 495.537)">
      <path id="Path_625" data-name="Path 625" d="M2783.451,1311.526a25,25,0,0,1-5.005-.476,1.028,1.028,0,1,1,.447-2.006,23.317,23.317,0,0,0,10.638-.445c5.268-1.678,8.139-5.214,9.033-11.127a13.105,13.105,0,0,0-2.877-10.135,9.957,9.957,0,0,0-7.768-3.471h-.066a9.375,9.375,0,0,0-9.485,7.652,1.028,1.028,0,0,1-2.027-.34c.016-.093,1.661-9.315,11.5-9.368h.078a11.955,11.955,0,0,1,9.321,4.182,15.033,15.033,0,0,1,3.355,11.786c-1.011,6.682-4.427,10.862-10.442,12.778A22.294,22.294,0,0,1,2783.451,1311.526Z" transform="translate(-2776.328 -1281.811)" fill="#650000"/>
    </g>
    <g id="Group_513" data-name="Group 513" transform="translate(763.984 497.049)">
      <path id="Path_626" data-name="Path 626" d="M1077.931,1313.742s-1.48-8.447-10.567-8.416c-8.729.03-12.623,8.518-11.6,14.889,1.073,6.694,4.6,10.246,9.842,11.866a24.184,24.184,0,0,0,11.177.371" transform="translate(-1055.602 -1305.326)" fill="#ffca9f"/>
    </g>
    <g id="Group_515" data-name="Group 515" transform="translate(763.984 508.06)" opacity="0.3">
      <path id="Path_628" data-name="Path 628" d="M1055.764,1480.411c1.073,6.7,4.6,10.248,9.841,11.868a24.2,24.2,0,0,0,11.178.369l.246-4.006a25.782,25.782,0,0,1-10.833-.65c-5.328-1.646-9.031-5.111-10.47-11.458A13.493,13.493,0,0,0,1055.764,1480.411Z" transform="translate(-1055.605 -1476.534)" fill="#650000"/>
    </g>
    <g id="Group_516" data-name="Group 516" transform="translate(876.709 507.473)" opacity="0.3">
      <path id="Path_629" data-name="Path 629" d="M2829.561,1471.285c-1.014,6.7-4.506,10.288-9.737,11.954a24.2,24.2,0,0,1-11.175.467l-.281-4a25.781,25.781,0,0,0,10.827-.745c5.313-1.693,8.986-5.19,10.37-11.55A13.5,13.5,0,0,1,2829.561,1471.285Z" transform="translate(-2808.369 -1467.408)" fill="#650000"/>
    </g>
    <g id="Group_517" data-name="Group 517" transform="translate(773.456 504.638)">
      <path id="Path_630" data-name="Path 630" d="M1215.75,1427.89a5.885,5.885,0,0,0-6.091-4.567,6.833,6.833,0,0,0-6.691,8.083,7.439,7.439,0,0,0,5.672,6.439,14.785,14.785,0,0,0,6.444.2" transform="translate(-1202.876 -1423.323)" fill="#f28475"/>
    </g>
    <g id="Group_518" data-name="Group 518" transform="translate(773.456 504.637)">
      <path id="Path_631" data-name="Path 631" d="M1202.973,1431.388a7.439,7.439,0,0,0,5.671,6.438c.347.1.693.181,1.037.246a15.3,15.3,0,0,0,5.408-.045l.667-10.157a6.045,6.045,0,0,0-1.15-2.378,5.915,5.915,0,0,0-4.942-2.188A6.835,6.835,0,0,0,1202.973,1431.388Z" transform="translate(-1202.881 -1423.303)" fill="#f28475"/>
    </g>
    <g id="Group_519" data-name="Group 519" transform="translate(779.456 509.997)">
      <path id="Path_632" data-name="Path 632" d="M1296.273,1512.733a5.533,5.533,0,0,0,2.174,3.382,20.288,20.288,0,0,0,5.408-.04l.677-7.629a4.093,4.093,0,0,0-1.148-1.785c-.136-.005-.272-.007-.413-.006C1297.94,1506.674,1295.689,1510.138,1296.273,1512.733Z" transform="translate(-1296.182 -1506.656)" fill="#f29f8f"/>
    </g>
    <g id="Group_521" data-name="Group 521" transform="translate(772.428 503.61)">
      <path id="Path_634" data-name="Path 634" d="M1197.238,1424.389a13.893,13.893,0,0,1-3.842-.509,8.509,8.509,0,0,1-6.4-7.254,8.381,8.381,0,0,1,1.819-6.625,7.448,7.448,0,0,1,5.882-2.657h.034a6.89,6.89,0,0,1,7.071,5.407,1.028,1.028,0,0,1-2.02.381,4.862,4.862,0,0,0-5.052-3.732h-.026a5.447,5.447,0,0,0-4.316,1.925,6.273,6.273,0,0,0-1.365,4.958,6.44,6.44,0,0,0,4.946,5.625,13.836,13.836,0,0,0,5.939.182,1.028,1.028,0,0,1,.438,2.009A15.849,15.849,0,0,1,1197.238,1424.389Z" transform="translate(-1186.891 -1407.343)" fill="#650000"/>
    </g>
    <g id="Group_522" data-name="Group 522" transform="translate(762.953 496.022)">
      <path id="Path_635" data-name="Path 635" d="M1056.77,1319.022a22.137,22.137,0,0,1-6.479-.912c-6.032-1.863-9.484-6.012-10.554-12.686a15.033,15.033,0,0,1,3.251-11.815,11.966,11.966,0,0,1,9.362-4.264h.053c9.794,0,11.514,9.174,11.53,9.267a1.028,1.028,0,0,1-2.024.357,9.374,9.374,0,0,0-9.507-7.568h-.045a9.965,9.965,0,0,0-7.8,3.539,13.106,13.106,0,0,0-2.788,10.159c.947,5.905,3.848,9.416,9.131,11.047a23.325,23.325,0,0,0,10.642.352,1.028,1.028,0,0,1,.464,2A25.185,25.185,0,0,1,1056.77,1319.022Z" transform="translate(-1039.561 -1289.345)" fill="#650000"/>
    </g>
    <g id="Group_523" data-name="Group 523" transform="translate(841.337 453.882)">
      <path id="Path_636" data-name="Path 636" d="M2260.37,634.5l-1.994-.388Q2259.378,634.28,2260.37,634.5Z" transform="translate(-2258.376 -634.11)" fill="#b17e4f"/>
    </g>
    <g id="Group_524" data-name="Group 524" transform="translate(780.706 442.522)">
      <path id="Path_637" data-name="Path 637" d="M1416.493,514.971c-.365,7.359-2.333,15.182-6.03,20.46,2.634.47,4.24,2.539,5.062,5.033a15.017,15.017,0,0,1,.3,7.939c-1.554,5.992-6.667,9.453-13.88,11.85l-71.333.313c-7.23-2.335-12.372-5.75-13.98-11.726a14.394,14.394,0,0,1,.948-9.656,6.126,6.126,0,0,1,4.3-3.366c-3.744-5.244-5.781-13.05-6.208-20.406-1.061-18.258,10.139-34.17,26.313-42.058h0a23.916,23.916,0,0,1,1.829-10.547.985.985,0,0,1,1.5-.38c1.462,1.118,3.011,3.032,4.018,3.6a.987.987,0,0,0,1.426-.576,39.4,39.4,0,0,1,3.088-7.515.986.986,0,0,1,1.6-.09A27.1,27.1,0,0,0,1366,465.509a76.23,76.23,0,0,0,10.205,3.32l.023.005h0l.008,0c1.264.3,1.963.393,2.115.411.005,0,.013,0,.018.005h.013C1400.435,474.011,1417.593,492.661,1416.493,514.971Z" transform="translate(-1315.608 -457.476)" fill="#804959"/>
    </g>
    <g id="Group_525" data-name="Group 525" transform="translate(781.307 524.231)" opacity="0.3">
      <path id="Path_638" data-name="Path 638" d="M1424.571,1737.19c-1.554,5.992-6.667,9.453-13.88,11.85l-71.333.313c-7.23-2.335-12.371-5.75-13.98-11.726a14.4,14.4,0,0,1,.948-9.656,18.971,18.971,0,0,0,4.491,8.109c6.156,6.67,22.739,8.255,42.528,8.255,21.308,0,40.552-1.809,47.009-9.239a33.551,33.551,0,0,0,3.913-5.845A15.015,15.015,0,0,1,1424.571,1737.19Z" transform="translate(-1324.952 -1727.971)" fill="#650000"/>
    </g>
    <g id="Group_527" data-name="Group 527" transform="translate(779.678 441.494)">
      <path id="Path_640" data-name="Path 640" d="M1315.66,546.641a1.027,1.027,0,0,1-.316-.05c-8.451-2.729-13.109-6.682-14.658-12.438-.825-3.062-.62-7.819,1.368-10.984a7.246,7.246,0,0,1,3.254-2.879c-3.141-5-5.17-12.106-5.614-19.772a42.245,42.245,0,0,1,6.857-25.536,49.555,49.555,0,0,1,19.439-17.211,24.741,24.741,0,0,1,1.935-10.335,2.014,2.014,0,0,1,3.061-.779,23.2,23.2,0,0,1,2.138,1.952,12.848,12.848,0,0,0,1.715,1.538,39.977,39.977,0,0,1,3.189-7.718,2.015,2.015,0,0,1,3.269-.186,26.036,26.036,0,0,0,10.121,7.356,74.886,74.886,0,0,0,10.115,3.281c.694.122,1.337.247,1.957.382l.134.026.071.016a51.782,51.782,0,0,1,28.248,16.6,43.023,43.023,0,0,1,10.621,30.161c-.38,7.674-2.347,14.8-5.441,19.82a7.242,7.242,0,0,1,3.276,2.847c2.017,3.146,2.265,7.9,1.468,10.974-1.5,5.769-6.122,9.763-14.551,12.567a1.028,1.028,0,0,1-.649-1.95c7.812-2.6,11.886-6.032,13.21-11.133.668-2.575.472-6.726-1.209-9.348a4.938,4.938,0,0,0-3.342-2.356,1.028,1.028,0,0,1-.66-1.6c3.322-4.741,5.453-12,5.845-19.92,1.032-20.978-14.63-39.749-37.25-44.652l-.047-.008c-.252-.034-.976-.146-2.187-.429l-.027-.006h0a77.057,77.057,0,0,1-10.329-3.358,28.259,28.259,0,0,1-10.933-7.934,39.294,39.294,0,0,0-2.943,7.216,2.014,2.014,0,0,1-2.912,1.171,12.041,12.041,0,0,1-2.2-1.9,22.432,22.432,0,0,0-1.9-1.746,22.95,22.95,0,0,0-1.719,10.04,1.029,1.029,0,0,1-.577.963c-16.614,8.1-26.718,24.224-25.739,41.074.452,7.794,2.7,15.221,6.019,19.868a1.028,1.028,0,0,1-.646,1.607,4.94,4.94,0,0,0-3.324,2.388c-1.656,2.637-1.815,6.789-1.124,9.356,1.37,5.09,5.473,8.488,13.305,11.017a1.028,1.028,0,0,1-.316,2.006Z" transform="translate(-1299.623 -441.494)" fill="#650000"/>
    </g>
    <g id="Group_528" data-name="Group 528" transform="translate(797.412 532.787)" opacity="0.3">
      <path id="Path_641" data-name="Path 641" d="M1641.407,1877.542a52.3,52.3,0,0,1-5.087,2.328c-2.03.807-4.165,1.526-6.364,2.156a88.436,88.436,0,0,1-18.029,3.127c-1.927.134-3.826.2-5.671.2a75.941,75.941,0,0,1-16.051-1.57,50.775,50.775,0,0,1-6.333-1.793,41.076,41.076,0,0,1-4.371-1.84,34.933,34.933,0,0,1-4.129-2.382c.555-.57.9-.879.9-.879a12.783,12.783,0,0,1,5.064-3.1q1.873-6.128,4.34-12.785h44.555q2.444,6.567,4.288,12.623l1.883.2S1638.5,1875.229,1641.407,1877.542Z" transform="translate(-1575.372 -1861.008)" fill="#650000"/>
    </g>
    <g id="Group_529" data-name="Group 529" transform="translate(786.338 477.118)">
      <path id="Path_642" data-name="Path 642" d="M1447.872,1008.86c-.052-11.911-23.883-22.195-37.207-1.2-.082.126-.159.256-.238.385-9.741,15.893.094,34.2.094,34.2s-7.482,2.038-7.339,9.177c.085,4.239,4.047,10.2,9.375,12.584a61.437,61.437,0,0,0,10.347,3.334,105.074,105.074,0,0,0,50.263-.167,66.48,66.48,0,0,0,10.722-3.48c5.307-2.433,9.219-8.426,9.265-12.666.08-7.14-7.416-9.112-7.416-9.112s9.671-18.4-.209-34.2c-.078-.128-.158-.258-.241-.382-13.505-20.88-37.247-10.387-37.195,1.524" transform="translate(-1403.181 -995.409)" fill="#ffca9f"/>
    </g>
    <g id="Group_530" data-name="Group 530" transform="translate(786.328 530.287)" opacity="0.3">
      <path id="Path_643" data-name="Path 643" d="M1493.014,1824.589c-.427,26.76-96.1,25.417-89.673-2.14,5.232,23.83,86.619,21.18,89.372-.313A8.957,8.957,0,0,1,1493.014,1824.589Z" transform="translate(-1403.031 -1822.135)" fill="#650000"/>
    </g>
    <g id="Group_531" data-name="Group 531" transform="translate(785.31 476.084)">
      <path id="Path_644" data-name="Path 644" d="M1432.688,1056.284a105.449,105.449,0,0,1-24.978-2.985,61.931,61.931,0,0,1-10.526-3.4c-5.859-2.624-9.891-9.1-9.98-13.5-.11-5.5,3.993-8.586,6.932-9.789a45.471,45.471,0,0,1-3.276-10.359c-1.672-8.843-.379-17.07,3.739-23.789l.072-.118c.06-.1.119-.2.182-.291,3.477-5.48,7.846-9.244,12.976-11.174a21.553,21.553,0,0,1,13.657-.54c5.478,1.578,9.727,5.082,11.526,9.19,1.762-4.123,5.982-7.665,11.446-9.291a21.556,21.556,0,0,1,13.661.421c5.147,1.885,9.548,5.61,13.08,11.071.083.124.171.266.256.406,4.171,6.673,5.537,14.888,3.943,23.745a45.474,45.474,0,0,1-3.184,10.387c2.948,1.178,7.078,4.226,7.016,9.728-.047,4.4-4.022,10.91-9.864,13.588a66.954,66.954,0,0,1-10.9,3.543A106.84,106.84,0,0,1,1432.688,1056.284Zm-17.245-74.714c-5.258,0-12.781,2.018-18.861,11.6-.057.088-.1.167-.153.246l-.078.128c-9.323,15.211.029,33,.125,33.177a1.027,1.027,0,0,1-.635,1.478c-.272.075-6.706,1.932-6.582,8.165.074,3.694,3.694,9.394,8.768,11.667a59.927,59.927,0,0,0,10.17,3.273,104.41,104.41,0,0,0,49.771-.166,64.955,64.955,0,0,0,10.55-3.42c5.05-2.315,8.618-8.046,8.658-11.739.071-6.266-6.583-8.089-6.65-8.107a1.028,1.028,0,0,1-.648-1.472c.094-.178,9.272-18.073-.17-33.179-.077-.125-.149-.244-.225-.357-9.021-13.946-20.984-11.677-24.437-10.65-6.323,1.882-10.9,6.76-10.875,11.6a1.028,1.028,0,0,1-1.023,1.032.6.6,0,0,1-.111-.005,1.057,1.057,0,0,1-.115.006,1.028,1.028,0,0,1-1.028-1.023c-.021-4.839-4.637-9.677-10.975-11.5A20.1,20.1,0,0,0,1415.443,981.569Z" transform="translate(-1387.201 -979.33)" fill="#650000"/>
    </g>
    <g id="Group_538" data-name="Group 538" transform="translate(832.725 526.726)">
      <path id="Path_645" data-name="Path 645" d="M2124.895,1769.363a.341.341,0,0,1-.433-.375c.1-.739.431-2.01,1.5-2.184a1.139,1.139,0,0,1,1.454,1.372c-.147.429-.506.7-1.214.852C2125.77,1769.12,2125.263,1769.255,2124.895,1769.363Z" transform="translate(-2124.458 -1766.775)" fill="#650000"/>
    </g>
    <g id="Group_539" data-name="Group 539" transform="translate(826.696 526.756)">
      <path id="Path_646" data-name="Path 646" d="M2033.281,1769.808a.341.341,0,0,0,.43-.379c-.108-.738-.448-2.006-1.522-2.17a1.139,1.139,0,0,0-1.442,1.385c.151.428.512.7,1.222.841C2032.4,1769.573,2032.911,1769.7,2033.281,1769.808Z" transform="translate(-2030.709 -1767.233)" fill="#650000"/>
    </g>
    <g id="Group_541" data-name="Group 541" transform="translate(825.274 531.968)">
      <path id="Path_647" data-name="Path 647" d="M2008.912,1851.444c.632-.288,1.263-.544,1.9-.8s1.28-.494,1.931-.712a39.417,39.417,0,0,1,3.974-1.165,20.642,20.642,0,0,1,2.073-.379,10.564,10.564,0,0,1,2.2-.077,4.286,4.286,0,0,1,1.2.282,2.184,2.184,0,0,1,1.13,1,1.742,1.742,0,0,1,.173.828,2.031,2.031,0,0,1-.171.717,2.812,2.812,0,0,1-.756,1,.513.513,0,0,1-.8-.618l.039-.077a2.972,2.972,0,0,0,.284-.736.483.483,0,0,0-.06-.431.87.87,0,0,0-.414-.27,3.038,3.038,0,0,0-.778-.159,9.114,9.114,0,0,0-1.868.057c-.642.078-1.293.187-1.941.319-1.3.274-2.6.6-3.889.976l-1.934.581c-.642.2-1.287.41-1.92.618l-.006,0a.514.514,0,0,1-.374-.957Z" transform="translate(-2008.611 -1848.286)" fill="#650000"/>
    </g>
    <g id="Group_542" data-name="Group 542" transform="translate(808.234 538.426)">
      <path id="Path_648" data-name="Path 648" d="M1766.036,1978.961c-1.973-8.761-7.651-9.541-5.994-13.348.863-1.983,5.566-.914,10.581,2.89,0,0,19.862-4.644,22.89-1.33,2.882,3.154-8.257,5.78-8.257,5.78s.748,6.315-3.394,8.853C1779.014,1983.55,1767.216,1984.206,1766.036,1978.961Z" transform="translate(-1758.708 -1963.611)" fill="#ffca9f"/>
      <path id="Path_649" data-name="Path 649" d="M1759.988,1969.188a17.047,17.047,0,0,1-6.409-1.091,5.6,5.6,0,0,1-3.605-3.82h0a17.85,17.85,0,0,0-4.248-8.225c-1.474-1.782-2.747-3.322-1.685-5.76a2.561,2.561,0,0,1,1.8-1.462c2.247-.588,6.12.842,9.955,3.655,1.37-.306,5.548-1.206,9.932-1.819,10.06-1.405,12.512-.159,13.481.9a2.458,2.458,0,0,1,.64,2.438c-.771,2.5-6.01,4.155-8.578,4.826.051,1.987-.247,6.679-3.935,8.939C1765.988,1968.6,1763.056,1969.188,1759.988,1969.188Zm-13.01-18.437a2.453,2.453,0,0,0-.615.069c-.351.092-.415.238-.438.293-.531,1.219-.059,1.884,1.384,3.629a19.89,19.89,0,0,1,4.67,9.083h0a3.614,3.614,0,0,0,2.4,2.379c3.752,1.585,10.186.857,11.886-.185,3.523-2.158,2.917-7.8,2.91-7.858a1.03,1.03,0,0,1,.785-1.12c3.544-.837,7.576-2.5,7.928-3.642.017-.056.053-.174-.194-.444-.358-.392-2.258-1.568-11.666-.255-5.238.731-10.181,1.881-10.231,1.893a1.03,1.03,0,0,1-.855-.182C1751.651,1951.916,1748.63,1950.751,1746.978,1950.751Z" transform="translate(-1743.648 -1948.701)" fill="#650000"/>
    </g>
    <g id="Group_543" data-name="Group 543" transform="translate(788.969 551.459)">
      <path id="Path_650" data-name="Path 650" d="M1488.859,2167.16c-5.3,17.818-35.925,22.9-43.522,5.606-2.13-4.848-1.254-9.7.563-13.767q.277-.624.583-1.22c.172-.342,9.925-.76,9.925-.76,7.759,6.053,10.635-2.277,13.885-4.838,2.125-1.675,17.415-1.064,18.692,4.2A20.442,20.442,0,0,1,1488.859,2167.16Z" transform="translate(-1444.09 -2151.353)" fill="#804959"/>
    </g>
    <g id="Group_545" data-name="Group 545" transform="translate(788.969 559.107)" opacity="0.3">
      <path id="Path_652" data-name="Path 652" d="M1488.859,2278.426c-5.3,17.818-35.925,22.9-43.522,5.606-2.13-4.848-1.254-9.7.563-13.767-.45,4.854.247,12.323,8.235,16.025C1465.3,2291.468,1483.126,2287.494,1488.859,2278.426Z" transform="translate(-1444.09 -2270.266)" fill="#650000"/>
    </g>
    <g id="Group_546" data-name="Group 546" transform="translate(787.937 550.432)">
      <path id="Path_653" data-name="Path 653" d="M1441.6,2141.8a17.249,17.249,0,0,0,3.307,1.275,4.844,4.844,0,0,0,3.008-.183,8.12,8.12,0,0,0,2.577-1.955c.809-.842,1.564-1.805,2.4-2.783a15.217,15.217,0,0,1,1.4-1.462l.21-.175.105-.087c.034-.029.1-.072.154-.106a2.619,2.619,0,0,1,.327-.191l.3-.129c.192-.075.368-.124.551-.181.173-.041.349-.086.521-.122a20.635,20.635,0,0,1,3.939-.325,32.478,32.478,0,0,1,7.67.916,16.757,16.757,0,0,1,3.739,1.379,8.672,8.672,0,0,1,1.75,1.221,4.861,4.861,0,0,1,1.3,1.962l.1.3c.026.093.037.163.056.245l.1.477c.07.317.14.635.187.958s.111.642.152.966l.108.974a22.237,22.237,0,0,1,0,3.927,19.619,19.619,0,0,1-2.265,7.51,22.2,22.2,0,0,1-4.876,6.1,30.426,30.426,0,0,1-21.56,7.128,24.388,24.388,0,0,1-7.594-1.722,18.8,18.8,0,0,1-6.515-4.4,17.578,17.578,0,0,1-2.39-3.17,16.677,16.677,0,0,1-2.063-11.542,12.817,12.817,0,0,1,3.407-6.944.357.357,0,0,1,.6.313l0,.022c-.055.322-.133.628-.215.93s-.152.606-.244.9-.159.592-.25.88l-.255.867c-.348,1.146-.647,2.288-.884,3.437a14.393,14.393,0,0,0-.333,3.479,13.337,13.337,0,0,0,.6,3.42,15.115,15.115,0,0,0,1.416,3.2,15.518,15.518,0,0,0,2.11,2.8,16.739,16.739,0,0,0,5.807,3.916,22.336,22.336,0,0,0,6.951,1.572,28.377,28.377,0,0,0,20.055-6.616,20.15,20.15,0,0,0,4.428-5.535,17.556,17.556,0,0,0,2.03-6.733,20.186,20.186,0,0,0,0-3.551l-.1-.887c-.037-.3-.094-.589-.139-.884s-.107-.587-.172-.879l-.095-.438c-.016-.07-.031-.154-.048-.211l-.052-.146a2.813,2.813,0,0,0-.758-1.115,6.664,6.664,0,0,0-1.316-.909,14.738,14.738,0,0,0-3.273-1.2,30.47,30.47,0,0,0-7.168-.853,18.25,18.25,0,0,0-3.513.284l-.389.1c-.114.039-.24.075-.337.116l-.133.06c-.052.02-.047.035-.075.046-.014.01-.016,0-.041.024l-.073.063-.148.127a11.636,11.636,0,0,0-1.16,1.267c-.761.937-1.511,1.972-2.422,2.943a9.039,9.039,0,0,1-3.421,2.424,5.725,5.725,0,0,1-2.217.346,6.344,6.344,0,0,1-2.111-.487,8.664,8.664,0,0,1-3.176-2.4.351.351,0,0,1,.418-.542Z" transform="translate(-1428.045 -2135.38)" fill="#650000"/>
    </g>
    <g id="Group_547" data-name="Group 547" transform="translate(831.446 534.999)" opacity="0.3">
      <path id="Path_654" data-name="Path 654" d="M2104.69,1896.235c.71-.46,5.514-1.253,5.472-.522s-1.405,1.223-2.109,1.316C2106.779,1897.2,2103.98,1896.694,2104.69,1896.235Z" transform="translate(-2104.576 -1895.416)" fill="#650000"/>
    </g>
    <g id="Group_548" data-name="Group 548" transform="translate(787.954 546.244)">
      <path id="Path_655" data-name="Path 655" d="M1449,2108.581c-8.1,0-15.9-3.378-19.373-11.281-2.225-5.064-1.628-10.91,1.725-16.9a36.647,36.647,0,0,1,6.608-8.463l1.435-1.386a1.028,1.028,0,1,1,1.428,1.478l-1.446,1.4-.025.023a35.14,35.14,0,0,0-6.206,7.954c-3.07,5.487-3.62,10.559-1.637,15.074,4.408,10.035,16.79,11.879,26.743,8.515,8.889-3,18.142-11.158,14.966-24.248-.272-1.124-1.65-2.167-3.879-2.936-5.129-1.771-12.226-1.446-13.179-.695a1.028,1.028,0,0,1-1.273-1.614c1.961-1.546,10.159-1.348,15.123.366,3,1.036,4.749,2.514,5.205,4.395a20.59,20.59,0,0,1-2.915,17.061,26.562,26.562,0,0,1-13.391,9.62A31.2,31.2,0,0,1,1449,2108.581Z" transform="translate(-1428.308 -2070.258)" fill="#650000"/>
    </g>
    <g id="Group_555" data-name="Group 555" transform="translate(803.282 499.104)">
      <g id="Group_471" data-name="Group 471" transform="translate(0 0.504)">
        <g id="Group_465" data-name="Group 465" transform="translate(1.818 1.818)">
          <path id="Path_585" data-name="Path 585" d="M1616.391,1567.468a6.107,6.107,0,0,0-5.023,2.121,11.545,11.545,0,0,0-2.635,8.179c.142,4.366,2.15,8.276,4.933,10.216a6.864,6.864,0,0,0,3.432,1.285c4.425.332,7.854-4.279,7.658-10.3S1620.816,1567.8,1616.391,1567.468Z" transform="translate(-1608.39 -1567.117)" fill="#fff"/>
          <path id="Path_586" data-name="Path 586" d="M1612.934,1585.008c-.159,0-.318-.006-.479-.018a7.153,7.153,0,0,1-3.6-1.344c-2.943-2.052-4.935-6.166-5.075-10.48a11.9,11.9,0,0,1,2.722-8.417,6.468,6.468,0,0,1,5.3-2.228h0c4.584.344,8.475,5.648,8.674,11.824a11.564,11.564,0,0,1-3.082,8.79A6.356,6.356,0,0,1,1612.934,1585.008Zm-1.61-21.834A5.778,5.778,0,0,0,1607,1565.2a11.23,11.23,0,0,0-2.547,7.942c.133,4.11,2.013,8.016,4.789,9.952a6.49,6.49,0,0,0,3.265,1.225,5.663,5.663,0,0,0,4.422-1.67,11.053,11.053,0,0,0,2.876-8.284c-.189-5.844-3.8-10.858-8.054-11.177Q1611.535,1563.173,1611.324,1563.173Z" transform="translate(-1603.773 -1562.503)" fill="#11116d"/>
        </g>
        <g id="Group_466" data-name="Group 466" transform="translate(3.914 2.153)">
          <path id="Path_587" data-name="Path 587" d="M1640.653,1567.468a6.106,6.106,0,0,0-5.023,2.121,9.48,9.48,0,0,0-.471,1.175c-.3.919-.4,2.23.28,2.859.587.54,1.333.184,2.02.235,1.131.081,2.2,1.52,2.219,2.988s-1.02,2.677-2.152,2.512c-.787-.116-1.671-.772-2.3-.242a2.457,2.457,0,0,0-.458,2,11.692,11.692,0,0,0,3,6.71c.05.055.1.11.154.161a6.864,6.864,0,0,0,3.432,1.285c4.425.332,7.854-4.279,7.658-10.3S1645.078,1567.8,1640.653,1567.468Z" transform="translate(-1634.748 -1567.452)" fill="#9acbd6"/>
        </g>
        <g id="Group_467" data-name="Group 467" transform="translate(4.511 3.657)">
          <ellipse id="Ellipse_20" data-name="Ellipse 20" cx="6.495" cy="9.556" rx="6.495" ry="9.556" transform="translate(0 1.634) rotate(-7.228)" fill="#640005"/>
        </g>
        <g id="Group_469" data-name="Group 469" transform="translate(2.221 3.971)">
          <g id="Group_468" data-name="Group 468">
            <path id="Path_588" data-name="Path 588" d="M1614.207,1598.581c-.687-.05-1.433.305-2.02-.234-.683-.628-.582-1.94-.28-2.859a9.429,9.429,0,0,1,.471-1.175,11.545,11.545,0,0,0-2.635,8.179c.141,4.366,2.15,8.276,4.932,10.216-.052-.052-.1-.107-.154-.161a11.692,11.692,0,0,1-3-6.71,2.455,2.455,0,0,1,.458-2c.628-.53,1.512.126,2.3.242,1.131.165,2.17-1.047,2.152-2.512S1615.337,1598.662,1614.207,1598.581Z" transform="translate(-1609.735 -1594.313)" fill="#fff"/>
          </g>
        </g>
        <g id="Group_470" data-name="Group 470">
          <path id="Path_589" data-name="Path 589" d="M1586.292,1537.792q.219,0,.442.017c4.425.332,8.17,5.48,8.364,11.5.19,5.815-3,10.316-7.21,10.316q-.222,0-.448-.017a6.866,6.866,0,0,1-3.432-1.285c-2.783-1.94-4.791-5.85-4.932-10.216a11.546,11.546,0,0,1,2.634-8.179,6.16,6.16,0,0,1,4.582-2.137m0-2.153a8.335,8.335,0,0,0-6.171,2.837,13.714,13.714,0,0,0-3.2,9.7c.16,4.942,2.4,9.506,5.853,11.912a8.94,8.94,0,0,0,4.5,1.666c.2.015.407.023.609.023a8.312,8.312,0,0,0,5.979-2.635,13.575,13.575,0,0,0,3.383-9.9c-.232-7.2-4.781-13.159-10.355-13.577-.2-.015-.4-.022-.6-.022Z" transform="translate(-1576.915 -1535.639)" fill="#640005"/>
        </g>
      </g>
      <g id="Group_478" data-name="Group 478" transform="translate(35.773 0)">
        <g id="Group_472" data-name="Group 472" transform="translate(1.818 1.818)">
          <path id="Path_590" data-name="Path 590" d="M2145.346,1560.031a6.105,6.105,0,0,1,5.079,1.983,11.545,11.545,0,0,1,2.855,8.1c-.023,4.368-1.924,8.331-4.654,10.346a6.863,6.863,0,0,1-3.4,1.377c-4.415.452-7.967-4.065-7.934-10.088S2140.932,1560.482,2145.346,1560.031Z" transform="translate(-2136.961 -1559.665)" fill="#fff"/>
          <path id="Path_591" data-name="Path 591" d="M2140,1577.594a6.376,6.376,0,0,1-4.337-1.754,11.566,11.566,0,0,1-3.319-8.7c.032-6.179,3.777-11.587,8.351-12.055h0a6.463,6.463,0,0,1,5.354,2.085,11.9,11.9,0,0,1,2.949,8.339c-.022,4.316-1.9,8.482-4.79,10.614a7.153,7.153,0,0,1-3.561,1.441A6.322,6.322,0,0,1,2140,1577.594Zm.762-21.845c-4.242.435-7.718,5.545-7.748,11.391a11.051,11.051,0,0,0,3.1,8.2,5.668,5.668,0,0,0,4.466,1.55,6.5,6.5,0,0,0,3.23-1.313c2.723-2.011,4.5-5.967,4.518-10.079a11.227,11.227,0,0,0-2.761-7.869,5.8,5.8,0,0,0-4.8-1.883Z" transform="translate(-2132.341 -1555.05)" fill="#11116d"/>
        </g>
        <g id="Group_473" data-name="Group 473" transform="translate(2.153 2.153)">
          <path id="Path_592" data-name="Path 592" d="M2145.346,1560.031a6.105,6.105,0,0,1,5.079,1.983,9.426,9.426,0,0,1,.5,1.162c.327.91.463,2.218-.2,2.865-.571.556-1.326.22-2.012.289-1.129.112-2.159,1.579-2.138,3.047s1.093,2.648,2.219,2.453c.784-.137,1.65-.817,2.292-.3a2.456,2.456,0,0,1,.512,1.984,11.7,11.7,0,0,1-2.821,6.789c-.049.056-.1.112-.149.166a6.863,6.863,0,0,1-3.4,1.377c-4.415.452-7.967-4.065-7.934-10.088S2140.932,1560.482,2145.346,1560.031Z" transform="translate(-2137.297 -1560)" fill="#9acbd6"/>
        </g>
        <g id="Group_474" data-name="Group 474" transform="translate(0.776 3.876)">
          <ellipse id="Ellipse_21" data-name="Ellipse 21" cx="9.556" cy="6.495" rx="9.556" ry="6.495" transform="matrix(0.099, -0.995, 0.995, 0.099, 0, 19.019)" fill="#640005"/>
        </g>
        <g id="Group_476" data-name="Group 476" transform="translate(11.354 3.85)">
          <g id="Group_475" data-name="Group 475">
            <path id="Path_593" data-name="Path 593" d="M2275.385,1589.391c.686-.069,1.441.266,2.013-.289.665-.646.529-1.955.2-2.865a9.519,9.519,0,0,0-.5-1.162,11.547,11.547,0,0,1,2.856,8.1c-.023,4.369-1.925,8.331-4.654,10.346.05-.053.1-.109.149-.166a11.693,11.693,0,0,0,2.821-6.789,2.455,2.455,0,0,0-.511-1.985c-.642-.512-1.508.167-2.292.3-1.126.2-2.2-.988-2.219-2.453S2274.257,1589.5,2275.385,1589.391Z" transform="translate(-2273.247 -1585.075)" fill="#fff"/>
          </g>
        </g>
        <g id="Group_477" data-name="Group 477">
          <path id="Path_594" data-name="Path 594" d="M2116.289,1530.341a6.179,6.179,0,0,1,4.478,2.014,11.543,11.543,0,0,1,2.855,8.1c-.023,4.368-1.925,8.331-4.653,10.346a6.868,6.868,0,0,1-3.4,1.377,5.912,5.912,0,0,1-.606.031c-4.129,0-7.359-4.374-7.328-10.119.031-6.024,3.635-11.271,8.049-11.723a5.956,5.956,0,0,1,.6-.031m0-2.153h0a8.116,8.116,0,0,0-.817.041c-5.564.57-9.949,6.655-9.986,13.854a13.653,13.653,0,0,0,3.556,9.715,8.115,8.115,0,0,0,6.751,2.527,8.945,8.945,0,0,0,4.461-1.792c3.378-2.494,5.5-7.118,5.522-12.063a13.714,13.714,0,0,0-3.463-9.615,8.366,8.366,0,0,0-6.023-2.668Z" transform="translate(-2105.485 -1528.188)" fill="#640005"/>
        </g>
      </g>
    </g>
  </g>
</svg>
