<svg xmlns="http://www.w3.org/2000/svg" width="129.356" height="136" viewBox="0 0 129.356 136">
  <g id="Group_966" data-name="Group 966" transform="translate(-689.103 -637.478)">
    <g id="Group_377" data-name="Group 377" transform="translate(777.531 697.177)">
      <path id="Path_503" data-name="Path 503" d="M2467.683,1893.245s10.153,1.891,14.939-7.572c4.68-9.252-4.875-20.147-5.131-28.5-.346-11.312,7.212-21.511,20.211-18.364,13.187,3.193,11.8,19.262,5.384,23.423-3.778,2.451-7.067,1.5-8.258-2.716s4.158-6.994,2.214-10.3-9.078-3.071-10.479,3.9,4.736,18.819,5.263,26.51a19.647,19.647,0,0,1-9.938,17.888c-7.441,4.2-13.678,3.417-13.678,3.417Z" transform="translate(-2467.683 -1838.226)" fill="#804959"/>
    </g>
    <g id="Group_379" data-name="Group 379" transform="translate(777.79 738.796)" opacity="0.3">
      <path id="Path_505" data-name="Path 505" d="M2496.8,2675.309a19.674,19.674,0,0,1-9.952,17.666c-7.44,4.2-13.677,3.417-13.677,3.417l-.267-3.9a30.162,30.162,0,0,0,13.28-3.549A20.514,20.514,0,0,0,2496.8,2675.309Z" transform="translate(-2472.902 -2675.309)" fill="#650000"/>
    </g>
    <g id="Group_380" data-name="Group 380" transform="translate(796.182 701.987)" opacity="0.3">
      <path id="Path_506" data-name="Path 506" d="M2843.054,1945.049c-.03.152-.058.306-.081.462a13.351,13.351,0,0,1,.093-4.539c1.567-6.978,9.328-7.253,11.422-3.961.99,1.553.209,3-.754,4.537a3.193,3.193,0,0,0-.2-.4C2851.589,1937.851,2844.455,1938.082,2843.054,1945.049Z" transform="translate(-2842.826 -1934.973)" fill="#650000"/>
    </g>
    <g id="Group_381" data-name="Group 381" transform="translate(804.5 714.119)" opacity="0.3">
      <path id="Path_507" data-name="Path 507" d="M3022.893,2178.97a11.317,11.317,0,0,1-4.35,7.062c-3.778,2.45-7.067,1.5-8.259-2.718a5.566,5.566,0,0,1,.676-4.213c.006.03.015.059.024.089,1.269,4.213,4.842,5.142,8.966,2.668A9.476,9.476,0,0,0,3022.893,2178.97Z" transform="translate(-3010.109 -2178.97)" fill="#650000"/>
    </g>
    <g id="Group_382" data-name="Group 382" transform="translate(776.672 696.385)">
      <path id="Path_508" data-name="Path 508" d="M2453.124,1886.636a12.346,12.346,0,0,1-1.421-.068l-.645-.082-.641-9.349,1,.187c.391.071,9.637,1.653,14.09-7.152,2.746-5.427.26-11.56-2.145-17.491-1.527-3.767-2.969-7.325-3.071-10.631-.2-6.719,2.289-12.855,6.672-16.413,3.885-3.154,8.9-4.1,14.516-2.744a13.3,13.3,0,0,1,10.5,10.983c.938,5.5-1.157,11.461-4.872,13.872-2.177,1.413-4.251,1.812-6,1.154a6.007,6.007,0,0,1-3.45-4.318c-.677-2.4.439-4.328,1.424-6.029,1.006-1.737,1.586-2.864.87-4.08a4.131,4.131,0,0,0-4.254-1.6c-2.406.4-4.188,2.368-4.768,5.25-.776,3.86.942,9.5,2.6,14.963,1.258,4.131,2.446,8.033,2.673,11.336a20.35,20.35,0,0,1-10.338,18.63A26.313,26.313,0,0,1,2453.124,1886.636Zm-.581-1.6a24.59,24.59,0,0,0,12.548-3.361,18.739,18.739,0,0,0,9.539-17.146c-.214-3.124-1.376-6.942-2.607-10.984-1.719-5.646-3.5-11.484-2.642-15.735.714-3.551,2.978-5.979,6.055-6.5a5.649,5.649,0,0,1,5.88,2.357c1.22,2.073.113,3.986-.864,5.674-.908,1.569-1.767,3.052-1.271,4.807a4.52,4.52,0,0,0,2.486,3.268c1.259.473,2.843.128,4.583-1,3.165-2.053,5-7.447,4.173-12.28a11.638,11.638,0,0,0-9.313-9.712c-5.113-1.238-9.659-.4-13.147,2.435-4,3.249-6.279,8.908-6.088,15.137.092,3.022,1.482,6.453,2.955,10.085,2.418,5.967,5.16,12.729,2.091,18.8a14.233,14.233,0,0,1-9.8,7.748,17.01,17.01,0,0,1-5,.364Z" transform="translate(-2450.416 -1822.291)" fill="#650000"/>
    </g>
    <g id="Group_383" data-name="Group 383" transform="translate(726.773 714.146)">
      <path id="Path_509" data-name="Path 509" d="M1462.892,2179.526v31.62l-15.268-2.094a6.177,6.177,0,0,1-.443-1.085c-1.637-5.334,2.037-15.379,4.931-21.992,1.66-3.789,3.063-6.448,3.063-6.448Z" transform="translate(-1446.777 -2179.526)" fill="#b17e4f"/>
    </g>
    <g id="Group_384" data-name="Group 384" transform="translate(726.773 714.146)">
      <path id="Path_510" data-name="Path 510" d="M1462.881,2179.516v31.62l-13.156-1.8-2.113-.291a6.1,6.1,0,0,1-.443-1.085c-1.636-5.333,2.038-15.378,4.931-21.991,1.66-3.789,3.063-6.449,3.063-6.449Z" transform="translate(-1446.766 -2179.516)" fill="#804959"/>
    </g>
    <g id="Group_385" data-name="Group 385" transform="translate(729.732 719.867)" opacity="0.3">
      <path id="Path_511" data-name="Path 511" d="M1519.444,2294.587v25.9l-13.156-1.8c.376-5.442,3.063-12.562,5.289-17.646,1.66-3.789,3.063-6.449,3.063-6.449Z" transform="translate(-1506.288 -2294.587)" fill="#650000"/>
    </g>
    <g id="Group_386" data-name="Group 386" transform="translate(725.997 713.356)">
      <path id="Path_512" data-name="Path 512" d="M1448.854,2196.944l-16.568-2.274-.19-.358c-4.163-7.861,7.071-29.352,7.551-30.263l.223-.422h8.984Zm-15.531-3.727,13.95,1.914v-29.923h-6.444C1439.3,2168.209,1430.335,2186.35,1433.323,2193.217Z" transform="translate(-1431.173 -2163.627)" fill="#650000"/>
    </g>
    <g id="Group_387" data-name="Group 387" transform="translate(724.122 714.146)">
      <path id="Path_513" data-name="Path 513" d="M1453.3,2222.894c-.852,2.453-4.814,11.439-17.373,10.562l-.494-2.41a85.035,85.035,0,0,1-19.636-2.306,65.438,65.438,0,0,0-20.209-.237l-2.134-16.171a10.979,10.979,0,0,1,3.055-4.365,8,8,0,0,1,2.8-1.5,12.9,12.9,0,0,1,4.33-.615l1.276-18.713.52-7.612h34.264a57.256,57.256,0,0,1,5.873,7.12C1454.509,2199.474,1456.471,2213.762,1453.3,2222.894Z" transform="translate(-1393.453 -2179.526)" fill="#804959"/>
    </g>
    <g id="Group_388" data-name="Group 388" transform="translate(724.122 745.681)" opacity="0.3">
      <path id="Path_514" data-name="Path 514" d="M1435.432,2833.777a85.035,85.035,0,0,1-19.636-2.306,65.443,65.443,0,0,0-20.209-.237l-2.134-16.172a13.139,13.139,0,0,1,.593-1.27l1.721,13.035a65.461,65.461,0,0,1,20.209.237,86.148,86.148,0,0,0,18.553,2.317Z" transform="translate(-1393.453 -2813.792)" fill="#650000"/>
    </g>
    <g id="Group_389" data-name="Group 389" transform="translate(723.31 739.671)">
      <path id="Path_515" data-name="Path 515" d="M1418.806,2719.714a85.666,85.666,0,0,1-18.685-2.338,65.288,65.288,0,0,0-19.909-.232l-.812.142-2.27-17.2.079-.194c1.338-3.28,3.535-5.466,6.353-6.323a13.627,13.627,0,0,1,4.6-.648.791.791,0,0,1-.069,1.58,12.052,12.052,0,0,0-4.066.582,8.716,8.716,0,0,0-5.27,5.216l2,15.161a66.682,66.682,0,0,1,19.668.362l.058.012c.13.033,12.844,3.208,23.527,2.028v-14.4a.79.79,0,1,1,1.581,0v15.793l-.689.089A47.692,47.692,0,0,1,1418.806,2719.714Z" transform="translate(-1377.13 -2692.913)" fill="#650000"/>
    </g>
    <g id="Group_390" data-name="Group 390" transform="translate(736.1 714.146)">
      <path id="Path_516" data-name="Path 516" d="M1676.745,2218.315a9.363,9.363,0,0,0-9.164-5.448,6.6,6.6,0,0,0-5.645,6.34l2.927,14.252c12.56.878,16.522-8.109,17.374-10.561,3.776-10.87.277-29.044-13.605-43.368h-34.263" transform="translate(-1634.368 -2179.529)" fill="#b17e4f"/>
    </g>
    <g id="Group_391" data-name="Group 391" transform="translate(736.1 714.146)">
      <path id="Path_517" data-name="Path 517" d="M1676.745,2218.315a9.363,9.363,0,0,0-9.164-5.448,6.6,6.6,0,0,0-5.645,6.34l2.927,14.252c12.56.878,16.522-8.109,17.374-10.561,3.776-10.87.277-29.044-13.605-43.368h-34.263Z" transform="translate(-1634.368 -2179.529)" fill="#804959"/>
    </g>
    <g id="Group_397" data-name="Group 397" transform="translate(714.863 744.393)">
      <g id="Group_392" data-name="Group 392" transform="translate(0.827 0.612)">
        <path id="Path_518" data-name="Path 518" d="M1233.678,2818.354s5.854.317,4.932-6.318a2.909,2.909,0,0,1,.164-1.435c.647-1.7,2.069-5.954.739-7.391-1.637-1.768-2.976.234-3.292.76a.036.036,0,0,1-.067-.018c-.015-.63-.2-3.279-2.216-3.7-2.042-.431-2.275,2.079-2.3,2.63a.037.037,0,0,1-.066.02c-.322-.424-1.845-2.237-3.54-1.051-1.436,1.005-.736,2.943-.5,3.49a.036.036,0,0,1-.056.043c-.439-.353-1.952-1.425-3.108-.472-1.366,1.126.37,6.692,2.173,9.04S1230.1,2818.125,1233.678,2818.354Z" transform="translate(-1223.875 -2800.198)" fill="#f9d6b6"/>
      </g>
      <g id="Group_393" data-name="Group 393" transform="translate(4.901 6.978)">
        <ellipse id="Ellipse_15" data-name="Ellipse 15" cx="2.785" cy="3.784" rx="2.785" ry="3.784" transform="translate(0 1.763) rotate(-18.449)" fill="#f28475"/>
      </g>
      <g id="Group_394" data-name="Group 394" transform="translate(0 2.207)">
        <path id="Path_519" data-name="Path 519" d="M1211.5,2836.081a2.19,2.19,0,0,0-.983-.454,1.9,1.9,0,0,0-.988.017.947.947,0,0,0-.566.484,2.459,2.459,0,0,0-.173,1.042,9.113,9.113,0,0,0,.489,2.546,16.041,16.041,0,0,0,1.048,2.485,13.08,13.08,0,0,0,.675,1.149c.121.183.247.359.377.526l.427.54a12.964,12.964,0,0,0,1.835,1.922,6.768,6.768,0,0,0,2.185,1.222,7.471,7.471,0,0,0,1.235.29c.211.038.425.056.639.074l.161.015.058,0h.063c.092,0,.192,0,.292-.009a4.567,4.567,0,0,0,2.232-.708,3.2,3.2,0,0,0,1.289-1.779,6.3,6.3,0,0,0,.175-2.466l-.033-.325a4.076,4.076,0,0,1-.033-.453,3.748,3.748,0,0,1,.1-.913,3.807,3.807,0,0,1,.131-.44l.129-.338q.122-.323.236-.648a20.413,20.413,0,0,0,.741-2.622,9.845,9.845,0,0,0,.184-1.3,4.19,4.19,0,0,0-.062-1.175,1.493,1.493,0,0,0-.162-.421.409.409,0,0,0-.051-.075.543.543,0,0,0-.066-.078,2.371,2.371,0,0,0-.181-.175,1.17,1.17,0,0,0-.344-.211.785.785,0,0,0-.338-.047,1.842,1.842,0,0,0-.9.444,4.126,4.126,0,0,0-.811.906l-.032.051a.358.358,0,0,1-.656-.233,3.164,3.164,0,0,1,.624-1.52,2.728,2.728,0,0,1,1.46-1.063,2.143,2.143,0,0,1,1.067-.005,2.49,2.49,0,0,1,.9.45,3.806,3.806,0,0,1,.341.306,1.905,1.905,0,0,1,.168.188,1.739,1.739,0,0,1,.154.215,3.046,3.046,0,0,1,.373.887,5.721,5.721,0,0,1,.13,1.649,11.594,11.594,0,0,1-.188,1.517,22.061,22.061,0,0,1-.755,2.854c-.077.232-.156.462-.238.692l-.119.327a2.067,2.067,0,0,0-.113.739,2.389,2.389,0,0,0,.024.254l.045.381a7.871,7.871,0,0,1-.222,3.161,5.18,5.18,0,0,1-.74,1.529,4.933,4.933,0,0,1-1.234,1.2,5.659,5.659,0,0,1-1.51.725,6.955,6.955,0,0,1-1.6.3c-.136.01-.273.015-.417.016h-.115a1.176,1.176,0,0,1-.119-.008l-.193-.018c-.257-.024-.514-.049-.77-.1a9.265,9.265,0,0,1-1.523-.373,8.55,8.55,0,0,1-2.732-1.556,14.621,14.621,0,0,1-2.067-2.193c-.153-.193-.3-.379-.448-.579s-.3-.422-.437-.638a14.789,14.789,0,0,1-.738-1.313,17.67,17.67,0,0,1-1.1-2.767,10.57,10.57,0,0,1-.5-3.028,3.9,3.9,0,0,1,.362-1.722,2.3,2.3,0,0,1,1.587-1.227,2.714,2.714,0,0,1,2.475.838,1.562,1.562,0,0,1,.421.826.3.3,0,0,1-.5.266Z" transform="translate(-1207.232 -2832.28)" fill="#650000"/>
      </g>
      <g id="Group_395" data-name="Group 395" transform="translate(3.543 1.137)">
        <path id="Path_520" data-name="Path 520" d="M1283.387,2814.046a2.562,2.562,0,0,0-1.209-1.59,1.748,1.748,0,0,0-.858-.232,1.32,1.32,0,0,0-.737.234c-.055.036-.1.081-.16.118s-.1.044-.15.074a.914.914,0,0,0-.263.229,1.767,1.767,0,0,0-.321.847,3.793,3.793,0,0,0,.017,1.084,4.074,4.074,0,0,0,.121.546c.053.176.127.343.175.506l.013.047a.245.245,0,0,1-.37.272,1.584,1.584,0,0,1-.459-.531,4.961,4.961,0,0,1-.66-1.918,3.127,3.127,0,0,1,.174-1.52,2.5,2.5,0,0,1,.461-.745,2.4,2.4,0,0,1,.328-.3,2.436,2.436,0,0,1,.369-.185,2.871,2.871,0,0,1,1.634-.172,3.087,3.087,0,0,1,1.386.664,3.552,3.552,0,0,1,1.271,2.464.386.386,0,0,1-.759.123Z" transform="translate(-1278.5 -2810.757)" fill="#650000"/>
      </g>
      <g id="Group_396" data-name="Group 396" transform="translate(8.278 0)">
        <path id="Path_521" data-name="Path 521" d="M1378.072,2792.4a3.553,3.553,0,0,0-.113-.982,3.418,3.418,0,0,0-.393-.921,2.346,2.346,0,0,0-.561-.636.974.974,0,0,0-.526-.2.362.362,0,0,0-.07,0,.679.679,0,0,0-.082,0c-.066,0-.126.009-.187.014a2.049,2.049,0,0,0-.33.069,1.381,1.381,0,0,0-.6.37,2.156,2.156,0,0,0-.469.8,4.2,4.2,0,0,0-.177.984l0,.054a.316.316,0,0,1-.6.114,2.748,2.748,0,0,1-.231-1.309,3.541,3.541,0,0,1,.286-1.365,2.476,2.476,0,0,1,1.065-1.174,2.649,2.649,0,0,1,.767-.274,2.79,2.79,0,0,1,.386-.048,1.658,1.658,0,0,1,.206,0,1.73,1.73,0,0,1,.218.013,2.341,2.341,0,0,1,1.508.785,3.194,3.194,0,0,1,.671,1.3,5.269,5.269,0,0,1,.176,1.307,3.383,3.383,0,0,1-.2,1.311.386.386,0,0,1-.745-.154Z" transform="translate(-1373.727 -2787.886)" fill="#650000"/>
      </g>
    </g>
    <g id="Group_398" data-name="Group 398" transform="translate(735.309 713.356)">
      <path id="Path_522" data-name="Path 522" d="M1651.464,2219.2c-.571,0-1.157-.021-1.766-.063l-.6-.042-3.063-14.918v-.08a7.35,7.35,0,0,1,6.358-7.128.791.791,0,1,1,.153,1.574,5.794,5.794,0,0,0-4.93,5.476l2.788,13.576c11.392.524,15.1-7.547,15.974-10.066,1.913-5.507,1.844-12.58-.2-19.918a53.274,53.274,0,0,0-13-22.4h-33.927a.79.79,0,1,1,0-1.581h34.6l.233.24a54.92,54.92,0,0,1,13.618,23.318c2.124,7.644,2.184,15.052.167,20.86C1666.937,2210.748,1663.059,2219.2,1651.464,2219.2Z" transform="translate(-1618.468 -2163.632)" fill="#650000"/>
    </g>
    <g id="Group_399" data-name="Group 399" transform="translate(737.898 725.661)">
      <ellipse id="Ellipse_16" data-name="Ellipse 16" cx="12.436" cy="15.48" rx="12.436" ry="15.48" transform="translate(0)" fill="#ffca9f"/>
    </g>
    <g id="Group_400" data-name="Group 400" transform="translate(754.935 742.813)">
      <path id="Path_523" data-name="Path 523" d="M2013.211,2773.164c7.238.752,17.215-11.656,17.215-17.062" transform="translate(-2013.211 -2756.102)" fill="#b17e4f"/>
    </g>
    <g id="Group_401" data-name="Group 401" transform="translate(764.632 726.583)">
      <path id="Path_524" data-name="Path 524" d="M2208.245,2429.676" transform="translate(-2208.245 -2429.676)" fill="#b17e4f"/>
    </g>
    <g id="Group_402" data-name="Group 402" transform="translate(733.505 723.17)">
      <path id="Path_525" data-name="Path 525" d="M1585.064,2361.242a15.217,15.217,0,0,1,.317,4.344c-.042.719-.128,1.435-.2,2.151l-.192,2.154c-.13,1.436-.279,2.872-.46,4.311l-.147,1.08-.172,1.082c-.055.36-.139.726-.207,1.089s-.181.739-.271,1.106a.789.789,0,0,1-1.535-.368l.02-.084c.078-.329.175-.641.24-.984s.142-.677.2-1.026l.166-1.044.144-1.053c.177-1.409.325-2.829.454-4.251.06-.712.13-1.423.168-2.138s.057-1.429.118-2.142a17.2,17.2,0,0,1,.838-4.252h0a.275.275,0,0,1,.351-.167A.278.278,0,0,1,1585.064,2361.242Z" transform="translate(-1582.175 -2361.032)" fill="#650000"/>
    </g>
    <g id="Group_403" data-name="Group 403" transform="translate(748.905 726.583)">
      <path id="Path_526" data-name="Path 526" d="M1907.642,2429.676s1.542,17.651-15.711,22.6c0,0-.636,10,6.014,10.693,7.238.753,17.215-11.655,17.215-17.062" transform="translate(-1891.915 -2429.676)" fill="#804959"/>
    </g>
    <g id="Group_405" data-name="Group 405" transform="translate(748.905 744.631)" opacity="0.3">
      <path id="Path_528" data-name="Path 528" d="M1914.869,2792.675c-1.683,5.945-10.411,15.921-16.924,15.245-6.65-.691-6.014-10.694-6.014-10.694q.795-.228,1.536-.49c.338,3.014,1.579,7.411,5.909,7.862C1904.777,2805.159,1911.7,2798.393,1914.869,2792.675Z" transform="translate(-1891.915 -2792.675)" fill="#650000"/>
    </g>
    <g id="Group_406" data-name="Group 406" transform="translate(748.114 726.381)">
      <path id="Path_529" data-name="Path 529" d="M1892.795,2425.778a7.639,7.639,0,0,1,.4,1.91,11.472,11.472,0,0,1,.023,1.925,18.4,18.4,0,0,1-.638,3.795,24.755,24.755,0,0,1-3.132,7.039,20.281,20.281,0,0,1-5.426,5.494,24.171,24.171,0,0,1-6.982,3.218l.571-.71c-.02.389-.018.833,0,1.252s.043.85.087,1.272a15.376,15.376,0,0,0,.453,2.484,7.088,7.088,0,0,0,2.449,4,4.7,4.7,0,0,0,2.1.824,5.557,5.557,0,0,0,2.311-.19,14.516,14.516,0,0,0,4.448-2.3,30.226,30.226,0,0,0,3.9-3.4,37.33,37.33,0,0,0,3.363-3.971c.513-.7,1-1.417,1.452-2.151a17.5,17.5,0,0,0,1.2-2.273c.339-.78.664-1.555.948-2.328a19.661,19.661,0,0,0,.74-2.373l0-.017a.279.279,0,0,1,.334-.209.282.282,0,0,1,.181.136,3.392,3.392,0,0,1,.375,1.438,5.75,5.75,0,0,1-.116,1.444,10.077,10.077,0,0,1-.964,2.627,36.416,36.416,0,0,1-2.883,4.639,38.936,38.936,0,0,1-3.506,4.139,31.788,31.788,0,0,1-4.1,3.583,15.993,15.993,0,0,1-4.957,2.545,8.131,8.131,0,0,1-1.442.269,6.462,6.462,0,0,1-1.509-.039,6.279,6.279,0,0,1-2.8-1.1,7.055,7.055,0,0,1-1.974-2.219,11.079,11.079,0,0,1-1.08-2.644,16.909,16.909,0,0,1-.5-2.742c-.048-.459-.078-.919-.094-1.38s-.019-.91.007-1.406l.028-.553.543-.156a22.554,22.554,0,0,0,6.524-3,18.681,18.681,0,0,0,5-5.065,19.748,19.748,0,0,0,2.82-6.579c.273-1.171.493-2.355.68-3.549.09-.6.179-1.2.286-1.8s.211-1.213.354-1.821l0-.016a.272.272,0,0,1,.328-.2A.276.276,0,0,1,1892.795,2425.778Z" transform="translate(-1876.014 -2425.598)" fill="#650000"/>
    </g>
    <g id="Group_407" data-name="Group 407" transform="translate(721.492 761.101)">
      <path id="Path_530" data-name="Path 530" d="M1365.679,3135.511l16.257-6.322v-2.364l-32.071-2.882-9.3,8.661Z" transform="translate(-1340.57 -3123.943)" fill="#b5b5b5"/>
    </g>
    <g id="Group_408" data-name="Group 408" transform="translate(736.825 763.929)">
      <path id="Path_531" data-name="Path 531" d="M1655.864,3185.069l8.536-2.885a.222.222,0,0,0-.053-.432l-11.913-.943-3.473,4.416Z" transform="translate(-1648.961 -3180.81)" fill="#fff"/>
    </g>
    <g id="Group_409" data-name="Group 409" transform="translate(746.602 764.12)">
      <path id="Path_532" data-name="Path 532" d="M1846.142,3193l15.467-6.014a.4.4,0,0,0,.252-.369v-1.562a.4.4,0,0,0-.509-.377l-15.467,4.642a.4.4,0,0,0-.281.378v2.935A.4.4,0,0,0,1846.142,3193Z" transform="translate(-1845.603 -3184.665)" fill="#b5b5b5"/>
    </g>
    <g id="Group_410" data-name="Group 410" transform="translate(746.603 765.348)" opacity="0.3">
      <path id="Path_533" data-name="Path 533" d="M1861.876,3209.358v.729a.391.391,0,0,1-.253.368l-15.466,6.016a.4.4,0,0,1-.537-.368v-1.418c0,.279.279.021.537-.08Z" transform="translate(-1845.62 -3209.358)" fill="#650000"/>
    </g>
    <g id="Group_411" data-name="Group 411" transform="translate(719.701 760.282)">
      <path id="Path_534" data-name="Path 534" d="M1331.551,3120.67l-.195-.022-26.81-3.1,10.806-10.069,33.142,2.979v3.627Zm-23.422-4.3,23.214,2.689,15.57-6.056v-1.1l-31-2.787Z" transform="translate(-1304.547 -3107.475)" fill="#650000"/>
    </g>
    <g id="Group_412" data-name="Group 412" transform="translate(689.893 728.557)">
      <path id="Path_535" data-name="Path 535" d="M760.525,2509.548l-43.382-5.019a.791.791,0,0,1-.658-.532l-.876-2.573-1.964-5.771-8.6-25.238a.79.79,0,0,1,.838-1.04l39.754,4.6.423.05,3.205.372a.789.789,0,0,1,.658.531l11.436,33.582A.79.79,0,0,1,760.525,2509.548Z" transform="translate(-705.005 -2469.369)" fill="#b5b5b5"/>
    </g>
    <g id="Group_413" data-name="Group 413" transform="translate(689.893 728.557)" opacity="0.35">
      <path id="Path_536" data-name="Path 536" d="M713.645,2495.652l-8.6-25.238a.79.79,0,0,1,.838-1.04l39.754,4.6c-2.612,1.913-28.979-1.352-34.811-1.572C706.015,2472.222,714.781,2492.422,713.645,2495.652Z" transform="translate(-705.005 -2469.369)" fill="#fff"/>
    </g>
    <g id="Group_414" data-name="Group 414" transform="translate(700.497 733.21)" opacity="0.3">
      <path id="Path_537" data-name="Path 537" d="M963.2,2598.494l-43.382-5.02a.788.788,0,0,1-.658-.532l-.875-2.573c7.03,1.3,25.771,4.72,31.38-2.819,4.964-6.671.231-20.314-.926-24.582l3.205.372a.789.789,0,0,1,.658.531l11.436,33.582A.79.79,0,0,1,963.2,2598.494Z" transform="translate(-918.289 -2562.969)" fill="#650000"/>
    </g>
    <g id="Group_415" data-name="Group 415" transform="translate(689.103 727.766)">
      <path id="Path_538" data-name="Path 538" d="M745.506,2495.237a1.566,1.566,0,0,1-.185-.01l-43.382-5.02a1.589,1.589,0,0,1-1.315-1.062l-11.437-33.582a1.581,1.581,0,0,1,1.679-2.08l43.382,5.019a1.589,1.589,0,0,1,1.316,1.063L747,2493.147a1.581,1.581,0,0,1-1.494,2.09Zm-54.822-40.183,11.436,33.582,43.386,5.02-11.44-33.583Z" transform="translate(-689.103 -2453.473)" fill="#650000"/>
    </g>
    <g id="Group_416" data-name="Group 416" transform="translate(745.98 763.498)">
      <path id="Path_539" data-name="Path 539" d="M1834.118,3181.766a1.017,1.017,0,0,1-1.017-1.017v-2.935a1.011,1.011,0,0,1,.724-.974l15.467-4.642a1.017,1.017,0,0,1,1.309.974v1.562a1.023,1.023,0,0,1-.648.948l-15.467,6.015A1.008,1.008,0,0,1,1834.118,3181.766Zm.143-.649h0Zm-.225-.578h0Zm.307-2.555v2.435l15.014-5.839v-1.1Z" transform="translate(-1833.101 -3172.155)" fill="#650000"/>
    </g>
    <g id="Group_417" data-name="Group 417" transform="translate(701.865 763.728)">
      <path id="Path_540" data-name="Path 540" d="M946.232,3176.788l43.947,5.091a.4.4,0,0,1,.35.393v3.011a.4.4,0,0,1-.44.393l-43.947-5.092a.4.4,0,0,1-.35-.393v-3.01A.4.4,0,0,1,946.232,3176.788Z" transform="translate(-945.791 -3176.785)" fill="#b5b5b5"/>
    </g>
    <g id="Group_418" data-name="Group 418" transform="translate(701.865 765.465)" opacity="0.3">
      <path id="Path_541" data-name="Path 541" d="M990.533,3216.793v1.673a.4.4,0,0,1-.441.391l-43.947-5.09a.4.4,0,0,1-.35-.394V3211.7a.394.394,0,0,0,.35.391l43.947,5.093A.4.4,0,0,0,990.533,3216.793Z" transform="translate(-945.795 -3211.703)" fill="#650000"/>
    </g>
    <g id="Group_419" data-name="Group 419" transform="translate(701.074 762.938)">
      <path id="Path_542" data-name="Path 542" d="M975.025,3171.368a1.222,1.222,0,0,1-.136-.008l-43.947-5.091a1.186,1.186,0,0,1-1.049-1.178v-3.01a1.186,1.186,0,0,1,1.322-1.178l43.947,5.092a1.186,1.186,0,0,1,1.049,1.178v3.011a1.186,1.186,0,0,1-1.186,1.186Zm-43.551-6.63,43.156,5v-2.214l-43.156-5Zm-.441-2.267h0Z" transform="translate(-929.893 -3160.894)" fill="#650000"/>
    </g>
    <g id="Group_420" data-name="Group 420" transform="translate(763.668 747.448)">
      <path id="Path_543" data-name="Path 543" d="M2203.668,2854.824a9.364,9.364,0,0,0-9.164-5.449,6.6,6.6,0,0,0-5.645,6.34l2.927,14.252c12.56.878,16.522-8.11,17.374-10.561Z" transform="translate(-2188.859 -2849.341)" fill="#804959"/>
    </g>
    <g id="Group_422" data-name="Group 422" transform="translate(778.401 752.758)" opacity="0.35">
      <path id="Path_545" data-name="Path 545" d="M2485.479,2956.489l-.219-.184c-.024-.059-.048-.117-.075-.174C2485.287,2956.248,2485.384,2956.366,2485.479,2956.489Z" transform="translate(-2485.185 -2956.131)" fill="#fff"/>
    </g>
    <g id="Group_423" data-name="Group 423" transform="translate(765.198 747.468)" opacity="0.3">
      <path id="Path_546" data-name="Path 546" d="M2238.4,2859.772c-.852,2.452-4.814,11.438-17.373,10.561l-.494-2.409-.9-4.4c.359,0,.721,0,1.083-.01l.494,2.409c9.036.631,13.622-3.844,15.8-7.316a16.315,16.315,0,0,0,1.573-3.245,25.64,25.64,0,0,0,1.229-5.641A28.758,28.758,0,0,1,2238.4,2859.772Z" transform="translate(-2219.625 -2849.725)" fill="#650000"/>
    </g>
    <g id="Group_424" data-name="Group 424" transform="translate(762.759 746.626)">
      <path id="Path_547" data-name="Path 547" d="M2186.165,2839.152a11.118,11.118,0,0,0-3.552-3.3,9.431,9.431,0,0,0-4.456-1.4,4.39,4.39,0,0,0-.575,0,3.942,3.942,0,0,0-.559.054l-.268.044c-.089.018-.175.048-.263.07s-.177.044-.262.075l-.256.1a5.544,5.544,0,0,0-1.843,1.229,5.79,5.79,0,0,0-1.737,3.961l-.018-.182,1.5,7.119,1.471,7.125-.867-.758a21.259,21.259,0,0,0,5.228-.264,15.268,15.268,0,0,0,4.835-1.767,14.282,14.282,0,0,0,3.908-3.343,16.122,16.122,0,0,0,1.475-2.145,15.3,15.3,0,0,0,1.115-2.352l0-.009a.791.791,0,0,1,1.49.528A16.83,16.83,0,0,1,2189.8,2849a16.047,16.047,0,0,1-4.327,3.836,16.421,16.421,0,0,1-5.409,2.046,22.111,22.111,0,0,1-5.715.313l-.721-.048-.145-.711-1.456-7.128-1.428-7.133-.02-.1v-.085a6.959,6.959,0,0,1,.661-2.862,7.929,7.929,0,0,1,1.677-2.346,7.246,7.246,0,0,1,2.442-1.56l.347-.127c.117-.039.239-.064.358-.1s.238-.064.36-.087l.368-.055a5.513,5.513,0,0,1,.722-.057,5.9,5.9,0,0,1,.711.007,9.987,9.987,0,0,1,2.741.542,9.248,9.248,0,0,1,2.46,1.261,8.247,8.247,0,0,1,1.936,1.953,6.322,6.322,0,0,1,1.062,2.483.142.142,0,0,1-.257.1Z" transform="translate(-2170.577 -2832.794)" fill="#650000"/>
    </g>
    <g id="Group_425" data-name="Group 425" transform="translate(762.29 750.795)">
      <path id="Path_548" data-name="Path 548" d="M2167.526,2934.817s-5.854.317-4.932-6.318a2.907,2.907,0,0,0-.164-1.434c-.647-1.7-2.069-5.955-.739-7.392,1.637-1.768,2.976.234,3.292.76a.036.036,0,0,0,.067-.018c.016-.629.2-3.279,2.216-3.7,2.043-.431,2.275,2.079,2.3,2.63a.036.036,0,0,0,.065.02c.322-.423,1.846-2.236,3.54-1.051,1.436,1.006.736,2.943.5,3.49a.036.036,0,0,0,.056.043c.438-.352,1.952-1.425,3.108-.472,1.366,1.126-.37,6.692-2.173,9.039S2171.106,2934.589,2167.526,2934.817Z" transform="translate(-2161.142 -2916.661)" fill="#ffca9f"/>
    </g>
    <g id="Group_426" data-name="Group 426" transform="translate(763.198 758.306)" opacity="0.3">
      <path id="Path_549" data-name="Path 549" d="M2179.784,3070.622a2.908,2.908,0,0,1,.164,1.433c-.923,6.636,4.93,6.32,4.93,6.32,3.581-.229,5.336-2.061,7.14-4.409a13.6,13.6,0,0,0,1.718-3.264c-1.864,2.25-3.9,3.917-7.559,4.15,0,0-4.906.677-6.57-7.011C2179.486,3067.281,2179.136,3068.918,2179.784,3070.622Z" transform="translate(-2179.404 -3067.729)" fill="#650000"/>
    </g>
    <g id="Group_427" data-name="Group 427" transform="translate(761.484 752.391)">
      <path id="Path_550" data-name="Path 550" d="M2157.9,2952.347a1.563,1.563,0,0,1,.421-.826,2.661,2.661,0,0,1,.683-.539,2.631,2.631,0,0,1,1.792-.3,2.3,2.3,0,0,1,1.587,1.227,3.905,3.905,0,0,1,.362,1.722,10.569,10.569,0,0,1-.5,3.028,17.639,17.639,0,0,1-1.1,2.767,14.848,14.848,0,0,1-.738,1.314q-.2.322-.437.638c-.151.2-.294.385-.448.578a14.623,14.623,0,0,1-2.067,2.193,8.539,8.539,0,0,1-2.732,1.556,9.3,9.3,0,0,1-1.523.373c-.256.048-.513.073-.77.1l-.193.018c-.031,0-.061.007-.119.009H2152c-.144,0-.281-.006-.417-.016a6.957,6.957,0,0,1-1.6-.3,5.685,5.685,0,0,1-1.51-.725,4.951,4.951,0,0,1-1.233-1.2,5.166,5.166,0,0,1-.74-1.529,7.876,7.876,0,0,1-.222-3.161l.046-.381a2.332,2.332,0,0,0,.024-.254,2.04,2.04,0,0,0-.045-.5,1.991,1.991,0,0,0-.068-.242l-.118-.327c-.082-.229-.161-.46-.238-.691a22.108,22.108,0,0,1-.755-2.854,11.731,11.731,0,0,1-.188-1.517,5.734,5.734,0,0,1,.13-1.649,3.046,3.046,0,0,1,.373-.887,1.784,1.784,0,0,1,.154-.215,1.973,1.973,0,0,1,.168-.188,3.5,3.5,0,0,1,.341-.305,2.485,2.485,0,0,1,.9-.451,2.141,2.141,0,0,1,1.067.006,2.73,2.73,0,0,1,1.46,1.063,3.166,3.166,0,0,1,.624,1.519.357.357,0,0,1-.656.234l-.033-.051a4.129,4.129,0,0,0-.81-.906,1.842,1.842,0,0,0-.9-.444.79.79,0,0,0-.339.047,1.187,1.187,0,0,0-.344.211,2.24,2.24,0,0,0-.181.175.5.5,0,0,0-.066.078.392.392,0,0,0-.051.074,1.5,1.5,0,0,0-.163.421,4.2,4.2,0,0,0-.062,1.175,9.872,9.872,0,0,0,.184,1.3,20.523,20.523,0,0,0,.742,2.622q.114.325.236.647l.129.339a3.837,3.837,0,0,1,.131.439,3.763,3.763,0,0,1,.1.912,4.177,4.177,0,0,1-.033.453l-.033.325a6.308,6.308,0,0,0,.175,2.467,3.2,3.2,0,0,0,1.289,1.778,4.565,4.565,0,0,0,2.232.708c.1.008.2.01.292.01h.063l.058-.006.16-.015c.215-.018.429-.036.64-.074a7.509,7.509,0,0,0,1.235-.289,6.764,6.764,0,0,0,2.184-1.223,12.928,12.928,0,0,0,1.835-1.922l.428-.54q.194-.252.376-.527a13.183,13.183,0,0,0,.676-1.149,16.07,16.07,0,0,0,1.047-2.485,9.054,9.054,0,0,0,.489-2.546,2.442,2.442,0,0,0-.172-1.042.947.947,0,0,0-.566-.484,1.886,1.886,0,0,0-.988-.018,2.2,2.2,0,0,0-.983.454l-.073.068a.3.3,0,0,1-.426-.017A.306.306,0,0,1,2157.9,2952.347Z" transform="translate(-2144.924 -2948.743)" fill="#650000"/>
    </g>
    <g id="Group_428" data-name="Group 428" transform="translate(770.111 751.321)">
      <path id="Path_551" data-name="Path 551" d="M2318.453,2930.4a3.55,3.55,0,0,1,1.271-2.464,3.09,3.09,0,0,1,1.386-.664,2.874,2.874,0,0,1,1.634.172,1.523,1.523,0,0,1,.7.49,2.489,2.489,0,0,1,.461.745,3.13,3.13,0,0,1,.175,1.52,4.834,4.834,0,0,1-.358,1.32,4.782,4.782,0,0,1-.3.6,1.607,1.607,0,0,1-.459.532.246.246,0,0,1-.372-.272l.014-.048c.047-.163.121-.329.175-.507a4.049,4.049,0,0,0,.121-.546,3.8,3.8,0,0,0,.017-1.083,1.765,1.765,0,0,0-.321-.847.927.927,0,0,0-.263-.23c-.048-.029-.1-.046-.15-.073s-.105-.083-.16-.118a1.327,1.327,0,0,0-.737-.234,1.758,1.758,0,0,0-.857.232,2.562,2.562,0,0,0-1.209,1.59l0,.012a.386.386,0,0,1-.758-.124Z" transform="translate(-2318.452 -2927.222)" fill="#650000"/>
    </g>
    <g id="Group_429" data-name="Group 429" transform="translate(765.742 750.183)">
      <path id="Path_552" data-name="Path 552" d="M2230.77,2909.062a3.386,3.386,0,0,1-.195-1.31,5.251,5.251,0,0,1,.177-1.308,3.188,3.188,0,0,1,.671-1.3,2.342,2.342,0,0,1,1.508-.786,1.881,1.881,0,0,1,.218-.012,1.6,1.6,0,0,1,.206,0,2.866,2.866,0,0,1,.387.048,2.639,2.639,0,0,1,.767.274,2.471,2.471,0,0,1,1.065,1.174,3.523,3.523,0,0,1,.285,1.365,2.745,2.745,0,0,1-.231,1.308.316.316,0,0,1-.6-.114l0-.055a4.175,4.175,0,0,0-.177-.983,2.147,2.147,0,0,0-.469-.8,1.374,1.374,0,0,0-.6-.37,2.017,2.017,0,0,0-.331-.069c-.06-.005-.12-.014-.187-.014a.767.767,0,0,0-.082,0,.41.41,0,0,0-.07,0,.978.978,0,0,0-.526.2,2.327,2.327,0,0,0-.561.636,3.43,3.43,0,0,0-.393.921,3.529,3.529,0,0,0-.113.981v.046a.386.386,0,0,1-.745.153Z" transform="translate(-2230.575 -2904.349)" fill="#650000"/>
    </g>
    <g id="Group_430" data-name="Group 430" transform="translate(765.768 757.463)">
      <ellipse id="Ellipse_17" data-name="Ellipse 17" cx="3.618" cy="3.064" rx="3.618" ry="3.064" transform="translate(0 7.163) rotate(-81.876)" fill="#f28475"/>
    </g>
    <g id="Group_431" data-name="Group 431" transform="translate(742.888 747.811)">
      <path id="Path_553" data-name="Path 553" d="M1786.192,2866.324a2.625,2.625,0,0,1-1.526.661,1.763,1.763,0,0,0-1.46,1.156c-.6,1.667-1.705,3.64-3.188,3.376-1.874-.332-1.193-5.566-1.188-5.623.09-1.054-4.169,3.314-5.542,1.536-1.012-1.308,1.9-5.145,1.906-5.193.013-.7-3.815,1.525-4.266-.4-.354-1.513,2.117-4.932,4.457-5.189,1.589-.176,7.23.625,10.828,6.087A3.1,3.1,0,0,1,1786.192,2866.324Z" transform="translate(-1770.893 -2856.628)" fill="#ffca9f"/>
    </g>
    <g id="Group_433" data-name="Group 433" transform="translate(750.758 753.277)" opacity="0.3">
      <path id="Path_555" data-name="Path 555" d="M1936.645,2967.21c-.147-.223-.3-.435-.452-.643a2.719,2.719,0,0,1-.563,1.994,2.622,2.622,0,0,1-1.526.66,1.765,1.765,0,0,0-1.46,1.157c-.6,1.667-1.7,3.64-3.188,3.375a.942.942,0,0,1-.26-.088c.12,1.146.453,2.184,1.254,2.326,1.483.264,2.584-1.709,3.188-3.376a1.764,1.764,0,0,1,1.46-1.157,2.622,2.622,0,0,0,1.526-.66A3.1,3.1,0,0,0,1936.645,2967.21Z" transform="translate(-1929.197 -2966.567)" fill="#650000"/>
    </g>
    <g id="Group_434" data-name="Group 434" transform="translate(745.068 754.438)" opacity="0.3">
      <path id="Path_556" data-name="Path 556" d="M1821.007,2990.081c.074-.862-4.247,2.143-6.034,2.211a1.986,1.986,0,0,0-.006,1.809c.912,1.181,4.586-.6,5.925-1.447A17.979,17.979,0,0,1,1821.007,2990.081Z" transform="translate(-1814.754 -2989.926)" fill="#650000"/>
    </g>
    <g id="Group_435" data-name="Group 435" transform="translate(742.098 747.003)">
      <path id="Path_557" data-name="Path 557" d="M1771.632,2851.438a3.1,3.1,0,0,1-.968.625,3.6,3.6,0,0,1-.528.172c-.089.021-.179.041-.269.055l-.234.034a.98.98,0,0,0-.732.561.486.486,0,0,0-.023.056l-.011.028-.02.053-.08.217c-.054.144-.113.288-.173.432-.122.287-.254.57-.4.852a5.973,5.973,0,0,1-1.19,1.615,2.971,2.971,0,0,1-1,.622,2.408,2.408,0,0,1-.645.132,2.342,2.342,0,0,1-.334,0,2.25,2.25,0,0,1-.342-.056,1.756,1.756,0,0,1-.689-.346,2.145,2.145,0,0,1-.447-.512,3.359,3.359,0,0,1-.414-1.03,8.235,8.235,0,0,1-.174-1.9c0-.612.052-1.212.1-1.809l.047-.448.024-.225.013-.113.007-.055a.146.146,0,0,0,0,.041.257.257,0,0,0,.005.051l.007.027a.343.343,0,0,0,.013.047.513.513,0,0,0,.149.209.486.486,0,0,0,.224.106.3.3,0,0,0,.068.007h.035c.069-.011.015-.006-.021.014a3.425,3.425,0,0,0-.316.175c-.466.285-.947.638-1.445.972a8.934,8.934,0,0,1-1.659.91,3.106,3.106,0,0,1-1.095.236,2.049,2.049,0,0,1-.683-.1,1.775,1.775,0,0,1-.648-.389,1.9,1.9,0,0,1-.246-.279,1.679,1.679,0,0,1-.195-.35,2.015,2.015,0,0,1-.14-.687,3.244,3.244,0,0,1,.167-1.1,8.2,8.2,0,0,1,.82-1.718c.315-.525.662-1.015,1-1.5l.257-.364.124-.175c.009-.012.02-.028.017-.023-.03.073.044-.128-.068.169-.029.24-.009.087-.014.15a.508.508,0,0,0,.012.081.5.5,0,0,0,.108.207.469.469,0,0,0,.153.115.324.324,0,0,0,.107.031l-.025,0c-.035,0-.091.013-.149.025-.116.026-.25.058-.384.1a15.6,15.6,0,0,1-1.77.493,3.176,3.176,0,0,1-1.12.02,1.843,1.843,0,0,1-.673-.274,1.62,1.62,0,0,1-.534-.6,2.005,2.005,0,0,1-.207-.689,2.653,2.653,0,0,1,.014-.623,4.2,4.2,0,0,1,.286-1.032,7.487,7.487,0,0,1,.984-1.684,8.439,8.439,0,0,1,1.333-1.39,5.776,5.776,0,0,1,1.753-1.01,4.434,4.434,0,0,1,.528-.139,3.977,3.977,0,0,1,.546-.061,7.425,7.425,0,0,1,.981.029,12.1,12.1,0,0,1,1.842.324,14.248,14.248,0,0,1,6.371,3.576,13.992,13.992,0,0,1,1.239,1.361c.2.236.373.486.554.733l.259.379c.042.058.088.133.134.212s.092.152.134.231a4.414,4.414,0,0,1,.368,1.008,4.3,4.3,0,0,1,.092,1.068,3.949,3.949,0,0,1-.188,1.061,3.451,3.451,0,0,1-.221.525A2.232,2.232,0,0,1,1771.632,2851.438Zm-1.057-1.113a1.093,1.093,0,0,0,.1-.157,1.928,1.928,0,0,0,.115-.278,2.411,2.411,0,0,0,.11-.652,2.793,2.793,0,0,0-.06-.665,2.851,2.851,0,0,0-.232-.625c-.027-.049-.058-.1-.086-.145a1.572,1.572,0,0,0-.1-.156l-.235-.34c-.164-.221-.324-.445-.5-.655a12.441,12.441,0,0,0-1.113-1.21,12.722,12.722,0,0,0-5.673-3.149,10.374,10.374,0,0,0-1.591-.275,6.084,6.084,0,0,0-.761-.021,2.5,2.5,0,0,0-.32.036,2.887,2.887,0,0,0-.313.085,5.442,5.442,0,0,0-2.334,1.838,5.926,5.926,0,0,0-.784,1.311,2.68,2.68,0,0,0-.188.641,1.138,1.138,0,0,0-.011.246.522.522,0,0,0,.031.145.429.429,0,0,0,.027.053.3.3,0,0,0,.123.067,1.728,1.728,0,0,0,.616.06,9.462,9.462,0,0,0,1.628-.277c.147-.031.3-.07.464-.1a2.832,2.832,0,0,1,.283-.038,1.343,1.343,0,0,1,.193,0,.868.868,0,0,1,.318.076.7.7,0,0,1,.4.48.65.65,0,0,1,.019.135c-.006.072.018-.071-.014.177-.115.306-.048.113-.081.193l-.044.067-.124.184c-.08.118-.16.235-.234.356a13.43,13.43,0,0,0-.807,1.476,7.854,7.854,0,0,0-.545,1.484,2.312,2.312,0,0,0-.075.617.5.5,0,0,0,.033.164.162.162,0,0,0,.014.031.4.4,0,0,0,.04.048.249.249,0,0,0,.091.061.494.494,0,0,0,.173.039,2.018,2.018,0,0,0,.611-.087,7.61,7.61,0,0,0,1.46-.636c.5-.265.977-.57,1.506-.885a4.268,4.268,0,0,1,.453-.236,1.233,1.233,0,0,1,.395-.112c.03,0,.055,0,.09,0a1.028,1.028,0,0,1,.122.012.7.7,0,0,1,.322.149.694.694,0,0,1,.209.3c.009.024.016.048.023.073l.011.054a1.015,1.015,0,0,1,.012.1,1.056,1.056,0,0,1-.005.15l-.006.053-.01.1-.02.209c-.011.139-.018.28-.025.421a13.375,13.375,0,0,0,.027,1.675,7.233,7.233,0,0,0,.277,1.552,2.128,2.128,0,0,0,.264.569.569.569,0,0,0,.129.136.22.22,0,0,0,.086.037c.006,0,.057.006.088.011a.925.925,0,0,0,.1,0,.82.82,0,0,0,.2-.049,1.6,1.6,0,0,0,.461-.307,4.7,4.7,0,0,0,.864-1.183c.126-.231.242-.473.35-.72q.081-.186.156-.376l.073-.19.048-.122c.02-.049.039-.1.063-.144a2.54,2.54,0,0,1,1.957-1.431l.2-.025c.054-.008.107-.018.159-.029a2.07,2.07,0,0,0,.3-.093A1.574,1.574,0,0,0,1770.575,2850.325Z" transform="translate(-1755.016 -2840.376)" fill="#650000"/>
    </g>
    <g id="Group_436" data-name="Group 436" transform="translate(786.847 678.591)">
      <path id="Path_558" data-name="Path 558" d="M2655.069,1470.667a7.756,7.756,0,0,1,7.815-6.28c6.478-.007,9.4,6.28,8.658,11.011-.774,4.971-3.377,7.619-7.265,8.838a17.95,17.95,0,0,1-8.293.312" transform="translate(-2655.069 -1464.387)" fill="#ffca9f"/>
    </g>
    <g id="Group_438" data-name="Group 438" transform="translate(786.847 684.237)">
      <path id="Path_560" data-name="Path 560" d="M2655.069,1581.361a4.367,4.367,0,0,1,4.5-3.409,5.071,5.071,0,0,1,4.992,5.977,5.52,5.52,0,0,1-4.189,4.8,10.973,10.973,0,0,1-4.781.169" transform="translate(-2655.069 -1577.952)" fill="#f28475"/>
    </g>
    <g id="Group_448" data-name="Group 448" transform="translate(786.725 688.234)">
      <path id="Path_570" data-name="Path 570" d="M2658.755,1662.831a4.109,4.109,0,0,1-1.6,2.517,15.065,15.065,0,0,1-4.014-.012l-.528-5.659a3.045,3.045,0,0,1,.846-1.328c.1,0,.2-.006.307-.006C2657.5,1658.34,2659.179,1660.9,2658.755,1662.831Z" transform="translate(-2652.61 -1658.343)" fill="#f29f8f"/>
    </g>
    <g id="Group_439" data-name="Group 439" transform="translate(786.057 683.447)">
      <path id="Path_561" data-name="Path 561" d="M2642.579,1574.769a11.73,11.73,0,0,1-2.259-.207.79.79,0,1,1,.331-1.546,10.251,10.251,0,0,0,4.392-.155,4.754,4.754,0,0,0,3.633-4.168,4.626,4.626,0,0,0-1.023-3.652,4.014,4.014,0,0,0-3.183-1.4h-.005a3.531,3.531,0,0,0-3.729,2.764.79.79,0,0,1-1.554-.287,5.143,5.143,0,0,1,5.282-4.058h.007a5.556,5.556,0,0,1,4.389,1.963,6.248,6.248,0,0,1,1.376,4.933,6.34,6.34,0,0,1-4.745,5.427A10.381,10.381,0,0,1,2642.579,1574.769Z" transform="translate(-2639.167 -1562.055)" fill="#650000"/>
    </g>
    <g id="Group_440" data-name="Group 440" transform="translate(786.057 677.8)">
      <path id="Path_562" data-name="Path 562" d="M2644.5,1470.581a18.683,18.683,0,0,1-3.806-.37.79.79,0,0,1,.351-1.542,17.28,17.28,0,0,0,7.882-.3c3.9-1.224,6.039-3.832,6.721-8.206a9.7,9.7,0,0,0-2.1-7.508,7.367,7.367,0,0,0-5.772-2.591h-.009a6.893,6.893,0,0,0-7.036,5.623.791.791,0,0,1-1.559-.266c.012-.069,1.268-6.931,8.593-6.938h.011a8.9,8.9,0,0,1,6.972,3.143,11.184,11.184,0,0,1,2.458,8.78c-.774,4.967-3.329,8.065-7.81,9.471A16.527,16.527,0,0,1,2644.5,1470.581Z" transform="translate(-2639.167 -1448.488)" fill="#650000"/>
    </g>
    <g id="Group_441" data-name="Group 441" transform="translate(703.943 678.591)">
      <path id="Path_563" data-name="Path 563" d="M1004.182,1470.667a7.757,7.757,0,0,0-7.815-6.28c-6.478-.007-9.4,6.28-8.658,11.011.775,4.971,3.378,7.619,7.265,8.838a17.951,17.951,0,0,0,8.294.312" transform="translate(-987.597 -1464.387)" fill="#ffca9f"/>
    </g>
    <g id="Group_443" data-name="Group 443" transform="translate(703.943 686.724)" opacity="0.3">
      <path id="Path_565" data-name="Path 565" d="M987.71,1630.854c.775,4.972,3.377,7.62,7.265,8.84a17.961,17.961,0,0,0,8.294.31l.2-2.972a19.137,19.137,0,0,1-8.037-.518,10.691,10.691,0,0,1-7.733-8.537A10.012,10.012,0,0,0,987.71,1630.854Z" transform="translate(-987.599 -1627.976)" fill="#650000"/>
    </g>
    <g id="Group_444" data-name="Group 444" transform="translate(787.566 686.724)" opacity="0.3">
      <path id="Path_566" data-name="Path 566" d="M2685.276,1630.854c-.775,4.972-3.377,7.62-7.264,8.84a17.964,17.964,0,0,1-8.295.31l-.2-2.972a19.137,19.137,0,0,0,8.038-.518,10.69,10.69,0,0,0,7.733-8.537A10.007,10.007,0,0,1,2685.276,1630.854Z" transform="translate(-2669.522 -1627.976)" fill="#650000"/>
    </g>
    <g id="Group_445" data-name="Group 445" transform="translate(710.967 684.237)">
      <path id="Path_567" data-name="Path 567" d="M1138.422,1581.361a4.367,4.367,0,0,0-4.505-3.409,5.071,5.071,0,0,0-4.992,5.977,5.521,5.521,0,0,0,4.188,4.8,10.976,10.976,0,0,0,4.781.169" transform="translate(-1128.861 -1577.952)" fill="#f28475"/>
    </g>
    <g id="Group_446" data-name="Group 446" transform="translate(710.967 684.236)">
      <path id="Path_568" data-name="Path 568" d="M1128.929,1583.911a5.521,5.521,0,0,0,4.188,4.8c.257.075.514.136.769.186a11.355,11.355,0,0,0,4.014-.016l.528-7.536a4.489,4.489,0,0,0-.846-1.769,4.392,4.392,0,0,0-3.66-1.64A5.073,5.073,0,0,0,1128.929,1583.911Z" transform="translate(-1128.865 -1577.933)" fill="#f28475"/>
    </g>
    <g id="Group_447" data-name="Group 447" transform="translate(715.408 688.234)">
      <path id="Path_569" data-name="Path 569" d="M1218.257,1662.831a4.108,4.108,0,0,0,1.6,2.517,15.065,15.065,0,0,0,4.014-.012l.528-5.659a3.04,3.04,0,0,0-.846-1.328c-.1,0-.2-.006-.306-.006C1219.514,1658.34,1217.832,1660.9,1218.257,1662.831Z" transform="translate(-1218.193 -1658.343)" fill="#f29f8f"/>
    </g>
    <g id="Group_449" data-name="Group 449" transform="translate(710.176 683.447)">
      <path id="Path_571" data-name="Path 571" d="M1120.689,1574.769a10.387,10.387,0,0,1-2.912-.391,6.341,6.341,0,0,1-4.745-5.427,6.248,6.248,0,0,1,1.377-4.933,5.554,5.554,0,0,1,4.388-1.963h.007a5.144,5.144,0,0,1,5.282,4.058.791.791,0,0,1-1.555.286,3.53,3.53,0,0,0-3.729-2.763h0a4.015,4.015,0,0,0-3.183,1.4,4.626,4.626,0,0,0-1.023,3.652,4.753,4.753,0,0,0,3.632,4.168,10.24,10.24,0,0,0,4.393.154.79.79,0,0,1,.33,1.546A11.722,11.722,0,0,1,1120.689,1574.769Z" transform="translate(-1112.958 -1562.055)" fill="#650000"/>
    </g>
    <g id="Group_450" data-name="Group 450" transform="translate(703.15 677.8)">
      <path id="Path_572" data-name="Path 572" d="M984.476,1470.581a16.523,16.523,0,0,1-4.9-.7c-4.481-1.406-7.036-4.5-7.81-9.471a11.186,11.186,0,0,1,2.458-8.78,8.9,8.9,0,0,1,6.972-3.143h.011c7.326.007,8.582,6.868,8.593,6.938a.79.79,0,0,1-1.558.268h0a6.931,6.931,0,0,0-7.037-5.625H981.2a7.368,7.368,0,0,0-5.772,2.591,9.7,9.7,0,0,0-2.1,7.508c.682,4.374,2.817,6.981,6.721,8.206a17.209,17.209,0,0,0,7.882.3.79.79,0,1,1,.35,1.542A18.669,18.669,0,0,1,984.476,1470.581Z" transform="translate(-971.642 -1448.488)" fill="#650000"/>
    </g>
    <g id="Group_451" data-name="Group 451" transform="translate(716.39 638.269)">
      <path id="Path_573" data-name="Path 573" d="M1237.99,696.259c.292,5.46,1.781,11.26,4.541,15.164-2.529.464-3.769,2.907-4.128,5.444a11,11,0,0,0,.19,4.2c1.1,4.172,4.53,6.678,9.385,8.423.312.111.629.219.953.326a11.184,11.184,0,0,1-2.385-1.482c-2.589-2.077-4.362-5.184-4.522-7.616,0-.091-.008-.182-.01-.271s0-.206,0-.3c0-.083,0-.166.01-.245a6.254,6.254,0,0,1,2.139-4.373,9.051,9.051,0,0,1,3.324-1.864s-7.239-13.62.042-25.383c.059-.095.117-.192.178-.285,4.085-6.377,9.466-8.838,14.393-8.913a.091.091,0,0,1,.031,0c6.373-.085,11.978,3.824,13.011,8.411a6.831,6.831,0,0,1,.172,1.512h.164c0-5.095,5.868-9.816,12.743-9.923,5.052-.079,10.65,2.332,14.865,8.913.061.093.12.19.178.285,7.281,11.763.044,25.383.044,25.383l.028.008a9.119,9.119,0,0,1,2.986,1.591,6.46,6.46,0,0,1,2.46,5.188,7.858,7.858,0,0,1-.713,2.945v0a13.315,13.315,0,0,1-3.113,4.33,11.64,11.64,0,0,1-3.091,2.093c5.359-1.757,9.166-4.308,10.34-8.749a11.092,11.092,0,0,0,.156-4.413c-.4-2.46-1.638-4.782-4.095-5.233,2.761-3.9,4.247-9.7,4.541-15.164.919-17.164-12.735-31.468-29.952-34.408,0,0,0,0,0,0-1.542-.488-4.032-1.3-7.356-2.46a18.124,18.124,0,0,1-7.8-5.723.731.731,0,0,0-1.187.063,29.042,29.042,0,0,0-2.316,5.567.734.734,0,0,1-1.062.421c-.745-.423-1.889-1.848-2.97-2.682a.731.731,0,0,0-1.113.277,17.752,17.752,0,0,0-1.393,7.822C1245.626,670.933,1237.263,682.706,1237.99,696.259Z" transform="translate(-1237.946 -653.39)" fill="#804959"/>
    </g>
    <g id="Group_453" data-name="Group 453" transform="translate(715.6 649.221)">
      <path id="Path_575" data-name="Path 575" d="M1233.825,939.93a.781.781,0,0,1-.246-.04c-6.273-2.056-9.722-5.011-10.856-9.3a11.161,11.161,0,0,1,1.055-8.169,5.409,5.409,0,0,1,2.407-2.124c-2.307-3.722-3.785-9-4.089-14.677a31.382,31.382,0,0,1,5.177-18.945,36.873,36.873,0,0,1,14.935-12.935.79.79,0,1,1,.686,1.424c-12.346,5.953-19.89,17.874-19.219,30.371.31,5.781,1.954,11.295,4.4,14.75l.715,1.011-1.217.223a3.637,3.637,0,0,0-2.456,1.749,9.739,9.739,0,0,0-.861,6.917c1,3.771,4.026,6.3,9.82,8.2a.791.791,0,0,1-.246,1.542Z" transform="translate(-1222.051 -873.665)" fill="#650000"/>
    </g>
    <g id="Group_454" data-name="Group 454" transform="translate(760.715 645.972)">
      <path id="Path_576" data-name="Path 576" d="M2149.064,877.832a.791.791,0,0,1-.246-1.542c5.8-1.9,8.825-4.429,9.822-8.2a9.749,9.749,0,0,0-.863-6.919,3.638,3.638,0,0,0-2.454-1.747l-1.218-.224.715-1.01c2.478-3.5,4.081-8.879,4.4-14.75.833-15.537-10.7-29.495-27.431-33.219h0l-.094-.019c-.49-.111-1-.212-1.552-.311l-.074-.015a.791.791,0,0,1,.347-1.542l.017,0c.546.1,1.05.2,1.537.307l.077.016a38.461,38.461,0,0,1,20.962,12.429,31.96,31.96,0,0,1,7.791,22.437c-.306,5.684-1.784,10.958-4.09,14.677a5.408,5.408,0,0,1,2.4,2.121,11.168,11.168,0,0,1,1.057,8.171c-1.133,4.287-4.584,7.241-10.858,9.3A.788.788,0,0,1,2149.064,877.832Z" transform="translate(-2129.468 -808.318)" fill="#650000"/>
    </g>
    <g id="Group_455" data-name="Group 455" transform="translate(732.108 714.146)" opacity="0.3">
      <path id="Path_577" data-name="Path 577" d="M1598.206,2186.646c-.534.154-1.071.3-1.607.445a83.8,83.8,0,0,1-19.527,2.806,115.331,115.331,0,0,1-12.215-1.251l-1.194-.158a31.1,31.1,0,0,1-5.352-1.1c-.259-.081-.512-.162-.762-.245-1.057-.351-2.081-.739-3.472-1.164,1.66-3.789,3.063-6.448,3.063-6.448h35.193A57.291,57.291,0,0,1,1598.206,2186.646Z" transform="translate(-1554.077 -2179.526)" fill="#650000"/>
    </g>
    <g id="Group_456" data-name="Group 456" transform="translate(720.381 663.957)">
      <path id="Path_578" data-name="Path 578" d="M1318.209,1211.432a2.531,2.531,0,0,0,.087.261,23.927,23.927,0,0,0,4.522,7.616,7.889,7.889,0,0,0,1.433,1.156,5.172,5.172,0,0,0,.608.326c.457.15.925.292,1.4.429.152.045.3.087.457.128,2.514.69,3.889,1.281,5.569,1.8a31.177,31.177,0,0,0,5.352,1.1,130.466,130.466,0,0,0,13.409,1.409,83.829,83.829,0,0,0,19.527-2.806,61.72,61.72,0,0,0,9.205-3.174s0,0,0,0a15.23,15.23,0,0,0,1.449-.976,7.82,7.82,0,0,0,3.113-4.33v0a6.059,6.059,0,0,0-.016-2.733c-.014-.069.591-.585.573-.65-.012-.049-.024-.1-.038-.146a10.309,10.309,0,0,0-2.267-4.6,4.7,4.7,0,0,0-2.986-1.591,2.148,2.148,0,0,0-.372-.008s7.073-13.62-.208-25.383c-.059-.1-.119-.192-.18-.285-4.075-6.362-9.438-8.826-14.355-8.913-6.4-.113-12.042,3.808-13.079,8.411a6.825,6.825,0,0,0-.172,1.512c0-5.118-5.923-9.859-12.84-9.923a.092.092,0,0,0-.032,0c-5.018-.038-10.557,2.387-14.737,8.913-.061.093-.119.188-.178.285-7.28,11.763-.041,25.383-.041,25.383a4.375,4.375,0,0,0-2.98,1.864,11.835,11.835,0,0,0-2.093,4.407c-.018.069-.038.141-.055.211C1318.262,1211.221,1318.235,1211.325,1318.209,1211.432Z" transform="translate(-1318.209 -1170.053)" fill="#ffca9f"/>
    </g>
    <g id="Group_459" data-name="Group 459" transform="translate(735.298 637.478)">
      <path id="Path_579" data-name="Path 579" d="M1619.05,650.8a.791.791,0,0,1-.79-.765,18.579,18.579,0,0,1,1.461-8.171,1.522,1.522,0,0,1,2.317-.579,17.243,17.243,0,0,1,1.583,1.458,10.238,10.238,0,0,0,1.232,1.123,29.628,29.628,0,0,1,2.384-5.69,1.523,1.523,0,0,1,2.472-.13,19.292,19.292,0,0,0,7.475,5.483,42.333,42.333,0,0,0,8.983,2.767.79.79,0,0,1-.189,1.57c-.127-.015-3.169-.4-9.377-2.867a21.015,21.015,0,0,1-8.075-5.9,29.583,29.583,0,0,0-2.184,5.306,1.523,1.523,0,0,1-2.205.876,8.951,8.951,0,0,1-1.632-1.419,17.151,17.151,0,0,0-1.372-1.278,17.041,17.041,0,0,0-1.292,7.4.79.79,0,0,1-.764.816Z" transform="translate(-1618.249 -637.478)" fill="#650000"/>
    </g>
    <g id="Group_460" data-name="Group 460" transform="translate(754.5 700.804)">
      <path id="Path_580" data-name="Path 580" d="M2004.771,1913.087a.253.253,0,0,1-.32-.28c.077-.548.327-1.49,1.123-1.615a.845.845,0,0,1,1.074,1.023c-.11.318-.378.518-.9.628C2005.421,1912.91,2005.044,1913.008,2004.771,1913.087Z" transform="translate(-2004.448 -1911.171)" fill="#650000"/>
    </g>
    <g id="Group_461" data-name="Group 461" transform="translate(750.029 700.804)">
      <path id="Path_581" data-name="Path 581" d="M1916.429,1913.087a.253.253,0,0,0,.32-.28c-.077-.548-.326-1.49-1.123-1.615a.845.845,0,0,0-1.074,1.023c.11.318.378.518.9.628C1915.779,1912.91,1916.155,1913.008,1916.429,1913.087Z" transform="translate(-1914.525 -1911.171)" fill="#650000"/>
    </g>
    <g id="Group_462" data-name="Group 462" transform="translate(749.559 705.139)">
      <path id="Path_582" data-name="Path 582" d="M1905.987,2000.622a5.407,5.407,0,0,0,1.81.973,3.328,3.328,0,0,0,1.838.006c.145-.043.283-.107.428-.154.13-.079.266-.147.4-.227.118-.1.256-.171.366-.28l.167-.164a.918.918,0,0,0,.163-.17,4.887,4.887,0,0,0,.92-1.788l.009-.03a.586.586,0,0,1,1.146.144,4.437,4.437,0,0,1-.749,2.663,4.224,4.224,0,0,1-2.353,1.714l-.365.078a2.07,2.07,0,0,1-.368.056l-.371.021-.186.008c-.061,0-.123-.012-.184-.018a4,4,0,0,1-.725-.117,3.26,3.26,0,0,1-.687-.232,4.625,4.625,0,0,1-2.072-1.782.544.544,0,0,1,.792-.721Z" transform="translate(-1905.087 -1998.373)" fill="#650000"/>
    </g>
    <g id="Group_463" data-name="Group 463" transform="translate(719.667 663.241)">
      <path id="Path_583" data-name="Path 583" d="M1337.915,1212.772a78.308,78.308,0,0,1-18.882-2.3,45.932,45.932,0,0,1-7.806-2.556c-4.349-1.971-7.327-6.8-7.378-10.076a7.8,7.8,0,0,1,5.167-7.258,33.767,33.767,0,0,1-2.387-7.678c-1.214-6.575-.226-12.683,2.856-17.662l.056-.091c.044-.072.089-.144.135-.214a19.759,19.759,0,0,1,9.679-8.26,16.027,16.027,0,0,1,10.154-.357c4.042,1.184,7.177,3.779,8.516,6.815,1.339-3.036,4.475-5.631,8.517-6.815a16.023,16.023,0,0,1,10.154.357,19.767,19.767,0,0,1,9.684,8.269c.061.092.126.2.189.3,3.077,4.972,4.065,11.079,2.853,17.655a33.785,33.785,0,0,1-2.386,7.678,7.8,7.8,0,0,1,5.165,7.257c-.049,3.273-3.027,8.1-7.381,10.077a49.708,49.708,0,0,1-8.107,2.6A79.3,79.3,0,0,1,1337.915,1212.772Zm-12.969-55.5c-3.891,0-9.435,1.494-13.945,8.534-.043.065-.078.121-.112.178l-.061.1c-6.947,11.225-.084,24.461-.014,24.593l.465.877-.958.257c-.2.055-4.962,1.407-4.89,6.011.043,2.733,2.7,6.963,6.453,8.662a44.469,44.469,0,0,0,7.532,2.461,77.461,77.461,0,0,0,36.923.039,48.253,48.253,0,0,0,7.836-2.5c3.745-1.7,6.405-5.927,6.446-8.659.072-4.6-4.687-5.956-4.89-6.011l-.954-.26.462-.874c.07-.132,6.932-13.368-.017-24.6-.056-.093-.11-.18-.165-.264-6.639-10.364-15.509-8.722-18.069-7.972-4.687,1.372-8.089,4.967-8.089,8.546a.79.79,0,0,1-.791.79c-.027,0-.055,0-.082,0s-.054,0-.082,0a.79.79,0,0,1-.791-.79c0-3.579-3.4-7.173-8.088-8.546A14.893,14.893,0,0,0,1324.946,1157.269Z" transform="translate(-1303.848 -1155.666)" fill="#650000"/>
    </g>
    <g id="Group_464" data-name="Group 464" transform="translate(716.731 702.3)" opacity="0.3">
      <path id="Path_584" data-name="Path 584" d="M1245.109,1945.682c1.1,4.172,4.53,6.678,9.385,8.423a5.183,5.183,0,0,0,.609.326c.456.15.925.292,1.4.429.152.045.3.087.457.128,4.522,1.239,5.358,2.164,10.921,2.9a130.507,130.507,0,0,0,13.409,1.409c6.391,0,19.122-1.7,28.733-5.98,0,0,0,0,0,0a15.189,15.189,0,0,0,1.449-.977,11.645,11.645,0,0,1-3.091,2.093c5.36-1.757,9.166-4.308,10.34-8.749a11.085,11.085,0,0,0,.156-4.413,22.471,22.471,0,0,1-3.6,3.091c-.055.04-.111.079-.168.117-4.8,3.328-13.78,7.437-29.591,8.6a50.868,50.868,0,0,1-7.423,0c-15.712-1.151-24.677-5.212-29.5-8.528-.016-.012-.031-.022-.046-.033a23.3,23.3,0,0,1-3.624-3.032A11,11,0,0,0,1245.109,1945.682Z" transform="translate(-1244.803 -1941.269)" fill="#650000"/>
    </g>
    <g id="Group_479" data-name="Group 479" transform="translate(733.243 681.763)">
      <g id="Group_471" data-name="Group 471" transform="translate(0 0.37)">
        <g id="Group_465" data-name="Group 465" transform="translate(1.335 1.336)">
          <path id="Path_585" data-name="Path 585" d="M1614.357,1567.464a4.486,4.486,0,0,0-3.69,1.558,8.479,8.479,0,0,0-1.936,6.008,9.614,9.614,0,0,0,3.624,7.5,5.041,5.041,0,0,0,2.521.944c3.25.244,5.77-3.144,5.625-7.566S1617.608,1567.708,1614.357,1567.464Z" transform="translate(-1608.479 -1567.206)" fill="#fff"/>
          <path id="Path_586" data-name="Path 586" d="M1610.5,1579.036c-.117,0-.234,0-.352-.013a5.255,5.255,0,0,1-2.644-.988,9.922,9.922,0,0,1-3.728-7.7,8.739,8.739,0,0,1,2-6.183,4.751,4.751,0,0,1,3.89-1.637h0c3.368.252,6.226,4.149,6.372,8.687a8.5,8.5,0,0,1-2.264,6.457A4.669,4.669,0,0,1,1610.5,1579.036ZM1609.32,1563a4.245,4.245,0,0,0-3.178,1.49,8.25,8.25,0,0,0-1.871,5.834,9.419,9.419,0,0,0,3.519,7.311,4.764,4.764,0,0,0,2.4.9,4.16,4.16,0,0,0,3.249-1.227,8.119,8.119,0,0,0,2.113-6.085c-.138-4.293-2.793-7.976-5.917-8.211C1609.527,1563,1609.424,1563,1609.32,1563Z" transform="translate(-1603.773 -1562.504)" fill="#11116d"/>
        </g>
        <g id="Group_466" data-name="Group 466" transform="translate(2.875 1.582)">
          <path id="Path_587" data-name="Path 587" d="M1639.086,1567.464a4.486,4.486,0,0,0-3.69,1.558,6.966,6.966,0,0,0-.346.863,2.137,2.137,0,0,0,.206,2.1c.431.4.979.135,1.484.172a2.2,2.2,0,0,1,1.631,2.195c.013,1.077-.75,1.967-1.581,1.845-.578-.085-1.227-.567-1.689-.178a1.8,1.8,0,0,0-.336,1.468,8.586,8.586,0,0,0,2.207,4.929c.037.041.075.081.113.119a5.04,5.04,0,0,0,2.521.944c3.251.244,5.77-3.144,5.626-7.566S1642.337,1567.708,1639.086,1567.464Z" transform="translate(-1634.748 -1567.452)" fill="#9acbd6"/>
        </g>
        <g id="Group_467" data-name="Group 467" transform="translate(3.314 2.687)">
          <ellipse id="Ellipse_20" data-name="Ellipse 20" cx="4.772" cy="7.02" rx="4.772" ry="7.02" transform="translate(0 1.201) rotate(-7.228)" fill="#640005"/>
        </g>
        <g id="Group_469" data-name="Group 469" transform="translate(1.632 2.917)">
          <g id="Group_468" data-name="Group 468">
            <path id="Path_588" data-name="Path 588" d="M1613.02,1597.448c-.5-.037-1.052.225-1.483-.172a2.136,2.136,0,0,1-.206-2.1,6.914,6.914,0,0,1,.346-.863,8.478,8.478,0,0,0-1.935,6.008,9.612,9.612,0,0,0,3.623,7.505c-.038-.038-.076-.078-.113-.119a8.588,8.588,0,0,1-2.207-4.929,1.805,1.805,0,0,1,.336-1.467c.461-.389,1.11.093,1.689.178.831.121,1.594-.769,1.581-1.845A2.2,2.2,0,0,0,1613.02,1597.448Z" transform="translate(-1609.735 -1594.313)" fill="#fff"/>
          </g>
        </g>
        <g id="Group_470" data-name="Group 470">
          <path id="Path_589" data-name="Path 589" d="M1583.8,1537.221c.107,0,.216,0,.325.012,3.251.244,6,4.026,6.145,8.449.14,4.272-2.207,7.579-5.3,7.579q-.163,0-.329-.012a5.048,5.048,0,0,1-2.521-.944,9.614,9.614,0,0,1-3.623-7.505,8.484,8.484,0,0,1,1.935-6.009,4.526,4.526,0,0,1,3.366-1.57m0-1.582a6.123,6.123,0,0,0-4.533,2.084,10.073,10.073,0,0,0-2.349,7.127,11.137,11.137,0,0,0,4.3,8.751,6.567,6.567,0,0,0,3.308,1.224c.149.011.3.017.447.017a6.106,6.106,0,0,0,4.392-1.936,9.972,9.972,0,0,0,2.485-7.277c-.171-5.286-3.512-9.667-7.607-9.974-.149-.011-.3-.016-.443-.016Z" transform="translate(-1576.915 -1535.639)" fill="#640005"/>
        </g>
      </g>
      <g id="Group_478" data-name="Group 478" transform="translate(26.28 0)">
        <g id="Group_472" data-name="Group 472" transform="translate(1.335 1.336)">
          <path id="Path_590" data-name="Path 590" d="M2143.211,1560.023a4.484,4.484,0,0,1,3.73,1.457,8.48,8.48,0,0,1,2.1,5.954,9.613,9.613,0,0,1-3.418,7.6,5.043,5.043,0,0,1-2.5,1.012c-3.243.332-5.852-2.986-5.828-7.411S2139.968,1560.354,2143.211,1560.023Z" transform="translate(-2137.051 -1559.754)" fill="#fff"/>
          <path id="Path_591" data-name="Path 591" d="M2137.966,1571.612a4.684,4.684,0,0,1-3.186-1.289,8.493,8.493,0,0,1-2.439-6.393c.024-4.54,2.775-8.512,6.135-8.856h0a4.747,4.747,0,0,1,3.933,1.531,8.741,8.741,0,0,1,2.167,6.126,9.922,9.922,0,0,1-3.519,7.8,5.255,5.255,0,0,1-2.615,1.059A4.7,4.7,0,0,1,2137.966,1571.612Zm.56-16.048c-3.116.319-5.67,4.073-5.692,8.368a8.116,8.116,0,0,0,2.277,6.026,4.162,4.162,0,0,0,3.281,1.139,4.768,4.768,0,0,0,2.372-.965,9.418,9.418,0,0,0,3.319-7.4,8.247,8.247,0,0,0-2.028-5.781,4.26,4.26,0,0,0-3.529-1.384Z" transform="translate(-2132.341 -1555.05)" fill="#11116d"/>
        </g>
        <g id="Group_473" data-name="Group 473" transform="translate(1.582 1.582)">
          <path id="Path_592" data-name="Path 592" d="M2143.211,1560.023a4.484,4.484,0,0,1,3.73,1.457,6.945,6.945,0,0,1,.369.854,2.137,2.137,0,0,1-.149,2.1c-.42.408-.975.162-1.478.212a2.2,2.2,0,0,0-1.571,2.238c.016,1.077.8,1.945,1.63,1.8.576-.1,1.211-.6,1.683-.224a1.8,1.8,0,0,1,.376,1.458,8.593,8.593,0,0,1-2.072,4.988c-.036.041-.073.082-.11.121a5.043,5.043,0,0,1-2.5,1.012c-3.243.332-5.852-2.986-5.828-7.411S2139.968,1560.354,2143.211,1560.023Z" transform="translate(-2137.297 -1560)" fill="#9acbd6"/>
        </g>
        <g id="Group_474" data-name="Group 474" transform="translate(0.57 2.848)">
          <ellipse id="Ellipse_21" data-name="Ellipse 21" cx="7.02" cy="4.772" rx="7.02" ry="4.772" transform="matrix(0.099, -0.995, 0.995, 0.099, 0, 13.972)" fill="#640005"/>
        </g>
        <g id="Group_476" data-name="Group 476" transform="translate(8.341 2.828)">
          <g id="Group_475" data-name="Group 475">
            <path id="Path_593" data-name="Path 593" d="M2274.817,1588.246c.5-.051,1.059.2,1.479-.213a2.139,2.139,0,0,0,.149-2.1,7.014,7.014,0,0,0-.369-.854,8.481,8.481,0,0,1,2.1,5.954,9.612,9.612,0,0,1-3.419,7.6c.037-.039.074-.08.11-.121a8.59,8.59,0,0,0,2.072-4.988,1.8,1.8,0,0,0-.376-1.458c-.472-.376-1.107.123-1.683.224-.828.144-1.615-.726-1.63-1.8A2.2,2.2,0,0,1,2274.817,1588.246Z" transform="translate(-2273.248 -1585.075)" fill="#fff"/>
          </g>
        </g>
        <g id="Group_477" data-name="Group 477">
          <path id="Path_594" data-name="Path 594" d="M2113.422,1529.77a4.541,4.541,0,0,1,3.29,1.479,8.481,8.481,0,0,1,2.1,5.954,9.615,9.615,0,0,1-3.419,7.6,5.044,5.044,0,0,1-2.494,1.012,4.363,4.363,0,0,1-.445.023c-3.033,0-5.406-3.213-5.384-7.434.023-4.425,2.67-8.28,5.913-8.612a4.36,4.36,0,0,1,.441-.023m0-1.582h0a5.99,5.99,0,0,0-.6.03c-4.088.419-7.309,4.889-7.336,10.178a10.033,10.033,0,0,0,2.612,7.137,6.063,6.063,0,0,0,4.353,1.887c.2,0,.4-.01.606-.031a6.578,6.578,0,0,0,3.278-1.316,11.136,11.136,0,0,0,4.057-8.862,10.075,10.075,0,0,0-2.544-7.063,6.146,6.146,0,0,0-4.425-1.96Z" transform="translate(-2105.485 -1528.188)" fill="#640005"/>
        </g>
      </g>
    </g>
    <g id="Group_480" data-name="Group 480" transform="translate(708.819 741.405)">
      <path id="Path_595" data-name="Path 595" d="M1085.813,2728.181a.412.412,0,0,0-.076.545l.884,1.345c-1.564,5.681,3.712,14.316,11.766,11.308a3.241,3.241,0,0,0,.53-.249c.077-.046.15-.095.217-.144a2.323,2.323,0,0,0,.488-.472v0a1.719,1.719,0,0,0,.134-.2,1.552,1.552,0,0,0,.131-.311h0l.345-.33a.272.272,0,0,0,.068-.259l-.085-.364a.246.246,0,0,0-.182-.192l-.391-.08c-.019-.024-.039-.048-.06-.07v0a2.553,2.553,0,0,0-2.1-.685c-4.1-.128-6.84-2.68-8.69-6.794a4.229,4.229,0,0,0-1.3-1.921l-.406-1.263a.324.324,0,0,0-.426-.231l-.794.344a.282.282,0,0,0-.057.033" transform="translate(-1085.668 -2727.781)" fill="#fff"/>
    </g>
  </g>
</svg>
