<svg xmlns="http://www.w3.org/2000/svg" width="15.5" height="15.5" viewBox="0 0 15.5 15.5">
  <path id="diskette" d="M15.855,4.145l-3-3A.5.5,0,0,0,12.5,1H2.5A1.5,1.5,0,0,0,1,2.5v12A1.5,1.5,0,0,0,2.5,16h12A1.5,1.5,0,0,0,16,14.5V4.5A.5.5,0,0,0,15.855,4.145ZM10.5,2V5h-4V2Zm-6,13V11.5A.5.5,0,0,1,5,11h7a.5.5,0,0,1,.5.5V15ZM15,14.5a.5.5,0,0,1-.5.5h-1V11.5A1.5,1.5,0,0,0,12,10H5a1.5,1.5,0,0,0-1.5,1.5V15h-1a.5.5,0,0,1-.5-.5V2.5A.5.5,0,0,1,2.5,2h3V5a1,1,0,0,0,1,1h4a1,1,0,0,0,1-1V2h.8L15,4.7Z" transform="translate(-0.75 -0.75)" fill="#fff" stroke="#fff" stroke-width="0.5"/>
</svg>
