<svg xmlns="http://www.w3.org/2000/svg" width="16.87" height="13" viewBox="0 0 16.87 13">
  <g id="Layer_1" transform="translate(-1 -4.441)">
    <g id="Group_1163" data-name="Group 1163" transform="translate(1 4.441)">
      <g id="Group_1162" data-name="Group 1162">
        <g id="Path_988" data-name="Path 988" transform="translate(-1 -4.441)" fill="none">
          <path d="M2.033,13.74,1.007,7.07a.556.556,0,0,1,.884-.53l3.2,2.4A.764.764,0,0,0,6.182,8.75L8.844,4.758a.711.711,0,0,1,1.183,0L12.688,8.75a.764.764,0,0,0,1.094.187l3.2-2.4a.557.557,0,0,1,.884.53L16.837,13.74Z" stroke="none"/>
          <path d="M 15.97940349578857 12.74029064178467 L 16.70986938476562 7.992215633392334 L 14.38227272033691 9.737900733947754 C 14.07447242736816 9.968690872192383 13.70877265930176 10.0906810760498 13.3247127532959 10.0906810760498 C 12.73307228088379 10.0906810760498 12.18408298492432 9.796980857849121 11.8562126159668 9.30510139465332 L 9.435242652893066 5.673623561859131 L 7.014302730560303 9.305061340332031 C 6.686372756958008 9.797011375427246 6.137382507324219 10.09071063995361 5.545762538909912 10.09071063995361 C 5.161652565002441 10.09071063995361 4.795932769775391 9.968690872192383 4.488122463226318 9.737831115722656 L 2.160671710968018 7.992259979248047 L 2.891130924224854 12.74029064178467 L 15.97940349578857 12.74029064178467 M 16.83732223510742 13.74029064178467 L 2.033212661743164 13.74029064178467 C 1.691142678260803 11.51676082611084 1.34906268119812 9.293291091918945 1.006982684135437 7.069761276245117 C 0.9311226010322571 6.576860904693604 1.491952180862427 6.240691184997559 1.890882611274719 6.539921283721924 C 2.956652641296387 7.339241027832031 4.022352695465088 8.138510704040527 5.088122844696045 8.937830924987793 C 5.439022064208984 9.20101261138916 5.938952922821045 9.115361213684082 6.182222843170166 8.750401496887207 L 8.843992233276367 4.757720947265625 C 9.125272750854492 4.33579158782959 9.745212554931641 4.33579158782959 10.02649307250977 4.757720947265625 L 12.68826293945312 8.750401496887207 C 12.93153285980225 9.115360260009766 13.43146228790283 9.20095157623291 13.78236293792725 8.937830924987793 C 14.8481330871582 8.138510704040527 15.91384220123291 7.339241027832031 16.9796028137207 6.539921283721924 C 17.37853240966797 6.2406907081604 17.93936157226562 6.576860904693604 17.86355209350586 7.069761276245117 C 17.52148246765137 9.293291091918945 17.17940330505371 11.51676082611084 16.83732223510742 13.74029064178467 Z" stroke="none" fill="#0c3249"/>
        </g>
        <g id="Path_989" data-name="Path 989" transform="translate(-1.804 -12.638)" fill="none">
          <path d="M16.87,25.638H3.609a.772.772,0,0,1-.772-.772v-1.7h14.8v1.7A.772.772,0,0,1,16.87,25.638Z" stroke="none"/>
          <path d="M 16.64141654968262 24.63840293884277 L 16.64141654968262 24.17110252380371 L 3.837296009063721 24.17110252380371 L 3.837296009063721 24.63840293884277 L 16.64141654968262 24.63840293884277 M 16.86953544616699 25.63840293884277 L 3.609126091003418 25.63840293884277 C 3.182866096496582 25.63840293884277 2.837296009063721 25.29284286499023 2.837296009063721 24.8665828704834 L 2.837296009063721 23.17110252380371 L 17.64141654968262 23.17110252380371 L 17.64141654968262 24.8665828704834 C 17.64135551452637 25.29284286499023 17.29579544067383 25.63840293884277 16.86953544616699 25.63840293884277 Z" stroke="none" fill="#0c3249"/>
        </g>
      </g>
    </g>
  </g>
</svg>
