<svg xmlns="http://www.w3.org/2000/svg" width="24.375" height="30" viewBox="0 0 24.375 30">
  <g id="trash" transform="translate(-48)">
    <path id="Path_898" data-name="Path 898" d="M70.031,3.75H64.875V2.813A2.816,2.816,0,0,0,62.063,0h-3.75A2.816,2.816,0,0,0,55.5,2.813V3.75H50.344A2.346,2.346,0,0,0,48,6.094V9.375a.938.938,0,0,0,.938.938h.512l.81,17.009A2.809,2.809,0,0,0,53.069,30H67.306a2.809,2.809,0,0,0,2.809-2.679l.81-17.009h.512a.938.938,0,0,0,.938-.937V6.094A2.346,2.346,0,0,0,70.031,3.75ZM57.375,2.813a.939.939,0,0,1,.938-.937h3.75A.939.939,0,0,1,63,2.813V3.75H57.375Zm-7.5,3.281a.469.469,0,0,1,.469-.469H70.031a.469.469,0,0,1,.469.469V8.438H49.875ZM68.242,27.232a.936.936,0,0,1-.936.893H53.069a.936.936,0,0,1-.936-.893l-.806-16.92H69.048Z" fill="#0c3249"/>
    <path id="Path_899" data-name="Path 899" d="M240.938,222.063a.938.938,0,0,0,.938-.937V208.938a.938.938,0,0,0-1.875,0v12.188A.938.938,0,0,0,240.938,222.063Z" transform="translate(-180.75 -195.813)" fill="#0c3249"/>
    <path id="Path_900" data-name="Path 900" d="M320.938,222.063a.938.938,0,0,0,.938-.937V208.938a.938.938,0,0,0-1.875,0v12.188A.938.938,0,0,0,320.938,222.063Z" transform="translate(-256.063 -195.813)" fill="#0c3249"/>
    <path id="Path_901" data-name="Path 901" d="M160.938,222.063a.938.938,0,0,0,.938-.937V208.938a.938.938,0,0,0-1.875,0v12.188A.938.938,0,0,0,160.938,222.063Z" transform="translate(-105.438 -195.813)" fill="#0c3249"/>
  </g>
</svg>
