<svg xmlns="http://www.w3.org/2000/svg" width="201.423" height="185.557" viewBox="0 0 201.423 185.557">
  <g id="Group_565" data-name="Group 565" transform="translate(58.879 -26.57) rotate(30)">
    <g id="banana-leaf" transform="matrix(-0.208, 0.978, -0.978, -0.208, 120.357, 39.598)">
      <g id="Group_557" data-name="Group 557" transform="translate(1.487 9.455)">
        <path id="Path_656" data-name="Path 656" d="M50.584,73.992C34.02,90.555,11.811,90.55,1.024,90.534a.988.988,0,0,1-.988-.981c-.063-7.895-.671-22.439,6.991-36.746H19.376l-7.491-7.491a56,56,0,0,1,4.7-5.326L46.662,9.91,56.831,20.079V2.627A30.541,30.541,0,0,1,73.074.245,64.771,64.771,0,0,0,90.518.056,64.756,64.756,0,0,0,90.329,17.5a30.527,30.527,0,0,1-8.7,25.443L62.884,61.691l-8.428-8.428V70.119Z" transform="translate(0)" fill="#378381"/>
      </g>
      <g id="Group_563" data-name="Group 563" transform="translate(1.487 9.455)">
        <g id="Group_560" data-name="Group 560" transform="translate(0 9.91)">
          <g id="Group_558" data-name="Group 558" transform="translate(0 42.897)">
            <path id="Path_657" data-name="Path 657" d="M11.514,6.121C5.56,17.881,5.035,29.682,5.055,37.709c-1.471.022-2.823.02-4.031.019a.987.987,0,0,1-.987-.98C-.027,28.853-.635,14.308,7.027,0H19.4l1.649,1.649a1.982,1.982,0,0,1-1.4,3.383h-6.36a1.986,1.986,0,0,0-1.771,1.088Z" fill="#378381"/>
          </g>
          <g id="Group_559" data-name="Group 559" transform="translate(11.885 0)">
            <path id="Path_658" data-name="Path 658" d="M9.751,35.113C8.506,36.358,6.331,38.646,4.892,40.3L0,35.406A56,56,0,0,1,4.7,30.08L34.776,0,39.82,5.043Z" transform="translate(0)" fill="#378381"/>
          </g>
        </g>
        <g id="Group_561" data-name="Group 561" transform="translate(59.51 58.295)">
          <path id="Path_659" data-name="Path 659" d="M0,0,3.385,3.385,3.374,3.4,0,.021Z" transform="translate(0 0)" fill="#02905d"/>
        </g>
        <g id="Group_562" data-name="Group 562" transform="translate(56.831 0)">
          <path id="Path_660" data-name="Path 660" d="M21.3,5.277A30.543,30.543,0,0,0,5.054,7.66V20.327a1.982,1.982,0,0,1-3.383,1.4L0,20.058V2.627A30.54,30.54,0,0,1,16.243.245,64.773,64.773,0,0,0,33.687.056q-.4,2.792-.571,5.605A63.59,63.59,0,0,1,21.3,5.277Z" transform="translate(0)" fill="#378381"/>
        </g>
      </g>
      <g id="Group_564" data-name="Group 564" transform="translate(0)">
        <path id="Path_661" data-name="Path 661" d="M.761,32.533a50.3,50.3,0,0,0,11-8.318L15.2,20.778V4.537a1.486,1.486,0,0,1,2.537-1.051l7.377,7.377L35.54.435a1.486,1.486,0,1,1,2.1,2.1L26.163,14.016a1.486,1.486,0,0,1-2.1,0L18.17,8.126V21.393a1.486,1.486,0,0,1-.435,1.051l-3.872,3.873a53.271,53.271,0,0,1-11.649,8.81A1.486,1.486,0,0,1,.761,32.533Z" transform="translate(39.259 58.181)" fill="#400"/>
        <path id="Path_662" data-name="Path 662" d="M101.041,2.538l-7.624,7.624a63.194,63.194,0,0,0-.126,16.6,32.012,32.012,0,0,1-9.119,26.681l-2.365,2.365a1.486,1.486,0,0,1-2.1-2.1l2.365-2.365a29.039,29.039,0,0,0,8.273-24.2,65.412,65.412,0,0,1-.284-13.621L81.8,21.778a1.486,1.486,0,0,1-2.1-2.1l8.211-8.211a65.389,65.389,0,0,1-13.536-.291A29.03,29.03,0,0,0,59.8,13.066V29.534a1.486,1.486,0,0,1-2.537,1.051l-9.118-9.118L19.12,50.5a55.2,55.2,0,0,0-3.759,4.161l6.553,6.554a1.486,1.486,0,0,1-1.051,2.537H9.413C3.1,76.044,2.91,88.462,2.983,96.43l18.8-18.8A14.559,14.559,0,0,1,9.5,73.5a1.486,1.486,0,1,1,2.1-2.1,11.616,11.616,0,0,0,16.409,0h0L48.331,51.082a17.3,17.3,0,0,1-3.2.3A17.043,17.043,0,0,1,33,46.354a1.486,1.486,0,1,1,2.1-2.1,14.171,14.171,0,0,0,20.054,0h0L74.793,24.62a1.486,1.486,0,0,1,2.1,2.1L74.99,28.627h0a16.425,16.425,0,0,0,0,23.243,1.486,1.486,0,0,1-2.1,2.1A19.284,19.284,0,0,1,67.2,40.25a19.548,19.548,0,0,1,.478-4.309L40.449,63.168h0a14.171,14.171,0,0,0,0,20.054,1.486,1.486,0,0,1-2.1,2.1A17.043,17.043,0,0,1,33.319,73.2a17.3,17.3,0,0,1,.3-3.2L5.119,98.5c7.316-.046,18.034-.517,28.795-4.863a1.487,1.487,0,0,1,1.113,2.757c-12.659,5.112-25.091,5.093-32.518,5.083A2.483,2.483,0,0,1,.037,99.02q-.005-.636-.013-1.328C-.07,89.367-.226,75.433,7.2,61.56a1.486,1.486,0,0,1,1.31-.785h8.76l-4.953-4.953a1.486,1.486,0,0,1-.124-1.961,57.818,57.818,0,0,1,4.821-5.467L47.1,18.314a1.486,1.486,0,0,1,2.1,0l7.632,7.632V12.082a1.487,1.487,0,0,1,.884-1.359,32,32,0,0,1,17.034-2.5,63.175,63.175,0,0,0,16.514-.113L98.938.435a1.487,1.487,0,0,1,2.1,2.1Z" fill="#400"/>
      </g>
    </g>
    <g id="banana-leaf-2" data-name="banana-leaf" transform="translate(174.757 78.862) rotate(141)">
      <g id="Group_557-2" data-name="Group 557" transform="translate(1.487 9.455)">
        <path id="Path_656-2" data-name="Path 656" d="M50.584,73.992C34.02,90.555,11.811,90.55,1.024,90.534a.988.988,0,0,1-.988-.981c-.063-7.895-.671-22.439,6.991-36.746H19.376l-7.491-7.491a56,56,0,0,1,4.7-5.326L46.662,9.91,56.831,20.079V2.627A30.541,30.541,0,0,1,73.074.245,64.771,64.771,0,0,0,90.518.056,64.756,64.756,0,0,0,90.329,17.5a30.527,30.527,0,0,1-8.7,25.443L62.884,61.691l-8.428-8.428V70.119Z" transform="translate(0)" fill="#378381"/>
      </g>
      <g id="Group_563-2" data-name="Group 563" transform="translate(1.487 9.455)">
        <g id="Group_560-2" data-name="Group 560" transform="translate(0 9.91)">
          <g id="Group_558-2" data-name="Group 558" transform="translate(0 42.897)">
            <path id="Path_657-2" data-name="Path 657" d="M11.514,6.121C5.56,17.881,5.035,29.682,5.055,37.709c-1.471.022-2.823.02-4.031.019a.987.987,0,0,1-.987-.98C-.027,28.853-.635,14.308,7.027,0H19.4l1.649,1.649a1.982,1.982,0,0,1-1.4,3.383h-6.36a1.986,1.986,0,0,0-1.771,1.088Z" fill="#378381"/>
          </g>
          <g id="Group_559-2" data-name="Group 559" transform="translate(11.885 0)">
            <path id="Path_658-2" data-name="Path 658" d="M9.751,35.113C8.506,36.358,6.331,38.646,4.892,40.3L0,35.406A56,56,0,0,1,4.7,30.08L34.776,0,39.82,5.043Z" transform="translate(0)" fill="#378381"/>
          </g>
        </g>
        <g id="Group_561-2" data-name="Group 561" transform="translate(59.51 58.295)">
          <path id="Path_659-2" data-name="Path 659" d="M0,0,3.385,3.385,3.374,3.4,0,.021Z" transform="translate(0 0)" fill="#02905d"/>
        </g>
        <g id="Group_562-2" data-name="Group 562" transform="translate(56.831 0)">
          <path id="Path_660-2" data-name="Path 660" d="M21.3,5.277A30.543,30.543,0,0,0,5.054,7.66V20.327a1.982,1.982,0,0,1-3.383,1.4L0,20.058V2.627A30.54,30.54,0,0,1,16.243.245,64.773,64.773,0,0,0,33.687.056q-.4,2.792-.571,5.605A63.59,63.59,0,0,1,21.3,5.277Z" transform="translate(0)" fill="#378381"/>
        </g>
      </g>
      <g id="Group_564-2" data-name="Group 564" transform="translate(0)">
        <path id="Path_661-2" data-name="Path 661" d="M.761,32.533a50.3,50.3,0,0,0,11-8.318L15.2,20.778V4.537a1.486,1.486,0,0,1,2.537-1.051l7.377,7.377L35.54.435a1.486,1.486,0,0,1,2.1,2.1L26.163,14.016a1.486,1.486,0,0,1-2.1,0L18.17,8.126V21.393a1.486,1.486,0,0,1-.435,1.051l-3.872,3.873a53.271,53.271,0,0,1-11.649,8.81A1.486,1.486,0,0,1,.761,32.533Z" transform="translate(39.259 58.181)" fill="#400"/>
        <path id="Path_662-2" data-name="Path 662" d="M101.041,2.538l-7.624,7.624a63.194,63.194,0,0,0-.126,16.6,32.012,32.012,0,0,1-9.119,26.681l-2.365,2.365a1.486,1.486,0,0,1-2.1-2.1l2.365-2.365a29.039,29.039,0,0,0,8.273-24.2,65.412,65.412,0,0,1-.284-13.621L81.8,21.778a1.486,1.486,0,0,1-2.1-2.1l8.211-8.211a65.389,65.389,0,0,1-13.536-.291A29.03,29.03,0,0,0,59.8,13.066V29.534a1.486,1.486,0,0,1-2.537,1.051l-9.118-9.118L19.12,50.5a55.2,55.2,0,0,0-3.759,4.161l6.553,6.554a1.486,1.486,0,0,1-1.051,2.537H9.413C3.1,76.044,2.91,88.462,2.983,96.43l18.8-18.8A14.559,14.559,0,0,1,9.5,73.5a1.486,1.486,0,1,1,2.1-2.1,11.616,11.616,0,0,0,16.409,0h0L48.331,51.082a17.3,17.3,0,0,1-3.2.3A17.043,17.043,0,0,1,33,46.354a1.486,1.486,0,1,1,2.1-2.1,14.171,14.171,0,0,0,20.054,0h0L74.793,24.62a1.486,1.486,0,0,1,2.1,2.1L74.99,28.627h0a16.425,16.425,0,0,0,0,23.243,1.486,1.486,0,0,1-2.1,2.1A19.284,19.284,0,0,1,67.2,40.25a19.548,19.548,0,0,1,.478-4.309L40.449,63.168h0a14.171,14.171,0,0,0,0,20.054,1.486,1.486,0,0,1-2.1,2.1A17.043,17.043,0,0,1,33.319,73.2a17.3,17.3,0,0,1,.3-3.2L5.119,98.5c7.316-.046,18.034-.517,28.795-4.863a1.487,1.487,0,0,1,1.113,2.757c-12.659,5.112-25.091,5.093-32.518,5.083A2.483,2.483,0,0,1,.037,99.02q-.005-.636-.013-1.328C-.07,89.367-.226,75.433,7.2,61.56a1.486,1.486,0,0,1,1.31-.785h8.76l-4.953-4.953a1.486,1.486,0,0,1-.124-1.961,57.818,57.818,0,0,1,4.821-5.467L47.1,18.314a1.486,1.486,0,0,1,2.1,0l7.632,7.632V12.082a1.487,1.487,0,0,1,.884-1.359,32,32,0,0,1,17.034-2.5,63.175,63.175,0,0,0,16.514-.113L98.938.435a1.487,1.487,0,0,1,2.1,2.1Z" fill="#400"/>
      </g>
    </g>
    <g id="banana-leaf-3" data-name="banana-leaf" transform="matrix(-0.996, 0.087, -0.087, -0.996, 192.37, 133.879)">
      <g id="Group_557-3" data-name="Group 557" transform="translate(1.487 9.455)">
        <path id="Path_656-3" data-name="Path 656" d="M50.584,73.992C34.02,90.555,11.811,90.55,1.024,90.534a.988.988,0,0,1-.988-.981c-.063-7.895-.671-22.439,6.991-36.746H19.376l-7.491-7.491a56,56,0,0,1,4.7-5.326L46.662,9.91,56.831,20.079V2.627A30.541,30.541,0,0,1,73.074.245,64.771,64.771,0,0,0,90.518.056,64.756,64.756,0,0,0,90.329,17.5a30.526,30.526,0,0,1-8.7,25.443L62.884,61.691l-8.428-8.428V70.119Z" transform="translate(0)" fill="#378381"/>
      </g>
      <g id="Group_563-3" data-name="Group 563" transform="translate(1.487 9.455)">
        <g id="Group_560-3" data-name="Group 560" transform="translate(0 9.91)">
          <g id="Group_558-3" data-name="Group 558" transform="translate(0 42.897)">
            <path id="Path_657-3" data-name="Path 657" d="M11.514,6.121C5.56,17.881,5.035,29.682,5.055,37.709c-1.471.022-2.823.02-4.031.019a.987.987,0,0,1-.987-.98C-.027,28.853-.635,14.308,7.027,0H19.4l1.649,1.649a1.982,1.982,0,0,1-1.4,3.383h-6.36a1.986,1.986,0,0,0-1.771,1.088Z" transform="translate(0 0)" fill="#378381"/>
          </g>
          <g id="Group_559-3" data-name="Group 559" transform="translate(11.885 0)">
            <path id="Path_658-3" data-name="Path 658" d="M9.751,35.113C8.506,36.358,6.331,38.646,4.892,40.3L0,35.406A56,56,0,0,1,4.7,30.08L34.776,0,39.82,5.043Z" fill="#378381"/>
          </g>
        </g>
        <g id="Group_561-3" data-name="Group 561" transform="translate(59.51 58.295)">
          <path id="Path_659-3" data-name="Path 659" d="M0,0,3.385,3.385,3.374,3.4,0,.021Z" transform="translate(0 0)" fill="#02905d"/>
        </g>
        <g id="Group_562-3" data-name="Group 562" transform="translate(56.831 0)">
          <path id="Path_660-3" data-name="Path 660" d="M21.3,5.277A30.543,30.543,0,0,0,5.054,7.66V20.327a1.982,1.982,0,0,1-3.383,1.4L0,20.058V2.627A30.54,30.54,0,0,1,16.243.245,64.773,64.773,0,0,0,33.687.056q-.4,2.792-.571,5.605A63.59,63.59,0,0,1,21.3,5.277Z" transform="translate(0)" fill="#378381"/>
        </g>
      </g>
      <g id="Group_564-3" data-name="Group 564" transform="translate(0)">
        <path id="Path_661-3" data-name="Path 661" d="M.761,32.533a50.3,50.3,0,0,0,11-8.318L15.2,20.778V4.537a1.486,1.486,0,0,1,2.537-1.051l7.377,7.377L35.54.435a1.486,1.486,0,1,1,2.1,2.1L26.163,14.016a1.486,1.486,0,0,1-2.1,0L18.17,8.126V21.393a1.486,1.486,0,0,1-.435,1.051l-3.872,3.873a53.271,53.271,0,0,1-11.649,8.81A1.486,1.486,0,0,1,.761,32.533Z" transform="translate(39.259 58.181)" fill="#400"/>
        <path id="Path_662-3" data-name="Path 662" d="M101.041,2.538l-7.624,7.624a63.194,63.194,0,0,0-.126,16.6,32.012,32.012,0,0,1-9.119,26.681l-2.365,2.365a1.486,1.486,0,0,1-2.1-2.1l2.365-2.365a29.039,29.039,0,0,0,8.273-24.2,65.412,65.412,0,0,1-.284-13.621L81.8,21.778a1.486,1.486,0,0,1-2.1-2.1l8.211-8.211a65.389,65.389,0,0,1-13.536-.291A29.03,29.03,0,0,0,59.8,13.066V29.534a1.486,1.486,0,0,1-2.537,1.051l-9.118-9.118L19.12,50.5a55.2,55.2,0,0,0-3.759,4.161l6.553,6.554a1.486,1.486,0,0,1-1.051,2.537H9.413C3.1,76.044,2.91,88.462,2.983,96.43l18.8-18.8A14.559,14.559,0,0,1,9.5,73.5a1.486,1.486,0,1,1,2.1-2.1,11.616,11.616,0,0,0,16.409,0h0L48.331,51.082a17.3,17.3,0,0,1-3.2.3A17.043,17.043,0,0,1,33,46.354a1.486,1.486,0,1,1,2.1-2.1,14.171,14.171,0,0,0,20.054,0h0L74.793,24.62a1.486,1.486,0,0,1,2.1,2.1L74.99,28.627h0a16.425,16.425,0,0,0,0,23.243,1.486,1.486,0,1,1-2.1,2.1A19.284,19.284,0,0,1,67.2,40.25a19.548,19.548,0,0,1,.478-4.309L40.449,63.168h0a14.171,14.171,0,0,0,0,20.054,1.486,1.486,0,0,1-2.1,2.1A17.043,17.043,0,0,1,33.319,73.2a17.3,17.3,0,0,1,.3-3.2L5.119,98.5c7.316-.046,18.034-.517,28.795-4.863a1.487,1.487,0,0,1,1.113,2.757c-12.659,5.112-25.091,5.093-32.518,5.083A2.483,2.483,0,0,1,.037,99.02q-.005-.636-.013-1.328C-.07,89.367-.226,75.433,7.2,61.56a1.486,1.486,0,0,1,1.31-.785h8.76l-4.953-4.953a1.486,1.486,0,0,1-.124-1.961,57.818,57.818,0,0,1,4.821-5.467L47.1,18.314a1.486,1.486,0,0,1,2.1,0l7.632,7.632V12.082a1.487,1.487,0,0,1,.884-1.359,32,32,0,0,1,17.034-2.5,63.175,63.175,0,0,0,16.514-.113L98.938.435a1.487,1.487,0,0,1,2.1,2.1Z" fill="#400"/>
      </g>
    </g>
  </g>
</svg>
