<svg xmlns="http://www.w3.org/2000/svg" width="38.407" height="40.38" viewBox="0 0 38.407 40.38">
  <g id="Group_946" data-name="Group 946" transform="translate(-689.103 -637.478)">
    <g id="Group_377" data-name="Group 377" transform="translate(715.358 655.203)">
      <path id="Path_503" data-name="Path 503" d="M2467.683,1854.562a4.233,4.233,0,0,0,4.436-2.248c1.389-2.747-1.448-5.982-1.523-8.463-.1-3.359,2.141-6.387,6-5.452,3.915.948,3.5,5.719,1.6,6.955-1.122.728-2.1.446-2.452-.807s1.234-2.077.657-3.057-2.7-.912-3.111,1.157,1.406,5.588,1.563,7.871a5.834,5.834,0,0,1-2.951,5.311,7.174,7.174,0,0,1-4.061,1.015Z" transform="translate(-2467.683 -1838.226)" fill="#804959"/>
    </g>
    <g id="Group_379" data-name="Group 379" transform="translate(715.435 667.56)" opacity="0.3">
      <path id="Path_505" data-name="Path 505" d="M2480,2675.308a5.841,5.841,0,0,1-2.956,5.245,7.169,7.169,0,0,1-4.061,1.015l-.079-1.157a8.97,8.97,0,0,0,3.943-1.054A6.09,6.09,0,0,0,2480,2675.308Z" transform="translate(-2472.902 -2675.308)" fill="#650000"/>
    </g>
    <g id="Group_380" data-name="Group 380" transform="translate(720.896 656.632)" opacity="0.3">
      <path id="Path_506" data-name="Path 506" d="M2842.894,1937.964c-.009.045-.017.091-.025.137a3.975,3.975,0,0,1,.028-1.348c.466-2.072,2.77-2.153,3.392-1.176.294.461.063.891-.224,1.347a.957.957,0,0,0-.059-.117C2845.428,1935.827,2843.309,1935.9,2842.894,1937.964Z" transform="translate(-2842.826 -1934.973)" fill="#650000"/>
    </g>
    <g id="Group_381" data-name="Group 381" transform="translate(723.365 660.233)" opacity="0.3">
      <path id="Path_507" data-name="Path 507" d="M3013.9,2178.969a3.36,3.36,0,0,1-1.292,2.1c-1.122.728-2.1.446-2.452-.807a1.651,1.651,0,0,1,.2-1.251.17.17,0,0,0,.007.027c.377,1.251,1.438,1.527,2.662.792A2.808,2.808,0,0,0,3013.9,2178.969Z" transform="translate(-3010.109 -2178.969)" fill="#650000"/>
    </g>
    <g id="Group_382" data-name="Group 382" transform="translate(715.103 654.968)">
      <path id="Path_508" data-name="Path 508" d="M2451.219,1841.4a3.6,3.6,0,0,1-.422-.021l-.191-.024-.19-2.776.3.055a3.963,3.963,0,0,0,4.184-2.123c.815-1.612.077-3.433-.636-5.193a9.779,9.779,0,0,1-.912-3.157,6,6,0,0,1,1.981-4.873,4.8,4.8,0,0,1,4.31-.814,3.949,3.949,0,0,1,3.117,3.261,4.236,4.236,0,0,1-1.446,4.119,1.983,1.983,0,0,1-1.781.342,1.783,1.783,0,0,1-1.024-1.282,2.23,2.23,0,0,1,.423-1.79c.3-.516.471-.85.258-1.212a1.226,1.226,0,0,0-1.263-.475,1.813,1.813,0,0,0-1.416,1.559c-.23,1.146.28,2.822.773,4.443a16.469,16.469,0,0,1,.793,3.366,6.043,6.043,0,0,1-3.069,5.532A7.813,7.813,0,0,1,2451.219,1841.4Zm-.172-.474a7.3,7.3,0,0,0,3.725-1,5.563,5.563,0,0,0,2.832-5.091,16.111,16.111,0,0,0-.774-3.261c-.51-1.677-1.038-3.41-.784-4.672a2.263,2.263,0,0,1,1.8-1.929,1.677,1.677,0,0,1,1.745.7c.363.615.033,1.184-.257,1.685a1.818,1.818,0,0,0-.377,1.427,1.341,1.341,0,0,0,.738.971,1.548,1.548,0,0,0,1.36-.3,3.805,3.805,0,0,0,1.239-3.646,3.455,3.455,0,0,0-2.765-2.884,4.347,4.347,0,0,0-3.9.723,5.531,5.531,0,0,0-1.807,4.494,9.5,9.5,0,0,0,.877,2.994c.718,1.772,1.532,3.78.621,5.582a4.227,4.227,0,0,1-2.908,2.3,5.049,5.049,0,0,1-1.483.108Z" transform="translate(-2450.416 -1822.291)" fill="#650000"/>
    </g>
    <g id="Group_383" data-name="Group 383" transform="translate(700.287 660.242)">
      <path id="Path_509" data-name="Path 509" d="M1451.562,2179.526v9.388l-4.533-.622a1.8,1.8,0,0,1-.131-.322c-.486-1.583.6-4.566,1.464-6.529.493-1.125.909-1.915.909-1.915Z" transform="translate(-1446.777 -2179.526)" fill="#b17e4f"/>
    </g>
    <g id="Group_384" data-name="Group 384" transform="translate(700.287 660.242)">
      <path id="Path_510" data-name="Path 510" d="M1451.55,2179.516v9.388l-3.906-.535-.627-.086a1.8,1.8,0,0,1-.132-.322c-.486-1.583.6-4.566,1.464-6.529.493-1.125.91-1.915.91-1.915Z" transform="translate(-1446.766 -2179.516)" fill="#804959"/>
    </g>
    <g id="Group_385" data-name="Group 385" transform="translate(701.166 661.94)" opacity="0.3">
      <path id="Path_511" data-name="Path 511" d="M1510.194,2294.587v7.69l-3.906-.536a18.022,18.022,0,0,1,1.57-5.239c.493-1.125.91-1.914.91-1.914Z" transform="translate(-1506.288 -2294.587)" fill="#650000"/>
    </g>
    <g id="Group_386" data-name="Group 386" transform="translate(700.057 660.007)">
      <path id="Path_512" data-name="Path 512" d="M1436.423,2173.519l-4.919-.675-.056-.106c-1.236-2.334,2.1-8.715,2.242-8.985l.066-.125h2.667Zm-4.611-1.107,4.142.568V2164.1h-1.913C1433.586,2164.987,1430.924,2170.373,1431.811,2172.412Z" transform="translate(-1431.173 -2163.627)" fill="#650000"/>
    </g>
    <g id="Group_387" data-name="Group 387" transform="translate(699.5 660.242)">
      <path id="Path_513" data-name="Path 513" d="M1411.222,2192.4a4.743,4.743,0,0,1-5.158,3.136l-.147-.715a25.268,25.268,0,0,1-5.83-.685,19.443,19.443,0,0,0-6-.071l-.634-4.8a3.264,3.264,0,0,1,.907-1.3,2.377,2.377,0,0,1,.83-.445,3.8,3.8,0,0,1,1.286-.183l.379-5.557.155-2.26h10.173a16.992,16.992,0,0,1,1.744,2.114C1411.581,2185.448,1412.164,2189.691,1411.222,2192.4Z" transform="translate(-1393.453 -2179.526)" fill="#804959"/>
    </g>
    <g id="Group_388" data-name="Group 388" transform="translate(699.5 669.605)" opacity="0.3">
      <path id="Path_514" data-name="Path 514" d="M1405.917,2819.726a25.237,25.237,0,0,1-5.83-.685,19.429,19.429,0,0,0-6-.071l-.634-4.8a3.842,3.842,0,0,1,.176-.377l.511,3.87a19.441,19.441,0,0,1,6,.07,25.558,25.558,0,0,0,5.509.688Z" transform="translate(-1393.453 -2813.792)" fill="#650000"/>
    </g>
    <g id="Group_389" data-name="Group 389" transform="translate(699.259 667.82)">
      <path id="Path_515" data-name="Path 515" d="M1389.5,2700.87a25.438,25.438,0,0,1-5.548-.694,19.381,19.381,0,0,0-5.911-.069l-.241.042-.674-5.106.024-.057a3.023,3.023,0,0,1,1.886-1.878,4.03,4.03,0,0,1,1.364-.192.235.235,0,1,1-.021.469,3.577,3.577,0,0,0-1.207.173,2.588,2.588,0,0,0-1.564,1.549l.594,4.5a19.814,19.814,0,0,1,5.84.108l.017,0a23.4,23.4,0,0,0,6.985.6v-4.275a.235.235,0,0,1,.469,0v4.69l-.2.026A14.21,14.21,0,0,1,1389.5,2700.87Z" transform="translate(-1377.13 -2692.913)" fill="#650000"/>
    </g>
    <g id="Group_390" data-name="Group 390" transform="translate(703.057 660.242)">
      <path id="Path_516" data-name="Path 516" d="M1646.95,2191.045a2.779,2.779,0,0,0-2.721-1.618,1.96,1.96,0,0,0-1.676,1.882l.869,4.232a4.743,4.743,0,0,0,5.158-3.135c1.121-3.228.082-8.624-4.04-12.877h-10.173" transform="translate(-1634.368 -2179.529)" fill="#b17e4f"/>
    </g>
    <g id="Group_391" data-name="Group 391" transform="translate(703.057 660.242)">
      <path id="Path_517" data-name="Path 517" d="M1646.95,2191.045a2.779,2.779,0,0,0-2.721-1.618,1.96,1.96,0,0,0-1.676,1.882l.869,4.232a4.743,4.743,0,0,0,5.158-3.135c1.121-3.228.082-8.624-4.04-12.877h-10.173Z" transform="translate(-1634.368 -2179.529)" fill="#804959"/>
    </g>
    <g id="Group_397" data-name="Group 397" transform="translate(696.751 669.222)">
      <g id="Group_392" data-name="Group 392" transform="translate(0.246 0.182)">
        <path id="Path_518" data-name="Path 518" d="M1226.786,2805.588s1.738.094,1.464-1.875a.872.872,0,0,1,.049-.427c.192-.5.615-1.768.219-2.194-.486-.525-.883.069-.977.225a.011.011,0,0,1-.02-.005c0-.187-.059-.973-.658-1.1s-.676.617-.683.781a.011.011,0,0,1-.02.006c-.1-.126-.548-.664-1.051-.312-.426.3-.218.873-.148,1.036a.011.011,0,0,1-.016.013c-.13-.1-.58-.423-.923-.14-.406.335.11,1.987.645,2.684A2.694,2.694,0,0,0,1226.786,2805.588Z" transform="translate(-1223.876 -2800.197)" fill="#f9d6b6"/>
      </g>
      <g id="Group_393" data-name="Group 393" transform="translate(1.455 2.072)">
        <ellipse id="Ellipse_15" data-name="Ellipse 15" cx="0.827" cy="1.123" rx="0.827" ry="1.123" transform="translate(0 0.523) rotate(-18.449)" fill="#f28475"/>
      </g>
      <g id="Group_394" data-name="Group 394" transform="translate(0 0.655)">
        <path id="Path_519" data-name="Path 519" d="M1208.5,2833.408a.658.658,0,0,0-.292-.135.562.562,0,0,0-.293.006.278.278,0,0,0-.168.144.725.725,0,0,0-.051.309,2.7,2.7,0,0,0,.145.756,4.765,4.765,0,0,0,.311.738,3.836,3.836,0,0,0,.2.341c.036.054.073.106.112.157l.127.16a3.89,3.89,0,0,0,.545.57,2.011,2.011,0,0,0,.649.363,2.2,2.2,0,0,0,.366.086,1.9,1.9,0,0,0,.19.022l.048,0h.036c.027,0,.057,0,.087,0a1.355,1.355,0,0,0,.663-.21.95.95,0,0,0,.383-.528,1.869,1.869,0,0,0,.052-.732l-.01-.1a1.162,1.162,0,0,1-.01-.135,1.114,1.114,0,0,1,.029-.271,1.133,1.133,0,0,1,.039-.131l.038-.1c.024-.064.047-.128.07-.192a6.124,6.124,0,0,0,.22-.779,2.966,2.966,0,0,0,.055-.385,1.252,1.252,0,0,0-.018-.349.444.444,0,0,0-.048-.125.124.124,0,0,0-.015-.022.2.2,0,0,0-.02-.023.707.707,0,0,0-.054-.052.35.35,0,0,0-.1-.063.235.235,0,0,0-.1-.014.544.544,0,0,0-.266.131,1.219,1.219,0,0,0-.241.27l-.01.014a.106.106,0,0,1-.195-.069.936.936,0,0,1,.185-.451.812.812,0,0,1,.434-.316.642.642,0,0,1,.317,0,.745.745,0,0,1,.268.134,1.094,1.094,0,0,1,.1.091.494.494,0,0,1,.05.056.509.509,0,0,1,.046.063.907.907,0,0,1,.111.263,1.7,1.7,0,0,1,.038.49,3.4,3.4,0,0,1-.056.45,6.543,6.543,0,0,1-.224.847c-.023.069-.046.137-.071.206l-.035.1a.615.615,0,0,0-.033.219.724.724,0,0,0,.007.075l.014.114a2.342,2.342,0,0,1-.066.938,1.542,1.542,0,0,1-.22.454,1.468,1.468,0,0,1-.366.357,1.691,1.691,0,0,1-.448.215,2.084,2.084,0,0,1-.475.09c-.04,0-.081,0-.124,0h-.034c-.017,0-.026,0-.035,0l-.058-.006c-.076-.007-.153-.014-.229-.028a2.815,2.815,0,0,1-.452-.111,2.543,2.543,0,0,1-.811-.462,4.356,4.356,0,0,1-.614-.651c-.046-.057-.088-.112-.133-.172s-.09-.126-.13-.189a4.312,4.312,0,0,1-.219-.39,5.245,5.245,0,0,1-.327-.821,3.134,3.134,0,0,1-.15-.9,1.162,1.162,0,0,1,.107-.512.684.684,0,0,1,.471-.364.778.778,0,0,1,.532.089.8.8,0,0,1,.2.16.465.465,0,0,1,.125.245.089.089,0,0,1-.149.079Z" transform="translate(-1207.232 -2832.28)" fill="#650000"/>
      </g>
      <g id="Group_395" data-name="Group 395" transform="translate(1.052 0.338)">
        <path id="Path_520" data-name="Path 520" d="M1279.951,2811.733a.762.762,0,0,0-.359-.472.521.521,0,0,0-.255-.069.4.4,0,0,0-.219.07c-.016.01-.031.024-.047.035s-.03.013-.045.021a.285.285,0,0,0-.078.068.529.529,0,0,0-.095.251,1.114,1.114,0,0,0,0,.322,1.156,1.156,0,0,0,.036.162c.016.053.038.1.052.15l0,.014a.073.073,0,0,1-.11.081.471.471,0,0,1-.136-.158,1.468,1.468,0,0,1-.2-.57.932.932,0,0,1,.052-.451.748.748,0,0,1,.137-.221.678.678,0,0,1,.1-.09.741.741,0,0,1,.11-.055.853.853,0,0,1,.485-.051.913.913,0,0,1,.411.2,1.053,1.053,0,0,1,.377.732.115.115,0,0,1-.225.037Z" transform="translate(-1278.5 -2810.757)" fill="#650000"/>
      </g>
      <g id="Group_396" data-name="Group 396" transform="translate(2.458 0)">
        <path id="Path_521" data-name="Path 521" d="M1375.017,2789.226a1.061,1.061,0,0,0-.033-.292,1.019,1.019,0,0,0-.117-.273.689.689,0,0,0-.167-.188.285.285,0,0,0-.156-.059.093.093,0,0,0-.021,0h-.025c-.02,0-.037,0-.055,0a.539.539,0,0,0-.1.021.4.4,0,0,0-.179.11.637.637,0,0,0-.14.236,1.263,1.263,0,0,0-.052.292v.016a.094.094,0,0,1-.177.034.817.817,0,0,1-.069-.388,1.054,1.054,0,0,1,.085-.405.737.737,0,0,1,.316-.349.793.793,0,0,1,.228-.081.945.945,0,0,1,.115-.014.419.419,0,0,1,.061,0,.487.487,0,0,1,.065,0,.692.692,0,0,1,.448.233.942.942,0,0,1,.2.384,1.556,1.556,0,0,1,.052.388,1.006,1.006,0,0,1-.058.389.115.115,0,0,1-.221-.045Z" transform="translate(-1373.727 -2787.885)" fill="#650000"/>
      </g>
    </g>
    <g id="Group_398" data-name="Group 398" transform="translate(702.822 660.007)">
      <path id="Path_522" data-name="Path 522" d="M1628.265,2180.132c-.169,0-.344-.006-.524-.019l-.178-.012-.91-4.429v-.024a2.183,2.183,0,0,1,1.888-2.116.235.235,0,1,1,.045.467,1.72,1.72,0,0,0-1.464,1.626l.828,4.031a4.482,4.482,0,0,0,4.743-2.989,10.156,10.156,0,0,0-.058-5.914,15.817,15.817,0,0,0-3.86-6.651H1618.7a.235.235,0,0,1,0-.469h10.273l.069.071a16.314,16.314,0,0,1,4.043,6.924,10.62,10.62,0,0,1,.049,6.193A4.9,4.9,0,0,1,1628.265,2180.132Z" transform="translate(-1618.468 -2163.632)" fill="#650000"/>
    </g>
    <g id="Group_399" data-name="Group 399" transform="translate(703.591 663.66)">
      <ellipse id="Ellipse_16" data-name="Ellipse 16" cx="3.693" cy="4.596" rx="3.693" ry="4.596" transform="translate(0)" fill="#ffca9f"/>
    </g>
    <g id="Group_400" data-name="Group 400" transform="translate(708.649 668.753)">
      <path id="Path_523" data-name="Path 523" d="M2013.211,2761.168c2.149.223,5.111-3.46,5.111-5.066" transform="translate(-2013.211 -2756.102)" fill="#b17e4f"/>
    </g>
    <g id="Group_401" data-name="Group 401" transform="translate(711.528 663.934)">
      <path id="Path_524" data-name="Path 524" d="M2208.245,2429.676" transform="translate(-2208.245 -2429.676)" fill="#b17e4f"/>
    </g>
    <g id="Group_402" data-name="Group 402" transform="translate(702.286 662.921)">
      <path id="Path_525" data-name="Path 525" d="M1583.033,2361.094a4.533,4.533,0,0,1,.094,1.29c-.012.214-.038.426-.06.639l-.057.639c-.038.426-.083.853-.136,1.28l-.044.321-.051.321c-.016.107-.041.216-.061.323s-.054.219-.081.328a.234.234,0,0,1-.456-.109l.006-.025c.023-.1.052-.19.071-.292s.042-.2.058-.3l.049-.31.043-.313c.052-.418.1-.84.135-1.262.018-.211.038-.423.05-.635s.017-.424.035-.636a5.085,5.085,0,0,1,.249-1.262h0a.081.081,0,0,1,.1-.05A.082.082,0,0,1,1583.033,2361.094Z" transform="translate(-1582.175 -2361.032)" fill="#650000"/>
    </g>
    <g id="Group_403" data-name="Group 403" transform="translate(706.859 663.934)">
      <path id="Path_526" data-name="Path 526" d="M1896.584,2429.676s.458,5.241-4.665,6.71c0,0-.189,2.97,1.786,3.175,2.149.223,5.111-3.461,5.111-5.066" transform="translate(-1891.915 -2429.676)" fill="#804959"/>
    </g>
    <g id="Group_405" data-name="Group 405" transform="translate(706.859 669.293)" opacity="0.3">
      <path id="Path_528" data-name="Path 528" d="M1898.73,2792.675c-.5,1.765-3.091,4.727-5.025,4.527-1.974-.206-1.786-3.176-1.786-3.176.158-.045.31-.094.456-.145.1.9.469,2.2,1.755,2.334C1895.734,2796.382,1897.79,2794.373,1898.73,2792.675Z" transform="translate(-1891.915 -2792.675)" fill="#650000"/>
    </g>
    <g id="Group_406" data-name="Group 406" transform="translate(706.624 663.874)">
      <path id="Path_529" data-name="Path 529" d="M1881,2425.651a2.268,2.268,0,0,1,.119.567,3.4,3.4,0,0,1,.007.572,5.473,5.473,0,0,1-.189,1.127,7.369,7.369,0,0,1-.93,2.09,6.012,6.012,0,0,1-1.611,1.631,7.171,7.171,0,0,1-2.073.955l.17-.211c-.006.115-.005.248,0,.372s.013.252.026.377a4.521,4.521,0,0,0,.134.738,2.108,2.108,0,0,0,.727,1.187,1.4,1.4,0,0,0,.624.244,1.645,1.645,0,0,0,.686-.056,4.309,4.309,0,0,0,1.321-.683,8.966,8.966,0,0,0,1.157-1.011,11.08,11.08,0,0,0,1-1.179c.152-.208.3-.42.431-.638a5.243,5.243,0,0,0,.357-.675c.1-.231.2-.461.281-.691a5.875,5.875,0,0,0,.22-.7v-.005a.083.083,0,0,1,.153-.021,1,1,0,0,1,.111.427,1.711,1.711,0,0,1-.035.428,3,3,0,0,1-.286.781,10.831,10.831,0,0,1-.856,1.377,11.627,11.627,0,0,1-1.041,1.229,9.422,9.422,0,0,1-1.218,1.064,4.743,4.743,0,0,1-1.472.756,2.487,2.487,0,0,1-.429.08,1.925,1.925,0,0,1-.448-.012,1.861,1.861,0,0,1-.831-.327,2.1,2.1,0,0,1-.586-.658,3.283,3.283,0,0,1-.321-.785,5.034,5.034,0,0,1-.149-.814q-.021-.2-.028-.41c0-.139-.006-.27,0-.418l.009-.164.161-.047a6.7,6.7,0,0,0,1.937-.891,5.541,5.541,0,0,0,1.486-1.5,5.869,5.869,0,0,0,.837-1.954c.081-.348.146-.7.2-1.053.027-.177.053-.355.085-.534s.063-.36.105-.541v0a.081.081,0,0,1,.155-.009Z" transform="translate(-1876.014 -2425.598)" fill="#650000"/>
    </g>
    <g id="Group_407" data-name="Group 407" transform="translate(698.719 674.183)">
      <path id="Path_530" data-name="Path 530" d="M1348.025,3127.377l4.827-1.877v-.7l-9.522-.856-2.76,2.571Z" transform="translate(-1340.57 -3123.942)" fill="#b5b5b5"/>
    </g>
    <g id="Group_408" data-name="Group 408" transform="translate(703.272 675.023)">
      <path id="Path_531" data-name="Path 531" d="M1651.01,3182.075l2.534-.857a.066.066,0,0,0-.016-.128l-3.537-.28-1.031,1.311Z" transform="translate(-1648.961 -3180.81)" fill="#fff"/>
    </g>
    <g id="Group_409" data-name="Group 409" transform="translate(706.175 675.08)">
      <path id="Path_532" data-name="Path 532" d="M1845.763,3187.14l4.592-1.785a.118.118,0,0,0,.075-.11v-.463a.117.117,0,0,0-.151-.112l-4.592,1.378a.117.117,0,0,0-.084.113v.871A.117.117,0,0,0,1845.763,3187.14Z" transform="translate(-1845.603 -3184.664)" fill="#b5b5b5"/>
    </g>
    <g id="Group_410" data-name="Group 410" transform="translate(706.175 675.444)" opacity="0.3">
      <path id="Path_533" data-name="Path 533" d="M1850.447,3209.358v.216a.116.116,0,0,1-.075.109l-4.592,1.786a.117.117,0,0,1-.16-.108v-.421c0,.083.083.006.16-.024Z" transform="translate(-1845.62 -3209.358)" fill="#650000"/>
    </g>
    <g id="Group_411" data-name="Group 411" transform="translate(698.188 673.94)">
      <path id="Path_534" data-name="Path 534" d="M1312.565,3111.392l-.058-.007-7.96-.921,3.208-2.99,9.84.885v1.077Zm-6.955-1.278,6.893.8,4.623-1.8v-.327l-9.2-.828Z" transform="translate(-1304.547 -3107.475)" fill="#650000"/>
    </g>
    <g id="Group_412" data-name="Group 412" transform="translate(689.337 664.52)">
      <path id="Path_535" data-name="Path 535" d="M721.489,2481.3l-12.881-1.49a.235.235,0,0,1-.2-.158l-.26-.764-.583-1.713-2.553-7.494a.235.235,0,0,1,.249-.309l11.8,1.365.126.015.952.111a.234.234,0,0,1,.2.157l3.4,9.971A.235.235,0,0,1,721.489,2481.3Z" transform="translate(-705.005 -2469.369)" fill="#b5b5b5"/>
    </g>
    <g id="Group_413" data-name="Group 413" transform="translate(689.337 664.52)" opacity="0.35">
      <path id="Path_536" data-name="Path 536" d="M707.57,2477.173l-2.553-7.494a.235.235,0,0,1,.249-.309l11.8,1.365c-.776.568-8.6-.4-10.336-.467C705.3,2470.216,707.908,2476.213,707.57,2477.173Z" transform="translate(-705.005 -2469.369)" fill="#fff"/>
    </g>
    <g id="Group_414" data-name="Group 414" transform="translate(692.486 665.902)" opacity="0.3">
      <path id="Path_537" data-name="Path 537" d="M931.625,2573.517l-12.881-1.49a.234.234,0,0,1-.2-.157l-.26-.764c2.087.386,7.652,1.4,9.317-.837,1.474-1.981.068-6.032-.275-7.3l.952.11a.235.235,0,0,1,.2.158l3.4,9.971A.234.234,0,0,1,931.625,2573.517Z" transform="translate(-918.289 -2562.969)" fill="#650000"/>
    </g>
    <g id="Group_415" data-name="Group 415" transform="translate(689.103 664.286)">
      <path id="Path_538" data-name="Path 538" d="M705.849,2465.873a.46.46,0,0,1-.055,0l-12.881-1.49a.472.472,0,0,1-.39-.315l-3.4-9.971a.469.469,0,0,1,.5-.617l12.881,1.49a.47.47,0,0,1,.391.315l3.4,9.971a.47.47,0,0,1-.444.621Zm-16.277-11.931,3.4,9.971,12.882,1.49-3.4-9.971Z" transform="translate(-689.102 -2453.472)" fill="#650000"/>
    </g>
    <g id="Group_416" data-name="Group 416" transform="translate(705.99 674.895)">
      <path id="Path_539" data-name="Path 539" d="M1833.4,3175.009a.3.3,0,0,1-.3-.3v-.871a.3.3,0,0,1,.215-.29l4.592-1.378a.3.3,0,0,1,.389.29v.464a.3.3,0,0,1-.193.281l-4.592,1.786A.3.3,0,0,1,1833.4,3175.009Zm.043-.192h0Zm-.067-.172h0Zm.091-.759v.723l4.458-1.734v-.327Z" transform="translate(-1833.101 -3172.155)" fill="#650000"/>
    </g>
    <g id="Group_417" data-name="Group 417" transform="translate(692.892 674.963)">
      <path id="Path_540" data-name="Path 540" d="M945.922,3176.785l13.048,1.512a.118.118,0,0,1,.1.117v.894a.117.117,0,0,1-.131.117l-13.048-1.512a.118.118,0,0,1-.1-.117v-.893A.118.118,0,0,1,945.922,3176.785Z" transform="translate(-945.791 -3176.784)" fill="#b5b5b5"/>
    </g>
    <g id="Group_418" data-name="Group 418" transform="translate(692.892 675.479)" opacity="0.3">
      <path id="Path_541" data-name="Path 541" d="M959.078,3213.214v.5a.117.117,0,0,1-.131.116l-13.048-1.511a.118.118,0,0,1-.1-.117v-.5a.116.116,0,0,0,.1.116l13.048,1.512A.118.118,0,0,0,959.078,3213.214Z" transform="translate(-945.795 -3211.703)" fill="#650000"/>
    </g>
    <g id="Group_419" data-name="Group 419" transform="translate(692.657 674.729)">
      <path id="Path_542" data-name="Path 542" d="M943.293,3164l-.04,0L930.2,3162.49a.351.351,0,0,1-.311-.35v-.894a.351.351,0,0,1,.393-.35l13.048,1.512a.352.352,0,0,1,.312.35v.894a.352.352,0,0,1-.352.352Zm-12.931-1.969,12.814,1.485v-.658l-12.814-1.485Zm-.131-.672h0Z" transform="translate(-929.893 -3160.894)" fill="#650000"/>
    </g>
    <g id="Group_420" data-name="Group 420" transform="translate(711.242 670.13)">
      <path id="Path_543" data-name="Path 543" d="M2193.255,2850.969a2.78,2.78,0,0,0-2.721-1.618,1.96,1.96,0,0,0-1.676,1.883l.869,4.232a4.744,4.744,0,0,0,5.158-3.136Z" transform="translate(-2188.859 -2849.34)" fill="#804959"/>
    </g>
    <g id="Group_422" data-name="Group 422" transform="translate(715.616 671.706)" opacity="0.35">
      <path id="Path_545" data-name="Path 545" d="M2485.271,2956.237l-.065-.055c-.007-.017-.014-.034-.022-.052C2485.214,2956.165,2485.243,2956.2,2485.271,2956.237Z" transform="translate(-2485.184 -2956.13)" fill="#fff"/>
    </g>
    <g id="Group_423" data-name="Group 423" transform="translate(711.696 670.135)" opacity="0.3">
      <path id="Path_546" data-name="Path 546" d="M2225.2,2852.708a4.743,4.743,0,0,1-5.158,3.135l-.147-.715-.268-1.3c.106,0,.214,0,.321,0l.147.715a4.767,4.767,0,0,0,4.691-2.172,4.838,4.838,0,0,0,.467-.963,7.6,7.6,0,0,0,.365-1.675A8.549,8.549,0,0,1,2225.2,2852.708Z" transform="translate(-2219.625 -2849.725)" fill="#650000"/>
    </g>
    <g id="Group_424" data-name="Group 424" transform="translate(710.972 669.885)">
      <path id="Path_547" data-name="Path 547" d="M2175.205,2834.681a3.3,3.3,0,0,0-1.054-.981,2.8,2.8,0,0,0-1.323-.414,1.173,1.173,0,0,0-.171,0,1.066,1.066,0,0,0-.166.016l-.08.013c-.026.005-.052.014-.078.021s-.052.013-.078.022l-.076.03a1.643,1.643,0,0,0-.547.365,1.721,1.721,0,0,0-.516,1.177l-.006-.054.445,2.114.437,2.115-.257-.225a6.344,6.344,0,0,0,1.552-.078,4.541,4.541,0,0,0,1.436-.525,4.226,4.226,0,0,0,1.16-.993,4.755,4.755,0,0,0,.438-.636,4.621,4.621,0,0,0,.331-.7v0a.235.235,0,0,1,.443.156,4.989,4.989,0,0,1-.812,1.5,4.773,4.773,0,0,1-1.285,1.139,4.882,4.882,0,0,1-1.606.607,6.584,6.584,0,0,1-1.7.093l-.214-.014-.043-.212-.432-2.116-.424-2.118-.006-.028v-.025a2.058,2.058,0,0,1,.2-.85,2.338,2.338,0,0,1,.5-.7,2.149,2.149,0,0,1,.725-.463l.1-.038c.034-.011.071-.019.106-.029s.071-.019.107-.026l.109-.016a2.4,2.4,0,0,1,.426-.015,2.971,2.971,0,0,1,.814.161,2.767,2.767,0,0,1,.73.375,2.45,2.45,0,0,1,.574.58,1.87,1.87,0,0,1,.316.738.042.042,0,0,1-.034.048.043.043,0,0,1-.042-.018Z" transform="translate(-2170.577 -2832.794)" fill="#650000"/>
    </g>
    <g id="Group_425" data-name="Group 425" transform="translate(710.833 671.123)">
      <path id="Path_548" data-name="Path 548" d="M2163.037,2922.052s-1.738.094-1.465-1.876a.864.864,0,0,0-.048-.426c-.192-.505-.614-1.768-.22-2.195.486-.525.884.07.978.226a.011.011,0,0,0,.02-.005c0-.187.059-.974.658-1.1s.675.617.683.781a.011.011,0,0,0,.02.006c.1-.126.548-.664,1.051-.312.427.3.218.874.148,1.036a.011.011,0,0,0,.017.013c.131-.1.58-.423.923-.14.406.334-.11,1.987-.646,2.684A2.693,2.693,0,0,1,2163.037,2922.052Z" transform="translate(-2161.142 -2916.661)" fill="#ffca9f"/>
    </g>
    <g id="Group_426" data-name="Group 426" transform="translate(711.102 673.353)" opacity="0.3">
      <path id="Path_549" data-name="Path 549" d="M2179.517,3068.587a.859.859,0,0,1,.049.425c-.274,1.97,1.464,1.877,1.464,1.877a2.7,2.7,0,0,0,2.12-1.309,4.043,4.043,0,0,0,.51-.969,2.932,2.932,0,0,1-2.244,1.232s-1.457.2-1.951-2.082C2179.428,3067.595,2179.324,3068.081,2179.517,3068.587Z" transform="translate(-2179.404 -3067.728)" fill="#650000"/>
    </g>
    <g id="Group_427" data-name="Group 427" transform="translate(710.594 671.597)">
      <path id="Path_550" data-name="Path 550" d="M2148.777,2949.813a.465.465,0,0,1,.125-.246.821.821,0,0,1,.2-.16.79.79,0,0,1,.532-.089.684.684,0,0,1,.471.365,1.156,1.156,0,0,1,.107.511,3.124,3.124,0,0,1-.149.9,5.232,5.232,0,0,1-.327.822,4.331,4.331,0,0,1-.219.39c-.041.064-.084.127-.13.189s-.088.115-.134.172a4.285,4.285,0,0,1-.614.651,2.515,2.515,0,0,1-.811.462,2.76,2.76,0,0,1-.452.111,2.087,2.087,0,0,1-.229.028l-.057.006-.035,0h-.034c-.043,0-.083,0-.124,0a2.107,2.107,0,0,1-.475-.09,1.693,1.693,0,0,1-.449-.215,1.479,1.479,0,0,1-.366-.357,1.534,1.534,0,0,1-.219-.454,2.337,2.337,0,0,1-.066-.939l.013-.113a.646.646,0,0,0,.007-.075.608.608,0,0,0-.013-.147c-.006-.025-.012-.049-.02-.072l-.035-.1c-.024-.068-.048-.137-.071-.205a6.585,6.585,0,0,1-.224-.847,3.5,3.5,0,0,1-.056-.451,1.714,1.714,0,0,1,.039-.489.9.9,0,0,1,.111-.263.553.553,0,0,1,.046-.064.567.567,0,0,1,.05-.056,1.1,1.1,0,0,1,.1-.091.743.743,0,0,1,.268-.134.636.636,0,0,1,.317,0,.814.814,0,0,1,.434.316.94.94,0,0,1,.185.451.106.106,0,0,1-.195.07l-.01-.015a1.212,1.212,0,0,0-.241-.268.542.542,0,0,0-.266-.132.235.235,0,0,0-.1.014.343.343,0,0,0-.1.063c-.018.016-.036.032-.054.052a.163.163,0,0,0-.019.023.089.089,0,0,0-.015.022.451.451,0,0,0-.048.125,1.254,1.254,0,0,0-.018.348,3,3,0,0,0,.055.385,6.012,6.012,0,0,0,.22.779c.022.064.046.129.07.192l.039.1a1.139,1.139,0,0,1,.039.13,1.125,1.125,0,0,1,.029.271,1.142,1.142,0,0,1-.01.135l-.01.1a1.868,1.868,0,0,0,.052.732.948.948,0,0,0,.383.528,1.357,1.357,0,0,0,.663.21c.03,0,.06,0,.087,0h.019l.017,0,.048,0a1.871,1.871,0,0,0,.19-.022,2.229,2.229,0,0,0,.367-.086,2,2,0,0,0,.648-.363,3.831,3.831,0,0,0,.545-.571l.127-.16c.039-.05.076-.1.112-.156a3.82,3.82,0,0,0,.2-.341,4.73,4.73,0,0,0,.311-.738,2.7,2.7,0,0,0,.145-.756.725.725,0,0,0-.051-.309.284.284,0,0,0-.168-.144.572.572,0,0,0-.294-.005.655.655,0,0,0-.292.135l-.022.02a.089.089,0,0,1-.126-.005A.091.091,0,0,1,2148.777,2949.813Z" transform="translate(-2144.924 -2948.743)" fill="#650000"/>
    </g>
    <g id="Group_428" data-name="Group 428" transform="translate(713.155 671.279)">
      <path id="Path_551" data-name="Path 551" d="M2318.452,2928.165a1.055,1.055,0,0,1,.378-.731.916.916,0,0,1,.411-.2.86.86,0,0,1,.486.051.777.777,0,0,1,.109.056.653.653,0,0,1,.1.09.757.757,0,0,1,.137.221.934.934,0,0,1,.051.451,1.437,1.437,0,0,1-.106.393,1.4,1.4,0,0,1-.09.177.465.465,0,0,1-.136.158.073.073,0,0,1-.11-.081l0-.015c.014-.048.036-.1.052-.15a1.247,1.247,0,0,0,.036-.162,1.136,1.136,0,0,0,.005-.322.531.531,0,0,0-.1-.251.269.269,0,0,0-.078-.068c-.014-.009-.029-.014-.044-.022s-.031-.024-.048-.035a.391.391,0,0,0-.219-.069.532.532,0,0,0-.255.068.765.765,0,0,0-.359.472v0a.115.115,0,0,1-.226-.037Z" transform="translate(-2318.451 -2927.221)" fill="#650000"/>
    </g>
    <g id="Group_429" data-name="Group 429" transform="translate(711.858 670.942)">
      <path id="Path_552" data-name="Path 552" d="M2230.632,2905.748a1,1,0,0,1-.058-.389,1.566,1.566,0,0,1,.052-.388.95.95,0,0,1,.2-.384.694.694,0,0,1,.448-.233.573.573,0,0,1,.064,0,.494.494,0,0,1,.061,0,.889.889,0,0,1,.115.015.779.779,0,0,1,.228.081.732.732,0,0,1,.316.348,1.049,1.049,0,0,1,.085.406.815.815,0,0,1-.069.388.094.094,0,0,1-.125.042.092.092,0,0,1-.052-.076v-.017a1.224,1.224,0,0,0-.052-.292.645.645,0,0,0-.14-.237.4.4,0,0,0-.179-.109.6.6,0,0,0-.1-.021c-.018,0-.036,0-.055,0h-.045a.292.292,0,0,0-.156.059.692.692,0,0,0-.167.189,1.021,1.021,0,0,0-.116.273,1.037,1.037,0,0,0-.034.291v.014a.115.115,0,0,1-.221.045Z" transform="translate(-2230.574 -2904.349)" fill="#650000"/>
    </g>
    <g id="Group_430" data-name="Group 430" transform="translate(711.865 673.103)">
      <ellipse id="Ellipse_17" data-name="Ellipse 17" cx="1.074" cy="0.91" rx="1.074" ry="0.91" transform="translate(0 2.127) rotate(-81.876)" fill="#f28475"/>
    </g>
    <g id="Group_431" data-name="Group 431" transform="translate(705.072 670.237)">
      <path id="Path_553" data-name="Path 553" d="M1775.436,2859.507a.778.778,0,0,1-.453.2.524.524,0,0,0-.433.343c-.18.495-.506,1.081-.947,1-.556-.1-.354-1.653-.353-1.669.027-.313-1.238.983-1.646.456-.3-.389.566-1.528.566-1.542,0-.208-1.133.452-1.266-.119-.105-.449.629-1.465,1.323-1.541a3.849,3.849,0,0,1,3.215,1.808A.92.92,0,0,1,1775.436,2859.507Z" transform="translate(-1770.893 -2856.627)" fill="#ffca9f"/>
    </g>
    <g id="Group_433" data-name="Group 433" transform="translate(707.409 671.86)" opacity="0.3">
      <path id="Path_555" data-name="Path 555" d="M1931.408,2966.757c-.044-.066-.089-.129-.134-.19a.8.8,0,0,1-.167.592.771.771,0,0,1-.453.2.525.525,0,0,0-.434.344c-.179.495-.506,1.081-.946,1a.292.292,0,0,1-.077-.026c.036.34.135.648.372.69.44.079.767-.507.947-1a.524.524,0,0,1,.433-.344.778.778,0,0,0,.453-.2A.92.92,0,0,0,1931.408,2966.757Z" transform="translate(-1929.197 -2966.567)" fill="#650000"/>
    </g>
    <g id="Group_434" data-name="Group 434" transform="translate(705.719 672.205)" opacity="0.3">
      <path id="Path_556" data-name="Path 556" d="M1816.611,2989.971c.022-.256-1.261.637-1.792.657a.591.591,0,0,0,0,.537c.271.351,1.362-.177,1.759-.43A5.323,5.323,0,0,1,1816.611,2989.971Z" transform="translate(-1814.754 -2989.925)" fill="#650000"/>
    </g>
    <g id="Group_435" data-name="Group 435" transform="translate(704.838 669.997)">
      <path id="Path_557" data-name="Path 557" d="M1759.949,2843.66a.937.937,0,0,1-.287.186,1.156,1.156,0,0,1-.157.051l-.08.017-.07.01a.289.289,0,0,0-.217.167l-.007.016,0,.008-.006.016-.024.064c-.016.043-.033.085-.051.128-.036.085-.075.17-.12.253a1.753,1.753,0,0,1-.354.48.883.883,0,0,1-.3.185.711.711,0,0,1-.192.039.746.746,0,0,1-.1,0,.832.832,0,0,1-.1-.017.515.515,0,0,1-.2-.1.632.632,0,0,1-.133-.152.993.993,0,0,1-.123-.305,2.457,2.457,0,0,1-.052-.564c0-.182.015-.36.031-.538l.014-.133.007-.067,0-.033,0-.017a.055.055,0,0,0,0,.013.056.056,0,0,0,0,.014l0,.008a.128.128,0,0,0,0,.015.156.156,0,0,0,.044.062.144.144,0,0,0,.066.031l.02,0h.011c.021,0,0,0-.006,0a.886.886,0,0,0-.094.051c-.138.084-.281.189-.429.289a2.645,2.645,0,0,1-.492.271.909.909,0,0,1-.325.07.612.612,0,0,1-.2-.031.52.52,0,0,1-.192-.115.586.586,0,0,1-.073-.083.549.549,0,0,1-.058-.1.606.606,0,0,1-.041-.2.972.972,0,0,1,.05-.327,2.429,2.429,0,0,1,.244-.51c.094-.155.2-.3.3-.446l.076-.108.037-.053.005-.007c-.009.022.013-.038-.02.051-.009.071,0,.026,0,.044a.207.207,0,0,0,0,.024.149.149,0,0,0,.032.062.148.148,0,0,0,.046.034.119.119,0,0,0,.031.009h-.007l-.044.007a1.167,1.167,0,0,0-.114.03,4.72,4.72,0,0,1-.526.146.946.946,0,0,1-.333.006.548.548,0,0,1-.2-.082.478.478,0,0,1-.158-.179.6.6,0,0,1-.062-.2.8.8,0,0,1,0-.185,1.27,1.27,0,0,1,.085-.307,2.262,2.262,0,0,1,.292-.5,2.506,2.506,0,0,1,.4-.412,1.7,1.7,0,0,1,.521-.3,1.325,1.325,0,0,1,.156-.042,1.136,1.136,0,0,1,.162-.018,2.111,2.111,0,0,1,.291.008,3.593,3.593,0,0,1,.547.1,4.262,4.262,0,0,1,2.26,1.466c.058.07.111.145.165.218l.077.113a.708.708,0,0,1,.04.063c.013.023.027.045.04.069a1.3,1.3,0,0,1,.109.3,1.28,1.28,0,0,1,.027.317,1.161,1.161,0,0,1-.056.315,1.03,1.03,0,0,1-.066.156A.668.668,0,0,1,1759.949,2843.66Zm-.314-.331a.324.324,0,0,0,.03-.047.552.552,0,0,0,.034-.082.72.72,0,0,0,.033-.194.82.82,0,0,0-.018-.2.853.853,0,0,0-.069-.186c-.008-.015-.017-.029-.026-.043a.489.489,0,0,0-.029-.047l-.07-.1c-.049-.065-.1-.131-.149-.194a3.795,3.795,0,0,0-2.015-1.294,3.009,3.009,0,0,0-.472-.081,1.62,1.62,0,0,0-.226-.007.687.687,0,0,0-.095.011.763.763,0,0,0-.093.025,1.614,1.614,0,0,0-.693.546,1.757,1.757,0,0,0-.233.389.8.8,0,0,0-.056.19.342.342,0,0,0,0,.073.149.149,0,0,0,.009.043l.008.016a.088.088,0,0,0,.036.02.489.489,0,0,0,.183.018,2.736,2.736,0,0,0,.483-.082c.044-.009.087-.021.138-.03a.815.815,0,0,1,.084-.011.372.372,0,0,1,.057,0,.262.262,0,0,1,.094.022.221.221,0,0,1,.072.053.215.215,0,0,1,.047.09.193.193,0,0,1,.005.041c0,.021.005-.021,0,.052-.034.09-.014.034-.024.058l-.013.02-.037.055c-.024.036-.048.07-.07.105a4.043,4.043,0,0,0-.24.438,2.337,2.337,0,0,0-.162.44.686.686,0,0,0-.022.184.146.146,0,0,0,.01.048.038.038,0,0,0,0,.01l.011.014a.068.068,0,0,0,.027.018.13.13,0,0,0,.052.012.594.594,0,0,0,.181-.025,2.3,2.3,0,0,0,.434-.189c.148-.079.29-.169.447-.263a1.174,1.174,0,0,1,.135-.07.36.36,0,0,1,.117-.033h.027a.3.3,0,0,1,.036,0,.2.2,0,0,1,.1.044.206.206,0,0,1,.062.089.14.14,0,0,1,.007.021l0,.016c0,.01,0,.022,0,.031a.338.338,0,0,1,0,.044l0,.016,0,.031-.006.063c0,.042-.006.083-.008.125a4.013,4.013,0,0,0,.008.5,2.1,2.1,0,0,0,.083.461.622.622,0,0,0,.078.169.16.16,0,0,0,.038.04.059.059,0,0,0,.026.011l.026,0h.03a.248.248,0,0,0,.061-.015.478.478,0,0,0,.136-.091,1.4,1.4,0,0,0,.257-.352c.037-.068.072-.14.1-.213.016-.037.031-.075.046-.112l.021-.057.014-.036a.415.415,0,0,1,.019-.042.753.753,0,0,1,.581-.425l.059-.008.047-.008a.663.663,0,0,0,.09-.028A.467.467,0,0,0,1759.635,2843.33Z" transform="translate(-1755.016 -2840.375)" fill="#650000"/>
    </g>
    <g id="Group_436" data-name="Group 436" transform="translate(718.124 649.685)">
      <path id="Path_558" data-name="Path 558" d="M2655.068,1466.252a2.3,2.3,0,0,1,2.32-1.865,2.735,2.735,0,0,1,2.571,3.269,2.965,2.965,0,0,1-2.157,2.624,5.329,5.329,0,0,1-2.462.093" transform="translate(-2655.068 -1464.387)" fill="#ffca9f"/>
    </g>
    <g id="Group_438" data-name="Group 438" transform="translate(718.124 651.361)">
      <path id="Path_560" data-name="Path 560" d="M2655.068,1578.964a1.3,1.3,0,0,1,1.338-1.012,1.506,1.506,0,0,1,1.482,1.775,1.64,1.64,0,0,1-1.244,1.424,3.258,3.258,0,0,1-1.42.05" transform="translate(-2655.068 -1577.952)" fill="#f28475"/>
    </g>
    <g id="Group_448" data-name="Group 448" transform="translate(718.088 652.548)">
      <path id="Path_570" data-name="Path 570" d="M2654.434,1659.676a1.218,1.218,0,0,1-.476.747,4.465,4.465,0,0,1-1.191,0l-.157-1.68a.9.9,0,0,1,.251-.394l.091,0C2654.061,1658.342,2654.561,1659.1,2654.434,1659.676Z" transform="translate(-2652.61 -1658.343)" fill="#f29f8f"/>
    </g>
    <g id="Group_439" data-name="Group 439" transform="translate(717.889 651.127)">
      <path id="Path_561" data-name="Path 561" d="M2640.18,1565.83a3.472,3.472,0,0,1-.671-.062.235.235,0,1,1,.1-.459,3.047,3.047,0,0,0,1.3-.046,1.412,1.412,0,0,0,1.079-1.237,1.374,1.374,0,0,0-.3-1.085,1.193,1.193,0,0,0-.945-.417h0a1.048,1.048,0,0,0-1.107.821.235.235,0,0,1-.462-.085,1.527,1.527,0,0,1,1.569-1.2h0a1.65,1.65,0,0,1,1.3.583,1.854,1.854,0,0,1,.409,1.465,1.882,1.882,0,0,1-1.409,1.611A3.08,3.08,0,0,1,2640.18,1565.83Z" transform="translate(-2639.167 -1562.055)" fill="#650000"/>
    </g>
    <g id="Group_440" data-name="Group 440" transform="translate(717.889 649.45)">
      <path id="Path_562" data-name="Path 562" d="M2640.75,1455.048a5.519,5.519,0,0,1-1.13-.11.235.235,0,0,1,.1-.458,5.128,5.128,0,0,0,2.341-.088,2.73,2.73,0,0,0,2-2.437,2.879,2.879,0,0,0-.623-2.229,2.187,2.187,0,0,0-1.714-.769h0a2.047,2.047,0,0,0-2.09,1.67.235.235,0,0,1-.463-.079,2.555,2.555,0,0,1,2.552-2.06h0a2.642,2.642,0,0,1,2.07.933,3.319,3.319,0,0,1,.73,2.607,3.193,3.193,0,0,1-2.319,2.812A4.9,4.9,0,0,1,2640.75,1455.048Z" transform="translate(-2639.166 -1448.488)" fill="#650000"/>
    </g>
    <g id="Group_441" data-name="Group 441" transform="translate(693.509 649.685)">
      <path id="Path_563" data-name="Path 563" d="M992.521,1466.252a2.3,2.3,0,0,0-2.32-1.865,2.734,2.734,0,0,0-2.571,3.269,2.965,2.965,0,0,0,2.157,2.624,5.329,5.329,0,0,0,2.462.093" transform="translate(-987.597 -1464.387)" fill="#ffca9f"/>
    </g>
    <g id="Group_443" data-name="Group 443" transform="translate(693.509 652.1)" opacity="0.3">
      <path id="Path_565" data-name="Path 565" d="M987.631,1628.83a2.965,2.965,0,0,0,2.157,2.625,5.333,5.333,0,0,0,2.463.092l.058-.882a5.678,5.678,0,0,1-2.386-.154,3.174,3.174,0,0,1-2.3-2.535A2.979,2.979,0,0,0,987.631,1628.83Z" transform="translate(-987.598 -1627.976)" fill="#650000"/>
    </g>
    <g id="Group_444" data-name="Group 444" transform="translate(718.338 652.1)" opacity="0.3">
      <path id="Path_566" data-name="Path 566" d="M2674.2,1628.83a2.964,2.964,0,0,1-2.157,2.625,5.333,5.333,0,0,1-2.463.092l-.058-.882a5.679,5.679,0,0,0,2.386-.154,3.174,3.174,0,0,0,2.3-2.535A2.968,2.968,0,0,1,2674.2,1628.83Z" transform="translate(-2669.522 -1627.976)" fill="#650000"/>
    </g>
    <g id="Group_445" data-name="Group 445" transform="translate(695.594 651.361)">
      <path id="Path_567" data-name="Path 567" d="M1131.7,1578.964a1.3,1.3,0,0,0-1.338-1.012,1.506,1.506,0,0,0-1.482,1.775,1.639,1.639,0,0,0,1.244,1.424,3.257,3.257,0,0,0,1.42.05" transform="translate(-1128.861 -1577.952)" fill="#f28475"/>
    </g>
    <g id="Group_446" data-name="Group 446" transform="translate(695.594 651.361)">
      <path id="Path_568" data-name="Path 568" d="M1128.884,1579.708a1.639,1.639,0,0,0,1.243,1.424c.076.022.153.04.228.055a3.374,3.374,0,0,0,1.192,0l.157-2.238a1.329,1.329,0,0,0-.251-.525,1.3,1.3,0,0,0-1.087-.487A1.506,1.506,0,0,0,1128.884,1579.708Z" transform="translate(-1128.865 -1577.933)" fill="#f28475"/>
    </g>
    <g id="Group_447" data-name="Group 447" transform="translate(696.913 652.548)">
      <path id="Path_569" data-name="Path 569" d="M1218.212,1659.676a1.218,1.218,0,0,0,.476.747,4.47,4.47,0,0,0,1.192,0l.157-1.68a.9.9,0,0,0-.251-.394l-.091,0C1218.585,1658.342,1218.085,1659.1,1218.212,1659.676Z" transform="translate(-1218.193 -1658.343)" fill="#f29f8f"/>
    </g>
    <g id="Group_449" data-name="Group 449" transform="translate(695.359 651.127)">
      <path id="Path_571" data-name="Path 571" d="M1115.253,1565.83a3.085,3.085,0,0,1-.865-.116,1.883,1.883,0,0,1-1.409-1.611,1.856,1.856,0,0,1,.409-1.465,1.649,1.649,0,0,1,1.3-.583h0a1.527,1.527,0,0,1,1.569,1.2.235.235,0,0,1-.462.085,1.048,1.048,0,0,0-1.107-.82h0a1.193,1.193,0,0,0-.945.417,1.374,1.374,0,0,0-.3,1.085,1.412,1.412,0,0,0,1.078,1.237,3.041,3.041,0,0,0,1.3.046.235.235,0,0,1,.1.459A3.466,3.466,0,0,1,1115.253,1565.83Z" transform="translate(-1112.957 -1562.055)" fill="#650000"/>
    </g>
    <g id="Group_450" data-name="Group 450" transform="translate(693.273 649.45)">
      <path id="Path_572" data-name="Path 572" d="M975.453,1455.048a4.9,4.9,0,0,1-1.455-.208,3.193,3.193,0,0,1-2.319-2.812,3.321,3.321,0,0,1,.73-2.607,2.645,2.645,0,0,1,2.07-.933h0a2.554,2.554,0,0,1,2.551,2.06.235.235,0,0,1-.463.079h0a2.058,2.058,0,0,0-2.089-1.67h0a2.188,2.188,0,0,0-1.714.769,2.879,2.879,0,0,0-.622,2.229,2.729,2.729,0,0,0,2,2.437,5.1,5.1,0,0,0,2.34.088.235.235,0,0,1,.1.458A5.522,5.522,0,0,1,975.453,1455.048Z" transform="translate(-971.642 -1448.488)" fill="#650000"/>
    </g>
    <g id="Group_451" data-name="Group 451" transform="translate(697.205 637.713)">
      <path id="Path_573" data-name="Path 573" d="M1237.959,666.118a8.967,8.967,0,0,0,1.348,4.5,1.714,1.714,0,0,0-1.226,1.616,3.262,3.262,0,0,0,.056,1.247,3.873,3.873,0,0,0,2.786,2.5c.093.033.187.065.283.1a3.32,3.32,0,0,1-.708-.44,3.527,3.527,0,0,1-1.343-2.261c0-.027,0-.054,0-.08s0-.061,0-.09,0-.049,0-.073a1.857,1.857,0,0,1,.635-1.3,2.684,2.684,0,0,1,.987-.553s-2.149-4.044.012-7.536c.017-.028.035-.057.053-.084a5.156,5.156,0,0,1,4.273-2.646h.01c1.892-.025,3.556,1.135,3.863,2.5a2.03,2.03,0,0,1,.051.449h.049c0-1.513,1.742-2.914,3.783-2.946a5.125,5.125,0,0,1,4.414,2.646c.018.028.036.056.053.084,2.162,3.492.013,7.536.013,7.536l.008,0a2.707,2.707,0,0,1,.887.472,1.916,1.916,0,0,1,.731,1.54,2.336,2.336,0,0,1-.212.874h0a3.951,3.951,0,0,1-.924,1.286,3.462,3.462,0,0,1-.918.621c1.591-.522,2.721-1.279,3.07-2.6a3.291,3.291,0,0,0,.046-1.31,1.686,1.686,0,0,0-1.216-1.554,8.975,8.975,0,0,0,1.348-4.5c.273-5.1-3.781-9.343-8.893-10.216h0c-.458-.145-1.2-.387-2.184-.731a5.381,5.381,0,0,1-2.317-1.7.217.217,0,0,0-.352.019,8.606,8.606,0,0,0-.688,1.653.218.218,0,0,1-.315.125c-.221-.126-.561-.549-.882-.8a.217.217,0,0,0-.33.082,5.268,5.268,0,0,0-.414,2.322A9.82,9.82,0,0,0,1237.959,666.118Z" transform="translate(-1237.946 -653.39)" fill="#804959"/>
    </g>
    <g id="Group_453" data-name="Group 453" transform="translate(696.97 640.964)">
      <path id="Path_575" data-name="Path 575" d="M1225.547,893.34a.232.232,0,0,1-.073-.012c-1.863-.61-2.886-1.488-3.223-2.761a3.313,3.313,0,0,1,.313-2.425,1.607,1.607,0,0,1,.715-.631,9.456,9.456,0,0,1-1.214-4.358,9.318,9.318,0,0,1,1.537-5.625,10.947,10.947,0,0,1,4.434-3.841.235.235,0,1,1,.2.423,9.619,9.619,0,0,0-5.706,9.018,8.751,8.751,0,0,0,1.306,4.379l.212.3-.362.066a1.081,1.081,0,0,0-.729.519,2.891,2.891,0,0,0-.255,2.054c.3,1.12,1.195,1.871,2.916,2.435a.235.235,0,0,1-.073.458Z" transform="translate(-1222.05 -873.665)" fill="#650000"/>
    </g>
    <g id="Group_454" data-name="Group 454" transform="translate(710.365 640)">
      <path id="Path_576" data-name="Path 576" d="M2135.286,828.957a.235.235,0,0,1-.073-.458c1.721-.564,2.621-1.315,2.917-2.435a2.9,2.9,0,0,0-.256-2.054,1.08,1.08,0,0,0-.729-.519l-.362-.066.212-.3a8.634,8.634,0,0,0,1.305-4.379c.247-4.613-3.177-8.757-8.144-9.863h0l-.028-.006c-.146-.033-.3-.063-.461-.093l-.022,0a.235.235,0,0,1,.1-.458h0c.162.029.312.059.456.091l.023,0a11.419,11.419,0,0,1,6.224,3.69,9.723,9.723,0,0,1,1.1,11.02,1.608,1.608,0,0,1,.714.63,3.316,3.316,0,0,1,.313,2.426c-.336,1.273-1.361,2.15-3.224,2.761A.231.231,0,0,1,2135.286,828.957Z" transform="translate(-2129.467 -808.318)" fill="#650000"/>
    </g>
    <g id="Group_455" data-name="Group 455" transform="translate(701.871 660.242)" opacity="0.3">
      <path id="Path_577" data-name="Path 577" d="M1567.18,2181.64c-.159.046-.318.09-.477.132a24.868,24.868,0,0,1-5.8.833,34.138,34.138,0,0,1-3.627-.372l-.354-.047a9.211,9.211,0,0,1-1.589-.328c-.077-.023-.152-.048-.227-.073-.314-.1-.618-.219-1.031-.345.493-1.125.91-1.915.91-1.915h10.449A17.006,17.006,0,0,1,1567.18,2181.64Z" transform="translate(-1554.077 -2179.526)" fill="#650000"/>
    </g>
    <g id="Group_456" data-name="Group 456" transform="translate(698.389 645.34)">
      <path id="Path_578" data-name="Path 578" d="M1318.209,1182.339a.778.778,0,0,0,.026.077,7.1,7.1,0,0,0,1.343,2.261,2.343,2.343,0,0,0,.425.343,1.551,1.551,0,0,0,.181.1c.136.045.275.087.416.127l.136.038c.746.2,1.155.38,1.653.533a9.272,9.272,0,0,0,1.589.328,38.763,38.763,0,0,0,3.981.418,24.89,24.89,0,0,0,5.8-.833,18.321,18.321,0,0,0,2.733-.942h0a4.56,4.56,0,0,0,.43-.29,2.323,2.323,0,0,0,.924-1.286h0a1.8,1.8,0,0,0,0-.811c0-.021.176-.173.17-.193s-.007-.029-.011-.043a3.062,3.062,0,0,0-.673-1.367,1.4,1.4,0,0,0-.887-.473.648.648,0,0,0-.11,0s2.1-4.044-.062-7.537c-.018-.028-.035-.057-.053-.084a5.158,5.158,0,0,0-4.262-2.646c-1.9-.033-3.575,1.131-3.884,2.5a2.058,2.058,0,0,0-.051.449c0-1.52-1.758-2.927-3.812-2.946h-.009a5.132,5.132,0,0,0-4.375,2.646c-.018.028-.036.056-.053.084-2.162,3.493-.012,7.537-.012,7.537a1.3,1.3,0,0,0-.885.553,3.506,3.506,0,0,0-.622,1.308l-.016.063C1318.225,1182.276,1318.217,1182.307,1318.209,1182.339Z" transform="translate(-1318.209 -1170.053)" fill="#ffca9f"/>
    </g>
    <g id="Group_459" data-name="Group 459" transform="translate(702.819 637.478)">
      <path id="Path_579" data-name="Path 579" d="M1618.486,641.434a.235.235,0,0,1-.234-.227,5.516,5.516,0,0,1,.434-2.426.452.452,0,0,1,.688-.172,5.1,5.1,0,0,1,.47.433,3.046,3.046,0,0,0,.366.334,8.8,8.8,0,0,1,.708-1.689.452.452,0,0,1,.734-.038,5.726,5.726,0,0,0,2.219,1.628,12.572,12.572,0,0,0,2.667.822.235.235,0,0,1-.056.466,12.636,12.636,0,0,1-2.784-.851,6.239,6.239,0,0,1-2.4-1.752,8.776,8.776,0,0,0-.648,1.576.452.452,0,0,1-.655.26,2.662,2.662,0,0,1-.485-.421,1.183,1.183,0,1,0-.791,1.818.235.235,0,0,1-.227.242Z" transform="translate(-1618.248 -637.478)" fill="#650000"/>
    </g>
    <g id="Group_460" data-name="Group 460" transform="translate(708.52 656.28)">
      <path id="Path_580" data-name="Path 580" d="M2004.544,1911.74a.075.075,0,0,1-.095-.083c.023-.163.1-.443.333-.48a.251.251,0,0,1,.319.3c-.033.095-.112.154-.269.187C2004.737,1911.687,2004.625,1911.716,2004.544,1911.74Z" transform="translate(-2004.448 -1911.171)" fill="#650000"/>
    </g>
    <g id="Group_461" data-name="Group 461" transform="translate(707.192 656.28)">
      <path id="Path_581" data-name="Path 581" d="M1915.09,1911.74a.075.075,0,0,0,.1-.083c-.023-.163-.1-.443-.333-.48a.251.251,0,0,0-.319.3c.033.095.112.154.269.187C1914.9,1911.687,1915.009,1911.716,1915.09,1911.74Z" transform="translate(-1914.525 -1911.171)" fill="#650000"/>
    </g>
    <g id="Group_462" data-name="Group 462" transform="translate(707.053 657.567)">
      <path id="Path_582" data-name="Path 582" d="M1905.354,1999.04a1.612,1.612,0,0,0,.537.289.992.992,0,0,0,.546,0c.043-.013.084-.032.127-.046s.079-.043.118-.067.076-.051.109-.083l.049-.049a.283.283,0,0,0,.048-.05,1.457,1.457,0,0,0,.273-.531l0-.009a.174.174,0,0,1,.34.043,1.32,1.32,0,0,1-.222.791,1.257,1.257,0,0,1-.7.508l-.109.023a.605.605,0,0,1-.109.017l-.11.006-.055,0-.055-.005a1.2,1.2,0,0,1-.215-.035.978.978,0,0,1-.2-.069,1.374,1.374,0,0,1-.615-.529.162.162,0,0,1,.235-.214Z" transform="translate(-1905.087 -1998.372)" fill="#650000"/>
    </g>
    <g id="Group_463" data-name="Group 463" transform="translate(698.177 645.127)">
      <path id="Path_583" data-name="Path 583" d="M1313.963,1172.621a23.249,23.249,0,0,1-5.606-.682,13.619,13.619,0,0,1-2.318-.759,3.853,3.853,0,0,1-2.191-2.991,2.316,2.316,0,0,1,1.534-2.155,10.029,10.029,0,0,1-.709-2.28,7.29,7.29,0,0,1,.848-5.244l.017-.027c.013-.021.026-.043.04-.063a5.866,5.866,0,0,1,2.874-2.452,4.757,4.757,0,0,1,3.015-.106,2.592,2.592,0,0,0,5.057,0,4.756,4.756,0,0,1,3.015.106,5.868,5.868,0,0,1,2.875,2.455c.018.027.037.059.056.09a7.29,7.29,0,0,1,.847,5.242,10.038,10.038,0,0,1-.708,2.28,2.316,2.316,0,0,1,1.534,2.155,3.853,3.853,0,0,1-2.192,2.992,14.752,14.752,0,0,1-2.407.77A23.532,23.532,0,0,1,1313.963,1172.621Zm-3.851-16.48a4.822,4.822,0,0,0-4.141,2.534l-.033.053-.018.029c-2.063,3.333-.025,7.263,0,7.3l.138.26-.285.076a1.932,1.932,0,0,0-1.452,1.784,3.389,3.389,0,0,0,1.916,2.572,13.216,13.216,0,0,0,2.236.731,23,23,0,0,0,10.963.011,14.325,14.325,0,0,0,2.326-.743,3.387,3.387,0,0,0,1.914-2.571,1.932,1.932,0,0,0-1.452-1.785l-.283-.077.137-.26c.021-.039,2.058-3.969-.005-7.3-.017-.027-.033-.053-.049-.078-1.971-3.077-4.6-2.59-5.365-2.367a3.035,3.035,0,0,0-2.4,2.537.235.235,0,0,1-.235.235h-.049a.235.235,0,0,1-.235-.235,3.034,3.034,0,0,0-2.4-2.537A4.427,4.427,0,0,0,1310.112,1156.142Z" transform="translate(-1303.848 -1155.666)" fill="#650000"/>
    </g>
    <g id="Group_464" data-name="Group 464" transform="translate(697.306 656.725)" opacity="0.3">
      <path id="Path_584" data-name="Path 584" d="M1244.894,1942.579a3.874,3.874,0,0,0,2.787,2.5,1.553,1.553,0,0,0,.181.1c.135.045.275.087.416.127l.135.038a16.754,16.754,0,0,0,3.243.861,38.7,38.7,0,0,0,3.981.418,24.03,24.03,0,0,0,8.531-1.776h0a4.537,4.537,0,0,0,.43-.29,3.453,3.453,0,0,1-.918.622c1.591-.522,2.721-1.279,3.07-2.6a3.294,3.294,0,0,0,.046-1.31,6.673,6.673,0,0,1-1.07.918l-.05.034c-1.426.989-4.091,2.208-8.786,2.553a15.093,15.093,0,0,1-2.2,0c-4.665-.342-7.327-1.548-8.76-2.532l-.013-.01a6.921,6.921,0,0,1-1.076-.9A3.263,3.263,0,0,0,1244.894,1942.579Z" transform="translate(-1244.803 -1941.269)" fill="#650000"/>
    </g>
    <g id="Group_479" data-name="Group 479" transform="translate(702.208 650.627)">
      <g id="Group_471" data-name="Group 471" transform="translate(0 0.11)">
        <g id="Group_465" data-name="Group 465" transform="translate(0.396 0.397)">
          <path id="Path_585" data-name="Path 585" d="M1610.4,1567.456a1.331,1.331,0,0,0-1.1.463,2.517,2.517,0,0,0-.575,1.784,2.855,2.855,0,0,0,1.076,2.228,1.5,1.5,0,0,0,.749.28c.965.073,1.713-.933,1.671-2.247A2.429,2.429,0,0,0,1610.4,1567.456Z" transform="translate(-1608.652 -1567.379)" fill="#fff"/>
          <path id="Path_586" data-name="Path 586" d="M1605.771,1567.412c-.034,0-.069,0-.1,0a1.561,1.561,0,0,1-.785-.293,2.947,2.947,0,0,1-1.107-2.286,2.6,2.6,0,0,1,.594-1.836,1.411,1.411,0,0,1,1.155-.486h0a2.823,2.823,0,0,1,1.219,4.5A1.385,1.385,0,0,1,1605.771,1567.412Zm-.351-4.763a1.261,1.261,0,0,0-.944.442,2.451,2.451,0,0,0-.556,1.732,2.8,2.8,0,0,0,1.045,2.171,1.413,1.413,0,0,0,.712.267,1.233,1.233,0,0,0,.964-.364,2.41,2.41,0,0,0,.627-1.807,2.36,2.36,0,0,0-1.757-2.438C1605.481,1562.651,1605.45,1562.65,1605.42,1562.65Z" transform="translate(-1603.773 -1562.503)" fill="#11116d"/>
        </g>
        <g id="Group_466" data-name="Group 466" transform="translate(0.854 0.47)">
          <path id="Path_587" data-name="Path 587" d="M1636.036,1567.456a1.331,1.331,0,0,0-1.1.463,2.105,2.105,0,0,0-.1.256.635.635,0,0,0,.061.623c.128.118.291.04.441.051a.652.652,0,0,1,.484.652c0,.32-.223.584-.469.548-.172-.025-.365-.168-.5-.053a.535.535,0,0,0-.1.436,2.549,2.549,0,0,0,.655,1.463l.034.035a1.5,1.5,0,0,0,.748.28c.965.073,1.713-.933,1.671-2.247A2.429,2.429,0,0,0,1636.036,1567.456Z" transform="translate(-1634.748 -1567.452)" fill="#9acbd6"/>
        </g>
        <g id="Group_467" data-name="Group 467" transform="translate(0.984 0.798)">
          <ellipse id="Ellipse_20" data-name="Ellipse 20" cx="1.417" cy="2.084" rx="1.417" ry="2.084" transform="translate(0 0.356) rotate(-7.228)" fill="#640005"/>
        </g>
        <g id="Group_469" data-name="Group 469" transform="translate(0.484 0.866)">
          <g id="Group_468" data-name="Group 468">
            <path id="Path_588" data-name="Path 588" d="M1610.711,1595.244c-.15-.011-.313.067-.441-.051a.636.636,0,0,1-.061-.624,2.067,2.067,0,0,1,.1-.256,2.518,2.518,0,0,0-.575,1.784,2.854,2.854,0,0,0,1.076,2.228l-.033-.035a2.551,2.551,0,0,1-.655-1.464.537.537,0,0,1,.1-.436c.137-.115.33.028.5.053.247.036.473-.228.469-.548A.652.652,0,0,0,1610.711,1595.244Z" transform="translate(-1609.735 -1594.313)" fill="#fff"/>
          </g>
        </g>
        <g id="Group_470" data-name="Group 470">
          <path id="Path_589" data-name="Path 589" d="M1578.96,1536.109c.032,0,.064,0,.1,0a2.429,2.429,0,0,1,1.824,2.509c.042,1.268-.655,2.25-1.573,2.25-.032,0-.065,0-.1,0a1.5,1.5,0,0,1-.749-.28,2.855,2.855,0,0,1-1.076-2.228,2.518,2.518,0,0,1,.575-1.784,1.344,1.344,0,0,1,1-.466m0-.47a1.818,1.818,0,0,0-1.346.619,2.991,2.991,0,0,0-.7,2.116,3.305,3.305,0,0,0,1.277,2.6,1.948,1.948,0,0,0,.982.363c.044,0,.089.005.132.005a1.813,1.813,0,0,0,1.3-.575,2.962,2.962,0,0,0,.738-2.161,2.86,2.86,0,0,0-2.259-2.961c-.044,0-.088-.005-.131-.005Z" transform="translate(-1576.915 -1535.639)" fill="#640005"/>
        </g>
      </g>
      <g id="Group_478" data-name="Group 478" transform="translate(7.803 0)">
        <g id="Group_472" data-name="Group 472" transform="translate(0.396 0.397)">
          <path id="Path_590" data-name="Path 590" d="M2139.052,1560.006a1.332,1.332,0,0,1,1.108.433,2.52,2.52,0,0,1,.623,1.768,2.854,2.854,0,0,1-1.015,2.257,1.5,1.5,0,0,1-.741.3c-.963.1-1.738-.887-1.73-2.2A2.429,2.429,0,0,1,2139.052,1560.006Z" transform="translate(-2137.224 -1559.927)" fill="#fff"/>
          <path id="Path_591" data-name="Path 591" d="M2134.01,1559.968a1.393,1.393,0,0,1-.946-.382,2.824,2.824,0,0,1,1.1-4.528h0a1.412,1.412,0,0,1,1.168.455,2.6,2.6,0,0,1,.643,1.819,2.946,2.946,0,0,1-1.045,2.315,1.561,1.561,0,0,1-.777.315A1.379,1.379,0,0,1,2134.01,1559.968Zm.166-4.765a2.36,2.36,0,0,0-1.69,2.485,2.412,2.412,0,0,0,.676,1.789,1.237,1.237,0,0,0,.974.338,1.419,1.419,0,0,0,.7-.286,2.8,2.8,0,0,0,.985-2.2,2.449,2.449,0,0,0-.6-1.716,1.265,1.265,0,0,0-1.048-.411Z" transform="translate(-2132.34 -1555.05)" fill="#11116d"/>
        </g>
        <g id="Group_473" data-name="Group 473" transform="translate(0.47 0.47)">
          <path id="Path_592" data-name="Path 592" d="M2139.052,1560.006a1.332,1.332,0,0,1,1.108.433,2.046,2.046,0,0,1,.11.253.635.635,0,0,1-.044.625c-.125.121-.29.048-.439.063a.652.652,0,0,0-.467.665c.005.32.239.578.484.535.171-.03.36-.178.5-.066a.538.538,0,0,1,.112.433,2.552,2.552,0,0,1-.616,1.481c-.01.012-.021.025-.032.036a1.5,1.5,0,0,1-.741.3c-.963.1-1.738-.887-1.73-2.2A2.429,2.429,0,0,1,2139.052,1560.006Z" transform="translate(-2137.297 -1560)" fill="#9acbd6"/>
        </g>
        <g id="Group_474" data-name="Group 474" transform="translate(0.169 0.846)">
          <ellipse id="Ellipse_21" data-name="Ellipse 21" cx="2.084" cy="1.417" rx="2.084" ry="1.417" transform="matrix(0.099, -0.995, 0.995, 0.099, 0, 4.148)" fill="#640005"/>
        </g>
        <g id="Group_476" data-name="Group 476" transform="translate(2.477 0.84)">
          <g id="Group_475" data-name="Group 475">
            <path id="Path_593" data-name="Path 593" d="M2273.713,1586.016c.15-.015.314.058.439-.063a.635.635,0,0,0,.044-.625,2.131,2.131,0,0,0-.11-.253,2.517,2.517,0,0,1,.623,1.768,2.852,2.852,0,0,1-1.015,2.257l.033-.036a2.555,2.555,0,0,0,.616-1.481.537.537,0,0,0-.112-.433c-.14-.112-.329.036-.5.066-.246.042-.48-.216-.484-.535A.652.652,0,0,1,2273.713,1586.016Z" transform="translate(-2273.247 -1585.075)" fill="#fff"/>
          </g>
        </g>
        <g id="Group_477" data-name="Group 477">
          <path id="Path_594" data-name="Path 594" d="M2107.842,1528.657a1.349,1.349,0,0,1,.977.439,2.516,2.516,0,0,1,.623,1.768,2.854,2.854,0,0,1-1.015,2.257,1.5,1.5,0,0,1-.741.3,1.31,1.31,0,0,1-.132.007c-.9,0-1.6-.954-1.6-2.207a2.428,2.428,0,0,1,1.756-2.557,1.218,1.218,0,0,1,.131-.007m0-.47h0c-.059,0-.119,0-.178.009a2.861,2.861,0,0,0-2.178,3.022,2.977,2.977,0,0,0,.776,2.119,1.8,1.8,0,0,0,1.292.56,1.776,1.776,0,0,0,.18-.009,1.949,1.949,0,0,0,.973-.391,3.3,3.3,0,0,0,1.2-2.631,2.991,2.991,0,0,0-.755-2.1,1.826,1.826,0,0,0-1.314-.582Z" transform="translate(-2105.485 -1528.188)" fill="#640005"/>
        </g>
      </g>
    </g>
    <g id="Group_480" data-name="Group 480" transform="translate(694.957 668.335)">
      <path id="Path_595" data-name="Path 595" d="M1085.711,2727.9a.122.122,0,0,0-.022.161l.263.4c-.464,1.687,1.1,4.25,3.493,3.357a.906.906,0,0,0,.157-.074.629.629,0,0,0,.064-.043.669.669,0,0,0,.145-.14h0a.508.508,0,0,0,.04-.061.449.449,0,0,0,.039-.093h0l.1-.1a.08.08,0,0,0,.02-.077l-.025-.108a.074.074,0,0,0-.054-.057l-.116-.023-.018-.021h0a.759.759,0,0,0-.622-.2,2.906,2.906,0,0,1-2.58-2.017,1.253,1.253,0,0,0-.385-.571l-.121-.375a.1.1,0,0,0-.127-.069l-.236.1-.017.01" transform="translate(-1085.668 -2727.781)" fill="#fff"/>
    </g>
  </g>
</svg>
