<svg xmlns="http://www.w3.org/2000/svg" width="38.848" height="32.582" viewBox="0 0 38.848 32.582">
  <g id="Layer_32" data-name="Layer 32" transform="translate(-1 -6)">
    <path id="Path_663" data-name="Path 663" d="M44.844,10.231l2.7-2.7A1.821,1.821,0,0,1,48.827,7h0a1.817,1.817,0,0,1,1.629,1.007l.752,1.5-4.413,2.945Z" transform="translate(-16.372 -0.374)" fill="#216361"/>
    <path id="Path_664" data-name="Path 664" d="M19.892,33.88h-.112a8.647,8.647,0,0,1-4.449-1.232l-.846-.508a.981.981,0,0,0-.5-.14h0a.981.981,0,0,0-.981.981h0a3.47,3.47,0,0,0,.439,1.684h0a9.44,9.44,0,0,0,4.981,4.271l2.637.4,1.1-5.77Z" transform="translate(-4.481 -9.709)" fill="#fbcf43"/>
    <path id="Path_665" data-name="Path 665" d="M13.936,32.543a.979.979,0,0,1,.51.12l.865.476A8.647,8.647,0,0,0,19.8,34.2h0l.111-.005,2.2-.388.046-.241-2.263.311h-.112a8.647,8.647,0,0,1-4.449-1.232l-.846-.508A.981.981,0,0,0,13,32.981c0,.108.011.216.021.323a.977.977,0,0,1,.915-.761Z" transform="translate(-4.481 -9.709)" fill="#fce694"/>
    <path id="Path_666" data-name="Path 666" d="M40,37.5a3.516,3.516,0,0,0,1.5,1.227h0a11.934,11.934,0,0,0,4.7.965h0a11.94,11.94,0,0,0,3.774-.612l1.755-.586a1.088,1.088,0,0,1,.345-.055h0a1.078,1.078,0,0,1,1.078,1.078h0a1.711,1.711,0,0,1-.616,1.316h0A11.3,11.3,0,0,1,45.3,43.452h0a17.759,17.759,0,0,1-3.426-.333l-2.8-.744-.758-3.258Z" transform="translate(-13.935 -11.763)" fill="#fbcf43"/>
    <path id="Path_667" data-name="Path 667" d="M52.382,38.5l-1.754.586a11.935,11.935,0,0,1-8.474-.353,3.516,3.516,0,0,1-1.5-1.227l-.606.581.306,1.316,2.806.745a17.8,17.8,0,0,0,3.424.332,11.3,11.3,0,0,0,6.413-2,1.032,1.032,0,0,0-.607.016Z" transform="translate(-14.58 -11.763)" fill="#fce694"/>
    <path id="Path_668" data-name="Path 668" d="M34.582,38.755A1.434,1.434,0,0,1,33.141,40.2H30.822A11.274,11.274,0,0,1,19.544,28.918V27.664l-.094.808A11.153,11.153,0,0,1,8.379,38.316,9.222,9.222,0,0,1,2.6,36.286,1.59,1.59,0,0,1,2,35.045,1.118,1.118,0,0,1,3.115,33.93a1.268,1.268,0,0,1,.269.031,19.858,19.858,0,0,0,4.818.6,7.573,7.573,0,0,0,7.582-7.582V24.344A12.336,12.336,0,0,1,27.548,12.019c.191-.012.386-.019.58-.019a2.694,2.694,0,0,1,2.694,2.694,7.991,7.991,0,0,1-1.241,4.273l-1.1,1.717a13.162,13.162,0,0,0-2.049,7.043,10.093,10.093,0,0,0,7.131,9.65,1.446,1.446,0,0,1,1.014,1.378Z" transform="translate(-0.373 -2.241)" fill="#eebd39"/>
    <path id="Path_669" data-name="Path 669" d="M45.038,38.755A1.434,1.434,0,0,1,43.6,40.2H41.278A11.274,11.274,0,0,1,30,28.918V25.252a14.95,14.95,0,0,1,8-13.233q.291-.019.583-.019a2.694,2.694,0,0,1,2.694,2.694,7.991,7.991,0,0,1-1.241,4.273l-1.1,1.717a13.162,13.162,0,0,0-2.049,7.043,10.093,10.093,0,0,0,7.131,9.65A1.446,1.446,0,0,1,45.038,38.755Z" transform="translate(-10.829 -2.241)" fill="#fbcf43"/>
    <path id="Path_670" data-name="Path 670" d="M47.278,39.016a1.446,1.446,0,0,0-1.015-1.378,10.093,10.093,0,0,1-7.13-9.649,13.162,13.162,0,0,1,2.049-7.043l1.1-1.717a7.991,7.991,0,0,0,1.241-4.273A2.677,2.677,0,0,0,42.295,12.7,14.946,14.946,0,0,0,36,24.887v3.665A11.256,11.256,0,0,0,47.035,39.818,1.441,1.441,0,0,0,47.278,39.016Z" transform="translate(-13.07 -2.502)" fill="#fce15e"/>
    <path id="Path_671" data-name="Path 671" d="M4.052,34.843a1.284,1.284,0,0,1,.271.021,19.832,19.832,0,0,0,4.837.413,7.573,7.573,0,0,0,7.289-7.864l-.1-2.632a12.329,12.329,0,0,1,11-12.719,12.33,12.33,0,0,0-11.565,12.3V27A7.573,7.573,0,0,1,8.2,34.58a19.858,19.858,0,0,1-4.818-.6,1.268,1.268,0,0,0-.269-.031A1.118,1.118,0,0,0,2,35.069a1.59,1.59,0,0,0,.6,1.241q.3.244.627.46A1.575,1.575,0,0,1,2.98,36a1.118,1.118,0,0,1,1.072-1.157Z" transform="translate(-0.373 -2.264)" fill="#fbcf43"/>
    <path id="Path_672" data-name="Path 672" d="M51.576,8.076a1.817,1.817,0,0,0-1-.89,1.817,1.817,0,0,0-.663.417L48.344,9.169a1.708,1.708,0,0,0-.075,2.336l.43.488,3.629-2.417Z" transform="translate(-17.492 -0.443)" fill="#216361"/>
    <path id="Path_673" data-name="Path 673" d="M38.143,26.05a1.685,1.685,0,0,0-.539.088l-1.754.585a11.348,11.348,0,0,1-8.032-.334,2.887,2.887,0,0,1-1.128-.872q0-.016,0-.032a12.477,12.477,0,0,1,1.953-6.708l1.091-1.714a8.56,8.56,0,0,0,1.342-4.609c0-.021,0-.04,0-.063L35.183,9.65a.627.627,0,0,0,.213-.8l-.749-1.5a2.448,2.448,0,0,0-3.92-.636l-2.461,2.46a3.4,3.4,0,0,0-.511-.044A12.983,12.983,0,0,0,14.785,22.1v1.425A8.02,8.02,0,0,1,11.174,22.4l-.846-.508a1.608,1.608,0,0,0-2.435,1.379,4.1,4.1,0,0,0,.515,1.988,10.071,10.071,0,0,0,4.5,4.212A6.926,6.926,0,0,1,7.83,31.689a19.289,19.289,0,0,1-4.668-.575A1.742,1.742,0,0,0,1,32.805a2.2,2.2,0,0,0,.831,1.73A9.921,9.921,0,0,0,8.008,36.7a11.775,11.775,0,0,0,10.865-7.238,11.926,11.926,0,0,0,11.577,9.118h2.318a2.068,2.068,0,0,0,.608-4.045,9.486,9.486,0,0,1-3.89-2.318,18.4,18.4,0,0,0,1.883.1,11.952,11.952,0,0,0,7.637-2.765,2.333,2.333,0,0,0,.841-1.8,1.707,1.707,0,0,0-1.7-1.7ZM31.611,7.6a1.195,1.195,0,0,1,1.914.313l.5,1-3.251,2.167a3.226,3.226,0,0,0-1.228-1.42ZM9.5,24.652a2.849,2.849,0,0,1-.357-1.378.365.365,0,0,1,.537-.3l.847.508a9.273,9.273,0,0,0,4.256,1.3A6.911,6.911,0,0,1,13.7,28.448a8.812,8.812,0,0,1-4.2-3.8Zm9.041-1.637v2.372l-.091.774A10.519,10.519,0,0,1,8.008,35.449a8.664,8.664,0,0,1-5.393-1.892.957.957,0,0,1-.362-.752.49.49,0,0,1,.489-.489.511.511,0,0,1,.119.014,20.506,20.506,0,0,0,4.968.612,8.215,8.215,0,0,0,8.208-8.208V22.1A11.736,11.736,0,0,1,24.327,10.9a15.525,15.525,0,0,0-5.783,12.117ZM33.007,35.734a.815.815,0,0,1-.239,1.595H30.449A10.664,10.664,0,0,1,19.8,26.677V23.015a14.28,14.28,0,0,1,7.55-12.622c.135-.007.269-.007.407-.007a2.068,2.068,0,0,1,2.068,2.068,7.32,7.32,0,0,1-1.146,3.935L27.586,18.1a13.722,13.722,0,0,0-2.149,7.382,10.669,10.669,0,0,0,7.57,10.248Zm5.2-7.143a10.7,10.7,0,0,1-6.838,2.472,17.232,17.232,0,0,1-3.065-.28,9.4,9.4,0,0,1-1.435-3.476,4.149,4.149,0,0,0,.455.234,12.6,12.6,0,0,0,8.919.371L38,27.327a.462.462,0,0,1,.593.429,1.084,1.084,0,0,1-.39.833Z" transform="translate(0 0)"/>
  </g>
</svg>
