<svg id="Group_878" data-name="Group 878" xmlns="http://www.w3.org/2000/svg" width="156.029" height="166.155" viewBox="0 0 156.029 166.155">
  <g id="Group_770" data-name="Group 770" transform="translate(19.562 155.207)">
    <path id="Path_794" data-name="Path 794" d="M1145.88,3217.1s8.827,1.713,7.821,5.351c-.687,2.484-6.809.53-6.809.53s-6.021,4.415-13.2,3.742c-4.669-.437-2.423-2.931-2.59-3.143s-3.741,1.517-5.05.814a1.481,1.481,0,0,1-.5-2.386c-.02-.084-1.265.1-1.666-.381-1.178-1.4,3.519-3.3,6.329-3.947C1137.063,3216.109,1145.88,3217.1,1145.88,3217.1Z" transform="translate(-1123.705 -3216.791)" fill="#ffca9f"/>
  </g>
  <g id="Group_771" data-name="Group 771" transform="translate(18.613 154.255)">
    <path id="Path_795" data-name="Path 795" d="M1120.16,3212.633c-.527,0-1.063-.023-1.607-.074-1.868-.176-3.031-.7-3.555-1.595a2.112,2.112,0,0,1-.287-1.143c-1.626.513-3.133.85-4.158.3a2.464,2.464,0,0,1-1.38-1.7,2.191,2.191,0,0,1-.019-.7,1.876,1.876,0,0,1-1.039-.588,1.632,1.632,0,0,1-.318-1.617c.8-2.377,7.1-3.848,7.161-3.862,6.921-1.587,15.611-.639,15.978-.6l.075.011c.659.128,6.486,1.329,8.179,4.062a3.046,3.046,0,0,1,.375,2.471,2.391,2.391,0,0,1-1.208,1.483c-1.791.969-5.1.183-6.35-.17A22.691,22.691,0,0,1,1120.16,3212.633Zm-4.122-5.126a.9.9,0,0,1,.757.38,1.2,1.2,0,0,1,.021,1.307c-.1.223-.286.638-.182.816.029.052.339.5,2.1.663,6.72.63,12.495-3.522,12.553-3.564l.388-.282.459.145c1.606.511,4.321.986,5.325.443a.493.493,0,0,0,.283-.321,1.14,1.14,0,0,0-.159-.969c-.942-1.523-4.709-2.762-6.892-3.193-.623-.066-8.924-.9-15.306.565a14.808,14.808,0,0,0-5.637,2.4c.181.02.4.023.489.024a1.089,1.089,0,0,1,1.2.766l.1.46-.3.36a.887.887,0,0,0-.2.553c.024.118.176.26.415.39.524.281,2.574-.4,3.248-.619A4.829,4.829,0,0,1,1116.038,3207.507Z" transform="translate(-1107.706 -3200.733)" fill="#650000"/>
  </g>
  <g id="Group_772" data-name="Group 772" transform="translate(26.044 158.912)">
    <path id="Path_796" data-name="Path 796" d="M1239.077,3280.154c-.405.186-.822.4-1.219.623s-.788.46-1.16.712a7.8,7.8,0,0,0-1.886,1.694.952.952,0,1,1-1.532-1.131.914.914,0,0,1,.119-.133l.009-.009a9.411,9.411,0,0,1,2.63-1.633c.452-.2.908-.37,1.367-.528s.916-.294,1.4-.417a.434.434,0,0,1,.287.814Z" transform="translate(-1233.093 -3279.32)" fill="#650000"/>
  </g>
  <g id="Group_773" data-name="Group 773" transform="translate(20.211 157.546)">
    <path id="Path_797" data-name="Path 797" d="M1140.711,3257.124c-.787.45-1.571.927-2.33,1.419a23.6,23.6,0,0,0-2.164,1.555.951.951,0,1,1-1.212-1.466.966.966,0,0,1,.142-.1,25.2,25.2,0,0,1,2.581-1.231c.865-.361,1.729-.693,2.612-1.005a.454.454,0,0,1,.377.822Z" transform="translate(-1134.661 -3256.272)" fill="#650000"/>
  </g>
  <g id="Group_774" data-name="Group 774" transform="translate(91.087 155.207)">
    <path id="Path_798" data-name="Path 798" d="M2338.507,3217.1s-8.828,1.713-7.821,5.351c.687,2.484,6.808.53,6.808.53s6.022,4.415,13.2,3.742c4.669-.437,2.424-2.931,2.59-3.143s3.741,1.517,5.05.814a1.481,1.481,0,0,0,.5-2.386c.018-.084,1.265.1,1.666-.381,1.178-1.4-3.519-3.3-6.329-3.947C2347.324,3216.109,2338.507,3217.1,2338.507,3217.1Z" transform="translate(-2330.606 -3216.791)" fill="#ffca9f"/>
  </g>
  <g id="Group_775" data-name="Group 775" transform="translate(90.141 154.255)">
    <path id="Path_799" data-name="Path 799" d="M2334.157,3212.63a22.691,22.691,0,0,1-11.845-3.724c-1.25.352-4.56,1.139-6.35.17a2.392,2.392,0,0,1-1.208-1.484,3.051,3.051,0,0,1,.374-2.472c1.694-2.733,7.52-3.933,8.179-4.062l.075-.01c.366-.041,9.057-.99,15.977.6.063.015,6.364,1.485,7.161,3.862a1.635,1.635,0,0,1-.319,1.617,1.879,1.879,0,0,1-1.038.588,2.205,2.205,0,0,1-.02.7,2.46,2.46,0,0,1-1.38,1.7c-1.025.55-2.532.213-4.158-.3a2.119,2.119,0,0,1-.287,1.144c-.524.9-1.687,1.419-3.556,1.594C2335.222,3212.606,2334.685,3212.63,2334.157,3212.63Zm-11.51-5.809.388.285c.057.042,5.834,4.195,12.552,3.565,1.758-.165,2.068-.613,2.1-.663.1-.179-.082-.594-.182-.817a1.2,1.2,0,0,1,.021-1.306c.465-.591,1.044-.4,2.1-.052.674.222,2.725.9,3.249.618.239-.129.391-.27.415-.39a.9.9,0,0,0-.2-.562l-.285-.356.094-.455a1.087,1.087,0,0,1,1.2-.766c.094,0,.308,0,.489-.025a14.815,14.815,0,0,0-5.637-2.4c-6.382-1.464-14.682-.633-15.306-.567-2.183.431-5.95,1.67-6.892,3.194a1.141,1.141,0,0,0-.16.969.494.494,0,0,0,.283.322c1,.544,3.719.069,5.326-.442Z" transform="translate(-2314.642 -3200.729)" fill="#650000"/>
  </g>
  <g id="Group_776" data-name="Group 776" transform="translate(108.431 158.912)">
    <path id="Path_800" data-name="Path 800" d="M2623.8,3279.334c.482.122.936.262,1.4.417s.915.33,1.367.528a9.388,9.388,0,0,1,2.63,1.634l.005,0a.952.952,0,0,1-1.286,1.4,1.058,1.058,0,0,1-.123-.137,7.8,7.8,0,0,0-1.887-1.694c-.371-.253-.761-.488-1.16-.713s-.814-.437-1.218-.623l-.013-.006a.433.433,0,0,1,.287-.814Z" transform="translate(-2623.265 -3279.321)" fill="#650000"/>
  </g>
  <g id="Group_777" data-name="Group 777" transform="translate(114.228 157.547)">
    <path id="Path_801" data-name="Path 801" d="M2721.692,3256.3c.883.311,1.746.643,2.612,1a25.263,25.263,0,0,1,2.581,1.231.951.951,0,0,1-.927,1.661,1.149,1.149,0,0,1-.143-.1,23.738,23.738,0,0,0-2.163-1.556c-.76-.491-1.543-.968-2.33-1.418l-.006,0a.454.454,0,0,1,.376-.821Z" transform="translate(-2721.087 -3256.276)" fill="#650000"/>
  </g>
  <g id="Group_784" data-name="Group 784" transform="translate(99.86 44.173)">
    <g id="Group_778" data-name="Group 778" transform="translate(0.987 0.95)">
      <path id="Path_802" data-name="Path 802" d="M2495.31,1429.833s13.15,2.928,19.821-9.189c6.523-11.847-5.436-26.487-5.388-37.392.066-14.762,10.385-27.714,27.187-23.017,17.044,4.765,14.5,25.649,5.948,30.781-5.037,3.023-9.282,1.635-10.642-3.918s5.74-8.927,3.357-13.321-11.694-4.417-13.838,4.6,5.314,24.749,5.65,34.8c.314,9.395-5.477,18.554-13.773,22.865-9.892,5.141-17.987,3.83-17.987,3.83Z" transform="translate(-2495.31 -1359.256)" fill="#804959"/>
    </g>
    <g id="Group_780" data-name="Group 780" transform="translate(1.153 55.162)" opacity="0.3">
      <path id="Path_804" data-name="Path 804" d="M2530.04,2274.015c.188,9.293-5.57,18.307-13.781,22.576-9.891,5.139-17.986,3.829-17.986,3.829l-.17-5.095a39.367,39.367,0,0,0,17.475-4.021A26.756,26.756,0,0,0,2530.04,2274.015Z" transform="translate(-2498.103 -2274.015)" fill="#650000"/>
    </g>
    <g id="Group_781" data-name="Group 781" transform="translate(27.202 7.253)" opacity="0.3">
      <path id="Path_805" data-name="Path 805" d="M2937.877,1478.425c-.046.2-.089.4-.127.6a17.394,17.394,0,0,1,.329-5.914c2.361-9.026,12.491-9.029,15.071-4.641,1.22,2.07.137,3.92-1.191,5.88a4.188,4.188,0,0,0-.242-.525C2949.333,1469.432,2940.022,1469.407,2937.877,1478.425Z" transform="translate(-2937.647 -1465.606)" fill="#650000"/>
    </g>
    <g id="Group_782" data-name="Group 782" transform="translate(37.738 23.329)" opacity="0.3">
      <path id="Path_806" data-name="Path 806" d="M3132.252,1737.251c-1.03,3.947-3.189,7.322-5.993,9.006-5.038,3.022-9.281,1.636-10.643-3.92a7.257,7.257,0,0,1,1.074-5.462.919.919,0,0,0,.027.117c1.462,5.551,6.077,6.924,11.567,3.887A12.362,12.362,0,0,0,3132.252,1737.251Z" transform="translate(-3115.441 -1736.876)" fill="#650000"/>
    </g>
    <g id="Group_783" data-name="Group 783">
      <path id="Path_807" data-name="Path 807" d="M2482.542,1425.9a18.46,18.46,0,0,1-2.72-.168l-.769-.125-.4-12.039,1.192.265c.511.113,12.548,2.609,18.786-8.721,3.845-6.984.878-15.11-1.992-22.969-1.816-4.974-3.532-9.671-3.513-13.971.039-8.742,3.558-16.6,9.413-21.024,5.188-3.918,11.75-4.921,18.976-2.9,7.357,2.057,12.141,7.425,13.126,14.728.967,7.178-2.018,14.822-6.945,17.778-2.878,1.728-5.575,2.151-7.8,1.224-2.075-.865-3.546-2.846-4.251-5.729-.765-3.124.769-5.571,2.121-7.73,1.406-2.245,2.223-3.7,1.323-5.364-.911-1.681-3.2-2.636-5.558-2.323-3.191.423-5.63,2.925-6.526,6.691-1.193,5.018.792,12.465,2.712,19.666,1.449,5.438,2.819,10.575,2.963,14.881.321,9.593-5.418,19.132-14.282,23.738A34.712,34.712,0,0,1,2482.542,1425.9Zm-1.65-1.961a32.112,32.112,0,0,0,16.632-3.813c8.229-4.276,13.56-13.115,13.263-21.994-.137-4.091-1.479-9.127-2.9-14.457-1.98-7.429-4.028-15.111-2.725-20.593,1.084-4.561,4.121-7.6,8.12-8.13,3.172-.421,6.174.9,7.472,3.3,1.473,2.715.021,5.032-1.383,7.273-1.266,2.02-2.461,3.927-1.886,6.274.557,2.275,1.644,3.807,3.141,4.431,1.645.687,3.751.306,6.094-1.1,4.246-2.548,6.9-9.533,6.041-15.9-.516-3.831-2.73-10.632-11.757-13.156-6.636-1.855-12.626-.96-17.324,2.588-5.386,4.068-8.624,11.366-8.661,19.521-.017,3.96,1.641,8.5,3.4,13.313,2.875,7.872,6.134,16.794,1.873,24.532a18.483,18.483,0,0,1-13.065,9.612,22.06,22.06,0,0,1-6.6.233Z" transform="translate(-2478.651 -1343.228)" fill="#650000"/>
    </g>
  </g>
  <g id="Group_785" data-name="Group 785" transform="translate(119.525 42.661)">
    <path id="Path_808" data-name="Path 808" d="M2822.2,1341.311s13.023,3.045,12.484.219-4.81-3.967-4.81-3.967,7-7.946,6.715-12.1c-.326-4.709-4.968-.4-6.544.848,0,0,2.768-6.091.979-7.014-1.509-.78-6.284,4.926-6.284,4.926s1.989-6.17-.454-6.489c-3.213-.42-7.842,10.98-13.81,13.638Z" transform="translate(-2810.474 -1317.727)" fill="#ffca9f"/>
  </g>
  <g id="Group_786" data-name="Group 786" transform="translate(118.578 41.714)">
    <path id="Path_809" data-name="Path 809" d="M2816.711,1328.63a49.614,49.614,0,0,1-9.762-1.436.95.95,0,0,1-.4-.2l-11.724-9.934a.948.948,0,0,1,.227-1.588c2.852-1.27,5.473-4.831,7.784-7.973,2.472-3.36,4.424-6.016,6.534-5.739a2.088,2.088,0,0,1,1.535.984,5.327,5.327,0,0,1,.453,3.225c1.872-1.844,3.811-3.2,5.063-2.549,1.467.758,1.246,3,.646,5.073,1.393-.928,2.743-1.473,3.884-.982.922.4,1.442,1.356,1.546,2.851.252,3.62-4.077,9.328-6.057,11.735,1.486.643,3.708,1.962,4.137,4.216a1.627,1.627,0,0,1-.477,1.526A5.231,5.231,0,0,1,2816.711,1328.63Zm-9.11-3.229c5.057,1.163,10.06,1.67,11.088,1.138-.45-1.753-3.092-2.829-4.1-3.1a.948.948,0,0,1-.465-1.541c1.875-2.128,6.694-8.327,6.48-11.4-.056-.812-.253-1.177-.405-1.242-.538-.232-1.919.561-4.1,2.357-.189.156-.359.3-.5.41a.947.947,0,0,1-1.451-1.134c1.2-2.643,1.732-5.18,1.429-5.74-.8.155-3.145,2.262-5.145,4.652a.947.947,0,0,1-1.628-.9c.51-1.589,1.024-4.322.5-5.141a.211.211,0,0,0-.18-.119c-1-.13-3.087,2.705-4.763,4.984-2.128,2.892-4.5,6.12-7.259,7.885Z" transform="translate(-2794.494 -1301.74)" fill="#650000"/>
  </g>
  <g id="Group_787" data-name="Group 787" transform="translate(1.593 55.071)">
    <path id="Path_810" data-name="Path 810" d="M856.249,1574.589c-1.437-.554-2.358-.975-2.415-1l0,0c-20.073-.9-28.355-11.225-30.884-15.693l0,0c-.118-.211-.223-.407-.317-.59-4.165-8.076-2.112-19.384,5.268-24.623a31.888,31.888,0,0,1,15.946-5.481,27.314,27.314,0,0,1,12.52,1.887c4.037,1.724,5.585,6.445,5.294,9.3-.876,8.566-7.785,10.789-16.5,13.287a8.09,8.09,0,0,0-2.034.848c-4.451,2.744,2.832,7.889,6.807,9.047,0,0,.138-.111.4-.308,2.481-1.875,16.024-11.4,22.545-.871a22.141,22.141,0,0,1,2.687,7.569c.055.277.1.558.151.848C877.842,1581.73,862.37,1576.947,856.249,1574.589Z" transform="translate(-820.502 -1527.121)" fill="#804959"/>
  </g>
  <g id="Group_788" data-name="Group 788" transform="translate(0.651 54.139)">
    <path id="Path_811" data-name="Path 811" d="M853.54,1563.6c-6.125,0-13.6-3.277-14.884-3.863-9.147-.436-16.888-2.835-23.014-7.132a27.911,27.911,0,0,1-8.8-9.656,21.632,21.632,0,0,1-1.78-14,18.929,18.929,0,0,1,7.342-11.831c8.28-5.878,20.639-7.432,29.387-3.695,4.569,1.952,6.179,7.176,5.864,10.263-.967,9.457-8.846,11.713-17.186,14.1-1.25.358-2.74,1-2.743,2.036,0,1.887,4.049,4.916,7.229,5.951,2.13-.76,14.134-4.724,21.426-.424,2.963,1.748,4.752,4.616,5.315,8.524.551,3.826-.269,6.582-2.439,8.191A9.517,9.517,0,0,1,853.54,1563.6Zm-22.442-50.32a31.09,31.09,0,0,0-17.6,5.384c-6.765,4.8-9.043,15.526-4.975,23.417a25.974,25.974,0,0,0,8.208,8.973c5.867,4.115,13.335,6.4,22.2,6.8a.952.952,0,0,1,.359.088c3.813,1.783,14.63,5.728,18.84,2.6,1.567-1.163,2.136-3.315,1.692-6.4a9.355,9.355,0,0,0-4.4-7.161c-7.068-4.171-19.976.626-20.106.675a.944.944,0,0,1-.6.023c-3.1-.9-8.892-4.4-8.884-7.863,0-1.221.719-2.88,4.115-3.852,9.324-2.67,15.042-4.842,15.823-12.473.25-2.438-1.079-6.772-4.723-8.328A25.461,25.461,0,0,0,831.1,1513.279Z" transform="translate(-804.612 -1511.4)" fill="#650000"/>
  </g>
  <g id="Group_789" data-name="Group 789" transform="translate(21.351 53.386)">
    <path id="Path_812" data-name="Path 812" d="M1268.556,1509.211a20.094,20.094,0,0,1-3.819,10.879c-9.951,14.135-34.918,20.7-34.918,20.7s2.521,4.856,7.2,14.8q1.573,3.342,3.469,7.456c5.218,11.331,9.123,30.029,3.738,37.1-2.981,3.919-15.046,3.886-17.741,1.011-2.084-2.223-3.09-3.689-6.3-8.9-5.64-9.161-16.18-9.279-25.651-9.653-5.926-.234-12.118-.156-13.422,6.492-1.1,5.614-1.4,10.6-4.515,12.714-1.577,1.071-4.094,1.307-7.323,1.224-7-.178-12.473-5.543-14.277-12.532a27.8,27.8,0,0,1-.632-12.861c1.925-10.856,12.958-13.4,12.958-13.4a57.994,57.994,0,0,0,.14-17.4l0,0c-.182-1.243-.419-2.512-.718-3.786l7.474-3.566,12.277-5.853,21.249-10.133a57.1,57.1,0,0,0,20.04-7c1.828-1.023,3.563-2.1,5.22-3.2,8.661-5.737,15.12-11.983,20.622-13.822,7.62-2.547,12.016,1.683,13.32,3.772q.235.38.433.767A11.181,11.181,0,0,1,1268.556,1509.211Z" transform="translate(-1153.895 -1498.688)" fill="#804959"/>
  </g>
  <g id="Group_791" data-name="Group 791" transform="translate(86.39 58.717)" opacity="0.3">
    <path id="Path_814" data-name="Path 814" d="M2297.156,1604.711c-9.951,14.135-34.918,20.7-34.918,20.7s2.522,4.856,7.2,14.8c-9.51-13.166-11.1-6.705-14.845-7.782-2.985-.862,4.488-4.184,3.386-6.031s-11.436-1.7-3.9-4.785c5.851-2.391,13.5,1.506,36.235-13.242a20.908,20.908,0,0,0,9.488-19.729C2302.5,1593.92,2300.092,1600.545,2297.156,1604.711Z" transform="translate(-2251.354 -1588.64)" fill="#650000"/>
  </g>
  <g id="Group_792" data-name="Group 792" transform="translate(20.406 52.446)">
    <path id="Path_815" data-name="Path 815" d="M1219.462,1589.231c-3.222,0-7.023-.6-8.667-2.353-2.158-2.3-3.243-3.9-6.412-9.05-5.2-8.446-14.756-8.814-24-9.17l-.886-.034c-6.153-.244-11.335.02-12.454,5.728-.188.959-.353,1.9-.513,2.819-.8,4.572-1.489,8.52-4.4,10.5-1.58,1.073-3.937,1.489-7.879,1.388-7.074-.18-13.17-5.5-15.17-13.243a28.814,28.814,0,0,1-.646-13.264c1.739-9.806,10.61-13.216,13.055-13.976a56.967,56.967,0,0,0-.667-20.229.947.947,0,0,1,1.844-.432,57.646,57.646,0,0,1,.589,21.584.947.947,0,0,1-.718.745c-.425.1-10.45,2.549-12.238,12.638a26.739,26.739,0,0,0,.615,12.46c1.786,6.914,7.165,11.665,13.384,11.823,3.469.087,5.556-.239,6.766-1.062,2.248-1.526,2.874-5.108,3.6-9.255.161-.924.328-1.88.52-2.858,1.522-7.765,9.265-7.459,14.388-7.257l.885.035c9.284.357,19.807.763,25.537,10.069,3.288,5.34,4.212,6.648,6.181,8.748,1.119,1.194,4.684,1.921,8.477,1.724,3.719-.191,6.716-1.21,7.819-2.66,5.2-6.832,1.109-25.374-3.844-36.132-6.8-14.78-10.618-22.141-10.656-22.213a.948.948,0,0,1,.6-1.353c.246-.065,24.751-6.644,34.385-20.327,2.944-4.182,5.283-10.828,2.186-15.794-1.43-2.292-5.612-5.582-12.215-3.375-3.312,1.107-7.13,3.991-11.55,7.331-8.58,6.481-19.258,14.547-34.5,16.732a.947.947,0,1,1-.268-1.875c14.756-2.115,25.219-10.018,33.625-16.368,4.554-3.44,8.487-6.41,12.092-7.615,7.721-2.582,12.7,1.406,14.422,4.169,3.589,5.753,1.034,13.231-2.244,17.886-8.937,12.694-29.255,19.273-34.324,20.753,1.27,2.509,4.789,9.577,10.166,21.258,4.956,10.766,9.537,30.311,3.631,38.071-2.1,2.754-7.152,3.3-9.229,3.405C1220.337,1589.219,1219.905,1589.231,1219.462,1589.231Zm-67.135-39.913h0Z" transform="translate(-1137.947 -1482.822)" fill="#650000"/>
  </g>
  <g id="Group_793" data-name="Group 793" transform="translate(40.904 95.79)">
    <path id="Path_816" data-name="Path 816" d="M1528.2,2236.968c0,9.843-9.986,16.626-22.535,16.626-13.013,0-21.159-7.021-21.8-16.326-.678-9.841,7.731-21.191,19.471-22.841C1517.717,2212.4,1528.2,2225.275,1528.2,2236.968Z" transform="translate(-1483.828 -2214.216)" fill="#ffca9f"/>
  </g>
  <g id="Group_802" data-name="Group 802" transform="translate(35.252 79.694)">
    <g id="Group_794" data-name="Group 794" transform="translate(0.71 0.71)">
      <path id="Path_817" data-name="Path 817" d="M1445.537,1956.427s-8.973,22.635-23.044,23.589c-16.332,1.107-20.3-25.254-20.3-25.254l-1.752-.167s2.211,28.9,22.028,28.062c17.845-.756,25.449-26.894,25.449-26.894Z" transform="translate(-1400.442 -1954.594)" fill="#fce15e"/>
    </g>
    <g id="Group_795" data-name="Group 795" transform="translate(0.71 0.71)" opacity="0.3">
      <path id="Path_818" data-name="Path 818" d="M1447.907,1955.753s-7.6,26.136-25.448,26.894c-19.818.838-22.028-28.063-22.028-28.063l.845.08c.647,5.976,4.143,27.24,21.183,26.52,15.032-.64,22.459-19.287,24.429-25.147Z" transform="translate(-1400.431 -1954.583)" fill="#650000"/>
    </g>
    <g id="Group_796" data-name="Group 796">
      <path id="Path_819" data-name="Path 819" d="M1410.37,1972.106c-8.018,0-14.323-4.881-18.274-14.167a51.5,51.5,0,0,1-3.637-14.569.71.71,0,0,1,.776-.761l1.752.167a.71.71,0,0,1,.635.6c.039.257,4.064,25.7,19.549,24.652,13.46-.912,22.344-22.92,22.432-23.142a.71.71,0,0,1,.469-.423l2.381-.664a.71.71,0,0,1,.873.883,59.373,59.373,0,0,1-6.112,13.341c-5.536,8.881-12.448,13.745-19.989,14.064C1410.938,1972.1,1410.653,1972.106,1410.37,1972.106Zm-20.407-28a51.138,51.138,0,0,0,3.452,13.308c3.894,9.13,9.865,13.591,17.749,13.255,14.925-.632,22.612-20,24.391-25.143l-.766.213c-1.215,2.931-9.941,22.787-23.523,23.708-7,.476-12.861-3.89-16.965-12.619a53.82,53.82,0,0,1-3.993-12.689Z" transform="translate(-1388.457 -1942.605)" fill="#650000"/>
    </g>
    <g id="Group_797" data-name="Group 797" transform="translate(13.398 26.133)">
      <circle id="Ellipse_33" data-name="Ellipse 33" cx="8.043" cy="8.043" r="8.043" fill="#fce15e"/>
    </g>
    <g id="Group_798" data-name="Group 798" transform="translate(15.078 32.399)">
      <path id="Path_820" data-name="Path 820" d="M1655.6,2490.989a6.363,6.363,0,1,1-12.5-1.695,6.364,6.364,0,0,0,12.266,0A6.3,6.3,0,0,1,1655.6,2490.989Z" transform="translate(-1642.875 -2489.294)" fill="#d7b820"/>
    </g>
    <g id="Group_799" data-name="Group 799" transform="translate(11.62 24.355)">
      <path id="Path_821" data-name="Path 821" d="M1594.353,2355.344a8.043,8.043,0,1,1-8.043,8.043,8.043,8.043,0,0,1,8.043-8.043m0-1.778a9.821,9.821,0,1,0,9.821,9.821,9.832,9.832,0,0,0-9.821-9.821Z" transform="translate(-1584.532 -2353.566)" fill="#650000"/>
    </g>
    <g id="Group_801" data-name="Group 801" transform="translate(18.643 29.085)">
      <g id="Group_800" data-name="Group 800">
        <path id="Path_822" data-name="Path 822" d="M1708.443,2436.9l-2.065-.284.047-.343a2.235,2.235,0,0,0,.027-.724.3.3,0,0,0-.283-.211.316.316,0,0,0-.3.106.819.819,0,0,0-.155.424.956.956,0,0,0,.1.707,7.692,7.692,0,0,0,1.01.911,8.279,8.279,0,0,1,.974.875,1.986,1.986,0,0,1,.385.782,2.981,2.981,0,0,1,.039,1.18,2.625,2.625,0,0,1-.77,1.66,2.467,2.467,0,0,1-1.7.558l-.107.777-.951-.13.11-.8a2.5,2.5,0,0,1-1.359-.835,2.536,2.536,0,0,1-.353-2.02l.055-.4,2.066.284-.069.506a4.837,4.837,0,0,0-.078,1.044.291.291,0,0,0,.282.245.366.366,0,0,0,.331-.1.714.714,0,0,0,.16-.4,3.585,3.585,0,0,0,.039-1.007,1.477,1.477,0,0,0-.575-.743,14.671,14.671,0,0,1-1.167-1.048,2.32,2.32,0,0,1-.48-.866,2.589,2.589,0,0,1-.091-1.179,1.982,1.982,0,0,1,.723-1.379,2.593,2.593,0,0,1,1.661-.434l.09-.659.951.13-.09.66a2.278,2.278,0,0,1,1.343.838,2.061,2.061,0,0,1,.279,1.5C1708.505,2436.595,1708.481,2436.723,1708.443,2436.9Z" transform="translate(-1703.038 -2433.382)" fill="#fff"/>
      </g>
    </g>
  </g>
  <g id="Group_851" data-name="Group 851" transform="translate(0)">
    <g id="Group_803" data-name="Group 803" transform="translate(93.547 38.966)">
      <path id="Path_823" data-name="Path 823" d="M2372.117,1263.635a8.771,8.771,0,0,1,7.854-8.175c7.264-.946,11.447,5.681,11.306,11.093-.148,5.687-2.684,9.033-6.867,10.965a20.3,20.3,0,0,1-9.255,1.552" transform="translate(-2372.117 -1255.369)" fill="#ffca9f"/>
    </g>
    <g id="Group_805" data-name="Group 805" transform="translate(93.949 45.813)">
      <path id="Path_825" data-name="Path 825" d="M2378.9,1375.432a4.939,4.939,0,0,1,4.559-4.476,5.734,5.734,0,0,1,6.464,5.979,6.243,6.243,0,0,1-4,5.987,12.409,12.409,0,0,1-5.337.883" transform="translate(-2378.903 -1370.901)" fill="#f28475"/>
    </g>
    <g id="Group_806" data-name="Group 806" transform="translate(93.002 44.864)">
      <path id="Path_826" data-name="Path 826" d="M2366.206,1369.718c-.428,0-.7-.021-.732-.024a.947.947,0,1,1,.156-1.887,11.541,11.541,0,0,0,4.877-.806,5.327,5.327,0,0,0,3.438-5.154,5.177,5.177,0,0,0-1.659-3.906,4.49,4.49,0,0,0-3.736-1.1,3.943,3.943,0,0,0-3.736,3.59.947.947,0,0,1-1.891-.1,5.868,5.868,0,0,1,5.382-5.366,6.328,6.328,0,0,1,5.256,1.578,7.123,7.123,0,0,1,2.278,5.374,7.22,7.22,0,0,1-4.567,6.819A13.024,13.024,0,0,1,2366.206,1369.718Z" transform="translate(-2362.922 -1354.898)" fill="#650000"/>
    </g>
    <g id="Group_807" data-name="Group 807" transform="translate(92.6 38.018)">
      <path id="Path_827" data-name="Path 827" d="M2361.434,1265.026c-.821,0-1.338-.047-1.4-.053a.947.947,0,0,1,.18-1.886,19.485,19.485,0,0,0,8.768-1.469c4.18-1.929,6.187-5.149,6.317-10.129a10.916,10.916,0,0,0-3.421-8.075,8.28,8.28,0,0,0-6.816-2.055,7.742,7.742,0,0,0-7.03,7.274.947.947,0,1,1-1.892-.077c0-.079.418-8,8.677-9.076a10.121,10.121,0,0,1,8.328,2.526,12.7,12.7,0,0,1,4.046,9.531c-.148,5.705-2.573,9.565-7.415,11.8A20.561,20.561,0,0,1,2361.434,1265.026Z" transform="translate(-2356.138 -1239.383)" fill="#650000"/>
    </g>
    <g id="Group_808" data-name="Group 808" transform="translate(0.953 50.839)">
      <path id="Path_828" data-name="Path 828" d="M827.925,1461.725a8.771,8.771,0,0,0-9.674-5.91c-7.265.932-9.626,8.4-8.114,13.6,1.589,5.463,4.892,8.054,9.428,8.859a20.292,20.292,0,0,0,9.345-.852" transform="translate(-809.702 -1455.721)" fill="#ffca9f"/>
    </g>
    <g id="Group_810" data-name="Group 810" transform="translate(0.953 61.311)" opacity="0.3">
      <path id="Path_830" data-name="Path 830" d="M810.149,1635.642c1.589,5.464,4.892,8.056,9.428,8.86a20.31,20.31,0,0,0,9.346-.854l-.211-3.361a21.637,21.637,0,0,1-9.088.584,12.087,12.087,0,0,1-9.909-8.453A11.322,11.322,0,0,0,810.149,1635.642Z" transform="translate(-809.714 -1632.417)" fill="#650000"/>
    </g>
    <g id="Group_811" data-name="Group 811" transform="translate(95.933 46.921)" opacity="0.3">
      <path id="Path_831" data-name="Path 831" d="M2429.162,1392.823c-.148,5.688-2.684,9.035-6.866,10.966a20.308,20.308,0,0,1-9.256,1.55l-.65-3.3a21.621,21.621,0,0,0,8.937-1.746,12.087,12.087,0,0,0,7.435-10.694A11.31,11.31,0,0,1,2429.162,1392.823Z" transform="translate(-2412.39 -1389.594)" fill="#650000"/>
    </g>
    <g id="Group_812" data-name="Group 812" transform="translate(9.062 56.728)">
      <path id="Path_832" data-name="Path 832" d="M957.06,1558.313a4.939,4.939,0,0,0-5.546-3.17,5.734,5.734,0,0,0-4.731,7.426,6.242,6.242,0,0,0,5.392,4.773,12.4,12.4,0,0,0,5.387-.5" transform="translate(-946.544 -1555.086)" fill="#f28475"/>
    </g>
    <g id="Group_813" data-name="Group 813" transform="translate(9.063 56.727)">
      <path id="Path_833" data-name="Path 833" d="M946.786,1562.551a6.241,6.241,0,0,0,5.391,4.772c.3.047.6.079.889.1a12.846,12.846,0,0,0,4.5-.6l-.5-8.527a5.076,5.076,0,0,0-1.205-1.861,4.962,4.962,0,0,0-4.342-1.309A5.735,5.735,0,0,0,946.786,1562.551Z" transform="translate(-946.549 -1555.067)" fill="#f28475"/>
    </g>
    <g id="Group_814" data-name="Group 814" transform="translate(14.457 60.586)" opacity="0.3">
      <path id="Path_834" data-name="Path 834" d="M1037.761,1625.977a4.64,4.64,0,0,0,2.162,2.59,17.01,17.01,0,0,0,4.5-.595l-.228-6.423a3.437,3.437,0,0,0-1.141-1.367c-.114.01-.227.023-.344.038C1038.519,1620.759,1037,1623.877,1037.761,1625.977Z" transform="translate(-1037.574 -1620.183)" fill="#650000"/>
    </g>
    <g id="Group_815" data-name="Group 815" transform="translate(94.09 50.782)" opacity="0.3">
      <path id="Path_835" data-name="Path 835" d="M2388.637,1459.126a4.643,4.643,0,0,1-1.433,3.055,17.041,17.041,0,0,1-4.5.568l-1.411-6.27a3.425,3.425,0,0,1,.756-1.612c.112-.02.225-.036.343-.051C2386.577,1454.272,2388.834,1456.9,2388.637,1459.126Z" transform="translate(-2381.29 -1454.744)" fill="#650000"/>
    </g>
    <g id="Group_816" data-name="Group 816" transform="translate(8.116 55.782)">
      <path id="Path_836" data-name="Path 836" d="M938.664,1553.386a10.574,10.574,0,0,1-1.667-.128,7.218,7.218,0,0,1-6.15-5.435,7.119,7.119,0,0,1,.836-5.776,6.33,6.33,0,0,1,4.682-2.862,5.867,5.867,0,0,1,6.569,3.822.947.947,0,0,1-1.8.579,3.941,3.941,0,0,0-4.525-2.522,4.489,4.489,0,0,0-3.334,2.014,5.176,5.176,0,0,0-.612,4.2,5.327,5.327,0,0,0,4.635,4.111,11.539,11.539,0,0,0,4.923-.462.947.947,0,0,1,.629,1.787A13.836,13.836,0,0,1,938.664,1553.386Z" transform="translate(-930.57 -1539.121)" fill="#650000"/>
    </g>
    <g id="Group_817" data-name="Group 817" transform="translate(0 49.892)">
      <path id="Path_837" data-name="Path 837" d="M807.233,1464.419a16.947,16.947,0,0,1-2.954-.25c-5.251-.931-8.578-4.046-10.172-9.526a12.7,12.7,0,0,1,1.49-10.246,10.123,10.123,0,0,1,7.413-4.561c8.261-1.06,10.676,6.5,10.7,6.572a.947.947,0,0,1-1.81.558,7.784,7.784,0,0,0-8.648-5.25,8.28,8.28,0,0,0-6.069,3.72,10.911,10.911,0,0,0-1.256,8.679c1.392,4.785,4.151,7.387,8.684,8.19a19.471,19.471,0,0,0,8.855-.809.947.947,0,0,1,.652,1.778A21.92,21.92,0,0,1,807.233,1464.419Z" transform="translate(-793.627 -1439.733)" fill="#650000"/>
    </g>
    <g id="Group_818" data-name="Group 818" transform="translate(59.698 8.177)">
      <path id="Path_838" data-name="Path 838" d="M1802.57,735.953l-1.615-.109C1801.493,735.868,1802.032,735.9,1802.57,735.953Z" transform="translate(-1800.955 -735.844)" fill="#b17e4f"/>
    </g>
    <g id="Group_819" data-name="Group 819" transform="translate(61.312 8.286)">
      <path id="Path_839" data-name="Path 839" d="M1828.308,737.692c-.036,0-.071-.007-.107-.01l.14.01Z" transform="translate(-1828.202 -737.682)" fill="#b17e4f"/>
    </g>
    <g id="Group_820" data-name="Group 820" transform="translate(13.475 0.946)">
      <path id="Path_840" data-name="Path 840" d="M1108.386,683.205c-.672,5.149-4.57,8.561-10.325,11.31l-8.876,1.146-50.49,6.525c-6.265-1.193-10.9-3.5-12.858-8.313-1.4-3.435-1.383-9.98,3.019-11.388-3.663-3.978-6.173-10.266-7.292-16.346-2.78-15.094,4.894-29.508,17.544-37.754a22.788,22.788,0,0,1-.3-3.668,18.528,18.528,0,0,1,.729-5.306.828.828,0,0,1,1.21-.471c1.333.777,2.822,2.211,3.719,2.576a.827.827,0,0,0,1.127-.625,33.015,33.015,0,0,1,1.792-6.58.828.828,0,0,1,1.324-.244,22.707,22.707,0,0,0,9.577,5.289,63.057,63.057,0,0,0,8.914,1.707h0a.053.053,0,0,1,.019,0c.994.1,1.563.116,1.721.118l.035,0h.01c18.856,1.669,35.079,15.418,36.483,34.108.462,6.166-.364,12.887-2.9,17.663,2.919.154,4.667,2.744,5.431,5.559A12.42,12.42,0,0,1,1108.386,683.205Z" transform="translate(-1020.995 -613.836)" fill="#804959"/>
    </g>
    <g id="Group_821" data-name="Group 821" transform="translate(81.665 65.628)" opacity="0.3">
      <path id="Path_841" data-name="Path 841" d="M2190.822,1709.945c-.672,5.149-4.57,8.561-10.324,11.31l-8.877,1.146c11.242-3.764,17.077-9.7,18.818-17.144A12.4,12.4,0,0,1,2190.822,1709.945Z" transform="translate(-2171.621 -1705.257)" fill="#650000"/>
    </g>
    <g id="Group_823" data-name="Group 823" transform="translate(12.531)">
      <path id="Path_843" data-name="Path 843" d="M1023.721,688.11a.94.94,0,0,1-.178-.017c-7.352-1.4-11.66-4.224-13.56-8.886a12.674,12.674,0,0,1,0-9.355,6.181,6.181,0,0,1,2.36-2.722c-3.114-3.846-5.524-9.534-6.685-15.843a35.534,35.534,0,0,1,3.064-22.028A41.665,41.665,0,0,1,1023.1,612.9a20.824,20.824,0,0,1,.548-8.791,1.774,1.774,0,0,1,2.592-1.015,19.865,19.865,0,0,1,1.992,1.409,12.987,12.987,0,0,0,1.472,1.044,33.383,33.383,0,0,1,1.841-6.669,1.775,1.775,0,0,1,2.838-.519,21.764,21.764,0,0,0,9.154,5.052,62.984,62.984,0,0,0,8.717,1.676h.007l.024,0c.591.029,1.138.067,1.667.115l.135.01a43.544,43.544,0,0,1,25.34,10.914,36.185,36.185,0,0,1,12.005,24.068c.479,6.4-.407,12.514-2.438,17.022a6.186,6.186,0,0,1,2.971,2.03,12.686,12.686,0,0,1,2.381,9.051c-.652,4.991-4.1,8.817-10.858,12.041a.947.947,0,0,1-.816-1.709c6.206-2.962,9.227-6.224,9.8-10.578a10.96,10.96,0,0,0-1.959-7.594,4.061,4.061,0,0,0-2.966-1.584l-1.481-.079.694-1.311c2.266-4.279,3.282-10.53,2.787-17.149-1.315-17.517-16.247-31.477-35.523-33.228h0l-.091-.007c-.215,0-.82-.02-1.834-.126l-.066-.007a64.722,64.722,0,0,1-8.958-1.724,23.845,23.845,0,0,1-9.879-5.409,34.024,34.024,0,0,0-1.646,6.186,1.775,1.775,0,0,1-2.418,1.342,10.162,10.162,0,0,1-2.049-1.362,20.133,20.133,0,0,0-1.659-1.2,19.264,19.264,0,0,0-.355,8.4l.049.3-.252.5-.215.141c-12.964,8.453-19.687,22.894-17.128,36.79,1.183,6.428,3.821,12.363,7.056,15.876l1,1.091-1.413.452a4.064,4.064,0,0,0-2.469,2.289,10.952,10.952,0,0,0,.038,7.839c1.657,4.067,5.408,6.454,12.161,7.74a.947.947,0,0,1-.176,1.877Z" transform="translate(-1005.076 -597.866)" fill="#650000"/>
    </g>
    <g id="Group_824" data-name="Group 824" transform="translate(31.412 71.196)" opacity="0.3">
      <path id="Path_844" data-name="Path 844" d="M1387.493,1799.222c-3.49,16.877-23.795,23.409-34.3,24.619-.983,0-2.467.071-4.3.087a53.691,53.691,0,0,1-14.963-1.716,30.226,30.226,0,0,1-10.269-4.981c2.481-1.876,16.024-11.4,22.545-.872l21.249-10.134A57.1,57.1,0,0,0,1387.493,1799.222Z" transform="translate(-1323.659 -1799.222)" fill="#650000"/>
    </g>
    <g id="Group_825" data-name="Group 825" transform="translate(21.439 26.616)">
      <path id="Path_845" data-name="Path 845" d="M1188.814,1060.151c-1.281-9.913-22.193-16-31.106,2.868-.055.113-.105.23-.158.345-6.46,14.245,3.631,28.47,3.631,28.47s-6.018,2.474-5.157,8.4c.511,3.521,4.429,8.071,9.115,9.5a51.568,51.568,0,0,0,8.962,1.7,88.17,88.17,0,0,0,41.836-5.362,55.781,55.781,0,0,0,8.567-4.011c4.166-2.578,6.8-7.974,6.4-11.509-.675-5.953-7.123-6.817-7.123-6.817s6.141-16.323-3.727-28.458c-.078-.1-.159-.2-.241-.293-13.414-15.983-32.094-4.78-30.813,5.134" transform="translate(-1155.391 -1046.972)" fill="#ffca9f"/>
    </g>
    <g id="Group_826" data-name="Group 826" transform="translate(55.756 34.65)">
      <path id="Path_846" data-name="Path 846" d="M1734.592,1183.989a6.958,6.958,0,0,0-.156-.829c.09-.209.188-.417.294-.623a7.565,7.565,0,0,0,.047,1.427Z" transform="translate(-1734.436 -1182.537)" fill="#f9d6b6"/>
    </g>
    <g id="Group_827" data-name="Group 827" transform="translate(22.185 64.224)" opacity="0.15">
      <path id="Path_847" data-name="Path 847" d="M1242.74,1689.083c-.357,21.692-84.049,29.74-73.911,3.313.8-6.985,24.56-10.83,24.56-10.83s-1.58,10.257-10.119,16.249a3.791,3.791,0,0,0,1.561,6.819C1205.684,1708.17,1239.816,1699.465,1242.74,1689.083Z" transform="translate(-1167.977 -1681.566)" fill="#650000"/>
    </g>
    <g id="Group_828" data-name="Group 828" transform="translate(20.503 25.665)">
      <path id="Path_848" data-name="Path 848" d="M1169.2,1097.869a87.669,87.669,0,0,1-10.076-.579,52,52,0,0,1-9.133-1.737c-5.182-1.586-9.237-6.592-9.771-10.273-.663-4.564,2.387-7.572,4.721-8.914a38.308,38.308,0,0,1-3.766-8.229c-2.318-7.211-2.095-14.216.645-20.258l.049-.11c.04-.087.079-.175.121-.26a22.394,22.394,0,0,1,9.681-10.69,18.181,18.181,0,0,1,11.369-1.878c4.67.737,8.542,3.157,10.512,6.332,1.1-3.571,4.229-6.9,8.559-8.8a18.175,18.175,0,0,1,11.472-1.074,22.4,22.4,0,0,1,12.087,7.888c.082.095.171.2.257.313,4.18,5.139,6.177,11.858,5.769,19.42a38.3,38.3,0,0,1-1.55,8.917c2.6.7,6.311,2.838,6.83,7.421.421,3.694-2.228,9.567-6.841,12.421a56.261,56.261,0,0,1-8.724,4.09A89.733,89.733,0,0,1,1169.2,1097.869Zm-8.931-61.243c-4.3,0-11.8,1.61-16.573,11.7-.038.079-.069.147-.1.216l-.054.119c-6.151,13.565,3.446,27.391,3.543,27.528l.687.971-1.1.453c-.215.09-5.322,2.282-4.58,7.392.442,3.043,4.023,7.378,8.454,8.735a50.214,50.214,0,0,0,8.794,1.666,87.522,87.522,0,0,0,41.387-5.3,54.422,54.422,0,0,0,8.416-3.937c3.937-2.435,6.3-7.538,5.949-10.592-.584-5.161-6.25-5.978-6.307-5.986l-1.18-.158.419-1.114c.059-.157,5.824-15.968-3.576-27.527-.077-.1-.149-.187-.223-.272-8.923-10.631-18.6-7.515-21.356-6.307-5.036,2.209-8.317,6.709-7.8,10.7a.947.947,0,0,1-.818,1.061q-.046.006-.093.008c-.03.006-.06.012-.091.016a.948.948,0,0,1-1.061-.818c-.516-3.99-4.832-7.509-10.263-8.365A16.013,16.013,0,0,0,1160.272,1036.626Z" transform="translate(-1139.589 -1030.928)" fill="#650000"/>
    </g>
    <g id="Group_831" data-name="Group 831" transform="translate(35.812 57.493)">
      <ellipse id="Ellipse_36" data-name="Ellipse 36" cx="6.757" cy="6.989" rx="6.757" ry="6.989" transform="translate(0 1.732) rotate(-7.364)" fill="#650000"/>
    </g>
    <g id="Group_832" data-name="Group 832" transform="translate(39.32 63.747)">
      <ellipse id="Ellipse_37" data-name="Ellipse 37" cx="3.077" cy="3.182" rx="3.077" ry="3.182" transform="translate(0 0.789) rotate(-7.363)" fill="#fff"/>
    </g>
    <g id="Group_833" data-name="Group 833" transform="translate(42.977 59.738)">
      <ellipse id="Ellipse_38" data-name="Ellipse 38" cx="1.847" cy="1.91" rx="1.847" ry="1.91" transform="translate(0 0.473) rotate(-7.364)" fill="#fff"/>
    </g>
    <g id="Group_834" data-name="Group 834" transform="translate(64.85 53.833)">
      <ellipse id="Ellipse_39" data-name="Ellipse 39" cx="6.394" cy="6.989" rx="6.394" ry="6.989" transform="translate(0 1.639) rotate(-7.364)" fill="#650000"/>
    </g>
    <g id="Group_835" data-name="Group 835" transform="translate(60.264 69.523)">
      <path id="Path_849" data-name="Path 849" d="M1810.911,1773.293a.287.287,0,0,1-.4-.268c.008-.625.151-1.718,1.025-1.974a.956.956,0,0,1,1.353.991c-.078.373-.349.635-.923.835C1811.615,1773,1811.207,1773.165,1810.911,1773.293Z" transform="translate(-1810.511 -1770.982)" fill="#650000"/>
    </g>
    <g id="Group_836" data-name="Group 836" transform="translate(55.125 70.242)">
      <path id="Path_850" data-name="Path 850" d="M1726.1,1785.131a.286.286,0,0,0,.318-.36c-.166-.6-.581-1.624-1.493-1.649a.955.955,0,0,0-1.056,1.3c.17.341.5.526,1.1.573C1725.342,1785.027,1725.779,1785.083,1726.1,1785.131Z" transform="translate(-1723.799 -1783.121)" fill="#650000"/>
    </g>
    <g id="Group_837" data-name="Group 837" transform="translate(54.993 76.081)">
      <path id="Path_851" data-name="Path 851" d="M1722.6,1882.869a6.515,6.515,0,0,0,1.892.793,5.675,5.675,0,0,0,1.951.1,5.367,5.367,0,0,0,1.838-.577,5.04,5.04,0,0,0,1.509-1.255l.027-.033a.705.705,0,0,1,1.223.643,4.445,4.445,0,0,1-1.673,2.3,5.548,5.548,0,0,1-2.67,1.034,5.7,5.7,0,0,1-2.815-.382,4.91,4.91,0,0,1-2.191-1.708.655.655,0,0,1,.875-.935Z" transform="translate(-1721.569 -1881.637)" fill="#650000"/>
    </g>
    <g id="Group_838" data-name="Group 838" transform="translate(67.789 60.068)">
      <ellipse id="Ellipse_40" data-name="Ellipse 40" cx="3.077" cy="3.182" rx="3.077" ry="3.182" transform="matrix(0.992, -0.128, 0.128, 0.992, 0, 0.789)" fill="#fff"/>
    </g>
    <g id="Group_839" data-name="Group 839" transform="translate(71.446 56.059)">
      <ellipse id="Ellipse_41" data-name="Ellipse 41" cx="1.847" cy="1.91" rx="1.847" ry="1.91" transform="translate(0 0.473) rotate(-7.363)" fill="#fff"/>
    </g>
    <g id="Group_850" data-name="Group 850" transform="translate(25.256 51.169)">
      <g id="Group_840" data-name="Group 840" transform="translate(0.941 4.465)">
        <path id="Path_852" data-name="Path 852" d="M1261.962,1550.747a24.153,24.153,0,0,1-6.851,7.8,11.215,11.215,0,0,1-5.154,2.37c-.345.058-.71.107-1.1.144a9.8,9.8,0,0,1-2.213-.046h0a10.91,10.91,0,0,1-2.468-.627,11.667,11.667,0,0,1-1.089-.47,13.429,13.429,0,0,1-3.74-2.68c-5.256-5.4-3.821-13.813-2.145-15.989a9.579,9.579,0,0,1,7.084-3.835l6.958-.653.775-.073a16.544,16.544,0,0,1,1.888-.073,13.289,13.289,0,0,1,3.161.411,10.889,10.889,0,0,1,1.32.425c1.879.74,4.252,2.062,4.944,3.219C1264.179,1542.094,1264.891,1545.36,1261.962,1550.747Z" transform="translate(-1235.666 -1536.615)" fill="#650000"/>
      </g>
      <g id="Group_841" data-name="Group 841" transform="translate(36.502 0.95)">
        <path id="Path_853" data-name="Path 853" d="M1859.484,1499.26a10.815,10.815,0,0,1-5.459,2.2,12.77,12.77,0,0,1-1.968.044,9.974,9.974,0,0,1-3.085-.668c-.531-.2-1.042-.434-1.559-.683-.26-.125-.52-.255-.778-.393a24.369,24.369,0,0,1-4.789-3.289,23.551,23.551,0,0,1-2.617-2.711c-3.882-4.748-3.79-8.088-3.218-9.644.465-1.266,2.549-3.006,4.257-4.082a13.823,13.823,0,0,1,6.115-1.935l.951-.089,6.782-.636a11.726,11.726,0,0,1,1.844-.043,9.229,9.229,0,0,1,3.071.718,10.021,10.021,0,0,1,2.762,1.774C1864.229,1481.992,1867.975,1492.883,1859.484,1499.26Z" transform="translate(-1835.72 -1477.311)" fill="#650000"/>
      </g>
      <g id="Group_842" data-name="Group 842" transform="translate(42.628 1.092)" opacity="0.5">
        <path id="Path_854" data-name="Path 854" d="M1950.519,1479.7l-6.633,22.306a24.359,24.359,0,0,1-4.788-3.289l5.488-18.46Z" transform="translate(-1939.098 -1479.699)" fill="#fff"/>
      </g>
      <g id="Group_843" data-name="Group 843" transform="translate(49.754 0.969)" opacity="0.5">
        <path id="Path_855" data-name="Path 855" d="M2069.392,1478.352l-6.974,23.454a9.99,9.99,0,0,1-3.086-.668l6.989-23.5Z" transform="translate(-2059.332 -1477.634)" fill="#fff"/>
      </g>
      <g id="Group_844" data-name="Group 844" transform="translate(4.619 4.613)" opacity="0.5">
        <path id="Path_856" data-name="Path 856" d="M1309.64,1539.121l-7.069,23.627a11.506,11.506,0,0,1-1.089-.47,13.422,13.422,0,0,1-3.74-2.681l5.964-19.919Z" transform="translate(-1297.743 -1539.121)" fill="#fff"/>
      </g>
      <g id="Group_845" data-name="Group 845" transform="translate(11.918 4.468)" opacity="0.5">
        <path id="Path_857" data-name="Path 857" d="M1431.328,1537.081l-7.111,23.892c-.345.058-.71.107-1.1.144a9.792,9.792,0,0,1-2.213-.047l7.262-24.4A13.316,13.316,0,0,1,1431.328,1537.081Z" transform="translate(-1420.905 -1536.671)" fill="#fff"/>
      </g>
      <g id="Group_846" data-name="Group 846" transform="translate(0 3.516)">
        <path id="Path_858" data-name="Path 858" d="M1233.034,1547a12.044,12.044,0,0,1-5.3-1.282,13.686,13.686,0,0,1-7.52-9.433c-.991-4.254-.1-8.847,1.3-10.664a10.535,10.535,0,0,1,7.748-4.2l7.733-.726a14.69,14.69,0,0,1,6.8.824c1.961.774,4.554,2.184,5.408,3.614.731,1.223,2.063,4.744-1.349,11.014a25.121,25.121,0,0,1-7.121,8.113,12.022,12.022,0,0,1-6.727,2.693Q1233.528,1547,1233.034,1547Zm5.679-24.491q-.748,0-1.537.074l-7.733.726a8.63,8.63,0,0,0-6.424,3.469c-.965,1.253-1.861,5.208-.959,9.079a11.846,11.846,0,0,0,6.512,8.163,9.894,9.894,0,0,0,5.266,1.05,10.238,10.238,0,0,0,5.78-2.332,23.214,23.214,0,0,0,6.581-7.494c3.029-5.565,1.828-8.4,1.387-9.136-.471-.788-2.4-2-4.478-2.824h0A11.921,11.921,0,0,0,1238.713,1522.506Z" transform="translate(-1219.796 -1520.612)" fill="#650000"/>
      </g>
      <g id="Group_847" data-name="Group 847" transform="translate(35.556)">
        <path id="Path_859" data-name="Path 859" d="M1837.69,1487.388a12.094,12.094,0,0,1-5.7-1.463,25.121,25.121,0,0,1-8.506-6.647c-4.519-5.525-3.865-9.233-3.374-10.571.574-1.563,2.859-3.432,4.642-4.557a14.692,14.692,0,0,1,6.532-2.075l7.733-.725a10.535,10.535,0,0,1,8.394,2.684c1.712,1.525,3.446,5.872,3.264,10.235a13.686,13.686,0,0,1-5.634,10.667,11.786,11.786,0,0,1-5.94,2.383C1838.6,1487.367,1838.131,1487.388,1837.69,1487.388Zm2.617-24.208c-.4,0-.775.024-1.115.055l-7.733.726a12.829,12.829,0,0,0-5.7,1.791h0c-1.892,1.195-3.558,2.745-3.875,3.608-.3.806-.948,3.815,3.062,8.719a23.214,23.214,0,0,0,7.86,6.14,10.238,10.238,0,0,0,6.113,1.216,9.891,9.891,0,0,0,4.979-2.011,11.845,11.845,0,0,0,4.88-9.232c.166-3.971-1.45-7.69-2.631-8.742A8.459,8.459,0,0,0,1840.307,1463.18Zm-15.052,1.771h0Z" transform="translate(-1819.76 -1461.28)" fill="#650000"/>
      </g>
      <g id="Group_848" data-name="Group 848" transform="translate(16.345 0.892)">
        <path id="Path_860" data-name="Path 860" d="M1496.545,1480.925a.947.947,0,0,1-.088-1.89l28.8-2.7a.947.947,0,1,1,.176,1.885l-28.8,2.7C1496.6,1480.924,1496.575,1480.925,1496.545,1480.925Z" transform="translate(-1495.599 -1476.329)" fill="#650000"/>
      </g>
      <g id="Group_849" data-name="Group 849" transform="translate(28.395 9.351)">
        <path id="Path_861" data-name="Path 861" d="M1699.874,1622.615a.947.947,0,0,1-.653-1.634,6.912,6.912,0,0,1,8.527-.8.947.947,0,1,1-1.026,1.592,5.022,5.022,0,0,0-6.2.582A.945.945,0,0,1,1699.874,1622.615Z" transform="translate(-1698.927 -1619.071)" fill="#650000"/>
      </g>
    </g>
  </g>
  <g id="Group_852" data-name="Group 852" transform="translate(1.441 53.338)">
    <path id="Path_862" data-name="Path 862" d="M859.255,1510.882c-.876,8.566-7.785,10.789-16.5,13.287-4.376,1.252-3.992,3.613-2.006,5.742,0,0,0,0,0,0a17.086,17.086,0,0,0,6.776,4.151l-1.721,11.495c-16.867-2.479-23.679-12.073-25.575-15.754-4.165-8.075-2.775-21.261,5.455-27.062a25.824,25.824,0,0,1,23.733-3.359,22.167,22.167,0,0,1,4.546,2.2C857.652,1503.959,859.546,1508.031,859.255,1510.882Z" transform="translate(-817.948 -1497.889)" fill="#804959"/>
  </g>
  <g id="Group_853" data-name="Group 853" transform="translate(4.039 85.845)" opacity="0.3">
    <path id="Path_863" data-name="Path 863" d="M893.708,2057.694c.949,2.207-.453,12.832-.453,12.832a26.225,26.225,0,0,0-.586-8.433c-20.073-.895-28.355-11.226-30.884-15.693.2.206,5.992,9.755,22.98,10.165C889.589,2056.682,892.759,2055.487,893.708,2057.694Z" transform="translate(-861.785 -2046.4)" fill="#650000"/>
  </g>
  <g id="Group_855" data-name="Group 855" transform="translate(20.882 54.831)" opacity="0.3">
    <path id="Path_865" data-name="Path 865" d="M1167.85,1534.579c-.876,8.566-7.785,10.789-16.505,13.287-4.375,1.253-3.991,3.613-2,5.742-3.772-1.974-3.9-3.914-2.636-5.552a13.578,13.578,0,0,0,2.048-12.39c-2.415-7.737,6.282-11.535,9.258-12.586a22.21,22.21,0,0,1,4.546,2.2C1166.247,1527.656,1168.142,1531.729,1167.85,1534.579Z" transform="translate(-1145.984 -1523.08)" fill="#650000"/>
  </g>
  <g id="Group_856" data-name="Group 856" transform="translate(0.489 52.375)">
    <path id="Path_866" data-name="Path 866" d="M836.321,1531.745h-.043c-9.227-.412-17.033-2.815-23.2-7.14a27.92,27.92,0,0,1-8.8-9.656,24.418,24.418,0,0,1-2.011-14.977c.974-5.732,3.732-10.453,7.764-13.295a26.515,26.515,0,0,1,29.337-1.177c4.168,2.68,6.034,7.154,5.724,10.188-.967,9.457-8.845,11.712-17.186,14.1-1.25.357-2.74,1-2.742,2.035,0,1.945,4.3,5.1,7.519,6.04a.947.947,0,1,1-.53,1.819c-3.1-.9-8.892-4.4-8.884-7.863,0-1.221.719-2.88,4.115-3.853,9.324-2.67,15.042-4.842,15.823-12.473.245-2.4-1.376-6.16-4.863-8.4a24.657,24.657,0,0,0-27.222,1.133c-7.762,5.47-9.126,18.162-5.16,25.856a25.97,25.97,0,0,0,8.208,8.973c5.867,4.115,13.335,6.4,22.2,6.8a.947.947,0,0,1-.041,1.893Z" transform="translate(-801.887 -1481.635)" fill="#650000"/>
  </g>
  <g id="Group_857" data-name="Group 857" transform="translate(24.776 52.769)">
    <path id="Path_867" data-name="Path 867" d="M1235.142,1506.19c9.495-.437,15.174-4.258,18.1-.2,5.735,7.952-10.236,13.54-10.236,13.54s4.034,1.858,3.925,3.186c-.2,2.4-2.285,3.149-11.041,1.752C1224.441,1522.643,1225.687,1506.625,1235.142,1506.19Z" transform="translate(-1226.729 -1503.202)" fill="#ffca9f"/>
    <path id="Path_868" data-name="Path 868" d="M1227.622,1511.2a46.164,46.164,0,0,1-6.912-.71,10.273,10.273,0,0,1-9-11.09c.236-4.2,2.95-8.823,8.351-9.072h0a53.994,53.994,0,0,0,8.732-1.256c4.446-.913,7.959-1.633,10.184,1.452a6.317,6.317,0,0,1,1.141,5.8c-1.3,4.128-6.879,7.079-9.895,8.406,1.4.845,2.714,1.966,2.618,3.149a3.145,3.145,0,0,1-1.165,2.36A6.477,6.477,0,0,1,1227.622,1511.2Zm-7.471-18.98c-4.228.194-6.358,3.913-6.547,7.286a8.447,8.447,0,0,0,7.4,9.114c3.449.55,8.187,1.163,9.5.131a1.244,1.244,0,0,0,.443-.976c-.185-.475-1.77-1.556-3.374-2.3a.947.947,0,0,1,.084-1.754c.091-.032,9.176-3.266,10.653-7.967a4.464,4.464,0,0,0-.871-4.125c-1.444-2-3.7-1.641-8.267-.7a56.318,56.318,0,0,1-9.025,1.293Zm10.809,15.578Zm-10.853-16.525h0Z" transform="translate(-1211.695 -1488.288)" fill="#650000"/>
  </g>
  <g id="Group_858" data-name="Group 858" transform="translate(39.464 52.811)">
    <path id="Path_869" data-name="Path 869" d="M1466.239,1489a3.414,3.414,0,0,1,2.224.576,2.222,2.222,0,0,1,.86,2.395,3.277,3.277,0,0,1-.195.548,4.087,4.087,0,0,1-.265.466,5.337,5.337,0,0,1-.657.788,7.9,7.9,0,0,1-1.528,1.087,18.35,18.35,0,0,1-3.236,1.375,32.431,32.431,0,0,1-3.336.9.473.473,0,0,1-.231-.917l.013,0a31.553,31.553,0,0,0,3.145-1.092,17.109,17.109,0,0,0,2.907-1.478,6.509,6.509,0,0,0,1.171-.954,2.421,2.421,0,0,0,.593-1.08.512.512,0,0,0-.259-.581,1.429,1.429,0,0,0-.455-.15,2.2,2.2,0,0,0-.567,0l-.03,0a.947.947,0,1,1-.2-1.884Z" transform="translate(-1459.534 -1488.988)" fill="#650000"/>
  </g>
  <g id="Group_859" data-name="Group 859" transform="translate(41.209 54.501)">
    <path id="Path_870" data-name="Path 870" d="M1499.735,1517.88a2.392,2.392,0,0,1,.4,1.417,4.426,4.426,0,0,1-.173,1.136,7.424,7.424,0,0,1-.858,1.881,10.883,10.883,0,0,1-2.675,2.864,15.556,15.556,0,0,1-3.332,1.845,30.923,30.923,0,0,1-3.518,1.233.474.474,0,0,1-.29-.9l.013,0a29.962,29.962,0,0,0,3.3-1.4,14.332,14.332,0,0,0,2.939-1.879,9.369,9.369,0,0,0,2.134-2.593,5.726,5.726,0,0,0,.565-1.475,2.623,2.623,0,0,0,.061-.672.537.537,0,0,0-.086-.316.947.947,0,0,1,1.519-1.132Z" transform="translate(-1488.977 -1517.499)" fill="#650000"/>
  </g>
  <g id="Group_860" data-name="Group 860" transform="translate(21.352 129.258)" opacity="0.3">
    <path id="Path_871" data-name="Path 871" d="M1246.767,2791.631c.315,5.351-.351,10.053-2.51,12.889-2.981,3.919-15.046,3.885-17.741,1.01-2.083-2.222-3.09-3.689-6.3-8.9-5.64-9.16-16.181-9.279-25.651-9.653-5.926-.235-12.118-.156-13.422,6.492-1.1,5.613-1.4,10.6-4.515,12.715-1.576,1.069-4.093,1.307-7.323,1.224-7-.178-12.473-5.542-14.277-12.532a28.253,28.253,0,0,1-1-10.091,33.562,33.562,0,0,0,1,5.45c1.8,6.989,7.278,12.354,14.277,12.532,3.23.083,5.382-.344,6.86-1.549,3.593-2.926,3.518-10.032,3.131-12.01-1.027-5.253-5.123-8.412-2.823-8.7,2.576-.322,5.808,4.047,18.091,4.312,17.938.384,24.836-6.871,27.33-5.775,3.148,1.384-3.095,6.15-1.078,12.857,1.762,5.859,3.614,6.762,5.7,8.985,2.695,2.874,14.76,2.907,17.741-1.011C1245.764,2797.9,1246.542,2795.014,1246.767,2791.631Z" transform="translate(-1153.924 -2778.935)" fill="#650000"/>
  </g>
</svg>
