<svg xmlns="http://www.w3.org/2000/svg" width="132.022" height="140.362" viewBox="0 0 132.022 140.362">
  <g id="Group_552" data-name="Group 552" transform="translate(-524.698 -435.161)">
    <g id="Group_85" data-name="Group 85" transform="translate(553.87 565.302)" opacity="0.2">
      <ellipse id="Ellipse_5" data-name="Ellipse 5" cx="35.364" cy="5.11" rx="35.364" ry="5.11" transform="translate(0 0)" fill="#650000"/>
    </g>
    <g id="Group_86" data-name="Group 86" transform="translate(598.755 507.94)">
      <path id="Path_308" data-name="Path 308" d="M2194.529,2117.8c6.5,3.616,20.264,7.069,30.066-1,9.715-8,5.341-22.26,9.6-27.437,2.387-2.9,6.122-2.266,8.414.075,1.658,1.694,3.726,3.551,6.241,2.551,5.886-2.34,2.218-12.021-5.283-14.849-9.135-3.445-19.583,2.412-19.583,16.645,0,6.9-.683,12.6-4.207,16.18-3.224,3.273-10,5.566-20.11,1.258" transform="translate(-2194.529 -2076.177)" fill="#b17e4f"/>
    </g>
    <g id="Group_87" data-name="Group 87" transform="translate(598.755 507.94)">
      <path id="Path_309" data-name="Path 309" d="M2251.749,2087.8a4.429,4.429,0,0,1-2.91,4.186c-2.515,1-4.583-.857-6.242-2.552-2.291-2.341-6.025-2.979-8.413-.075-4.255,5.176.118,19.438-9.6,27.436-7.914,6.518-18.415,5.52-25.585,2.99a29.455,29.455,0,0,1-4.481-1.989l5.135-6.577c10.112,4.309,16.886,2.015,20.11-1.258,3.523-3.578,4.207-9.283,4.207-16.18,0-14.233,10.447-20.089,19.583-16.645C2248.588,2079.037,2251.9,2084.021,2251.749,2087.8Z" transform="translate(-2194.521 -2076.175)" fill="#804959"/>
    </g>
    <g id="Group_88" data-name="Group 88" transform="translate(603.237 514.647)" opacity="0.3">
      <path id="Path_310" data-name="Path 310" d="M2348.316,2232.319a4.43,4.43,0,0,1-2.91,4.186c-2.515,1-4.583-.857-6.242-2.552-2.291-2.341-6.025-2.979-8.413-.075-4.255,5.176.118,19.438-9.6,27.436-7.913,6.517-18.415,5.52-25.585,2.99,0,0,.737-2.551,6.678-5.891,2.442,4.6,10.667,4.817,15.388,1.59,7.314-5,8.182-14.8,8.607-21.06.709-10.437,8.386-14.094,12.481-9.75,2.211,2.345,3.687,4.368,5.105,5.088C2345.088,2234.919,2347.18,2234.21,2348.316,2232.319Z" transform="translate(-2295.57 -2227.399)" fill="#650000"/>
    </g>
    <g id="Group_89" data-name="Group 89" transform="translate(598.022 507.2)">
      <path id="Path_311" data-name="Path 311" d="M2194.238,2106.521a34.5,34.5,0,0,1-15.857-4.039.733.733,0,1,1,.713-1.281c5.8,3.229,19.384,7.192,29.243-.927,5.662-4.662,6.338-11.514,6.935-17.559.4-4.062.747-7.571,2.561-9.778a5.732,5.732,0,0,1,4.249-2.2,7.033,7.033,0,0,1,5.254,2.229c1.979,2.021,3.58,3.125,5.446,2.383a3.769,3.769,0,0,0,2.453-3.8c-.029-3.266-2.99-7.9-7.723-9.681a12.975,12.975,0,0,0-12.128,1.313c-4.168,2.883-6.463,8.084-6.463,14.647,0,6.341-.535,12.752-4.418,16.694-1.129,1.147-4.425,3.846-10.333,3.846a27.058,27.058,0,0,1-10.586-2.428.733.733,0,0,1,.574-1.349c11.907,5.074,17.783.442,19.3-1.1,3.512-3.566,4-9.636,4-15.665,0-7.058,2.52-12.688,7.1-15.853a14.419,14.419,0,0,1,13.479-1.478c5.385,2.031,8.638,7.208,8.672,11.039a5.178,5.178,0,0,1-3.377,5.177c-3.148,1.252-5.677-1.331-7.035-2.719a5.638,5.638,0,0,0-4.143-1.79,4.3,4.3,0,0,0-3.181,1.667c-1.531,1.863-1.857,5.166-2.235,8.99-.594,6.015-1.332,13.5-7.462,18.547A23.135,23.135,0,0,1,2194.238,2106.521Z" transform="translate(-2178.003 -2059.477)" fill="#650000"/>
    </g>
    <g id="Group_90" data-name="Group 90" transform="translate(605.947 532.433)">
      <path id="Path_312" data-name="Path 312" d="M2359.268,2628.433c-1.844,2.127-4.089,9.124-1.229,11.085a6.884,6.884,0,0,0,3.878.8s4.687,1.575,7.966-.073c2.676-1.345,2.888-4.7,1.55-5.706a2.489,2.489,0,0,0-.913-.425,5.293,5.293,0,0,0,.089-2.694" transform="translate(-2356.676 -2628.433)" fill="#f9d6b6"/>
    </g>
    <g id="Group_91" data-name="Group 91" transform="translate(605.946 532.434)">
      <path id="Path_313" data-name="Path 313" d="M2372.153,2637.319a4.228,4.228,0,0,1-2.275,2.949c-3.279,1.649-7.966.073-7.966.073a6.88,6.88,0,0,1-3.877-.8c-2.861-1.963-.616-8.959,1.229-11.085l11.339,2.988a5.1,5.1,0,0,1,.036,2.184,4.215,4.215,0,0,1-.125.511,2.48,2.48,0,0,1,.913.427A2.782,2.782,0,0,1,2372.153,2637.319Z" transform="translate(-2356.67 -2628.453)" fill="#f9d6b6"/>
    </g>
    <g id="Group_92" data-name="Group 92" transform="translate(605.946 532.434)">
      <path id="Path_314" data-name="Path 314" d="M2372.153,2637.319a4.228,4.228,0,0,1-2.275,2.949c-3.279,1.649-7.966.073-7.966.073a6.88,6.88,0,0,1-3.877-.8c-2.861-1.963-.616-8.959,1.229-11.085l11.339,2.988a5.1,5.1,0,0,1,.036,2.184c-.024.129-.05.238-.071.32-.032.122-.054.191-.054.191a2.541,2.541,0,0,1,.913.427A2.782,2.782,0,0,1,2372.153,2637.319Z" transform="translate(-2356.67 -2628.453)" fill="#ffca9f"/>
    </g>
    <g id="Group_93" data-name="Group 93" transform="translate(618.691 537.926)">
      <path id="Path_315" data-name="Path 315" d="M2644.051,2754.924c-.1-1.647.578-2.343,1.143-2.639-.032.122-.054.191-.054.191a2.362,2.362,0,0,1,.451.155C2645.785,2754.022,2644.051,2754.924,2644.051,2754.924Z" transform="translate(-2644.042 -2752.286)" fill="#e2b28a"/>
    </g>
    <g id="Group_94" data-name="Group 94" transform="translate(605.946 532.434)">
      <path id="Path_316" data-name="Path 316" d="M2372.153,2637.319a4.228,4.228,0,0,1-2.275,2.949c-3.279,1.649-7.966.073-7.966.073a6.88,6.88,0,0,1-3.877-.8c-2.861-1.963-.616-8.959,1.229-11.085l11.339,2.988a5.1,5.1,0,0,1,.036,2.184c-3.095,1.6-8.578-.333-8.847,1.321A3.647,3.647,0,0,0,2364.7,2639C2368.1,2639.7,2370.775,2638.829,2372.153,2637.319Z" transform="translate(-2356.67 -2628.453)" fill="#f4b68c"/>
    </g>
    <g id="Group_95" data-name="Group 95" transform="translate(605.214 531.7)">
      <path id="Path_317" data-name="Path 317" d="M2350.447,2625.944a15.916,15.916,0,0,1-4.415-.672,7.372,7.372,0,0,1-4.2-.94,4.061,4.061,0,0,1-1.62-3,14.308,14.308,0,0,1,2.71-9.169.733.733,0,0,1,1.108.96,12.958,12.958,0,0,0-2.364,8.022,2.681,2.681,0,0,0,1,1.979,6.177,6.177,0,0,0,3.4.678.734.734,0,0,1,.3.035c.043.015,4.442,1.455,7.4-.033a3.481,3.481,0,0,0,1.938-2.8,1.917,1.917,0,0,0-.5-1.67,1.783,1.783,0,0,0-.619-.292.738.738,0,0,1-.547-.951,4.593,4.593,0,0,0,.074-2.278.733.733,0,1,1,1.419-.366,5.817,5.817,0,0,1,.063,2.415,3.112,3.112,0,0,1,.494.3,3.276,3.276,0,0,1,1.077,2.972,4.939,4.939,0,0,1-2.739,3.974A8.867,8.867,0,0,1,2350.447,2625.944Z" transform="translate(-2340.147 -2611.909)" fill="#650000"/>
    </g>
    <g id="Group_96" data-name="Group 96" transform="translate(596.136 508.903)">
      <path id="Path_318" data-name="Path 318" d="M2135.465,2097.876s8.511.851,13.833,3.327c2.478,1.153,13.321,5.956,15.064,13.444.6,2.6.332,5.317-2.289,8.579a12.453,12.453,0,0,1-2.63,2.4c-3,1.465-10.783.721-11.6-2.222a7.755,7.755,0,0,1,1.371-6.6s-1.265-1.911-4.739-2.549Z" transform="translate(-2135.465 -2097.876)" fill="#b17e4f"/>
    </g>
    <g id="Group_97" data-name="Group 97" transform="translate(596.135 508.903)">
      <path id="Path_319" data-name="Path 319" d="M2162.064,2123.239a12.41,12.41,0,0,1-2.629,2.4c-3,1.465-10.784.722-11.6-2.221a7.724,7.724,0,0,1,1.287-6.487c.028-.04.056-.079.084-.116,0,0-1.265-1.912-4.74-2.55l-2.917-5.3-6.095-11.074s8.512.849,13.834,3.327c2.478,1.153,13.321,5.956,15.063,13.443C2164.959,2117.259,2164.686,2119.978,2162.064,2123.239Z" transform="translate(-2135.455 -2097.89)" fill="#b17e4f"/>
    </g>
    <g id="Group_98" data-name="Group 98" transform="translate(596.135 508.903)">
      <path id="Path_320" data-name="Path 320" d="M2162.536,2122.624c-.148.2-.305.408-.472.616a12.41,12.41,0,0,1-2.629,2.4c-3,1.465-10.784.722-11.6-2.221a7.393,7.393,0,0,1,.453-5.034,8.646,8.646,0,0,1,.834-1.454c.028-.04.056-.079.084-.116,0,0-1.265-1.912-4.74-2.55l-2.917-5.3-6.095-11.074s8.512.849,13.834,3.327c2.478,1.153,13.321,5.956,15.063,13.443A9.094,9.094,0,0,1,2162.536,2122.624Z" transform="translate(-2135.455 -2097.89)" fill="#b17e4f"/>
    </g>
    <g id="Group_99" data-name="Group 99" transform="translate(596.135 508.903)">
      <path id="Path_321" data-name="Path 321" d="M2162.536,2122.624c-.148.2-.305.408-.472.616a12.41,12.41,0,0,1-2.629,2.4c-3,1.465-10.784.722-11.6-2.221a7.393,7.393,0,0,1,.453-5.034,8.646,8.646,0,0,1,.834-1.454c.028-.04.056-.079.084-.116,0,0-1.265-1.912-4.74-2.55l-2.917-5.3-2.943-5.35-3.151-5.724s8.512.849,13.834,3.327c.283.131.674.311,1.149.535,3.685,1.748,12.371,6.276,13.915,12.908A9.094,9.094,0,0,1,2162.536,2122.624Z" transform="translate(-2135.455 -2097.89)" fill="#804959"/>
    </g>
    <g id="Group_100" data-name="Group 100" transform="translate(596.135 508.903)">
      <path id="Path_322" data-name="Path 322" d="M2150.438,2101.752a42.447,42.447,0,0,1-11.832,1.862l-3.151-5.724s8.512.849,13.834,3.327C2149.572,2101.348,2149.963,2101.527,2150.438,2101.752Z" transform="translate(-2135.455 -2097.89)" fill="#804959"/>
    </g>
    <g id="Group_101" data-name="Group 101" transform="translate(567.627 503.818)">
      <path id="Path_323" data-name="Path 323" d="M1513.686,1988.3l-3.32,4.294c-8-1.862-14.437-5.331-17.7-9.38C1499.278,1986.424,1506.605,1989.047,1513.686,1988.3Z" transform="translate(-1492.663 -1983.213)" fill="#a05f3c"/>
    </g>
    <g id="Group_102" data-name="Group 102" transform="translate(580.041 506.711)">
      <path id="Path_324" data-name="Path 324" d="M1796.608,2056.017a54.7,54.7,0,0,1-24.045-2.62,15.054,15.054,0,0,1,12.311-4.91A14.615,14.615,0,0,1,1796.608,2056.017Z" transform="translate(-1772.563 -2048.452)" fill="#a05f3c"/>
    </g>
    <g id="Group_103" data-name="Group 103" transform="translate(608.263 529.397)">
      <path id="Path_325" data-name="Path 325" d="M2423.863,2564.215q-.222.3-.471.616a12.411,12.411,0,0,1-2.629,2.4c-3,1.465-10.784.722-11.6-2.221a7.4,7.4,0,0,1,.453-5.034c1.125,1.959.709,4.65,2.715,5.584C2416.816,2567.649,2421.494,2565.922,2423.863,2564.215Z" transform="translate(-2408.911 -2559.975)" fill="#77323d"/>
    </g>
    <g id="Group_104" data-name="Group 104" transform="translate(602.23 516.804)">
      <path id="Path_326" data-name="Path 326" d="M2285.471,2282.742c.019.52-2.438,1.456-5.024,4.422.028-.04.056-.079.084-.116,0,0-1.265-1.912-4.74-2.551l-2.917-5.3,3.127-3.174s1.888,3.7,4.53,4.964C2283,2282.169,2285.447,2282.128,2285.471,2282.742Z" transform="translate(-2272.874 -2276.024)" fill="#77323d"/>
    </g>
    <g id="Group_105" data-name="Group 105" transform="translate(595.403 508.17)">
      <path id="Path_327" data-name="Path 327" d="M2139.515,2111.3a14.581,14.581,0,0,1-5.692-1.065,4.021,4.021,0,0,1-2.476-2.429,8.37,8.37,0,0,1,1.156-6.753,7.333,7.333,0,0,0-3.95-1.875.733.733,0,0,1,.265-1.442c3.738.687,5.159,2.777,5.218,2.865a.733.733,0,0,1-.021.84,7.053,7.053,0,0,0-1.254,5.974c.192.693,1.011,1.189,1.664,1.483,2.49,1.12,6.9,1.257,8.906.276a12.163,12.163,0,0,0,2.381-2.2c2.748-3.42,2.59-6.047,2.146-7.954-1.067-4.584-5.914-8.9-14.406-12.829l-.254-.118c-5.146-2.394-13.513-3.254-13.6-3.262a.733.733,0,0,1,.146-1.458c.353.035,8.7.892,14.07,3.392l.251.116c8.923,4.127,14.043,8.779,15.218,13.826.761,3.268-.012,6.192-2.432,9.2a12.77,12.77,0,0,1-2.879,2.6A10.708,10.708,0,0,1,2139.515,2111.3Z" transform="translate(-2118.941 -2081.345)" fill="#650000"/>
    </g>
    <g id="Group_106" data-name="Group 106" transform="translate(609.104 523.152)">
      <path id="Path_328" data-name="Path 328" d="M2428.041,2423.4a16.916,16.916,0,0,1,5.367-4.194.375.375,0,0,1,.372.648,15.836,15.836,0,0,0-4.525,4.422.75.75,0,1,1-1.214-.876Z" transform="translate(-2427.866 -2419.167)" fill="#650000"/>
    </g>
    <g id="Group_112" data-name="Group 112" transform="translate(592.693 562.737)">
      <g id="Group_107" data-name="Group 107" transform="translate(0.749 0.748)">
        <path id="Path_329" data-name="Path 329" d="M2079.034,3329.365s-4.689,1.061-4.282,3.614c.174,1.09,1.078,1.861,3.342,1.462,1.736-.306,3.612-.74,5.47.227,1.045.544,2.451,1.94,3.951,2.575,1.166.494,2.766.542,3.54-.658,0,0,2.342,1.045,3.175-.832,0,0,2.264.126,2-2-.267-2.177-6.272-5.158-9.247-5.157C2084.6,3328.593,2079.034,3329.365,2079.034,3329.365Z" transform="translate(-2074.726 -3328.592)" fill="#ffca9f"/>
      </g>
      <g id="Group_108" data-name="Group 108" transform="translate(0.749 4.261)">
        <path id="Path_330" data-name="Path 330" d="M2074.744,3408.669c.174,1.091,1.078,1.862,3.342,1.463,1.737-.307,3.612-.741,5.469.226,1.046.545,2.451,1.941,3.952,2.575,1.166.494,2.766.542,3.539-.659,0,0,2.343,1.046,3.175-.833,0,0,2.264.127,2-2a2.022,2.022,0,0,0-.393-.9c-.365,1.214-1.946,1.126-1.946,1.126-.833,1.877-3.175.833-3.175.833-.773,1.2-2.373,1.151-3.539.659-1.5-.636-2.906-2.032-3.952-2.575-1.858-.969-3.733-.535-5.469-.229-1.553.273-2.466,0-2.942-.556A1.861,1.861,0,0,0,2074.744,3408.669Z" transform="translate(-2074.719 -3407.795)" fill="#f4b68c"/>
      </g>
      <g id="Group_109" data-name="Group 109" transform="translate(0 0)">
        <path id="Path_331" data-name="Path 331" d="M2072.925,3322.191a4.8,4.8,0,0,1-1.843-.387,13.232,13.232,0,0,1-2.653-1.673,11.511,11.511,0,0,0-1.352-.927c-1.5-.783-3.024-.509-4.633-.219l-.361.065a4.226,4.226,0,0,1-3.224-.425,2.446,2.446,0,0,1-.988-1.656c-.408-2.563,2.861-4.01,4.857-4.462l.062-.011c.229-.032,5.648-.78,8.053-.78h0c3.225,0,9.653,3.079,9.989,5.814a2.411,2.411,0,0,1-.567,2.035,2.768,2.768,0,0,1-1.727.789,2.456,2.456,0,0,1-1.178.956,3.6,3.6,0,0,1-2.2.025A3.081,3.081,0,0,1,2072.925,3322.191Zm-8.065-5a6.146,6.146,0,0,1,2.908.68,12.35,12.35,0,0,1,1.558,1.057,12.135,12.135,0,0,0,2.339,1.492c.694.294,2.025.545,2.619-.375a.749.749,0,0,1,.934-.278c.168.073,1.678.693,2.185-.452a.75.75,0,0,1,.726-.444,1.558,1.558,0,0,0,1.048-.338c.059-.065.241-.261.172-.826-.2-1.6-5.679-4.5-8.5-4.5h0c-2.21,0-7.354.7-7.815.761-1.064.25-3.917,1.262-3.679,2.76a.96.96,0,0,0,.378.672,2.794,2.794,0,0,0,2.095.17l.355-.063A15.069,15.069,0,0,1,2064.861,3317.2Z" transform="translate(-2057.837 -3311.715)" fill="#650000"/>
      </g>
      <g id="Group_110" data-name="Group 110" transform="translate(13.04 4.084)">
        <path id="Path_332" data-name="Path 332" d="M2352.38,3403.824c1.913.832,4.532,2.3,4.257,4.77a.751.751,0,1,1-1.47-.284c.359-1.583-1.908-3.1-3.111-3.812a.375.375,0,0,1,.324-.674Z" transform="translate(-2351.866 -3403.794)" fill="#650000"/>
      </g>
      <g id="Group_111" data-name="Group 111" transform="translate(15.944 3.087)">
        <path id="Path_333" data-name="Path 333" d="M2417.849,3381.351c1.875.838,5.2,2.544,4.483,5.077a.751.751,0,1,1-1.4-.533c.517-1.4-2.338-3.25-3.4-3.867a.375.375,0,0,1,.319-.677Z" transform="translate(-2417.331 -3381.319)" fill="#650000"/>
      </g>
    </g>
    <g id="Group_118" data-name="Group 118" transform="translate(561.639 562.737)">
      <g id="Group_113" data-name="Group 113" transform="translate(0.748 0.748)">
        <path id="Path_334" data-name="Path 334" d="M1391.731,3329.365s4.689,1.061,4.283,3.614c-.173,1.09-1.078,1.861-3.342,1.462-1.736-.306-3.612-.74-5.47.227-1.045.544-2.452,1.94-3.951,2.575-1.166.494-2.766.542-3.54-.658,0,0-2.342,1.045-3.174-.832,0,0-2.265.126-2-2,.267-2.177,6.272-5.158,9.247-5.157C1386.161,3328.593,1391.731,3329.365,1391.731,3329.365Z" transform="translate(-1374.512 -3328.592)" fill="#ffca9f"/>
      </g>
      <g id="Group_114" data-name="Group 114" transform="translate(0.749 4.261)">
        <path id="Path_335" data-name="Path 335" d="M1396.026,3408.669c-.174,1.091-1.078,1.862-3.342,1.463-1.736-.307-3.611-.741-5.469.226-1.046.545-2.451,1.941-3.952,2.575-1.166.494-2.766.542-3.538-.659,0,0-2.343,1.046-3.176-.833,0,0-2.264.127-2-2a2.022,2.022,0,0,1,.393-.9c.365,1.214,1.946,1.126,1.946,1.126.833,1.877,3.175.833,3.175.833.773,1.2,2.373,1.151,3.539.659,1.5-.636,2.906-2.032,3.952-2.575,1.858-.969,3.733-.535,5.47-.229,1.553.273,2.466,0,2.941-.556A1.858,1.858,0,0,1,1396.026,3408.669Z" transform="translate(-1374.525 -3407.795)" fill="#f4b68c"/>
      </g>
      <g id="Group_115" data-name="Group 115" transform="translate(0 0)">
        <path id="Path_336" data-name="Path 336" d="M1365.578,3322.191a3.082,3.082,0,0,1-2.239-.858,3.591,3.591,0,0,1-2.2-.025,2.456,2.456,0,0,1-1.178-.956,2.769,2.769,0,0,1-1.727-.789,2.411,2.411,0,0,1-.567-2.035c.336-2.735,6.763-5.814,9.989-5.814h0c2.406,0,7.824.749,8.053.78l.062.011c2,.452,5.264,1.9,4.856,4.462a2.446,2.446,0,0,1-.988,1.656,4.228,4.228,0,0,1-3.224.425l-.361-.065c-1.609-.29-3.129-.564-4.633.219a11.5,11.5,0,0,0-1.352.927,13.232,13.232,0,0,1-2.653,1.673A4.81,4.81,0,0,1,1365.578,3322.191Zm-1.99-2.483a.75.75,0,0,1,.631.342c.594.92,1.926.669,2.619.375a12.128,12.128,0,0,0,2.339-1.492,12.332,12.332,0,0,1,1.558-1.057c1.958-1.02,3.888-.671,5.59-.364l.355.063a2.8,2.8,0,0,0,2.095-.17.959.959,0,0,0,.378-.672c.24-1.5-2.614-2.512-3.678-2.76-.457-.062-5.605-.761-7.816-.761h0c-2.824,0-8.307,2.9-8.5,4.5-.069.565.112.762.172.826a1.565,1.565,0,0,0,1.052.338.755.755,0,0,1,.721.444c.507,1.145,2.017.525,2.188.451A.75.75,0,0,1,1363.588,3319.709Z" transform="translate(-1357.643 -3311.715)" fill="#650000"/>
      </g>
      <g id="Group_116" data-name="Group 116" transform="translate(5.187 4.086)">
        <path id="Path_337" data-name="Path 337" d="M1479.195,3404.548c-1.2.707-3.457,2.225-3.1,3.8a.751.751,0,1,1-1.47.284c-.247-1.924,1.4-3.238,2.847-4.082a11.78,11.78,0,0,1,1.411-.688.375.375,0,0,1,.31.681Z" transform="translate(-1474.602 -3403.84)" fill="#650000"/>
      </g>
      <g id="Group_117" data-name="Group 117" transform="translate(1.973 3.089)">
        <path id="Path_338" data-name="Path 338" d="M1407.035,3382.073c-1.057.615-3.919,2.462-3.4,3.867a.751.751,0,0,1-1.366.625c-.711-2.062,1.442-3.579,2.966-4.443a14.829,14.829,0,0,1,1.483-.726.375.375,0,0,1,.319.677Z" transform="translate(-1402.127 -3381.367)" fill="#650000"/>
      </g>
    </g>
    <g id="Group_122" data-name="Group 122" transform="translate(589.889 535.855)">
      <g id="Group_119" data-name="Group 119" transform="translate(0 0)">
        <path id="Path_339" data-name="Path 339" d="M1994.616,2716.747c4.336,5.519,5.413,15.777,7.715,17.271,3.75,1.685,9.289.37,10.221-.469,3.188-7.407,2.089-23.7.88-27.971" transform="translate(-1994.616 -2705.578)" fill="#b17e4f"/>
      </g>
      <g id="Group_120" data-name="Group 120" transform="translate(0 0)">
        <path id="Path_340" data-name="Path 340" d="M2012.965,2732.485c-.129.373-.264.728-.41,1.065-.932.838-6.471,2.154-10.221.47-2.3-1.5-3.379-11.753-7.715-17.271l18.815-11.169a44.1,44.1,0,0,1,1.041,7.861C2014.862,2719.582,2014.673,2727.506,2012.965,2732.485Z" transform="translate(-1994.619 -2705.579)" fill="#804959"/>
      </g>
      <g id="Group_121" data-name="Group 121" transform="translate(0 0)">
        <path id="Path_341" data-name="Path 341" d="M2012.965,2732.485c-.129.373-.264.728-.41,1.065-.932.838-6.471,2.154-10.221.47-2.3-1.5-3.379-11.753-7.715-17.271l18.815-11.169a44.1,44.1,0,0,1,1.041,7.861c-2.751,5.2-9.79,7.764-11.34,9.85-1.48,1.995-1.3,6.611,1.412,9.022C2006.481,2734.034,2011.031,2732.966,2012.965,2732.485Z" transform="translate(-1994.619 -2705.579)" fill="#77323d"/>
      </g>
    </g>
    <g id="Group_124" data-name="Group 124" transform="translate(589.156 535.122)">
      <g id="Group_123" data-name="Group 123">
        <path id="Path_342" data-name="Path 342" d="M1990.9,2719.764a11.546,11.546,0,0,1-4.661-.87.759.759,0,0,1-.1-.054c-1.271-.825-2.044-3.263-3.113-6.637-1.116-3.52-2.5-7.9-4.778-10.8a.733.733,0,0,1,1.152-.906c2.438,3.1,3.872,7.625,5.023,11.259.814,2.569,1.656,5.223,2.474,5.823,3.326,1.456,8.242.363,9.262-.29,3.069-7.422,1.886-23.383.775-27.308a.733.733,0,0,1,1.41-.4c1.3,4.582,2.343,20.9-.911,28.46a.731.731,0,0,1-.182.255C1996.485,2718.989,1993.777,2719.764,1990.9,2719.764Z" transform="translate(-1978.09 -2689.052)" fill="#650000"/>
      </g>
    </g>
    <g id="Group_128" data-name="Group 128" transform="translate(568.42 534.247)">
      <g id="Group_125" data-name="Group 125">
        <path id="Path_343" data-name="Path 343" d="M1530.326,2682.112c-4.285,5.057-4.285,14.488-7.851,17.446-3.476,1.725-9.2.029-10.133-.811-2.968-6.188-1.693-24.483-.167-29.411" transform="translate(-1510.548 -2669.336)" fill="#b17e4f"/>
      </g>
      <g id="Group_126" data-name="Group 126" transform="translate(0)">
        <path id="Path_344" data-name="Path 344" d="M1530.334,2682.113c-4.285,5.058-4.285,14.489-7.85,17.445-3.477,1.725-9.2.028-10.135-.81a11.02,11.02,0,0,1-.623-1.677c-1.527-5.213-1.359-14.779-.627-21.487a37.813,37.813,0,0,1,1.083-6.248Z" transform="translate(-1510.558 -2669.336)" fill="#804959"/>
      </g>
      <g id="Group_127" data-name="Group 127" transform="translate(0.543)">
        <path id="Path_345" data-name="Path 345" d="M1542.022,2682.113c-4.285,5.058-4.285,14.489-7.85,17.445-3.477,1.725-9.2.028-10.134-.81a11.007,11.007,0,0,1-.623-1.677,8.29,8.29,0,0,0,8.08,1.053c3.954-1.328,3.243-7.693,2.375-9.751-1.6-3.788-8.456-7.008-11.081-12.79a37.8,37.8,0,0,1,1.083-6.248Z" transform="translate(-1522.788 -2669.336)" fill="#77323d"/>
      </g>
    </g>
    <g id="Group_130" data-name="Group 130" transform="translate(567.672 533.514)">
      <g id="Group_129" data-name="Group 129">
        <path id="Path_346" data-name="Path 346" d="M1502.609,2685.249c-3.065,0-6.1-1.057-6.877-1.754a.73.73,0,0,1-.17-.228c-3.144-6.554-1.728-25.031-.207-29.945a.733.733,0,0,1,1.4.434c-1.5,4.83-2.742,22.557.058,28.727,1.048.717,6.139,2.081,9.139.659,1.552-1.348,2.415-4.3,3.327-7.426.986-3.376,2.1-7.2,4.367-9.875a.733.733,0,1,1,1.118.948c-2.062,2.434-3.087,5.944-4.079,9.339s-1.925,6.59-3.863,8.2a.73.73,0,0,1-.142.092A9.222,9.222,0,0,1,1502.609,2685.249Z" transform="translate(-1493.682 -2652.806)" fill="#650000"/>
      </g>
    </g>
    <g id="Group_131" data-name="Group 131" transform="translate(538.241 494.465)">
      <path id="Path_347" data-name="Path 347" d="M880.486,1786.766c-17.906,1.9-37.383-17.787-42.961-13.938-3.441,2.374-7.828,10.147-7.422,11.747,1.229,4.845,11.038,11.163,19.277,13.486a59.19,59.19,0,0,0,20.676,2.2" transform="translate(-830.078 -1772.328)" fill="#b17e4f"/>
    </g>
    <g id="Group_133" data-name="Group 133" transform="translate(538.242 494.465)">
      <g id="Group_132" data-name="Group 132" transform="translate(0)">
        <path id="Path_348" data-name="Path 348" d="M880.49,1786.778l-6.087,7.874-4.343,5.617a59.188,59.188,0,0,1-20.675-2.2c-8.239-2.322-18.048-8.639-19.277-13.484-.406-1.6,3.98-9.373,7.421-11.748a3.445,3.445,0,0,1,2.358-.472C847.424,1773.1,864.577,1788.462,880.49,1786.778Z" transform="translate(-830.081 -1772.339)" fill="#804959"/>
      </g>
    </g>
    <g id="Group_134" data-name="Group 134" transform="translate(567.627 503.818)">
      <path id="Path_349" data-name="Path 349" d="M1513.686,1988.3l-3.32,4.294c-8-1.862-14.437-5.331-17.7-9.38C1499.278,1986.424,1506.605,1989.047,1513.686,1988.3Z" transform="translate(-1492.663 -1983.213)" fill="#804959"/>
    </g>
    <g id="Group_135" data-name="Group 135" transform="translate(538.242 494.465)" opacity="0.3">
      <path id="Path_350" data-name="Path 350" d="M874.4,1794.652l-4.343,5.617a59.188,59.188,0,0,1-20.675-2.2c-8.239-2.322-18.048-8.639-19.277-13.484-.406-1.6,3.98-9.373,7.421-11.748a3.445,3.445,0,0,1,2.358-.472c1.989,3.121,2,7.706.172,11.864-2.227,5.06,3.7,8.813,10.569,10.447,9.545,2.27,16.684-.378,20.419-2.73A32.358,32.358,0,0,1,874.4,1794.652Z" transform="translate(-830.081 -1772.339)" fill="#650000"/>
    </g>
    <g id="Group_136" data-name="Group 136" transform="translate(537.512 493.726)">
      <path id="Path_351" data-name="Path 351" d="M850.481,1785.237a63.571,63.571,0,0,1-17-2.395c-8.253-2.327-18.47-8.813-19.788-14.011-.374-1.474,1.705-5.074,2.352-6.142a22.158,22.158,0,0,1,5.364-6.388c2.8-1.928,7.761.8,14.635,4.567,8.36,4.586,18.764,10.295,28.665,9.246a.733.733,0,1,1,.154,1.458c-10.357,1.1-20.985-4.733-29.525-9.418-5.928-3.252-11.046-6.06-13.1-4.646-3.533,2.438-7.361,9.868-7.127,10.964,1.077,4.245,10.2,10.543,18.765,12.959a59.063,59.063,0,0,0,20.394,2.176.733.733,0,0,1,.167,1.456A37.533,37.533,0,0,1,850.481,1785.237Z" transform="translate(-813.643 -1755.666)" fill="#650000"/>
    </g>
    <g id="Group_137" data-name="Group 137" transform="translate(581.096 508.903)">
      <path id="Path_352" data-name="Path 352" d="M1817.583,2104.421a48.976,48.976,0,0,1-10.778.017,40.474,40.474,0,0,1-10.444-2.484,19.081,19.081,0,0,0,1.722-4.079s1.171.458,9.09.965,10.261,2.174,10.261,2.174A30.244,30.244,0,0,0,1817.583,2104.421Z" transform="translate(-1796.361 -2097.876)" fill="#f9d3b7"/>
    </g>
    <g id="Group_138" data-name="Group 138" transform="translate(579.464 506.712)">
      <path id="Path_353" data-name="Path 353" d="M1784.647,2056.866a46.438,46.438,0,0,1-13.012.356,40.533,40.533,0,0,1-12.076-3.15,15.125,15.125,0,0,1,12.887-5.569C1779.547,2048.958,1783.18,2054.071,1784.647,2056.866Z" transform="translate(-1759.559 -2048.468)" fill="#ff9343"/>
    </g>
    <g id="Group_139" data-name="Group 139" transform="translate(611.716 506.602)">
      <path id="Path_354" data-name="Path 354" d="M2486.763,2045.987" transform="translate(-2486.763 -2045.987)" fill="#ffad40"/>
    </g>
    <g id="Group_140" data-name="Group 140" transform="translate(569.496 506.712)">
      <path id="Path_355" data-name="Path 355" d="M1570.66,2058.681c1.385,7.756,3.946,12.973,4.175,19.655a16.446,16.446,0,0,1-1.853,8.658l-8.041,5.7a26.584,26.584,0,0,1-21.191-1.623l-7.076-6.845a14.02,14.02,0,0,1-1.746-8.878c.826-5.956,3.989-12.866,8.594-19.5a15.3,15.3,0,0,1,14.131-7.326C1567.471,2049.147,1570.66,2058.681,1570.66,2058.681Z" transform="translate(-1534.798 -2048.484)" fill="#ffad40"/>
    </g>
    <g id="Group_142" data-name="Group 142" transform="translate(569.496 506.712)">
      <g id="Group_141" data-name="Group 141">
        <path id="Path_356" data-name="Path 356" d="M1574.8,2080.367a15.025,15.025,0,0,1-1.823,6.613l-8.041,5.7a26.579,26.579,0,0,1-21.19-1.622l-7.076-6.845a14.013,14.013,0,0,1-1.745-8.879c.826-5.954,3.989-12.865,8.593-19.5a15.3,15.3,0,0,1,14.13-7.326c9.818.628,13.007,10.161,13.007,10.161,1.385,7.757,3.945,12.975,4.175,19.656C1574.857,2079,1574.847,2079.686,1574.8,2080.367Z" transform="translate(-1534.796 -2048.47)" fill="#804959"/>
      </g>
    </g>
    <g id="Group_143" data-name="Group 143" transform="translate(580.041 506.705)">
      <path id="Path_357" data-name="Path 357" d="M1796.608,2055.9a54.694,54.694,0,0,1-24.045-2.62c1.055-2.753,6.115-5.3,12.311-4.91C1791.316,2048.781,1795.906,2052.939,1796.608,2055.9Z" transform="translate(-1772.563 -2048.329)" fill="#804959"/>
    </g>
    <g id="Group_144" data-name="Group 144" transform="translate(576.622 542.76)">
      <path id="Path_358" data-name="Path 358" d="M1721.444,2862.745c-1.175,1.656-4.542,4.491-13.574,4.317-5.26-.1-9.852-2.15-12.391-5.8a22.367,22.367,0,0,0,13.057,4.049A28.268,28.268,0,0,0,1721.444,2862.745Z" transform="translate(-1695.479 -2861.267)" fill="#e2b28a"/>
    </g>
    <g id="Group_145" data-name="Group 145" transform="translate(569.496 533.571)">
      <path id="Path_359" data-name="Path 359" d="M1574.8,2659.134a15.025,15.025,0,0,1-1.823,6.613l-3.031,2.644-5.01,3.052a26.579,26.579,0,0,1-21.19-1.622l-3.3-2.942-3.778-3.9a14.014,14.014,0,0,1-1.745-8.879c2.065,5.681,8.1,13.052,20.052,13.237,12.426.193,18.187-5.763,19.821-8.2A0,0,0,0,1,1574.8,2659.134Z" transform="translate(-1534.796 -2654.097)" fill="#77323d"/>
    </g>
    <g id="Group_146" data-name="Group 146" transform="translate(568.754 513.709)">
      <path id="Path_360" data-name="Path 360" d="M1520.371,2235.159a12.592,12.592,0,0,1-2.072-9.549c.079-.561.256-1.369.377-1.932a42.721,42.721,0,0,1,4.359-10.807,60.827,60.827,0,0,1,4.2-6.486.375.375,0,0,1,.615.427,75.6,75.6,0,0,0-3.823,6.59,50.957,50.957,0,0,0-2.966,6.965,26.856,26.856,0,0,0-1.493,7.28,16.734,16.734,0,0,0,1.452,7.145.377.377,0,0,1-.652.368Z" transform="translate(-1518.079 -2206.233)" fill="#650000"/>
    </g>
    <g id="Group_147" data-name="Group 147" transform="translate(578.1 548.935)">
      <path id="Path_361" data-name="Path 361" d="M1750.476,3002.854a23.359,23.359,0,0,1-21.5-1.646.376.376,0,0,1,.366-.653,30.574,30.574,0,0,0,5.048,1.757,32.11,32.11,0,0,0,10.573.817,29.811,29.811,0,0,0,5.257-.976.376.376,0,0,1,.26.7Z" transform="translate(-1728.806 -3000.521)" fill="#650000"/>
    </g>
    <g id="Group_148" data-name="Group 148" transform="translate(604.985 516.548)">
      <path id="Path_362" data-name="Path 362" d="M2335.73,2270.559c1.177,5.968,3.651,11.638,4.353,17.711a27.334,27.334,0,0,1,.187,3.736,13.034,13.034,0,0,1-2.265,7.124.377.377,0,0,1-.641-.387,22.182,22.182,0,0,0,1.35-10.335,67.719,67.719,0,0,0-2.221-10.56,72.051,72.051,0,0,1-1.5-7.158.374.374,0,0,1,.737-.131Z" transform="translate(-2334.99 -2270.264)" fill="#650000"/>
    </g>
    <g id="Group_149" data-name="Group 149" transform="translate(594.362 460.516)">
      <path id="Path_363" data-name="Path 363" d="M2095.482,1006.865" transform="translate(-2095.482 -1006.865)" fill="#f44a4a"/>
    </g>
    <g id="Group_150" data-name="Group 150" transform="translate(628.768 477.918)">
      <path id="Path_364" data-name="Path 364" d="M2871.524,1404.434a7.169,7.169,0,0,1,7.7-5.149c5.964.519,8.141,6.542,7.08,10.839-1.116,4.514-3.727,6.741-7.4,7.549a16.586,16.586,0,0,1-7.66-.384" transform="translate(-2871.242 -1399.248)" fill="#ffca9f"/>
    </g>
    <g id="Group_151" data-name="Group 151" transform="translate(628.768 486.145)">
      <path id="Path_365" data-name="Path 365" d="M2886.306,1587.381c-1.116,4.515-3.727,6.742-7.4,7.55a16.6,16.6,0,0,1-7.661-.386l.061-2.752a17.687,17.687,0,0,0,7.441.174,9.88,9.88,0,0,0,7.811-7.234A9.252,9.252,0,0,1,2886.306,1587.381Z" transform="translate(-2871.241 -1584.733)" fill="#f4b68c"/>
    </g>
    <path id="Path_366" data-name="Path 366" d="M2878.4,1516.645a6.993,6.993,0,0,1-.317.961,5,5,0,0,1-3.927,3.116,10.115,10.115,0,0,1-4.414-.232l.125-6.979a4.036,4.036,0,0,1,4.423-2.774,4.471,4.471,0,0,1,3.074,1.5A5,5,0,0,1,2878.4,1516.645Z" transform="translate(-2241.041 -1027.854)" fill="#f29f8f"/>
    <g id="Group_152" data-name="Group 152" transform="translate(628.701 482.862)">
      <path id="Path_367" data-name="Path 367" d="M2878.083,1517.606a5,5,0,0,1-3.927,3.116,10.115,10.115,0,0,1-4.414-.232l.125-6.979a4.036,4.036,0,0,1,4.423-2.774,4.471,4.471,0,0,1,3.074,1.5s-3.846,1.7-3.695,4.461C2873.81,1519.275,2876.264,1518.527,2878.083,1517.606Z" transform="translate(-2869.742 -1510.716)" fill="#f28475"/>
    </g>
    <g id="Group_153" data-name="Group 153" transform="translate(627.952 482.115)">
      <path id="Path_368" data-name="Path 368" d="M2856.4,1505.516a11.266,11.266,0,0,1-3.024-.417.748.748,0,0,1,.44-1.431,9.448,9.448,0,0,0,4.047.213,4.377,4.377,0,0,0,3.668-3.53,4.258,4.258,0,0,0-.643-3.43,3.694,3.694,0,0,0-2.809-1.544,3.245,3.245,0,0,0-3.638,2.23.748.748,0,0,1-1.443-.4,4.77,4.77,0,0,1,5.21-3.322,5.15,5.15,0,0,1,3.9,2.17,5.792,5.792,0,0,1,.871,4.668,5.876,5.876,0,0,1-4.821,4.625A8.917,8.917,0,0,1,2856.4,1505.516Z" transform="translate(-2852.844 -1493.861)" fill="#650000"/>
    </g>
    <g id="Group_154" data-name="Group 154" transform="translate(628.019 477.17)">
      <path id="Path_369" data-name="Path 369" d="M2859.879,1402.586a17.865,17.865,0,0,1-5-.718.749.749,0,1,1,.458-1.425,15.952,15.952,0,0,0,7.271.366c3.686-.81,5.859-3.033,6.838-7a8.942,8.942,0,0,0-1.319-7.067,6.793,6.793,0,0,0-5.1-2.846,6.351,6.351,0,0,0-6.914,4.593.749.749,0,0,1-1.448-.38,7.969,7.969,0,0,1,8.492-5.7,8.249,8.249,0,0,1,6.187,3.467,10.355,10.355,0,0,1,1.554,8.3c-1.116,4.518-3.724,7.167-7.97,8.1A14.271,14.271,0,0,1,2859.879,1402.586Z" transform="translate(-2854.36 -1382.368)" fill="#650000"/>
    </g>
    <g id="Group_161" data-name="Group 161" transform="translate(551.911 468.396)">
      <g id="Group_155" data-name="Group 155" transform="translate(0.749 0.749)">
        <path id="Path_370" data-name="Path 370" d="M1170.767,1207.936a7.169,7.169,0,0,0-6.63-6.473c-5.958-.583-9.2,4.94-8.945,9.358.27,4.642,2.429,7.309,5.9,8.777a16.587,16.587,0,0,0,7.6,1.025" transform="translate(-1155.178 -1201.42)" fill="#ffca9f"/>
      </g>
      <g id="Group_156" data-name="Group 156" transform="translate(0.749 7.501)">
        <path id="Path_371" data-name="Path 371" d="M1155.191,1356.311c.27,4.643,2.428,7.311,5.9,8.778a16.6,16.6,0,0,0,7.6,1.024l.445-2.717a17.681,17.681,0,0,1-7.347-1.192,9.88,9.88,0,0,1-6.353-8.542A9.255,9.255,0,0,0,1155.191,1356.311Z" transform="translate(-1155.176 -1353.663)" fill="#f4b68c"/>
      </g>
      <g id="Group_157" data-name="Group 157" transform="translate(7.117 6.253)">
        <path id="Path_372" data-name="Path 372" d="M1298.764,1330.61a7.025,7.025,0,0,0,.136,1,5,5,0,0,0,3.29,3.783,10.115,10.115,0,0,0,4.382.58l1.156-6.884a4.036,4.036,0,0,0-3.84-3.537,4.47,4.47,0,0,0-3.3.914A5,5,0,0,0,1298.764,1330.61Z" transform="translate(-1298.754 -1325.53)" fill="#f29f8f"/>
      </g>
      <g id="Group_158" data-name="Group 158" transform="translate(7.262 6.253)">
        <path id="Path_373" data-name="Path 373" d="M1302.042,1331.613a5,5,0,0,0,3.29,3.783,10.115,10.115,0,0,0,4.382.58l1.156-6.884a4.036,4.036,0,0,0-3.84-3.537,4.47,4.47,0,0,0-3.3.914s3.47,2.373,2.815,5.062C1305.938,1334.037,1303.662,1332.851,1302.042,1331.613Z" transform="translate(-1302.042 -1325.53)" fill="#f28475"/>
      </g>
      <g id="Group_159" data-name="Group 159" transform="translate(6.368 5.505)">
        <path id="Path_374" data-name="Path 374" d="M1289.558,1320.648a10.4,10.4,0,0,1-3.79-.675,5.876,5.876,0,0,1-3.893-5.429,5.793,5.793,0,0,1,1.712-4.43,5.155,5.155,0,0,1,4.231-1.419,4.771,4.771,0,0,1,4.514,4.22.748.748,0,0,1-1.491.128,3.246,3.246,0,0,0-3.168-2.858,3.7,3.7,0,0,0-3.043,1,4.258,4.258,0,0,0-1.261,3.255,4.378,4.378,0,0,0,2.959,4.142,9.464,9.464,0,0,0,4.019.532.748.748,0,0,1,.17,1.487A9.074,9.074,0,0,1,1289.558,1320.648Z" transform="translate(-1281.864 -1308.665)" fill="#650000"/>
      </g>
      <g id="Group_160" data-name="Group 160" transform="translate(0 0)">
        <path id="Path_375" data-name="Path 375" d="M1150.918,1205.321a16.442,16.442,0,0,1-6.261-1.167c-4-1.7-6.082-4.777-6.352-9.423a10.357,10.357,0,0,1,3.048-7.872,8.247,8.247,0,0,1,6.717-2.275,7.969,7.969,0,0,1,7.3,7.164.749.749,0,0,1-1.493.11,6.388,6.388,0,0,0-5.956-5.784,6.792,6.792,0,0,0-5.534,1.864,8.943,8.943,0,0,0-2.591,6.706c.237,4.077,1.966,6.66,5.441,8.131a15.951,15.951,0,0,0,7.215.972.748.748,0,0,1,.189,1.485A14.767,14.767,0,0,1,1150.918,1205.321Z" transform="translate(-1138.29 -1184.537)" fill="#650000"/>
      </g>
    </g>
    <g id="Group_162" data-name="Group 162" transform="translate(608.736 445.048)">
      <path id="Path_376" data-name="Path 376" d="M2420.922,658.489l-1.341-.392C2420.031,658.22,2420.478,658.348,2420.922,658.489Z" transform="translate(-2419.581 -658.097)" fill="#b17e4f"/>
    </g>
    <g id="Group_164" data-name="Group 164" transform="translate(562.12 435.909)">
      <g id="Group_163" data-name="Group 163" transform="translate(0 0)">
        <path id="Path_377" data-name="Path 377" d="M1437.125,518.014c-1.489,3.79-7.139,7.873-15.86,8.888l-39.323-4.628c-8.247-3.011-12.795-8.295-13.363-12.327-.422-3,.6-6.925,4.9-8.288-2-3.94-2.572-9.443-2.1-14.477a29.193,29.193,0,0,1,13.361-21.618,32.709,32.709,0,0,1,6.507-3.241,15.47,15.47,0,0,1,1.941-7.328.677.677,0,0,1,1.049-.166c.929.855,1.865,2.26,2.517,2.709a.677.677,0,0,0,1.012-.3,26.969,26.969,0,0,1,2.582-4.938.678.678,0,0,1,1.1.039,18.621,18.621,0,0,0,6.718,5.9,45.2,45.2,0,0,0,6.869,2.8h0a40.832,40.832,0,0,1,16.674,10.056,29.194,29.194,0,0,1,7.977,24.13c-.713,5-2.551,10.224-5.407,13.593C1438.153,511.139,1438.233,515.19,1437.125,518.014Z" transform="translate(-1368.492 -452.035)" fill="#804959"/>
      </g>
    </g>
    <g id="Group_165" data-name="Group 165" transform="translate(584.842 445.906)" opacity="0.35">
      <path id="Path_378" data-name="Path 378" d="M1880.877,677.439c-.007.1-.013.193-.019.291l-.033.012C1880.842,677.639,1880.858,677.539,1880.877,677.439Z" transform="translate(-1880.826 -677.439)" fill="#fff"/>
    </g>
    <g id="Group_166" data-name="Group 166" transform="translate(627.909 488.047)" opacity="0.35">
      <path id="Path_379" data-name="Path 379" d="M2852.149,1632.45c-.091-.06-.183-.118-.279-.175a19.969,19.969,0,0,0,2.858-4.64A22.383,22.383,0,0,1,2852.149,1632.45Z" transform="translate(-2851.87 -1627.635)" fill="#fff"/>
    </g>
    <g id="Group_167" data-name="Group 167" transform="translate(562.12 488.865)">
      <path id="Path_380" data-name="Path 380" d="M1437.117,1659.087c-1.489,3.79-7.139,7.873-15.86,8.888l-39.323-4.628c-8.247-3.011-12.795-8.295-13.363-12.327a8.3,8.3,0,0,1,.778-4.956c.928,3.937,5.422,8.838,13.243,11.693l39.323,4.628c8.27-.961,13.779-4.685,15.6-8.3A8.3,8.3,0,0,1,1437.117,1659.087Z" transform="translate(-1368.483 -1646.064)" fill="#804959"/>
    </g>
    <g id="Group_168" data-name="Group 168" transform="translate(561.373 435.161)">
      <path id="Path_381" data-name="Path 381" d="M1405.172,511.524a.75.75,0,0,1-.087-.005l-39.323-4.628a.743.743,0,0,1-.169-.04c-8.758-3.2-13.265-8.8-13.848-12.925-.432-3.072.556-7.1,4.617-8.812a29.306,29.306,0,0,1-1.822-14.127,30.093,30.093,0,0,1,13.693-22.173,33.147,33.147,0,0,1,6.2-3.144,15.706,15.706,0,0,1,2-7.166,1.426,1.426,0,0,1,2.209-.351,16.209,16.209,0,0,1,1.344,1.475,9.908,9.908,0,0,0,1.02,1.115,27.3,27.3,0,0,1,2.648-5.028,1.426,1.426,0,0,1,2.315.082,17.841,17.841,0,0,0,6.432,5.647,42.171,42.171,0,0,0,6.275,2.588l.477.163.015,0c6.7,2.2,13.047,6.032,16.988,10.256a30.094,30.094,0,0,1,8.171,24.746,29.3,29.3,0,0,1-5.052,13.318c3.553,2.609,3.578,6.755,2.446,9.643h0c-1.525,3.882-7.209,8.28-16.47,9.357A.761.761,0,0,1,1405.172,511.524Zm-39.148-6.109,39.148,4.607c8.548-1.017,13.85-5.066,15.163-8.408,1.038-2.646.917-6.212-2.534-8.284a.748.748,0,0,1-.186-1.126c2.563-3.023,4.472-7.839,5.237-13.214a28.6,28.6,0,0,0-7.784-23.513c-3.773-4.044-9.88-7.724-16.34-9.849l-.031-.01-.5-.17a43.446,43.446,0,0,1-6.467-2.668,19.485,19.485,0,0,1-6.948-6.071,27.483,27.483,0,0,0-2.422,4.684,1.425,1.425,0,0,1-2.128.637,8.271,8.271,0,0,1-1.391-1.44,16.031,16.031,0,0,0-1.144-1.273,14.734,14.734,0,0,0-1.8,6.922.748.748,0,0,1-.484.66,32.137,32.137,0,0,0-6.357,3.164,28.6,28.6,0,0,0-13.03,21.064c-.5,5.406.235,10.534,2.026,14.069a.749.749,0,0,1-.442,1.052c-3.838,1.214-4.783,4.655-4.388,7.47C1353.728,497.272,1357.946,502.441,1366.024,505.414Z" transform="translate(-1351.651 -435.161)" fill="#650000"/>
    </g>
    <g id="Group_169" data-name="Group 169" transform="translate(564.794 458.53)">
      <path id="Path_382" data-name="Path 382" d="M1492.2,1004.731c-.3,2.893-3.349,6.737-7.126,8.066-2.112.722-11.3,3.881-26.2,2.127s-23.106-6.96-24.992-8.152c-3.365-2.169-5.44-6.616-5.059-9.5.64-4.856,5.921-5.466,5.921-5.466s-4.777-13.43,3.466-23.2c.064-.079.133-.159.2-.236,11.2-12.864,26.327-3.275,25.39,4.686.937-7.962,17.879-13.776,25.784,1.336.048.09.1.185.141.276,5.75,11.417-2.014,23.371-2.014,23.371S1492.7,999.859,1492.2,1004.731Z" transform="translate(-1428.776 -962.081)" fill="#ffca9f"/>
    </g>
    <g id="Group_170" data-name="Group 170" transform="translate(564.794 492.325)">
      <path id="Path_383" data-name="Path 383" d="M1492.2,1732.946c-.3,2.893-3.349,6.737-7.126,8.066-2.112.722-11.3,3.881-26.2,2.127s-23.106-6.96-24.992-8.152c-3.365-2.169-5.44-6.616-5.059-9.5a6.127,6.127,0,0,1,.347-1.4c.325,2.756,6.392,13.352,30.047,16.136s32.016-6.115,32.972-8.719A6.125,6.125,0,0,1,1492.2,1732.946Z" transform="translate(-1428.777 -1724.092)" fill="#f4b68c"/>
    </g>
    <g id="Group_171" data-name="Group 171" transform="translate(564.048 457.758)">
      <path id="Path_384" data-name="Path 384" d="M1451.549,999.552a75.921,75.921,0,0,1-8.825-.528c-6.856-.807-16.808-2.893-25.287-8.251l-.023-.015c-3.719-2.4-5.792-7.223-5.4-10.227a7.225,7.225,0,0,1,5.7-5.949,31.274,31.274,0,0,1-1.141-7.329,22.707,22.707,0,0,1,5-15.773c.063-.077.138-.166.213-.25,5.4-6.2,12.563-8.157,19.168-5.234a12.982,12.982,0,0,1,7.152,7.272,12.983,12.983,0,0,1,8.645-5.413c7.1-1.309,13.62,2.259,17.433,9.547.05.093.1.2.151.3,2.431,4.825,2.846,10.532,1.2,16.492a31.273,31.273,0,0,1-2.811,6.864,7.226,7.226,0,0,1,4.161,7.109h0c-.312,3.014-3.449,7.227-7.622,8.695l-.026.009A55.156,55.156,0,0,1,1451.549,999.552Zm-16.711-53.379c-4.261,0-8.475,2.082-11.925,6.045q-.1.111-.186.218c-7.87,9.327-3.387,22.346-3.341,22.477a.749.749,0,0,1-.619.994c-.19.023-4.71.615-5.265,4.821-.33,2.5,1.529,6.714,4.723,8.773,8.253,5.216,17.972,7.249,24.674,8.038s16.627,1.067,25.852-2.085c3.6-1.266,6.385-4.936,6.644-7.441h0c.437-4.219-3.822-5.845-4-5.912a.75.75,0,0,1-.37-1.11c.075-.116,7.458-11.738,1.974-22.626-.045-.094-.088-.178-.132-.259-3.5-6.682-9.415-9.961-15.838-8.775-4.56.841-8.153,3.858-8.543,7.173a.748.748,0,0,1-1.492-.087.721.721,0,0,1,.005-.088c.39-3.315-2.4-7.084-6.645-8.961A13.559,13.559,0,0,0,1434.837,946.174Z" transform="translate(-1411.97 -944.666)" fill="#650000"/>
    </g>
    <g id="Group_172" data-name="Group 172" transform="translate(597.884 493.548)">
      <path id="Path_385" data-name="Path 385" d="M2175.163,1753.344a.234.234,0,0,1-.272-.284c.116-.5.421-1.345,1.164-1.4a.781.781,0,0,1,.907,1.029c-.127.284-.39.446-.883.505C2175.776,1753.233,2175.421,1753.293,2175.163,1753.344Z" transform="translate(-2174.885 -1751.659)" fill="#650000"/>
    </g>
    <g id="Group_173" data-name="Group 173" transform="translate(593.845 493.041)">
      <path id="Path_386" data-name="Path 386" d="M2085.477,1742.084a.234.234,0,0,0,.318-.232c-.027-.511-.18-1.4-.9-1.578a.781.781,0,0,0-1.072.855c.076.3.306.507.781.651C2084.893,1741.868,2085.231,1741.99,2085.477,1742.084Z" transform="translate(-2083.808 -1740.231)" fill="#650000"/>
    </g>
    <g id="Group_174" data-name="Group 174" transform="translate(585.823 498.714)">
      <path id="Path_387" data-name="Path 387" d="M1902.932,1868.13" transform="translate(-1902.932 -1868.13)" fill="#58e6ed"/>
    </g>
    <g id="Group_175" data-name="Group 175" transform="translate(593.215 498.379)">
      <path id="Path_388" data-name="Path 388" d="M2070.073,1861.109c1.833,1.537,4.946,1.849,6.434-.289a.562.562,0,0,1,.942.611,4.536,4.536,0,0,1-6.083,1.424,5.2,5.2,0,0,1-1.692-1.351.282.282,0,0,1,.4-.394Z" transform="translate(-2069.611 -1860.582)" fill="#650000"/>
    </g>
    <g id="Group_176" data-name="Group 176" transform="translate(599.154 497.666)">
      <path id="Path_389" data-name="Path 389" d="M2203.763,1844.542a1.937,1.937,0,0,1,2.108,2.616.3.3,0,0,1-.53.023c-.134-.241-.2-.5-.317-.728a3.33,3.33,0,0,0-1.376-1.392.29.29,0,0,1,.116-.518Z" transform="translate(-2203.528 -1844.511)" fill="#650000"/>
    </g>
    <g id="Group_185" data-name="Group 185" transform="translate(531.464 491.116)">
      <path id="Path_390" data-name="Path 390" d="M688.584,1714.7a6.128,6.128,0,0,1-4.639-.416s-6.292-.18-6.458-2.9c-.112-1.823-2.42-14.909,10.283-14.547,3.248.092,6.119,3.343,6.236,7.529C694.148,1709.454,691.265,1713.906,688.584,1714.7Z" transform="translate(-677.254 -1696.827)" fill="#f9d6b6"/>
    </g>
    <g id="Group_186" data-name="Group 186" transform="translate(531.463 491.116)">
      <path id="Path_391" data-name="Path 391" d="M677.481,1711.382c.079,1.293,1.541,2.012,3.053,2.411a17.121,17.121,0,0,0,3.406.492,6.137,6.137,0,0,0,4.64.415c2.064-.613,4.25-3.4,5.079-6.973a13.237,13.237,0,0,0,.342-3.364c-.116-4.185-2.988-7.436-6.235-7.529C675.062,1696.473,677.371,1709.559,677.481,1711.382Z" transform="translate(-677.249 -1696.828)" fill="#ffca9f"/>
    </g>
    <g id="Group_187" data-name="Group 187" transform="translate(534.749 498.001)">
      <path id="Path_392" data-name="Path 392" d="M751.326,1862.15a17.126,17.126,0,0,0,3.406.492,6.137,6.137,0,0,0,4.64.415c2.064-.612,4.25-3.4,5.079-6.973-.307.57-2.012,3.513-3.767,2.07-.952-.782-.82-2.455-1.834-4.918-.761-1.842-2.777-.95-2.777-.95Z" transform="translate(-751.326 -1852.07)" fill="#f4b68c"/>
    </g>
    <g id="Group_188" data-name="Group 188" transform="translate(530.711 490.367)">
      <path id="Path_393" data-name="Path 393" d="M670.521,1699.59a6.794,6.794,0,0,1-2.989-.7c-1.226-.054-6.823-.474-7.014-3.6-.007-.123-.026-.3-.049-.523-.228-2.231-.832-8.156,2.611-11.861,1.922-2.068,4.776-3.065,8.49-2.957s6.839,3.81,6.963,8.257c.155,5.523-2.956,10.185-5.958,11.074h0A7.209,7.209,0,0,1,670.521,1699.59Zm1.841-1.023h0Zm-1.32-17.124c-3.023,0-5.331.836-6.866,2.487-2.982,3.208-2.427,8.644-2.218,10.691.025.249.045.446.054.583.094,1.536,3.9,2.145,5.733,2.2a.751.751,0,0,1,.323.084,5.371,5.371,0,0,0,4.082.362h0c2.414-.715,5.016-4.971,4.886-9.6-.1-3.667-2.574-6.719-5.509-6.8Q671.282,1681.443,671.042,1681.443Z" transform="translate(-660.279 -1679.946)" fill="#650000"/>
    </g>
    <g id="Group_204" data-name="Group 204" transform="translate(524.698 479.098)">
      <g id="Group_189" data-name="Group 189" transform="translate(0.562 0.562)">
        <path id="Path_394" data-name="Path 394" d="M541.93,1441.063a6.618,6.618,0,0,1,2.664-2.437,1.332,1.332,0,0,1,.337-.088,1.226,1.226,0,0,1,1.315.855l.842,2.72s4.059-.691,6.329,2.5c1.772,2.49,3.641,7.323,1.954,13.986a20.86,20.86,0,0,1-.875,2.7,15.929,15.929,0,0,1-5.29,6.958,16.429,16.429,0,0,1-6.818,2.886,7.616,7.616,0,0,1-3.784-.087,1.654,1.654,0,0,1-.394-3.064,18.035,18.035,0,0,0,2.727-2.727c.179-.215.357-.44.539-.676a19.114,19.114,0,0,0,3.484-7.139q.093-.4.167-.818c.565-3.2-.385-8.972-.369-11.287a3.611,3.611,0,0,1,.055-.7s-2.15-1.5-2.583-1.819A1.234,1.234,0,0,1,541.93,1441.063Z" transform="translate(-537.362 -1438.53)" fill="#fdd907"/>
      </g>
      <g id="Group_190" data-name="Group 190" transform="translate(0.562 0.562)">
        <path id="Path_395" data-name="Path 395" d="M538.224,1467.971a1.655,1.655,0,0,0,.393,3.064,7.643,7.643,0,0,0,3.784.088,16.433,16.433,0,0,0,6.818-2.888,15.922,15.922,0,0,0,5.291-6.958,20.6,20.6,0,0,0,.874-2.7,22.031,22.031,0,0,0,.537-2.921,15.952,15.952,0,0,0-2.491-11.065c-2.27-3.192-6.328-2.5-6.328-2.5l-.844-2.719a1.227,1.227,0,0,0-1.314-.856,1.437,1.437,0,0,0-.337.089,6.284,6.284,0,0,0-1.79,1.314,6.96,6.96,0,0,0-.569.67,4.949,4.949,0,0,0-.3.452,1.235,1.235,0,0,0,.3,1.765c.434.316,2.583,1.818,2.583,1.818a3.749,3.749,0,0,0-.054.7c-.016,2.313.934,8.087.369,11.287-.049.277-.1.549-.166.818a19.141,19.141,0,0,1-3.483,7.138c-.182.238-.36.463-.539.677A17.974,17.974,0,0,1,538.224,1467.971Z" transform="translate(-537.377 -1438.511)" fill="#fdd907"/>
      </g>
      <g id="Group_191" data-name="Group 191" transform="translate(0.562 0.562)">
        <path id="Path_396" data-name="Path 396" d="M538.224,1467.971a1.655,1.655,0,0,0,.393,3.064,7.643,7.643,0,0,0,3.784.088,16.433,16.433,0,0,0,6.818-2.888,15.922,15.922,0,0,0,5.291-6.958c.027-.068.056-.136.081-.205a20.557,20.557,0,0,0,.794-2.49,22.031,22.031,0,0,0,.537-2.921,17.9,17.9,0,0,0-.256-5.818,14.261,14.261,0,0,0-2.235-5.247c-2.27-3.192-6.328-2.5-6.328-2.5l-.844-2.719a1.227,1.227,0,0,0-1.314-.856,1.437,1.437,0,0,0-.337.089,6.284,6.284,0,0,0-1.79,1.314,6.96,6.96,0,0,0-.569.67,4.949,4.949,0,0,0-.3.452,1.235,1.235,0,0,0,.3,1.765c.434.316,2.583,1.818,2.583,1.818a3.749,3.749,0,0,0-.054.7c-.007.864.123,2.21.256,3.724a33.387,33.387,0,0,1,.113,7.563c-.049.277-.1.549-.166.818a18.926,18.926,0,0,1-3.187,6.74c-.1.135-.2.269-.3.4-.182.238-.36.463-.539.677A17.974,17.974,0,0,1,538.224,1467.971Z" transform="translate(-537.377 -1438.511)" fill="#fdd907"/>
      </g>
      <g id="Group_192" data-name="Group 192" transform="translate(0.562 0.562)">
        <path id="Path_397" data-name="Path 397" d="M555.918,1455.674a21.831,21.831,0,0,1-.537,2.921,20.461,20.461,0,0,1-.793,2.489c-.024.069-.054.139-.08.206a15.927,15.927,0,0,1-5.29,6.959,13.519,13.519,0,0,1-1.156.775,16.754,16.754,0,0,1-5.662,2.113,7.623,7.623,0,0,1-3.784-.088,1.655,1.655,0,0,1-.393-3.065,14.413,14.413,0,0,0,1.532-1.394c.371-.38.777-.827,1.194-1.332.18-.213.357-.438.539-.677.1-.129.2-.262.3-.4a18.968,18.968,0,0,0,3.187-6.74c.06-.269.116-.541.167-.818a33.466,33.466,0,0,0-.114-7.563c-.133-1.514-.262-2.859-.256-3.724a3.775,3.775,0,0,1,.054-.7s-2.148-1.5-2.582-1.817a1.234,1.234,0,0,1-.3-1.765,4.853,4.853,0,0,1,.3-.453,7.232,7.232,0,0,1,.569-.67,6.282,6.282,0,0,1,1.791-1.313,1.425,1.425,0,0,1,.337-.088,1.227,1.227,0,0,1,1.314.855l.844,2.719s4.059-.691,6.328,2.5a14.26,14.26,0,0,1,2.234,5.247A17.887,17.887,0,0,1,555.918,1455.674Z" transform="translate(-537.373 -1438.525)" fill="#fce15e"/>
      </g>
      <g id="Group_193" data-name="Group 193" transform="translate(0.562 28.627)">
        <path id="Path_398" data-name="Path 398" d="M548.061,2073.744a16.752,16.752,0,0,1-5.662,2.113,7.62,7.62,0,0,1-3.784-.088,1.655,1.655,0,0,1-.393-3.065,14.422,14.422,0,0,0,1.532-1.394c.307.836,1.2,1.967,3.514.558-.052.082-1.446,2.27.515,2.517A9.1,9.1,0,0,0,548.061,2073.744Z" transform="translate(-537.373 -2071.31)" fill="#cd9c41"/>
      </g>
      <g id="Group_194" data-name="Group 194" transform="translate(4.973 11.099)">
        <path id="Path_399" data-name="Path 399" d="M636.827,1691.226c.941-.091,1.983-.15,3.108-.152,2.912,0,4.578-1.58,4-4.443.608.047,1.207-.9,1.306-1.673a12.985,12.985,0,0,0,2.194.62c.04,1.027,1.141,1.935,2.2,2.551a20.55,20.55,0,0,0,.794-2.49,22.021,22.021,0,0,0,.537-2.921,17.9,17.9,0,0,0-.256-5.818c-2.466-.18-6.646.041-10.638-.794a33.379,33.379,0,0,1,.113,7.562c-.049.277-.1.549-.166.818A18.924,18.924,0,0,1,636.827,1691.226Z" transform="translate(-636.827 -1676.106)" fill="#cd9c41"/>
      </g>
      <g id="Group_195" data-name="Group 195" transform="translate(7.243 12.062)" opacity="0.5">
        <path id="Path_400" data-name="Path 400" d="M688.04,1709.434a17.621,17.621,0,0,0,1.636-11.25c-.063-.3.318-.5.48-.244.762,1.185,1.675,3.558.63,7.411a11.246,11.246,0,0,1-2.324,4.389A.261.261,0,0,1,688.04,1709.434Z" transform="translate(-688.005 -1697.823)" fill="#fff"/>
      </g>
      <g id="Group_196" data-name="Group 196" transform="translate(5.188 2.846)" opacity="0.7">
        <path id="Path_401" data-name="Path 401" d="M642.205,1490.015s-.565.684-.519,1c.074.505,1.073-.2,1.073-.2s-.664.186-.741-.1A1.422,1.422,0,0,1,642.205,1490.015Z" transform="translate(-641.684 -1490.015)" fill="#fff"/>
      </g>
      <g id="Group_197" data-name="Group 197" transform="translate(16.195 22.722)">
        <path id="Path_402" data-name="Path 402" d="M889.867,1938.169v0l1.122.454Z" transform="translate(-889.867 -1938.167)" fill="#f4dd7a"/>
      </g>
      <g id="Group_198" data-name="Group 198" transform="translate(4.54 26.905)">
        <path id="Path_403" data-name="Path 403" d="M627.061,2032.588c0-.009.011-.041.046-.092C627.082,2032.563,627.065,2032.6,627.061,2032.588Z" transform="translate(-627.061 -2032.496)" fill="#f4dd7a"/>
      </g>
      <g id="Group_199" data-name="Group 199" transform="translate(7.544 6.973)">
        <path id="Path_404" data-name="Path 404" d="M694.8,1583.068s0,0,0,0S694.8,1583.063,694.8,1583.068Z" transform="translate(-694.799 -1583.062)" fill="#f9b00d"/>
      </g>
      <g id="Group_200" data-name="Group 200">
        <path id="Path_405" data-name="Path 405" d="M528.322,1459.774a5.533,5.533,0,0,1-2.032-.32,2.228,2.228,0,0,1-1.577-1.764,2.58,2.58,0,0,1,1.057-2.269c.055-.041,5.516-4.3,6.7-11.01a35.286,35.286,0,0,0-.156-7.84,28.822,28.822,0,0,1-.205-3.78c-.6-.419-1.972-1.381-2.315-1.631a1.764,1.764,0,0,1-.463-2.481A7.174,7.174,0,0,1,532.25,1426l.027-.012a1.779,1.779,0,0,1,1.432.018,1.808,1.808,0,0,1,.965,1.088l.709,2.29a7.13,7.13,0,0,1,6.388,2.783c1.263,1.776,3.991,6.739,2.041,14.449a17.317,17.317,0,0,1-6.374,9.965A16.593,16.593,0,0,1,528.322,1459.774Zm4.4-32.752a6.13,6.13,0,0,0-2.4,2.2c-.328.616-.11.849.142,1.033.423.309,2.553,1.8,2.575,1.813l.307.214-.08.366a21.4,21.4,0,0,0,.174,3.825,35.874,35.874,0,0,1,.144,8.135,20.785,20.785,0,0,1-7.132,11.713,1.493,1.493,0,0,0-.618,1.226c.046.357.344.649.886.869,1.65.67,6.5-.078,10.054-2.731a16.223,16.223,0,0,0,5.957-9.341c1.836-7.256-.694-11.874-1.867-13.523-2.032-2.857-5.627-2.3-5.78-2.273l-.483.08-.988-3.187a.69.69,0,0,0-.363-.411A.667.667,0,0,0,532.718,1427.021Z" transform="translate(-524.698 -1425.847)" fill="#650000"/>
      </g>
      <g id="Group_201" data-name="Group 201" transform="translate(10.655 6.64)">
        <path id="Path_406" data-name="Path 406" d="M765.293,1575.658a18.807,18.807,0,0,1,1.66,15.012.23.23,0,0,1-.445-.113,25.642,25.642,0,0,0-.293-11.169,20.3,20.3,0,0,0-1.247-3.536.19.19,0,0,1,.325-.194Z" transform="translate(-764.943 -1575.569)" fill="#650000"/>
      </g>
      <g id="Group_202" data-name="Group 202" transform="translate(4.467 26.092)">
        <path id="Path_407" data-name="Path 407" d="M630.369,2014.457a12.192,12.192,0,0,1-3.247,3.539,8.826,8.826,0,0,1-1.376.838.233.233,0,0,1-.262-.377c.378-.37.767-.715,1.154-1.061l1.156-1.037c.774-.7,1.509-1.426,2.279-2.138a.192.192,0,0,1,.3.236Z" transform="translate(-625.413 -2014.17)" fill="#650000"/>
      </g>
      <g id="Group_203" data-name="Group 203" transform="translate(5.747 0.003)">
        <path id="Path_408" data-name="Path 408" d="M654.334,1429.984c.9-.413,2.493-1.954,2.562-2.959-.012-.037-.026-.021-.017,0s-.011.019-.053.012a1.656,1.656,0,0,0-.2,0,.565.565,0,1,1-.038-1.129c.637.027,1.321.416,1.258,1.14a2.163,2.163,0,0,1-.556,1.136,7.153,7.153,0,0,1-1.621,1.386,4.688,4.688,0,0,1-1.272.594.094.094,0,0,1-.06-.177Z" transform="translate(-654.276 -1425.906)" fill="#650000"/>
      </g>
    </g>
    <g id="Group_205" data-name="Group 205" transform="translate(537.979 490.932)">
      <path id="Path_409" data-name="Path 409" d="M833.935,1704.26c1.459-5.85-.366-10.583-4.087-11.457-3.947-.927-6.67,3.909-5.348,5.4,1.444,1.632,4.17.29,4.278.341s-1,3.4.884,4.881Z" transform="translate(-824.162 -1692.686)" fill="#f9d6b6"/>
    </g>
    <g id="Group_206" data-name="Group 206" transform="translate(537.979 490.932)">
      <path id="Path_410" data-name="Path 410" d="M824.5,1698.2c1.444,1.63,4.171.288,4.278.341s-1,3.395.885,4.88l4.273.832c1.459-5.848-.365-10.582-4.087-11.456-2.939-.69-5.2,1.814-5.616,3.756A1.865,1.865,0,0,0,824.5,1698.2Z" transform="translate(-824.162 -1692.682)" fill="#ffca9f"/>
    </g>
    <g id="Group_207" data-name="Group 207" transform="translate(537.979 494.805)">
      <path id="Path_411" data-name="Path 411" d="M824.5,1781.647c1.444,1.631,4.171.288,4.278.341s-1,3.395.885,4.88a12.242,12.242,0,0,1-.063-3.634c.316-1.254,1.3-2.329.775-2.933s-2.065,1.542-4.783.89a1.976,1.976,0,0,1-1.36-1.192A1.865,1.865,0,0,0,824.5,1781.647Z" transform="translate(-824.162 -1779.999)" fill="#e2b28a"/>
    </g>
    <g id="Group_208" data-name="Group 208" transform="translate(537.98 490.932)">
      <path id="Path_412" data-name="Path 412" d="M824.343,1697.911c.108-1.84,2.324-4.636,5.275-3.943,3.35.788,5.039,4.965,3.9,10.2l.448.087c1.459-5.848-.365-10.582-4.087-11.456S823.521,1696.169,824.343,1697.911Z" transform="translate(-824.192 -1692.678)" fill="#fff"/>
    </g>
    <g id="Group_209" data-name="Group 209" transform="translate(537.221 490.181)">
      <path id="Path_413" data-name="Path 413" d="M816.884,1687.885a12.257,12.257,0,0,0-.218-7.51c-.842-2.184-3.265-3.836-5.531-2.836A4.642,4.642,0,0,0,808.8,1680a2.055,2.055,0,0,0-.138,1.394c.774,1.094,2.351.636,3.464.264a.779.779,0,0,1,1.083.782c-.222,1.539-.427,3.1.361,4.5a.393.393,0,0,1-.125.562c-.419.217-1.053-.414-1.3-.73-.971-1.28-.736-2.962-.434-4.393l0-.032c0-.006,0,.034,0,.039a.7.7,0,0,0,.05.25c-.026-.02.167.331.342.379a.708.708,0,0,0,.479.07l-.016.005a6.333,6.333,0,0,1-3.076.429,2.605,2.605,0,0,1-2.384-2.888,5.91,5.91,0,0,1,3.426-4.463c3.065-1.356,6.368.7,7.511,3.622a13.669,13.669,0,0,1,.292,8.457.749.749,0,0,1-1.452-.362Z" transform="translate(-807.08 -1675.74)" fill="#650000"/>
    </g>
    <g id="Group_210" data-name="Group 210" transform="translate(530.838 489.728)">
      <path id="Path_414" data-name="Path 414" d="M664.992,1665.635c1.815-.536,5.31,1.083,4.388,3.693-.666,1.884-2.617,1.207-4.617,1.442C662.633,1670.274,662.523,1666.364,664.992,1665.635Z" transform="translate(-663.153 -1665.533)" fill="#f9d6b6"/>
    </g>
    <g id="Group_211" data-name="Group 211" transform="translate(530.837 489.729)">
      <path id="Path_415" data-name="Path 415" d="M663.138,1668.233a2.377,2.377,0,0,0,1.61,2.542c2-.234,3.951.443,4.617-1.44a2.534,2.534,0,0,0,.151-.793c.052-2.135-2.915-3.38-4.539-2.9A2.672,2.672,0,0,0,663.138,1668.233Z" transform="translate(-663.137 -1665.539)" fill="#f9d6b6"/>
    </g>
    <g id="Group_212" data-name="Group 212" transform="translate(530.838 489.729)">
      <path id="Path_416" data-name="Path 416" d="M663.144,1668.233a1.048,1.048,0,0,0,0,.108,2.5,2.5,0,0,1,1.668-1.648c1.574-.464,4.41.691,4.533,2.706a.435.435,0,0,0,.026-.065,2.532,2.532,0,0,0,.15-.793c.052-2.135-2.915-3.38-4.539-2.9A2.672,2.672,0,0,0,663.144,1668.233Z" transform="translate(-663.142 -1665.539)" fill="#fff"/>
    </g>
    <g id="Group_213" data-name="Group 213" transform="translate(530.837 492.423)">
      <path id="Path_417" data-name="Path 417" d="M663.138,1726.283a2.377,2.377,0,0,0,1.61,2.542c2-.234,3.951.443,4.617-1.44a2.534,2.534,0,0,0,.151-.794,3.361,3.361,0,0,1-1.684.81,6.846,6.846,0,0,1-3.651-.357A2.468,2.468,0,0,1,663.138,1726.283Z" transform="translate(-663.137 -1726.283)" fill="#e2b28a"/>
    </g>
    <g id="Group_214" data-name="Group 214" transform="translate(530.09 488.978)">
      <path id="Path_418" data-name="Path 418" d="M648.636,1655.354a.75.75,0,0,1-.17-.02,3.054,3.054,0,0,1-2.187-3.045,3.473,3.473,0,0,1,2.375-3.536h0a4.966,4.966,0,0,1,4.583,1.379,3.086,3.086,0,0,1,.723,3.282c-.668,1.89-2.322,1.886-3.781,1.882a12.372,12.372,0,0,0-1.455.054A.767.767,0,0,1,648.636,1655.354Zm1-5.237a2,2,0,0,0-.562.072h0a1.98,1.98,0,0,0-1.3,2.057,1.681,1.681,0,0,0,.924,1.6,14.721,14.721,0,0,1,1.482-.048c1.524.006,2.078-.068,2.366-.883a1.612,1.612,0,0,0-.4-1.753A3.683,3.683,0,0,0,649.64,1650.117Zm-.774-.646h0Z" transform="translate(-646.278 -1648.618)" fill="#650000"/>
    </g>
    <g id="Group_215" data-name="Group 215" transform="translate(530.258 494.755)">
      <path id="Path_419" data-name="Path 419" d="M651.831,1778.986c1.789-.562,5.235.95,4.44,3.515-.625,2.017-3.664,1.265-4.85,1.361C649.823,1783.148,649.253,1779.8,651.831,1778.986Z" transform="translate(-650.06 -1778.869)" fill="#f9d6b6"/>
    </g>
    <g id="Group_216" data-name="Group 216" transform="translate(530.257 494.754)">
      <path id="Path_420" data-name="Path 420" d="M650.171,1782.232a2.461,2.461,0,0,0,1.247,1.62c1.185-.094,4.223.656,4.849-1.361a2.507,2.507,0,0,0,.117-.8c-.057-2.068-2.964-3.213-4.556-2.712A2.529,2.529,0,0,0,650.171,1782.232Z" transform="translate(-650.056 -1778.859)" fill="#f9d6b6"/>
    </g>
    <g id="Group_217" data-name="Group 217" transform="translate(530.258 494.754)">
      <path id="Path_421" data-name="Path 421" d="M650.075,1781.445a2.4,2.4,0,0,1,1.609-1.471c1.577-.5,4.446.624,4.553,2.656.017-.044.033-.091.048-.14a2.507,2.507,0,0,0,.117-.8c-.057-2.068-2.964-3.213-4.556-2.712A2.423,2.423,0,0,0,650.075,1781.445Z" transform="translate(-650.074 -1778.859)" fill="#fff"/>
    </g>
    <g id="Group_218" data-name="Group 218" transform="translate(530.373 497.583)">
      <path id="Path_422" data-name="Path 422" d="M652.654,1843.188a2.461,2.461,0,0,0,1.247,1.62c1.185-.094,4.223.656,4.849-1.361a2.507,2.507,0,0,0,.117-.8,2.082,2.082,0,0,1-1.251.741C656.1,1843.6,654.3,1842.4,652.654,1843.188Z" transform="translate(-652.654 -1842.644)" fill="#e2b28a"/>
    </g>
    <g id="Group_219" data-name="Group 219" transform="translate(529.509 494.006)">
      <path id="Path_423" data-name="Path 423" d="M637.318,1768.531c-.383,0-.747-.021-1.066-.039a7.985,7.985,0,0,0-.9-.023.756.756,0,0,1-.365-.063,3.482,3.482,0,0,1-1.8-3.359,3.159,3.159,0,0,1,2.289-2.914h0a4.951,4.951,0,0,1,4.552,1.253,3.064,3.064,0,0,1,.827,3.2C640.336,1768.257,638.708,1768.531,637.318,1768.531Zm-1.773-1.565c.237,0,.5.015.792.032,1.517.087,2.8.082,3.087-.857a1.59,1.59,0,0,0-.453-1.694,3.485,3.485,0,0,0-3.047-.885h0a1.651,1.651,0,0,0-1.244,1.573,2.151,2.151,0,0,0,.781,1.832Zm.155-4.118h0Z" transform="translate(-633.18 -1761.982)" fill="#650000"/>
    </g>
    <g id="Group_220" data-name="Group 220" transform="translate(529.632 499.101)">
      <path id="Path_424" data-name="Path 424" d="M638.066,1876.886c1.708-.211,4.067,1.152,3.427,3.364-.59,2.04-3.409,1.967-4.664,1.589C635.463,1881.429,635.551,1877.2,638.066,1876.886Z" transform="translate(-635.949 -1876.865)" fill="#f9d6b6"/>
    </g>
    <g id="Group_221" data-name="Group 221" transform="translate(529.632 499.1)">
      <path id="Path_425" data-name="Path 425" d="M635.961,1879.793c-.028.973.291,1.854.877,2.03,1.256.377,4.074.449,4.664-1.59.019-.066.035-.13.047-.193.455-2.1-1.817-3.376-3.474-3.171C636.641,1877.046,636,1878.5,635.961,1879.793Z" transform="translate(-635.959 -1876.847)" fill="#f9d6b6"/>
    </g>
    <g id="Group_222" data-name="Group 222" transform="translate(529.633 499.1)">
      <path id="Path_426" data-name="Path 426" d="M635.978,1879.793v.006a2.383,2.383,0,0,1,1.937-1.829c1.469-.18,3.419.8,3.529,2.486a2.255,2.255,0,0,0,.078-.223c.018-.066.035-.13.047-.193.455-2.1-1.817-3.376-3.474-3.171C636.658,1877.046,636.013,1878.5,635.978,1879.793Z" transform="translate(-635.977 -1876.847)" fill="#fff"/>
    </g>
    <g id="Group_223" data-name="Group 223" transform="translate(529.632 502.046)">
      <path id="Path_427" data-name="Path 427" d="M635.961,1943.266c-.028.973.291,1.854.877,2.03,1.256.377,4.074.449,4.664-1.59.019-.066.035-.13.047-.193A7.2,7.2,0,0,1,635.961,1943.266Z" transform="translate(-635.959 -1943.266)" fill="#e2b28a"/>
    </g>
    <g id="Group_224" data-name="Group 224" transform="translate(528.883 498.351)">
      <path id="Path_428" data-name="Path 428" d="M622.242,1866.645a6.258,6.258,0,0,1-1.751-.24c-1.114-.335-1.5-1.772-1.4-3.048a3.373,3.373,0,0,1,2.756-3.365h0a4.255,4.255,0,0,1,3.627,1.393,3.061,3.061,0,0,1,.611,2.922,2.968,2.968,0,0,1-1.473,1.809A5.05,5.05,0,0,1,622.242,1866.645Zm-.207-5.168c-1.229.152-1.422,1.7-1.448,2.006-.079.931.23,1.457.335,1.488a4.443,4.443,0,0,0,2.979-.17,1.464,1.464,0,0,0,.75-.911,1.567,1.567,0,0,0-.312-1.534,2.782,2.782,0,0,0-2.3-.878Z" transform="translate(-619.078 -1859.964)" fill="#650000"/>
    </g>
    <g id="Group_225" data-name="Group 225" transform="translate(540.348 494.957)">
      <path id="Path_429" data-name="Path 429" d="M881.569,1783.986a5.105,5.105,0,0,1-2.085,2,6.335,6.335,0,0,1-.9.4.753.753,0,0,1-.514-1.416c.3-.081.613-.087.911-.187a4.265,4.265,0,0,0,1.387-.673,3.685,3.685,0,0,0,.6-.547.374.374,0,0,1,.608.424Z" transform="translate(-877.569 -1783.437)" fill="#650000"/>
    </g>
    <g id="Group_228" data-name="Group 228" transform="translate(618.228 537.568)">
      <g id="Group_226" data-name="Group 226" transform="translate(0.45 0.55)">
        <path id="Path_430" data-name="Path 430" d="M2643.763,2759.053s-.269-1.985,1.09-2.446" transform="translate(-2643.742 -2756.607)" fill="#f9d6b6"/>
      </g>
      <g id="Group_227" data-name="Group 227" transform="translate(0)">
        <path id="Path_431" data-name="Path 431" d="M2633.8,2747.235c-.465-1.091-.1-2.7,1.188-3.016a.558.558,0,0,1,.46.993,1.732,1.732,0,0,0-.708.737,6.3,6.3,0,0,0-.394,1.249.29.29,0,0,1-.546.037Z" transform="translate(-2633.604 -2744.201)" fill="#650000"/>
      </g>
    </g>
    <g id="Group_229" data-name="Group 229" transform="translate(574.515 514.31)">
      <path id="Path_432" data-name="Path 432" d="M1676.585,2248.712c-.3.893-2.615,5.546-14.116,5.326-8.437-.161-15.155-5.338-14.447-14.07.365-4.5,2.873-10.7,5.68-14.7a12.732,12.732,0,0,1,11.378-5.433c5.485.422,8.193,3.778,9.763,7.628C1675.928,2230.123,1678.812,2242.141,1676.585,2248.712Z" transform="translate(-1647.97 -2219.792)" fill="#ffca9f"/>
    </g>
    <g id="Group_230" data-name="Group 230" transform="translate(576.622 542.76)">
      <path id="Path_433" data-name="Path 433" d="M1721.444,2862.745c-1.175,1.656-4.542,4.491-13.574,4.317-5.26-.1-9.852-2.15-12.391-5.8a22.367,22.367,0,0,0,13.057,4.049A28.268,28.268,0,0,0,1721.444,2862.745Z" transform="translate(-1695.479 -2861.267)" fill="#f4b68c"/>
    </g>
    <g id="Group_237" data-name="Group 237" transform="translate(532.715 445.368)">
      <g id="Group_231" data-name="Group 231" transform="translate(0.749 0.749)">
        <path id="Path_434" data-name="Path 434" d="M740.264,696.893a9.648,9.648,0,1,0-3.231,3.228l4.472,1Z" transform="translate(-722.35 -682.195)" fill="#fff"/>
      </g>
      <g id="Group_233" data-name="Group 233" transform="translate(0.727 0.538)" opacity="0.5">
        <g id="Group_232" data-name="Group 232">
          <path id="Path_435" data-name="Path 435" d="M730.752,679.55a9.665,9.665,0,0,1,10.438,7.6,9.773,9.773,0,0,0-.049-1.031,9.664,9.664,0,0,0-19.227,1.974,9.783,9.783,0,0,0,.161,1.024A9.665,9.665,0,0,1,730.752,679.55Z" transform="translate(-721.862 -677.439)" fill="#fff"/>
        </g>
      </g>
      <g id="Group_234" data-name="Group 234" transform="translate(0 0)">
        <path id="Path_436" data-name="Path 436" d="M715.87,686.144a10.413,10.413,0,1,1,10.366-11.477,10.313,10.313,0,0,1-1.3,6.2L726.443,686l-5.423-1.216a10.317,10.317,0,0,1-4.079,1.3A10.511,10.511,0,0,1,715.87,686.144Zm.015-19.329a8.951,8.951,0,0,0-.917.047,8.916,8.916,0,1,0,5.539,16.49l.258-.157,3.527.791-.977-3.33.173-.283a8.833,8.833,0,0,0,1.259-5.553A8.929,8.929,0,0,0,715.885,666.815Z" transform="translate(-705.464 -665.318)" fill="#650000"/>
      </g>
      <g id="Group_235" data-name="Group 235" transform="translate(0.749 9.903)" opacity="0.3">
        <path id="Path_437" data-name="Path 437" d="M740.326,894.05a11.164,11.164,0,0,1-17.954-5.451,9.669,9.669,0,0,0,10.639,10.124,9.624,9.624,0,0,0,4.03-1.353l4.472,1-1.241-4.231C740.291,894.112,740.308,894.081,740.326,894.05Z" transform="translate(-722.359 -888.599)" fill="#650000"/>
      </g>
      <g id="Group_236" data-name="Group 236" transform="translate(6.559 7.142)">
        <path id="Path_438" data-name="Path 438" d="M860.3,826.917h0a2.147,2.147,0,0,0-3.029.15l-.13.13-.13-.13a2.147,2.147,0,0,0-3.029-.15h0a2.142,2.142,0,0,0,0,3.029l.13.13,2.629,2.629a.565.565,0,0,0,.8,0l2.629-2.629.13-.13A2.142,2.142,0,0,0,860.3,826.917Z" transform="translate(-853.355 -826.36)" fill="#ff0068"/>
      </g>
    </g>
    <g id="Group_553" data-name="Group 553" transform="translate(579.046 472.012) rotate(8)">
      <g id="Group_471" data-name="Group 471" transform="translate(0 0.363)">
        <g id="Group_465" data-name="Group 465" transform="translate(1.31 1.31)">
          <path id="Path_585" data-name="Path 585" d="M5.523.012A4.4,4.4,0,0,0,1.9,1.539a8.318,8.318,0,0,0-1.9,5.892,9.429,9.429,0,0,0,3.554,7.36,4.946,4.946,0,0,0,2.472.925c3.188.239,5.658-3.083,5.517-7.42S8.711.251,5.523.012Z" transform="translate(0.242 0.241)" fill="#fff"/>
          <path id="Path_586" data-name="Path 586" d="M6.6,16.213c-.115,0-.229,0-.345-.013a5.153,5.153,0,0,1-2.593-.969A9.73,9.73,0,0,1,.006,7.681,8.572,8.572,0,0,1,1.967,1.617,4.66,4.66,0,0,1,5.782.012h0c3.3.248,6.106,4.069,6.249,8.518a8.331,8.331,0,0,1-2.22,6.332A4.58,4.58,0,0,1,6.6,16.213ZM5.44.483A4.163,4.163,0,0,0,2.323,1.944,8.09,8.09,0,0,0,.489,7.665a9.236,9.236,0,0,0,3.45,7.17,4.677,4.677,0,0,0,2.352.883,4.08,4.08,0,0,0,3.186-1.2,7.963,7.963,0,0,0,2.072-5.968C11.413,4.336,8.81.724,5.746.494Q5.592.483,5.44.483Z" fill="#11116d"/>
        </g>
        <g id="Group_466" data-name="Group 466" transform="translate(2.82 1.551)">
          <path id="Path_587" data-name="Path 587" d="M4.254.012A4.4,4.4,0,0,0,.635,1.539,6.831,6.831,0,0,0,.3,2.386,2.1,2.1,0,0,0,.5,4.445c.423.389.96.133,1.455.169a2.154,2.154,0,0,1,1.6,2.152C3.565,7.822,2.817,8.7,2,8.577,1.434,8.493.8,8.021.345,8.4a1.77,1.77,0,0,0-.33,1.439A8.423,8.423,0,0,0,2.18,14.675c.036.04.074.079.111.116a4.946,4.946,0,0,0,2.472.925c3.188.239,5.658-3.083,5.517-7.42S7.442.251,4.254.012Z" fill="#9acbd6"/>
        </g>
        <g id="Group_467" data-name="Group 467" transform="translate(3.25 2.635)">
          <ellipse id="Ellipse_20" data-name="Ellipse 20" cx="4.679" cy="6.885" rx="4.679" ry="6.885" transform="translate(0 1.177) rotate(-7.228)" fill="#640005"/>
        </g>
        <g id="Group_469" data-name="Group 469" transform="translate(1.6 2.861)">
          <g id="Group_468" data-name="Group 468">
            <path id="Path_588" data-name="Path 588" d="M3.221,3.075c-.5-.036-1.032.22-1.455-.169a2.1,2.1,0,0,1-.2-2.059A6.79,6.79,0,0,1,1.9,0a8.317,8.317,0,0,0-1.9,5.892,9.427,9.427,0,0,0,3.553,7.36c-.037-.037-.075-.077-.111-.116A8.423,8.423,0,0,1,1.284,8.3a1.769,1.769,0,0,1,.33-1.439c.452-.382,1.089.091,1.656.174.815.119,1.563-.754,1.55-1.81A2.154,2.154,0,0,0,3.221,3.075Z" fill="#fff"/>
          </g>
        </g>
        <g id="Group_470" data-name="Group 470">
          <path id="Path_589" data-name="Path 589" d="M6.755,1.551q.158,0,.318.012C10.262,1.8,12.96,5.511,13.1,9.848c.137,4.19-2.164,7.432-5.194,7.432q-.16,0-.323-.012a4.947,4.947,0,0,1-2.473-.925,9.428,9.428,0,0,1-3.553-7.36,8.318,8.318,0,0,1,1.9-5.893,4.438,4.438,0,0,1,3.3-1.539M6.755,0A6,6,0,0,0,2.31,2.044a9.878,9.878,0,0,0-2.3,6.989,10.921,10.921,0,0,0,4.216,8.582,6.44,6.44,0,0,0,3.244,1.2c.146.011.293.017.438.017a5.988,5.988,0,0,0,4.307-1.9A9.78,9.78,0,0,0,14.65,9.8C14.483,4.614,11.206.317,7.19.016,7.044.005,6.9,0,6.755,0Z" fill="#640005"/>
        </g>
      </g>
      <g id="Group_478" data-name="Group 478" transform="translate(25.772 0)">
        <g id="Group_472" data-name="Group 472" transform="translate(1.309 1.31)">
          <path id="Path_590" data-name="Path 590" d="M5.8.022A4.4,4.4,0,0,1,9.458,1.451,8.318,8.318,0,0,1,11.515,7.29a9.428,9.428,0,0,1-3.353,7.453,4.944,4.944,0,0,1-2.446.992C2.536,16.061-.023,12.807,0,8.468S2.619.348,5.8.022Z" transform="translate(0.241 0.241)" fill="#fff"/>
          <path id="Path_591" data-name="Path 591" d="M5.516,16.241a4.593,4.593,0,0,1-3.125-1.264A8.332,8.332,0,0,1,0,8.708C.023,4.256,2.721.36,6.016.023h0a4.656,4.656,0,0,1,3.857,1.5A8.572,8.572,0,0,1,12,7.532a9.73,9.73,0,0,1-3.451,7.647,5.154,5.154,0,0,1-2.565,1.038A4.565,4.565,0,0,1,5.516,16.241ZM6.065.5C3.009.817.5,4.5.483,8.71A7.963,7.963,0,0,0,2.716,14.62a4.083,4.083,0,0,0,3.217,1.117,4.679,4.679,0,0,0,2.327-.946A9.238,9.238,0,0,0,11.515,7.53,8.089,8.089,0,0,0,9.526,1.86,4.178,4.178,0,0,0,6.065.5Z" fill="#11116d"/>
        </g>
        <g id="Group_473" data-name="Group 473" transform="translate(1.551 1.551)">
          <path id="Path_592" data-name="Path 592" d="M5.8.022A4.4,4.4,0,0,1,9.458,1.451a6.784,6.784,0,0,1,.362.837,2.1,2.1,0,0,1-.146,2.064c-.412.4-.956.158-1.449.208a2.154,2.154,0,0,0-1.54,2.2c.016,1.056.787,1.908,1.6,1.767.565-.1,1.189-.588,1.651-.219a1.769,1.769,0,0,1,.369,1.43A8.424,8.424,0,0,1,8.27,14.624c-.035.041-.071.081-.108.119a4.944,4.944,0,0,1-2.446.992C2.536,16.061-.023,12.807,0,8.468S2.619.348,5.8.022Z" fill="#9acbd6"/>
        </g>
        <g id="Group_474" data-name="Group 474" transform="translate(0.559 2.793)">
          <ellipse id="Ellipse_21" data-name="Ellipse 21" cx="6.885" cy="4.679" rx="6.885" ry="4.679" transform="matrix(0.099, -0.995, 0.995, 0.099, 0, 13.702)" fill="#640005"/>
        </g>
        <g id="Group_476" data-name="Group 476" transform="translate(8.18 2.774)">
          <g id="Group_475" data-name="Group 475">
            <path id="Path_593" data-name="Path 593" d="M1.54,3.11c.494-.05,1.038.192,1.45-.209A2.1,2.1,0,0,0,3.136.837,6.829,6.829,0,0,0,2.774,0,8.318,8.318,0,0,1,4.831,5.839a9.428,9.428,0,0,1-3.353,7.454c.036-.038.072-.079.107-.119A8.424,8.424,0,0,0,3.618,8.282a1.769,1.769,0,0,0-.368-1.43c-.463-.369-1.086.12-1.651.219C.787,7.213.016,6.36,0,5.3A2.154,2.154,0,0,1,1.54,3.11Z" fill="#fff"/>
          </g>
        </g>
        <g id="Group_477" data-name="Group 477">
          <path id="Path_594" data-name="Path 594" d="M7.783,1.551A4.451,4.451,0,0,1,11.009,3a8.317,8.317,0,0,1,2.057,5.839,9.43,9.43,0,0,1-3.352,7.454,4.948,4.948,0,0,1-2.446.992,4.317,4.317,0,0,1-.437.022c-2.975,0-5.3-3.151-5.279-7.29.022-4.34,2.619-8.12,5.8-8.446a4.317,4.317,0,0,1,.433-.022M7.783,0h0a5.854,5.854,0,0,0-.589.03C3.186.44.027,4.824,0,10.011a9.837,9.837,0,0,0,2.562,7,5.848,5.848,0,0,0,4.864,1.82,6.447,6.447,0,0,0,3.214-1.291,10.921,10.921,0,0,0,3.978-8.69,9.881,9.881,0,0,0-2.495-6.927A6.027,6.027,0,0,0,7.783,0Z" fill="#640005"/>
        </g>
      </g>
    </g>
  </g>
</svg>
